<svg width="218" height="109" viewBox="0 0 218 109" xmlns="http://www.w3.org/2000/svg" xmlns:xlink="http://www.w3.org/1999/xlink" xml:space="preserve" version="1.1"  baseProfile="full">
<line x1="1" y1="1" x2="217" y2="1" style="stroke:#ddd;stroke-width:2" />
<line x1="1" y1="1" x2="1" y2="108" style="stroke:#ddd;stroke-width:2" />
<line x1="1" y1="108" x2="217" y2="108" style="stroke:#ddd;stroke-width:2" />
<line x1="217" y1="1" x2="217" y2="108" style="stroke:#ddd;stroke-width:2" />
<line x1="109" y1="1" x2="109" y2="108" style="stroke:#ddd;stroke-width:2" />
<line x1="1" y1="54" x2="217" y2="54" style="stroke:#ddd;stroke-width:2;stroke-dasharray:3 3" />
<line x1="55" y1="1" x2="55" y2="108" style="stroke:#ddd;stroke-width:2;stroke-dasharray:3 3" />
<line x1="164" y1="1" x2="164" y2="108" style="stroke:#ddd;stroke-width:2;stroke-dasharray:3 3" />
<path d="M37.22,45c0.28,1.5,0.2,3.21-0.86,5.48c-4.23,9.02-11.48,20.4-24.1,32.02" class="active" style="fill:none;stroke:black;stroke-width:3" />
<circle cx="37.22" cy="45.0" r="5" stroke-width="0" fill="#34a83c" opacity="0.7" />
<path d="M146.22,45c0.28,1.5,0.2,3.21-0.86,5.48c-4.23,9.02-11.48,20.4-24.1,32.02" class="not active" style="fill:none;stroke:#999;stroke-width:3" />
<path d="M157.0,27.25c9.38,0.25,21.12,30,37.27,45.72c3.79,3.69,6.73,5.66,9.98,7.03" class="active" style="fill:none;stroke:black;stroke-width:3" />
<circle cx="157.0" cy="27.25" r="5" stroke-width="0" fill="#34a83c" opacity="0.7" />
</svg>