<svg xmlns="http://www.w3.org/2000/svg" width="109" height="109" viewBox="0 0 109 109"><g><path class="bg" xmlns="http://www.w3.org/2000/svg" fill="none" stroke="#6c757d" d="M54.5,0L54.5,109" stroke-width="0.5" stroke-dasharray="4,1.5"/><path class="bg" xmlns="http://www.w3.org/2000/svg" fill="none" stroke="#6c757d" d="M0,54.5L109,54.5" stroke-width="0.5" stroke-dasharray="4,1.5"/></g><g style="fill:none;stroke:#000000;stroke-width:3;stroke-linecap:round;stroke-linejoin:round;"><g><g><path d="M14,24.17c2.44,0.56,6.92,0.82,9.35,0.56c18.9-1.99,39.53-5.36,60.62-6.48c4.05-0.21,6.5,0.27,8.53,0.55"/>	</g><g><path d="M55.77,23.08c1.07,1.07,1.75,2.92,1.75,5.06c0,14.67,0,54.55,0,59.55c0,11.31-8.46,0.51-9.96-0.75"/>	</g></g></g><g style="font-size:8;fill:#808080"><text transform="matrix(1 0 0 1 7.50 25.63)">1</text><text transform="matrix(1 0 0 1 49.50 35.50)">2</text></g></svg>