<svg xmlns="http://www.w3.org/2000/svg" width="109" height="109" viewBox="0 0 109 109"><g><path class="bg" xmlns="http://www.w3.org/2000/svg" fill="none" stroke="#6c757d" d="M54.5,0L54.5,109" stroke-width="0.5" stroke-dasharray="4,1.5"/><path class="bg" xmlns="http://www.w3.org/2000/svg" fill="none" stroke="#6c757d" d="M0,54.5L109,54.5" stroke-width="0.5" stroke-dasharray="4,1.5"/></g><g style="fill:none;stroke:#000000;stroke-width:3;stroke-linecap:round;stroke-linejoin:round;"><g><g><path d="M18.5,23.7c2.46,0.54,6.98,0.73,9.44,0.54c19.44-1.49,39.69-4.12,56.57-4.73c4.1-0.15,6.57,0.26,8.62,0.53"/>	</g><g><path d="M60.25,24.88c0.13,1.08-0.07,2.6-0.76,4.09c-4.33,9.27-22.7,30.16-46.18,41.5"/>	</g><g><path d="M52.5,35.5c0.75,0.75,1.46,1.5,1.46,3.5c0,0.86,0.02,36.38,0.03,51.75c0,2.96,0,5.18,0,6.25"/>	</g><path d="M72.52,49.08c8.4,3.64,20.86,14.29,23.79,20.63"/></g></g><g style="font-size:8;fill:#808080"><text transform="matrix(1 0 0 1 12.50 25.50)">1</text><text transform="matrix(1 0 0 1 49.50 31.50)">2</text><text transform="matrix(1 0 0 1 46.50 56.50)">3</text><text transform="matrix(1 0 0 1 68.25 57.13)">4</text></g></svg>