<svg xmlns="http://www.w3.org/2000/svg" width="109" height="109" viewBox="0 0 109 109"><g><path class="bg" xmlns="http://www.w3.org/2000/svg" fill="none" stroke="#6c757d" d="M54.5,0L54.5,109" stroke-width="0.5" stroke-dasharray="4,1.5"/><path class="bg" xmlns="http://www.w3.org/2000/svg" fill="none" stroke="#6c757d" d="M0,54.5L109,54.5" stroke-width="0.5" stroke-dasharray="4,1.5"/></g><g style="fill:none;stroke:#000000;stroke-width:3;stroke-linecap:round;stroke-linejoin:round;"><g><g><path d="M21.88,21.64c3.04,1.11,6.87,0.73,10,0.4c10.7-1.16,35.17-3.56,47.87-3.96c2.85-0.09,5.72,0.06,8.53,0.67"/>	</g><g><g><path d="M21.43,43.31c0.71,0.79,1.34,2.44,1.44,3.88c0.38,5.27,1.1,25.35,1.44,36.17c0.12,3.7,0.19,6.31,0.19,6.88"/><path d="M23.48,45.54C36.12,44,70.12,40,83.62,39.1c4.01-0.27,6.38,1.9,6.2,6.9c-0.43,11.51-3.06,30.75-6.03,40.71c-2.23,7.49-4.79,4.04-7.47,0.32"/>		</g><g><path d="M51.81,22.04c1.26,1.26,1.59,2.59,1.7,4.47C54.62,45.62,50.5,63,32.25,72.75"/><path d="M56.42,52.83C62.88,56.62,71,63.38,75.14,69.78"/>		</g>	</g></g></g><g style="font-size:8;fill:#808080"><text transform="matrix(1 0 0 1 15.75 22.50)">1</text><text transform="matrix(1 0 0 1 15.50 53.50)">2</text><text transform="matrix(1 0 0 1 24.75 41.50)">3</text><text transform="matrix(1 0 0 1 45.50 30.50)">4</text><text transform="matrix(1 0 0 1 58.50 51.50)">5</text></g></svg>