<svg xmlns="http://www.w3.org/2000/svg" width="109" height="109" viewBox="0 0 109 109"><g><path class="bg" xmlns="http://www.w3.org/2000/svg" fill="none" stroke="#6c757d" d="M54.5,0L54.5,109" stroke-width="0.5" stroke-dasharray="4,1.5"/><path class="bg" xmlns="http://www.w3.org/2000/svg" fill="none" stroke="#6c757d" d="M0,54.5L109,54.5" stroke-width="0.5" stroke-dasharray="4,1.5"/></g><g style="fill:none;stroke:#000000;stroke-width:3;stroke-linecap:round;stroke-linejoin:round;"><g><g><path d="M23.25,22.95c3.12,0.68,6.55,0.52,9.63,0.22c10.04-0.99,30.3-3.66,43.12-4.47c3.06-0.19,5.99-0.3,9,0.34"/>	</g><g><path d="M19.75,41.9c1.11,1.11,1.68,2.69,1.75,4.24c0.48,10.52,1.1,31.64,1.37,42.11c0.08,3.2,0.13,5.4,0.13,6"/><path d="M21.75,45.35c10.5-1.1,61.11-6.07,63-6.15c5-0.21,7.88,2.04,7.5,5.52c-0.38,3.52-3,35.53-6.75,44.78c-2.32,5.73-5,4.5-8.5-1"/>	</g><g><path d="M53.04,23.75c0.98,0.98,1.66,2.85,1.66,3.75c0,2.88-0.08,40.4-0.19,46"/><path d="M39.06,58.5c0.61,0.45,1.31,2.35,1.22,3.25c-0.4,4-0.59,7.12-1.07,11.75c-0.34,3.25,0.39,3.77,3.21,3.25c7.45-1.38,14.45-2.5,27.91-4.25"/><path d="M71.53,54.25c1.11,1.11,1.64,2.62,1.47,4.25c-0.65,6.12-0.96,8.52-1.52,12.52c-0.19,1.39-0.42,2.98-0.7,4.98"/>	</g></g></g><g style="font-size:8;fill:#808080"><text transform="matrix(1 0 0 1 17.25 22.63)">1</text><text transform="matrix(1 0 0 1 13.50 52.63)">2</text><text transform="matrix(1 0 0 1 24.50 41.50)">3</text><text transform="matrix(1 0 0 1 46.50 33.13)">4</text><text transform="matrix(1 0 0 1 31.50 66.13)">5</text><text transform="matrix(1 0 0 1 70 51.5)">6</text></g></svg>