<svg xmlns="http://www.w3.org/2000/svg" width="109" height="109" viewBox="0 0 109 109"><g><path class="bg" xmlns="http://www.w3.org/2000/svg" fill="none" stroke="#6c757d" d="M54.5,0L54.5,109" stroke-width="0.5" stroke-dasharray="4,1.5"/><path class="bg" xmlns="http://www.w3.org/2000/svg" fill="none" stroke="#6c757d" d="M0,54.5L109,54.5" stroke-width="0.5" stroke-dasharray="4,1.5"/></g><g style="fill:none;stroke:#000000;stroke-width:3;stroke-linecap:round;stroke-linejoin:round;"><g><g><g><path d="M24.5,37.4c1.02,0.37,2.89,0.47,3.9,0.37c10.6-1.02,45.1-4.27,55.53-4.76c1.7-0.08,2.72,0.18,3.57,0.36"/>		</g><g><g><g><path d="M16.25,63.7c1.52,0.54,4.3,0.58,5.82,0.54C33,64,72.76,59.92,87.69,59.01C92,58.75,93.75,59,95.5,59.54"/>				</g>			</g><g><path d="M38.98,19.25c0.76,0.97,1.27,1.94,1.52,2.91c0.25,0.97,0.25,30.53,0.25,32.71c0,21.56-7.85,36.1-19.5,42.88"/>			</g><g><path d="M67.37,11.75c1.09,0.5,1.74,2.25,1.96,3.25c0.22,1,0,78.75-0.22,85"/>			</g>		</g>	</g><g><path d="M50,43.5c3,1.76,7.75,7.26,8.5,10"/>	</g></g></g><g style="font-size:8;fill:#808080"><text transform="matrix(1 0 0 1 17.50 38.50)">1</text><text transform="matrix(1 0 0 1 8.50 64.50)">2</text><text transform="matrix(1 0 0 1 30.50 19.50)">3</text><text transform="matrix(1 0 0 1 57.50 12.50)">4</text><text transform="matrix(1 0 0 1 45.50 51.50)">5</text></g></svg>