<svg xmlns="http://www.w3.org/2000/svg" width="109" height="109" viewBox="0 0 109 109"><g><path class="bg" xmlns="http://www.w3.org/2000/svg" fill="none" stroke="#6c757d" d="M54.5,0L54.5,109" stroke-width="0.5" stroke-dasharray="4,1.5"/><path class="bg" xmlns="http://www.w3.org/2000/svg" fill="none" stroke="#6c757d" d="M0,54.5L109,54.5" stroke-width="0.5" stroke-dasharray="4,1.5"/></g><g style="fill:none;stroke:#000000;stroke-width:3;stroke-linecap:round;stroke-linejoin:round;"><g><g><path d="M40.05,11c0.07,0.92,0.06,2.17-0.38,3.19C34.5,26,27.12,37.62,14.25,49.5"/><path d="M36.75,27.5c3.25,0.12,5.44-0.26,8.14-0.65c8.9-1.27,20.49-2.85,31.24-4.91c3.11-0.6,6.22-0.63,9.38-0.44"/>	</g><g><path d="M30,49.09c2.78,1.06,5.42,0.99,8.38,0.5c7.21-1.21,20.46-3.44,25.38-4.13c3.82-0.54,4.96,1.14,1.9,3.73c-10.56,8.95-22.2,22.63-27.38,29.55c-11.9,15.89,8.85,18.8,26.35,18.8c26,0,27.5-0.66,28.14-8.89"/>	</g></g></g><g style="font-size:8;fill:#808080"><text transform="matrix(1 0 0 1 30.50 14.13)">1</text><text transform="matrix(1 0 0 1 44.00 23.50)">2</text><text transform="matrix(1 0 0 1 29.50 46.50)">3</text></g></svg>