<svg xmlns="http://www.w3.org/2000/svg" width="109" height="109" viewBox="0 0 109 109"><g><path class="bg" xmlns="http://www.w3.org/2000/svg" fill="none" stroke="#6c757d" d="M54.5,0L54.5,109" stroke-width="0.5" stroke-dasharray="4,1.5"/><path class="bg" xmlns="http://www.w3.org/2000/svg" fill="none" stroke="#6c757d" d="M0,54.5L109,54.5" stroke-width="0.5" stroke-dasharray="4,1.5"/></g><g style="fill:none;stroke:#000000;stroke-width:3;stroke-linecap:round;stroke-linejoin:round;"><g><path d="M23.78,21.29c3.6,0.9,6.76,0.85,10.36,0.3c10.48-1.6,38.27-5.5,40.43-5.84c3.93-0.62,4.68,1.86,2.07,4.08c-2.6,2.22-14.89,12.42-21.68,17.44"/><g><path d="M51.94,38.24C61.5,42.5,64.75,70.25,57.89,90c-3.24,9.32-8.64,2.5-10.39,0.5"/>	</g></g></g><g style="font-size:8;fill:#808080"><text transform="matrix(1 0 0 1 21.50 17.25)">1</text><text transform="matrix(1 0 0 1 44.25 41.25)">2</text></g></svg>