<svg xmlns="http://www.w3.org/2000/svg" width="109" height="109" viewBox="0 0 109 109"><g><path class="bg" xmlns="http://www.w3.org/2000/svg" fill="none" stroke="#6c757d" d="M54.5,0L54.5,109" stroke-width="0.5" stroke-dasharray="4,1.5"/><path class="bg" xmlns="http://www.w3.org/2000/svg" fill="none" stroke="#6c757d" d="M0,54.5L109,54.5" stroke-width="0.5" stroke-dasharray="4,1.5"/></g><g style="fill:none;stroke:#000000;stroke-width:3;stroke-linecap:round;stroke-linejoin:round;"><g><g><g><path d="M48.25,9.75c0.06,0.54-0.03,1.44-0.37,2.18C45.5,17,37.89,26.84,26.25,33"/>		</g><path d="M43.5,20.01c5.46-0.79,20.94-3.2,23.19-3.77c2.44-0.61,3.81,1.64,2.06,3.76C64.47,25.19,59.5,30.88,54,38"/>	</g><g><g><path d="M28.92,41.83c2.21,0.54,3.89,0.79,6.14,0.53c13.73-1.54,28.49-4.53,38.93-6.14c3.89-0.6,5.26,1.03,4.44,4.38c-1.84,7.51-3.43,13.27-5.98,24.8"/><path d="M15,57.25c3.25,0.62,6.2,0.54,9.5,0.1c19.41-2.56,45.11-5.53,61.63-7.03c3.5-0.32,6.65-0.41,10.12,0.18"/><path d="M29.13,70.44c2.52,0.22,4.86,0.37,7.37,0.03C46.5,69.12,60,67.38,72.01,66.37c1.96-0.16,3.19-0.12,4.66-0.02"/>		</g><g><path d="M53.52,43.33c0.98,0.92,1.76,2.42,1.76,4.52c0,14.9-0.01,40.16-0.01,45.12c0,9.66-7.71,1-9.21-0.25"/>		</g>	</g></g></g><g style="font-size:8;fill:#808080"><text transform="matrix(1 0 0 1 41.50 9.50)">1</text><text transform="matrix(1 0 0 1 55.50 15.50)">2</text><text transform="matrix(1 0 0 1 21.49 44.50)">3</text><text transform="matrix(1 0 0 1 7.50 58.50)">4</text><text transform="matrix(1 0 0 1 22.50 72.50)">5</text><text transform="matrix(1 0 0 1 47.50 50.50)">6</text></g></svg>