<svg xmlns="http://www.w3.org/2000/svg" width="109" height="109" viewBox="0 0 109 109"><g><path class="bg" xmlns="http://www.w3.org/2000/svg" fill="none" stroke="#6c757d" d="M54.5,0L54.5,109" stroke-width="0.5" stroke-dasharray="4,1.5"/><path class="bg" xmlns="http://www.w3.org/2000/svg" fill="none" stroke="#6c757d" d="M0,54.5L109,54.5" stroke-width="0.5" stroke-dasharray="4,1.5"/></g><g style="fill:none;stroke:#000000;stroke-width:3;stroke-linecap:round;stroke-linejoin:round;"><g><g><path d="M25.25,32.4c1.77,0.37,4.78,0.56,6.55,0.37c10.82-1.15,28.82-3.4,41.24-3.76c2.95-0.09,4.73,0.18,6.21,0.36"/>	</g><g><path d="M12,80.75c2.37,0.5,6.73,0.67,9.09,0.5c23.79-1.75,45.04-4.12,67.49-4.74c3.95-0.11,6.32,0.24,8.3,0.49"/>	</g></g></g><g style="font-size:8;fill:#808080"><text transform="matrix(1 0 0 1 17.50 33.13)">1</text><text transform="matrix(1 0 0 1 3.50 81.50)">2</text></g></svg>