<svg xmlns="http://www.w3.org/2000/svg" width="109" height="109" viewBox="0 0 109 109"><g><path class="bg" xmlns="http://www.w3.org/2000/svg" fill="none" stroke="#6c757d" d="M54.5,0L54.5,109" stroke-width="0.5" stroke-dasharray="4,1.5"/><path class="bg" xmlns="http://www.w3.org/2000/svg" fill="none" stroke="#6c757d" d="M0,54.5L109,54.5" stroke-width="0.5" stroke-dasharray="4,1.5"/></g><g style="fill:none;stroke:#000000;stroke-width:3;stroke-linecap:round;stroke-linejoin:round;"><g><g><path d="M23.5,36.9c2.13,0.77,4.95,0.45,7.14,0.16c10.59-1.37,37.06-3.96,49.24-4.82c2.63-0.19,4.81-0.18,7.38,0.38"/>	</g><g><g><g><path d="M14.25,62.95c3.44,1.23,7.55,0.89,11.12,0.49c12.88-1.44,42.51-4.32,61.11-5.17c3.37-0.15,6.23,0.06,9.52,0.77"/>			</g>		</g><g><path d="M40,16.5c0.75,1,0.98,2.47,1,3.5c1.12,55.5-2.38,62-19.25,78.25"/>		</g><g><path d="M66.62,11.25c0.88,0.88,1.21,2.25,1.21,3.5c0,0.73-0.06,54.49-0.07,77.38c0,3.92,0,6.94,0,8.62"/>		</g>	</g></g></g><g style="font-size:8;fill:#808080"><text transform="matrix(1 0 0 1 16.50 38.50)">1</text><text transform="matrix(1 0 0 1 6.75 63.50)">2</text><text transform="matrix(1 0 0 1 31.50 17.50)">3</text><text transform="matrix(1 0 0 1 57.50 11.50)">4</text></g></svg>