<svg xmlns="http://www.w3.org/2000/svg" width="109" height="109" viewBox="0 0 109 109"><g><path class="bg" xmlns="http://www.w3.org/2000/svg" fill="none" stroke="#6c757d" d="M54.5,0L54.5,109" stroke-width="0.5" stroke-dasharray="4,1.5"/><path class="bg" xmlns="http://www.w3.org/2000/svg" fill="none" stroke="#6c757d" d="M0,54.5L109,54.5" stroke-width="0.5" stroke-dasharray="4,1.5"/></g><g style="fill:none;stroke:#000000;stroke-width:3;stroke-linecap:round;stroke-linejoin:round;"><g><g><path d="M49.42,14.25c0.1,1.11-0.11,2.93-0.71,4.47C44.5,29.5,32,47.25,11.5,61.75"/><path d="M50.66,18.99c6.1,7.28,32.37,31.03,39.1,36.36c2.28,1.81,5.21,2.58,7.49,3.09"/>	</g><g><g><path d="M39.23,50.26c1.27,0.24,2.64,0.37,4.13,0.18c5.39-0.68,11.02-1.69,15.86-2.31c1.8-0.23,3.66-0.38,4.8-0.08"/>		</g><path d="M33.25,67.75c2.12,0.38,3.57,0.61,6,0.25c6.31-0.93,18.5-3.25,25.24-4.44C68.48,62.85,70,65,68,68.75C63.33,77.5,58.75,85,53,94.5"/>	</g></g></g><g style="font-size:8;fill:#808080"><text transform="matrix(1 0 0 1 41.50 13.50)">1</text><text transform="matrix(1 0 0 1 58.50 22.63)">2</text><text transform="matrix(1 0 0 1 38.50 47.50)">3</text><text transform="matrix(1 0 0 1 25.50 69.50)">4</text></g></svg>