<svg xmlns="http://www.w3.org/2000/svg" width="109" height="109" viewBox="0 0 109 109"><g><path class="bg" xmlns="http://www.w3.org/2000/svg" fill="none" stroke="#6c757d" d="M54.5,0L54.5,109" stroke-width="0.5" stroke-dasharray="4,1.5"/><path class="bg" xmlns="http://www.w3.org/2000/svg" fill="none" stroke="#6c757d" d="M0,54.5L109,54.5" stroke-width="0.5" stroke-dasharray="4,1.5"/></g><g style="fill:none;stroke:#000000;stroke-width:3;stroke-linecap:round;stroke-linejoin:round;"><g><g><path d="M36.51,16.75c0.24,1.62-0.06,3.24-0.79,5.09c-4.65,11.79-11.3,24.86-21.97,39.2"/><path d="M28.28,41.75c1.05,1.05,1.51,2.12,1.51,3.98c0,12.28-0.03,30.57-0.04,42.52c0,2.67,0,5.04,0,7"/>	</g><g><path d="M67.45,23.14c0.59,1.16,0.44,2.75-0.02,4.22C62.62,42.5,54.75,63.62,47.5,78.16c-2.19,4.38-0.97,4.87,2.67,3.69c9.95-3.22,24.45-7.6,39.01-12.04"/><path d="M78.38,52.62c6.15,5.24,15.9,21.55,17.43,29.7"/>	</g></g></g><g style="font-size:8;fill:#808080"><text transform="matrix(1 0 0 1 27.50 16.50)">1</text><text transform="matrix(1 0 0 1 22.50 62.50)">2</text><text transform="matrix(1 0 0 1 59.50 22.50)">3</text><text transform="matrix(1 0 0 1 72.50 50.50)">4</text></g></svg>