<svg xmlns="http://www.w3.org/2000/svg" width="109" height="109" viewBox="0 0 109 109"><g><path class="bg" xmlns="http://www.w3.org/2000/svg" fill="none" stroke="#6c757d" d="M54.5,0L54.5,109" stroke-width="0.5" stroke-dasharray="4,1.5"/><path class="bg" xmlns="http://www.w3.org/2000/svg" fill="none" stroke="#6c757d" d="M0,54.5L109,54.5" stroke-width="0.5" stroke-dasharray="4,1.5"/></g><g style="fill:none;stroke:#000000;stroke-width:3;stroke-linecap:round;stroke-linejoin:round;"><g><g><path d="M34.5,14.25c0.13,1.25-0.16,2.46-0.89,4.35C28.88,31,22.05,43.75,10.12,58.12"/><path d="M24.03,41.5c0.92,0.92,1.75,2.38,1.75,4.12c0,9.46-0.02,33.3-0.03,46.12c0,2.92,0,5.27,0,6.75"/>	</g><g><path d="M34.88,47.47c2.1,0.67,5.94,0.8,8.04,0.67c18.7-1.25,31.09-2.8,48.25-3.22c3.49-0.08,5.59,0.32,7.34,0.65"/><path d="M65.75,15.75c1.19,1.19,1.75,2.38,1.75,3.75c0,5.5,0,57.75,0,65"/><path d="M37,86.17c3.05,0.71,5.58,0.68,7.56,0.56c13.82-0.86,31.07-1.98,44.74-2.32c3.29-0.08,5.56,0.13,7.21,0.54"/>	</g></g></g><g style="font-size:8;fill:#808080"><text transform="matrix(1 0 0 1 25.50 15.13)">1</text><text transform="matrix(1 0 0 1 18.50 58.50)">2</text><text transform="matrix(1 0 0 1 35.25 44.50)">3</text><text transform="matrix(1 0 0 1 56.50 16.50)">4</text><text transform="matrix(1 0 0 1 35.25 82.63)">5</text></g></svg>