<svg xmlns="http://www.w3.org/2000/svg" width="109" height="109" viewBox="0 0 109 109"><g><path class="bg" xmlns="http://www.w3.org/2000/svg" fill="none" stroke="#6c757d" d="M54.5,0L54.5,109" stroke-width="0.5" stroke-dasharray="4,1.5"/><path class="bg" xmlns="http://www.w3.org/2000/svg" fill="none" stroke="#6c757d" d="M0,54.5L109,54.5" stroke-width="0.5" stroke-dasharray="4,1.5"/></g><g style="fill:none;stroke:#000000;stroke-width:3;stroke-linecap:round;stroke-linejoin:round;"><g><g><g><path d="M29.02,17.75c0.36,1.5-0.05,3.67-0.68,5.31c-3.97,10.45-9,20.26-18.09,32.98"/><path d="M22.53,39.5c0.86,0.86,1.49,2.38,1.49,3.75c0,11.68,0.05,32.25-0.01,43.5c-0.01,2.32-0.02,4.21-0.02,5.5"/>		</g>	</g><g><g><g><path d="M36.27,31.58c1.2,1.2,1.76,3.17,1.76,5.27c0,11,0.14,26.98,0.04,36.65C38.03,76.64,38,79.04,38,80.25"/>			</g><g><g><path d="M60.86,15.14c0,1.36-0.19,2.52-0.6,3.49c-2.01,4.79-5.89,11.75-12.59,19.27"/><path d="M60.14,26.16c-0.03,0.09,3.27-0.25,3.36-0.27c5.86-1.19,12.66-3.28,17.89-5.06c1.42-0.48,3.15-0.72,4.65-0.36"/>				</g><g><g><path d="M76.29,26.4c0.34,1.22,0.19,2.12-0.51,3.39C71.25,38,58,51.75,45.62,57.25"/>					</g><path d="M55.32,32.39c8.68,5.49,21.81,13.49,33.44,18.9c2.01,0.94,3.21,1.17,5.12,1.46"/>				</g>			</g>		</g><g><g><path d="M71.51,51.75c0,0.75-0.28,1.66-0.78,2.32c-2.34,3.11-7.4,7.14-17.71,12.22"/>			</g><g><path d="M76.67,63.73c0,1.02-0.57,1.83-1.16,2.4c-3.83,3.74-14.34,9.75-21.39,12.66"/>			</g><g><path d="M84.74,75.16c0,1.18-0.47,2.1-1.22,2.96C79.29,82.98,64.79,92.15,49.37,98"/>			</g>		</g>	</g></g></g><g style="font-size:8;fill:#808080"><text transform="matrix(1 0 0 1 20.25 19.50)">1</text><text transform="matrix(1 0 0 1 17.25 61.63)">2</text><text transform="matrix(1 0 0 1 30.75 40.63)">3</text><text transform="matrix(1 0 0 1 51.50 14.50)">4</text><text transform="matrix(1 0 0 1 65.50 22.63)">5</text><text transform="matrix(1 0 0 1 81.75 33.13)">6</text><text transform="matrix(1 0 0 1 53.50 42.50)">7</text><text transform="matrix(1 0 0 1 64.50 52.50)">8</text><text transform="matrix(1 0 0 1 68.50 64.50)">9</text><text transform="matrix(1 0 0 1 73.50 77.50)">10</text></g></svg>