<svg xmlns="http://www.w3.org/2000/svg" width="109" height="109" viewBox="0 0 109 109"><g><path class="bg" xmlns="http://www.w3.org/2000/svg" fill="none" stroke="#6c757d" d="M54.5,0L54.5,109" stroke-width="0.5" stroke-dasharray="4,1.5"/><path class="bg" xmlns="http://www.w3.org/2000/svg" fill="none" stroke="#6c757d" d="M0,54.5L109,54.5" stroke-width="0.5" stroke-dasharray="4,1.5"/></g><g style="fill:none;stroke:#000000;stroke-width:3;stroke-linecap:round;stroke-linejoin:round;"><g><g><path d="M51.87,17.5c1.78,1.78,2.71,3.48,2.71,6.5c0,6.46,0.12,9.16,0.12,14.35"/><path d="M13.5,42.13c3.27,0.74,7.11,0.89,9.93,0.64c21.56-1.9,41.78-5.02,61.41-5.47c4.8-0.11,7.49,0.31,11.06,1.07"/>	</g><g><path d="M38.11,58.6c0.51,1.37,0.42,3.67-0.49,5.29C33.38,71.38,24,82.38,15.41,88.75"/><path d="M70.16,59.92c9.96,8.61,18.18,18.54,23.16,28.99"/>	</g></g></g><g style="font-size:8;fill:#808080"><text transform="matrix(1 0 0 1 42.25 17.63)">1</text><text transform="matrix(1 0 0 1 5.50 43.63)">2</text><text transform="matrix(1 0 0 1 27.50 58.63)">3</text><text transform="matrix(1 0 0 1 60.50 58.63)">4</text></g></svg>