<svg xmlns="http://www.w3.org/2000/svg" width="109" height="109" viewBox="0 0 109 109"><g><path class="bg" xmlns="http://www.w3.org/2000/svg" fill="none" stroke="#6c757d" d="M54.5,0L54.5,109" stroke-width="0.5" stroke-dasharray="4,1.5"/><path class="bg" xmlns="http://www.w3.org/2000/svg" fill="none" stroke="#6c757d" d="M0,54.5L109,54.5" stroke-width="0.5" stroke-dasharray="4,1.5"/></g><g style="fill:none;stroke:#000000;stroke-width:3;stroke-linecap:round;stroke-linejoin:round;"><g><g><g><path d="M35.55,21.25c1.04,1.04,1.5,2.38,1.57,4.74C37.75,48,38,78.5,17.25,92.5"/>		</g><path d="M38.25,23.75C42,23,60.5,19.5,63.5,18.75s5.85,0.69,5.5,4.5c-1.75,19.25-2.5,36-2.5,52c0,13.02,2.75,15,14.25,15c12,0,13.5-1.5,13.5-10.5"/>	</g><g><path d="M46,48c5.58,4.67,8.77,9.62,10.5,14"/>	</g></g></g><g style="font-size:8;fill:#808080"><text transform="matrix(1 0 0 1 30.50 31.63)">1</text><text transform="matrix(1 0 0 1 38.50 19.50)">2</text><text transform="matrix(1 0 0 1 43.50 44.50)">3</text></g></svg>