<svg xmlns="http://www.w3.org/2000/svg" width="109" height="109" viewBox="0 0 109 109"><g><path class="bg" xmlns="http://www.w3.org/2000/svg" fill="none" stroke="#6c757d" d="M54.5,0L54.5,109" stroke-width="0.5" stroke-dasharray="4,1.5"/><path class="bg" xmlns="http://www.w3.org/2000/svg" fill="none" stroke="#6c757d" d="M0,54.5L109,54.5" stroke-width="0.5" stroke-dasharray="4,1.5"/></g><g style="fill:none;stroke:#000000;stroke-width:3;stroke-linecap:round;stroke-linejoin:round;"><g><path d="M21.5,38.25c2.71,1.16,5.48,1.13,8.27,0.71c14.44-2.14,39.36-6.21,53.23-8.21c4.48-0.65,6.25,1.38,5.5,5.75c-2.81,16.37-9,38.75-20,53.25c-6.14,8.09-9.5,3-12.5-0.75"/><path d="M56.88,13.68c0.62,2.57,0.56,4.63,0,7.19c-4.11,18.97-16.53,49.27-43.49,68.79"/></g></g><g style="font-size:8;fill:#808080"><text transform="matrix(1 0 0 1 14.75 38.63)">1</text><text transform="matrix(1 0 0 1 46.75 12.13)">2</text></g></svg>