<svg xmlns="http://www.w3.org/2000/svg" width="109" height="109" viewBox="0 0 109 109"><g><path class="bg" xmlns="http://www.w3.org/2000/svg" fill="none" stroke="#6c757d" d="M54.5,0L54.5,109" stroke-width="0.5" stroke-dasharray="4,1.5"/><path class="bg" xmlns="http://www.w3.org/2000/svg" fill="none" stroke="#6c757d" d="M0,54.5L109,54.5" stroke-width="0.5" stroke-dasharray="4,1.5"/></g><g style="fill:none;stroke:#000000;stroke-width:3;stroke-linecap:round;stroke-linejoin:round;"><g><g><path d="M37.25,20.25c0.24,1.93-0.07,4.46-0.83,6.12c-4.89,10.56-11.58,20.95-22.79,33.79"/><path d="M29.03,44.25c0.97,1.38,1.26,2.98,1.26,4.25c0,12.12,0.1,28.67-0.17,40C30.05,91.52,30,94.11,30,96"/>	</g><g><path d="M89.25,29.25c0,1.66-0.79,2.93-2.25,4.5c-4.62,4.98-15.38,12.5-25.5,15.98"/><path d="M56.75,15.25c1.25,1,1.75,2.65,1.75,4.21c0,3.66,0.07,36.46,0.07,54.49c0,19.3,1.18,19.87,18.93,19.87c16.25,0,17.75-1.7,17.75-11.57"/>	</g></g></g><g style="font-size:8;fill:#808080"><text transform="matrix(1 0 0 1 27.25 21.13)">1</text><text transform="matrix(1 0 0 1 21.75 61.13)">2</text><text transform="matrix(1 0 0 1 80.50 27.74)">3</text><text transform="matrix(1 0 0 1 52.50 11.50)">4</text></g></svg>