<svg xmlns="http://www.w3.org/2000/svg" width="109" height="109" viewBox="0 0 109 109"><g><path class="bg" xmlns="http://www.w3.org/2000/svg" fill="none" stroke="#6c757d" d="M54.5,0L54.5,109" stroke-width="0.5" stroke-dasharray="4,1.5"/><path class="bg" xmlns="http://www.w3.org/2000/svg" fill="none" stroke="#6c757d" d="M0,54.5L109,54.5" stroke-width="0.5" stroke-dasharray="4,1.5"/></g><g style="fill:none;stroke:#000000;stroke-width:3;stroke-linecap:round;stroke-linejoin:round;"><g><g><path d="M18.88,23.93c2.78,0.65,5.74,0.51,8.58,0.17c18.07-2.16,35.69-3.8,51.98-5.95c3.2-0.42,5.17-0.25,6.79,0.02"/>	</g><g><g><path d="M68.57,30.43c0.25,1.37,0.29,2.74-0.47,4.76C62,51.38,49.62,64.75,32.9,75.75"/>		</g><path d="M35.75,43.25C51.07,47.69,70.34,63.1,78,72.5"/>	</g><g><path d="M20.36,25.3c0.73,0.73,1,2.18,1,3.7c0,11.28,0,48.74,0,57.34c0,4.4,0.77,5.33,5.02,4.74c16.58-2.31,44.87-3.94,59.2-3.66c3.34,0.07,6.17,0.23,8.23,0.68"/>	</g></g></g><g style="font-size:8;fill:#808080"><text transform="matrix(1 0 0 1 23.50 20.50)">1</text><text transform="matrix(1 0 0 1 60.50 30.50)">2</text><text transform="matrix(1 0 0 1 31.50 40.50)">3</text><text transform="matrix(1 0 0 1 14.50 32.50)">4</text></g></svg>