<svg xmlns="http://www.w3.org/2000/svg" width="109" height="109" viewBox="0 0 109 109"><g><path class="bg" xmlns="http://www.w3.org/2000/svg" fill="none" stroke="#6c757d" d="M54.5,0L54.5,109" stroke-width="0.5" stroke-dasharray="4,1.5"/><path class="bg" xmlns="http://www.w3.org/2000/svg" fill="none" stroke="#6c757d" d="M0,54.5L109,54.5" stroke-width="0.5" stroke-dasharray="4,1.5"/></g><g style="fill:none;stroke:#000000;stroke-width:3;stroke-linecap:round;stroke-linejoin:round;"><g><g><path d="M18.75,19.07c1.03,1.03,1.86,2.76,1.86,4.66c0,17.53-0.05,43.77-0.06,69.15c0,1.8,0,3.59,0,5.38"/><path d="M21.48,21.4c18.9-1.9,46.27-4.9,62.77-4.9c2.42,0,4.25,1.25,4.25,3.5c0,16.23,0,47.53,0,69.75c0,1.91,0,3.74,0,5.5"/>	</g><g><g><path d="M32.99,43.3c1.88,0.45,3.69,0.42,5.26,0.21c6.95-0.93,23.4-2.77,31.87-3.42c1.9-0.15,3.78-0.36,5.66,0.04"/>		</g><g><g><g><path d="M29.04,61.7c2.33,0.67,4.31,0.52,6.59,0.22c7.61-0.99,26.02-3.02,38.12-3.86c2.04-0.14,3.94-0.21,5.96,0.22"/>				</g>			</g><g><path d="M43.23,29.83c0.66,0.66,1.25,1.92,1.3,3.04c1.6,35-1.02,44-10.25,52.59"/>			</g><g><path d="M61.79,25.75c0.98,0.98,1.62,2.62,1.62,4.21c0,2.43-0.12,37.44-0.14,50.41c0,1.93-0.01,3.36-0.01,4.12"/>			</g>		</g>	</g><g><path d="M21.75,94.01c14.88-0.76,47-2.39,65.75-3.01"/>	</g></g></g><g style="font-size:8;fill:#808080"><text transform="matrix(1 0 0 1 14.50 28.63)">1</text><text transform="matrix(1 0 0 1 24.50 17.50)">2</text><text transform="matrix(1 0 0 1 25.50 43.50)">3</text><text transform="matrix(1 0 0 1 25.50 58.41)">4</text><text transform="matrix(1 0 0 1 35.50 30.13)">5</text><text transform="matrix(1 0 0 1 53.50 28.26)">6</text><text transform="matrix(1 0 0 1 25.50 91.50)">7</text></g></svg>