<svg xmlns="http://www.w3.org/2000/svg" width="109" height="109" viewBox="0 0 109 109"><g><path class="bg" xmlns="http://www.w3.org/2000/svg" fill="none" stroke="#6c757d" d="M54.5,0L54.5,109" stroke-width="0.5" stroke-dasharray="4,1.5"/><path class="bg" xmlns="http://www.w3.org/2000/svg" fill="none" stroke="#6c757d" d="M0,54.5L109,54.5" stroke-width="0.5" stroke-dasharray="4,1.5"/></g><g style="fill:none;stroke:#000000;stroke-width:3;stroke-linecap:round;stroke-linejoin:round;"><g><g><path d="M23.63,24.73c2.87,0.65,5.61,0.54,8.35,0.27c13.89-1.38,34.02-4.12,47.27-5.05c2.71-0.19,5.21-0.2,7.87,0.37"/><path d="M26.99,25.75c1.01,1.01,1.4,2.5,1.4,4.26c0,13.26-2.14,46.11-17.58,63.21"/>	</g><g><path d="M37.9,58.27c2.22,0.48,4.54,0.48,6.63,0.26c10.33-1.08,24.4-2.57,34.72-3.05c2.05-0.09,4.09-0.25,6.11,0.23"/><path d="M59.07,32.87c0.91,0.91,1.6,2.14,1.6,3.84c0,14.8-0.08,38.05-0.08,51.31"/><path d="M29.74,90.03c3.01,1.08,6.53,0.87,9.62,0.61c11.78-0.97,33.47-2.11,47.02-2.53c2.99-0.09,5.95,0,8.9,0.63"/>	</g></g></g><g style="font-size:8;fill:#808080"><text transform="matrix(1 0 0 1 26.50 22.50)">1</text><text transform="matrix(1 0 0 1 20.50 34.56)">2</text><text transform="matrix(1 0 0 1 36.50 55.50)">3</text><text transform="matrix(1 0 0 1 49.50 33.50)">4</text><text transform="matrix(1 0 0 1 28.50 87.50)">5</text></g></svg>