<svg xmlns="http://www.w3.org/2000/svg" width="109" height="109" viewBox="0 0 109 109"><g><path class="bg" xmlns="http://www.w3.org/2000/svg" fill="none" stroke="#6c757d" d="M54.5,0L54.5,109" stroke-width="0.5" stroke-dasharray="4,1.5"/><path class="bg" xmlns="http://www.w3.org/2000/svg" fill="none" stroke="#6c757d" d="M0,54.5L109,54.5" stroke-width="0.5" stroke-dasharray="4,1.5"/></g><g style="fill:none;stroke:#000000;stroke-width:3;stroke-linecap:round;stroke-linejoin:round;"><g><g><path d="M14.75,43.39c0.76,0.38,2.24,0.44,3,0.36c6.75-0.75,14.65-2.39,20-3c1.25-0.14,2.62-0.18,3.25,0.01"/><path d="M26.87,16.75c1.09,0.5,1.74,2.25,1.96,3.25c0.22,1,0,43.25-0.22,49.5"/><path d="M13.5,75.94c0.74,1.06,2.23,1.63,4.45,0.23c6.18-3.9,13.61-8.52,19.8-12.42"/>	</g><g><g><path d="M81.02,12.25c-0.31,0.7-0.61,1.06-1.25,1.36c-4.14,1.98-16.67,7.44-30.06,9.46"/><path d="M48,13c0.83,0.62,0.88,1.04,1.16,1.87c0.27,0.83-0.19,6-0.19,8.6c0,6.69,11.05,6.07,20.47,6.07c13.66,0,18.83-1.1,18.83-8.14"/>		</g><g><g><path d="M54.85,36.75c0.38,0.74,0.94,2.09,0.94,3.07c0,0.98-0.13,30.2,0,31.18"/><path d="M56.43,39.3c2.17-0.12,19.67-2.85,21.65-2.82c0.91,0.02,1.8,0.49,1.8,2.07c0,1.18,0.03,30.47-0.1,31.2"/><path d="M55.88,48.94c4.27-0.17,20.03-2.03,23.5-2.03"/><path d="M55.72,58.86c5.74-0.41,18.17-1.95,23.74-1.95"/><path d="M55.91,68.91c4.3,0,18.02-1.55,23.59-1.55"/>			</g><g><path d="M42.74,49c0.61,1,1.41,1.75,1.41,3.5S43.15,74,43.15,76.25s0.21,4.56,2.42,4.25c15.86-2.25,35.63-4,44.48-3.5c1.81,0.1,4.04,0.25,5.45,0.5"/><g><path d="M55.94,85.39c0.05,0.31,0.11,0.8-0.1,1.24c-1.25,2.61-8.44,8.33-18.28,11.84"/><path d="M75.06,83.83c5.78,2.41,14.92,9.89,16.36,13.63"/>				</g>			</g>		</g>	</g></g></g><g style="font-size:8;fill:#808080"><text transform="matrix(1 0 0 1 7.25 42.63)">1</text><text transform="matrix(1 0 0 1 19.25 19.05)">2</text><text transform="matrix(1 0 0 1 6.00 79.23)">3</text><text transform="matrix(1 0 0 1 82.94 15.11)">4</text><text transform="matrix(1 0 0 1 45.50 11.50)">5</text><text transform="matrix(1 0 0 1 48.3 44.4)">6</text><text transform="matrix(1 0 0 1 56.8 36.8)">7</text><text transform="matrix(1 0 0 1 57.2 46.7)">8</text><text transform="matrix(1 0 0 1 57.3 56.4)">9</text><text transform="matrix(1 0 0 1 56.9 66.6)">10</text><text transform="matrix(1 0 0 1 32 53.8)">11</text><text transform="matrix(1 0 0 1 57 88.6)">12</text><text transform="matrix(1 0 0 1 67 92.5)">13</text></g></svg>