<svg xmlns="http://www.w3.org/2000/svg" width="109" height="109" viewBox="0 0 109 109"><g><path class="bg" xmlns="http://www.w3.org/2000/svg" fill="none" stroke="#6c757d" d="M54.5,0L54.5,109" stroke-width="0.5" stroke-dasharray="4,1.5"/><path class="bg" xmlns="http://www.w3.org/2000/svg" fill="none" stroke="#6c757d" d="M0,54.5L109,54.5" stroke-width="0.5" stroke-dasharray="4,1.5"/></g><g style="fill:none;stroke:#000000;stroke-width:3;stroke-linecap:round;stroke-linejoin:round;"><g><g><path d="M13.25,41.04c0.67,0.36,1.98,0.43,2.65,0.34c4.25-0.62,13.01-2.69,17.74-3.26c1.11-0.13,2.31-0.17,2.87,0.01"/><path d="M25.62,18c1,1,1.21,2.38,1.21,4c0,7.25,0.03,33,0.03,43.75"/><path d="M14.75,74.07c1,0.93,2.25,0.68,3.82-0.5C24.06,69.49,32.69,61.81,38,57.5"/>	</g><g><g><g><path d="M50.25,21.77c1.74,0.51,3.84,0.56,5.65,0.33c6.19-0.8,18.13-2.7,25.11-3.19c1.7-0.12,3.32-0.15,5,0.14"/><path d="M66.69,10c0.84,0.84,0.94,1.75,0.86,3c-0.35,5.25-0.5,14.18-0.65,18.5"/>			</g><g><g><path d="M42.41,39.07c1.8,0.73,4.45,0.57,6.36,0.36c10.43-1.15,31.62-4.1,42.73-4.65c2.2-0.11,4.42-0.21,6.58,0.32"/>				</g><g><path d="M55.48,29.18c1.06,1.14,1.33,2.2,1.38,3.69c0.14,4.62,0.53,9.16,0.75,12"/>				</g><g><path d="M82.78,25.88c0.31,1.15,0.39,2,0.1,3.17c-1.35,5.5-1.8,7.57-3.36,13.01"/>				</g>			</g>		</g><g><g><path d="M53.55,48.97c0.8,0.8,1.2,1.87,1.2,2.92c0,0.89,0.08,16.3,0.11,26.92c0.01,1.89-0.12,3.12-0.12,4.56"/><path d="M55.57,50.13c3.82-0.56,19.05-2.53,24.18-3.08c2.96-0.32,4.65-0.11,4.68,3.07c0.06,4.82,0.09,19.08,0,26.76c-0.03,2.86-0.05,4.8-0.05,4.99"/><path d="M55.8,60.21c7.2-0.96,21.7-2.96,27.43-3.13"/><path d="M56.03,70.41c8.84-1.16,18.84-2.78,27.23-3.36"/><path d="M56.15,81.32C65.88,79.88,73,79,83.26,78.18"/>			</g><g><path d="M62.21,86.47c0.29,1.16,0,1.92-1,2.73c-3.02,2.45-11.33,7.73-17.37,10.63"/><path d="M76.88,85.62c6.43,3.68,14.04,10.34,15.79,13.55"/>			</g>		</g>	</g></g></g><g style="font-size:8;fill:#808080"><text transform="matrix(1 0 0 1 7.50 42.13)">1</text><text transform="matrix(1 0 0 1 15.75 18.13)">2</text><text transform="matrix(1 0 0 1 6.75 77.50)">3</text><text transform="matrix(1 0 0 1 43.50 21.50)">4</text><text transform="matrix(1 0 0 1 57.75 9.13)">5</text><text transform="matrix(1 0 0 1 41.50 35.50)">6</text><text transform="matrix(1 0 0 1 47.50 30.50)">7</text><text transform="matrix(1 0 0 1 74.25 28.63)">8</text><text transform="matrix(1 0 0 1 47.25 57.13)">9</text><text transform="matrix(1 0 0 1 60.50 46.63)">10</text><text transform="matrix(1 0 0 1 58.50 57.05)">11</text><text transform="matrix(1 0 0 1 58.50 67.48)">12</text><text transform="matrix(1 0 0 1 58.50 77.91)">13</text><text transform="matrix(1 0 0 1 46.50 91.63)">14</text><text transform="matrix(1 0 0 1 69.50 93.50)">15</text></g></svg>