<svg xmlns="http://www.w3.org/2000/svg" width="109" height="109" viewBox="0 0 109 109"><g><path class="bg" xmlns="http://www.w3.org/2000/svg" fill="none" stroke="#6c757d" d="M54.5,0L54.5,109" stroke-width="0.5" stroke-dasharray="4,1.5"/><path class="bg" xmlns="http://www.w3.org/2000/svg" fill="none" stroke="#6c757d" d="M0,54.5L109,54.5" stroke-width="0.5" stroke-dasharray="4,1.5"/></g><g style="fill:none;stroke:#000000;stroke-width:3;stroke-linecap:round;stroke-linejoin:round;"><g><g><path d="M27.85,21.94c2.32,0.52,5.22,0.34,7.54,0.06c11.08-1.34,25.13-2.82,35.24-3.58c2.63-0.2,5.25-0.43,7.74-0.08"/><path d="M52.82,8.25c0.71,0.86,0.62,1.97,0.55,3.01c-0.94,14.15-14.12,29.31-25.69,32.37"/><path d="M53.75,23.75c7.31,3.89,15.78,10.19,20.25,16"/>	</g><g><g><g><path d="M12.63,50.48c3.09,1.1,7.28,0.67,10.49,0.37c13.21-1.23,44.89-4.24,60.77-5.56c3.95-0.33,8.1-0.55,11.99,0.29"/>			</g>		</g><g><path d="M30.88,62.88c0.72,0.75,1.11,1.65,1.18,2.7c0.69,3.03,1.42,7.94,2.01,12.4c0.21,1.61,0.4,3.15,0.57,4.53"/><path d="M32.57,64.61c6.45-1.49,14.34-3,19.16-3.61c2.81-0.36,5.04-0.42,4.26,3.03c-0.77,3.44-1.38,7.15-2.62,11.92"/><path d="M35.56,79.56c4.15-0.4,9.32-1.3,14.96-1.93c1.31-0.15,2.63-0.29,3.95-0.44"/>		</g><g><g><path d="M72.21,49.83c1.04,1.04,1.51,2.67,1.51,4.77c0,14.56-0.01,33.94-0.01,38.9c0,10.12-7.96,2.62-11.21,0"/>			</g>		</g>	</g></g></g><g style="font-size:8;fill:#808080"><text transform="matrix(1 0 0 1 21.50 23.50)">1</text><text transform="matrix(1 0 0 1 44.50 9.13)">2</text><text transform="matrix(1 0 0 1 68.25 30.13)">3</text><text transform="matrix(1 0 0 1 5.50 52.50)">4</text><text transform="matrix(1 0 0 1 24.75 70.50)">5</text><text transform="matrix(1 0 0 1 33.50 61.50)">6</text><text transform="matrix(1 0 0 1 38.50 76.55)">7</text><text transform="matrix(1 0 0 1 64.50 58.63)">8</text></g></svg>