<svg xmlns="http://www.w3.org/2000/svg" width="109" height="109" viewBox="0 0 109 109"><g><path class="bg" xmlns="http://www.w3.org/2000/svg" fill="none" stroke="#6c757d" d="M54.5,0L54.5,109" stroke-width="0.5" stroke-dasharray="4,1.5"/><path class="bg" xmlns="http://www.w3.org/2000/svg" fill="none" stroke="#6c757d" d="M0,54.5L109,54.5" stroke-width="0.5" stroke-dasharray="4,1.5"/></g><g style="fill:none;stroke:#000000;stroke-width:3;stroke-linecap:round;stroke-linejoin:round;"><g><g><path d="M27.16,21.37c0.36,0.94,1.02,2.48,0.83,3.84c-0.92,6.67-4.98,30.42-9.03,38.22c-0.83,1.6,0.37,2.26,0.83,2.38c8.09,2.07,16.29,7.34,21.21,14.23"/><path d="M38.76,38.39c0.07,1.17,0.12,4.02-0.14,5.71C36.5,57.83,30.39,77.29,15.25,87.5"/><path d="M10.75,49.62c0.74,1.01,1.74,1.73,3.72,1.49c2.14-0.26,21.19-5.18,30.03-7.73"/>	</g><g><g><path d="M83.48,15.39c-0.23,0.86-0.68,2.08-1.19,2.52c-5.54,4.84-16.04,8.84-32.69,13.55"/>		</g><g><path d="M45.59,52.11c0.71,0.44,2.53,0.67,3.31,0.61c9.06-0.72,31.94-3.97,43.29-4.14c0.98-0.01,2.38,0.17,4.58,0.92"/><path d="M68.25,27.75c0.45,0.92,0.68,1.98,0.67,3.96C68.7,66.07,57.85,84.19,40,94.75"/><path d="M68.16,50.5C73.75,63,85,83,93.67,90.64c2.35,2.07,2.86,2.64,3.83,2.86"/>		</g>	</g></g></g><g style="font-size:8;fill:#808080"><text transform="matrix(1 0 0 1 21 21)">1</text><text transform="matrix(1 0 0 1 34 35)">2</text><text transform="matrix(1 0 0 1 8.25 45.48)">3</text><text transform="matrix(1 0 0 1 76 16)">4</text><text transform="matrix(1 0 0 1 49 49)">5</text><text transform="matrix(1 0 0 1 61.25 36.25)">6</text><text transform="matrix(1 0 0 1 75 59)">7</text></g></svg>