<svg xmlns="http://www.w3.org/2000/svg" width="109" height="109" viewBox="0 0 109 109"><g><path class="bg" xmlns="http://www.w3.org/2000/svg" fill="none" stroke="#6c757d" d="M54.5,0L54.5,109" stroke-width="0.5" stroke-dasharray="4,1.5"/><path class="bg" xmlns="http://www.w3.org/2000/svg" fill="none" stroke="#6c757d" d="M0,54.5L109,54.5" stroke-width="0.5" stroke-dasharray="4,1.5"/></g><g style="fill:none;stroke:#000000;stroke-width:3;stroke-linecap:round;stroke-linejoin:round;"><g><g><path d="M28.37,18.37c0.38,1.13,0.57,2.49,0.38,4.13c-0.97,8.06-6.24,33-10.52,42.43c-0.88,1.94-0.85,2.19,0.88,2.87c5.49,2.14,10.27,4.58,15.59,10c2.09,2.13,3.77,4.83,5.31,7.7"/><path d="M38.75,38.25c0.37,1.25,0.39,2.69,0.08,4.56C36.36,57.97,30.21,80.72,12.5,92"/><path d="M11.5,50.17c0.66,1.08,2.02,1.52,3.73,1.08c4.77-1.25,15.89-4.87,26.52-8"/>	</g><g><g><path d="M66.68,13.54C67.7,14.55,68,15.79,68,17.25c0,3.11,0.1,7.4,0.1,10.23"/><g><path d="M49.5,27.38c0,3.36-1.37,11.61-2.19,13.86"/><path d="M50.31,30.59C63.5,28.5,79,26.5,88.56,26.06c9.12-0.42,0.1,6.17-1.01,6.86"/>			</g>		</g><g><path d="M54.06,42.1c1.31,0.4,3.77,0.27,5.66-0.05c6.02-1.02,14.51-1.99,18.53-2.43c1.36-0.15,2.88-0.24,4.32,0.04"/><path d="M67.63,43.38c0.14,0.94-0.05,1.79-0.64,2.51C64,49.5,58,53.88,47.88,59.5"/><path d="M64.2,48.91C71.25,54,78,72.25,70.99,89.73c-2.18,5.44-6.57,0.32-7.45-0.45"/><path d="M66.46,56.01c0.14,0.95,0.01,1.85-0.58,2.58c-3.01,3.67-8.31,8.19-17.5,13.39"/><path d="M69.76,64.84c0.14,1.14,0.11,2.2-0.55,3.14c-3.34,4.77-10.7,12.06-22.96,19.77"/><path d="M86.81,48.02c0.09,0.74-0.09,1.41-0.54,2.02c-2.02,2.47-4.9,5.34-10.65,8.97"/><path d="M72.34,59.47c2.69,2.75,12.4,13.34,18.18,19.25c1.47,1.5,4.36,3.78,6.46,5.36"/>		</g>	</g></g></g><g style="font-size:8;fill:#808080"><text transform="matrix(1 0 0 1 20.50 19.50)">1</text><text transform="matrix(1 0 0 1 33.50 33.50)">2</text><text transform="matrix(1 0 0 1 3.50 51.50)">3</text><text transform="matrix(1 0 0 1 56.25 13.50)">4</text><text transform="matrix(1 0 0 1 42.75 28.55)">5</text><text transform="matrix(1 0 0 1 51.75 25.63)">6</text><text transform="matrix(1 0 0 1 55.50 39.50)">7</text><text transform="matrix(1 0 0 1 53.50 51.50)">8</text><text transform="matrix(1 0 0 1 70.50 52.63)">9</text><text transform="matrix(1 0 0 1 52.00 63.50)">10</text><text transform="matrix(1 0 0 1 53.50 75.80)">11</text><text transform="matrix(1 0 0 1 76.50 47.50)">12</text><text transform="matrix(1 0 0 1 81.50 67.63)">13</text></g></svg>