<svg xmlns="http://www.w3.org/2000/svg" width="109" height="109" viewBox="0 0 109 109"><g><path class="bg" xmlns="http://www.w3.org/2000/svg" fill="none" stroke="#6c757d" d="M54.5,0L54.5,109" stroke-width="0.5" stroke-dasharray="4,1.5"/><path class="bg" xmlns="http://www.w3.org/2000/svg" fill="none" stroke="#6c757d" d="M0,54.5L109,54.5" stroke-width="0.5" stroke-dasharray="4,1.5"/></g><g style="fill:none;stroke:#000000;stroke-width:3;stroke-linecap:round;stroke-linejoin:round;"><g><path d="M11.38,40.67c3.62,1.08,8.48,0.79,11.88,0.4c21.24-2.45,43.24-4.7,63.24-6.1c3.86-0.27,8.38-0.1,11.63,0.59"/><path d="M66.27,11.83c1.08,1.08,1.76,2.42,1.76,4.52c0,20.4-0.01,69.16-0.01,74.12c0,13.28-7.52,1.78-9.71,0.25"/><path d="M40.38,51.62c3.65,2.87,9.42,11.78,10.33,16.24"/></g></g><g style="font-size:8;fill:#808080"><text transform="matrix(1 0 0 1 3.75 42.13)">1</text><text transform="matrix(1 0 0 1 54.75 15.13)">2</text><text transform="matrix(1 0 0 1 32.25 55.63)">3</text></g></svg>