<svg xmlns="http://www.w3.org/2000/svg" width="109" height="109" viewBox="0 0 109 109"><g><path class="bg" xmlns="http://www.w3.org/2000/svg" fill="none" stroke="#6c757d" d="M54.5,0L54.5,109" stroke-width="0.5" stroke-dasharray="4,1.5"/><path class="bg" xmlns="http://www.w3.org/2000/svg" fill="none" stroke="#6c757d" d="M0,54.5L109,54.5" stroke-width="0.5" stroke-dasharray="4,1.5"/></g><g style="fill:none;stroke:#000000;stroke-width:3;stroke-linecap:round;stroke-linejoin:round;"><g><g><g><path d="M33.81,16c1.1,1.09,1.81,2.38,1.81,3.99c0,4.01-0.02,10.94-0.08,13.82"/><path d="M13.25,37.54c1.75,0.46,3.56,0.44,5.51,0.1C27.5,36.12,40.5,34,46.99,33.02c1.74-0.26,3.76-0.27,5.26-0.02"/>		</g><g><path d="M41.84,41.31c0.35,1.04,0.5,2.3-0.08,4.2c-5.01,16.62-15.13,32.87-27.88,42.24"/><path d="M21.21,52.76C31.25,58.5,43.07,72.34,48.25,81"/>		</g>	</g><g><path d="M54.38,43.11c1.58,0.53,4.51,0.53,6.07,0.28c7.3-1.15,25.05-4.48,31.14-4.62c2.64-0.06,4.22-0.08,5.54,0.19"/><path d="M78.52,13.08c1.33,1.33,2.01,2.92,2.01,5.02c0,14.56-0.01,66.41-0.01,71.37c0,9.41-4.52,3.66-7.21,1"/><path d="M56.25,59.12c3.07,1.54,7.94,6.34,8.71,8.74"/>	</g></g></g><g style="font-size:8;fill:#808080"><text transform="matrix(1 0 0 1 26.75 17.63)">1</text><text transform="matrix(1 0 0 1 6.75 38.50)">2</text><text transform="matrix(1 0 0 1 33.75 46.63)">3</text><text transform="matrix(1 0 0 1 12.75 51.13)">4</text><text transform="matrix(1 0 0 1 55.50 40.50)">5</text><text transform="matrix(1 0 0 1 69.50 13.50)">6</text><text transform="matrix(1 0 0 1 50.50 58.50)">7</text></g></svg>