<svg xmlns="http://www.w3.org/2000/svg" width="109" height="109" viewBox="0 0 109 109"><g><path class="bg" xmlns="http://www.w3.org/2000/svg" fill="none" stroke="#6c757d" d="M54.5,0L54.5,109" stroke-width="0.5" stroke-dasharray="4,1.5"/><path class="bg" xmlns="http://www.w3.org/2000/svg" fill="none" stroke="#6c757d" d="M0,54.5L109,54.5" stroke-width="0.5" stroke-dasharray="4,1.5"/></g><g style="fill:none;stroke:#000000;stroke-width:3;stroke-linecap:round;stroke-linejoin:round;"><g><g><path d="M53.46,14c0.9,0.9,1.76,2.23,1.76,4.33c0,12.04-0.01,37.2-0.01,40.65c0,9.77-6.71,2.04-8.21,1.17"/><path d="M36.65,29.04c0.12,1.26-0.02,2.17-0.58,3.32c-2.85,5.83-11.53,15.7-18.65,20.56"/><path d="M77,30c7.23,2.73,16.13,9.04,19.25,14.5"/>	</g><g><path d="M76.75,41c0.14,1.34,0.06,3.54-0.79,5.39C68.67,62.17,49.7,86.63,24,98"/>	</g></g></g><g style="font-size:8;fill:#808080"><text transform="matrix(1 0 0 1 45.50 14.50)">1</text><text transform="matrix(1 0 0 1 27.50 28.50)">2</text><text transform="matrix(1 0 0 1 67.50 30.50)">3</text><text transform="matrix(1 0 0 1 68.50 42.50)">4</text></g></svg>