<svg xmlns="http://www.w3.org/2000/svg" width="109" height="109" viewBox="0 0 109 109"><g><path class="bg" xmlns="http://www.w3.org/2000/svg" fill="none" stroke="#6c757d" d="M54.5,0L54.5,109" stroke-width="0.5" stroke-dasharray="4,1.5"/><path class="bg" xmlns="http://www.w3.org/2000/svg" fill="none" stroke="#6c757d" d="M0,54.5L109,54.5" stroke-width="0.5" stroke-dasharray="4,1.5"/></g><g style="fill:none;stroke:#000000;stroke-width:3;stroke-linecap:round;stroke-linejoin:round;"><g><g><g><path d="M32.95,16.88c2.17,0.99,4.54,0.87,6.82,0.67c8.62-0.73,26.1-2.12,32.5-2.71c3.62-0.33,6.15,0.16,5.18,4.42c-0.83,3.68-1.95,7.99-3.37,12.96"/><path d="M36.47,36.11c3.24-0.17,23.23-1.64,34.3-2.63c3.27-0.29,5.75-0.5,6.74-0.55"/><g><path d="M36.01,18.36c1,1,0.99,2.27,0.93,4.14c-0.68,19.73-6.56,40.75-21.18,52.41"/>			</g>		</g><g><path d="M52.68,36.25c6.12,4.01,18.6,16.34,26.88,23.67c3.19,2.82,7.06,5.2,10.94,7.07"/>		</g>	</g><g><g><path d="M46.27,59.83c4.34,2.1,11.21,8.62,12.29,11.88"/>		</g><g><path d="M40.14,82.21c11.23,2.54,24.31,10.89,26.67,15.01"/>		</g>	</g></g></g><g style="font-size:8;fill:#808080"><text transform="matrix(1 0 0 1 39.75 15.13)">1</text><text transform="matrix(1 0 0 1 42.75 33.05)">2</text><text transform="matrix(1 0 0 1 29.25 25.63)">3</text><text transform="matrix(1 0 0 1 66.75 43.63)">4</text><text transform="matrix(1 0 0 1 39.75 60.05)">5</text><text transform="matrix(1 0 0 1 32.25 82.48)">6</text></g></svg>