<svg xmlns="http://www.w3.org/2000/svg" width="109" height="109" viewBox="0 0 109 109"><g><path class="bg" xmlns="http://www.w3.org/2000/svg" fill="none" stroke="#6c757d" d="M54.5,0L54.5,109" stroke-width="0.5" stroke-dasharray="4,1.5"/><path class="bg" xmlns="http://www.w3.org/2000/svg" fill="none" stroke="#6c757d" d="M0,54.5L109,54.5" stroke-width="0.5" stroke-dasharray="4,1.5"/></g><g style="fill:none;stroke:#000000;stroke-width:3;stroke-linecap:round;stroke-linejoin:round;"><g><g><path d="M21.94,19.89c1.15,1.15,1.41,2.61,1.41,4.78c0,6.33,0.23,65.23,0.23,68.83"/><path d="M24.35,21.79c11.4-1.54,40.9-4.67,54.41-6.06c4.52-0.46,7.81,0.57,7.81,5.64c0,11-0.19,61.18-0.19,66.13c0,11.12-4.62,4.81-7.35,1.69"/>	</g><path d="M39.02,28.66c2.8,1.95,7.24,8.04,7.94,11.08"/><path d="M67.02,24.44c0.09,1.14-0.08,2.25-0.51,3.32c-2.02,4.12-4.02,8.12-8.59,13.92"/><path d="M30.25,46.64c3.08,0.6,6.07,0.03,9.23-0.3c10.35-1.09,24.89-2.96,33.52-3.68c2.45-0.21,5-0.03,7.25,0.11"/><g><path d="M52.84,46.25c0.77,0.77,1.06,1.88,1.06,2.88c0,3.24-0.02,15.99-0.02,20.37"/><path d="M36.89,58.35c0.63,0.63,0.76,1.96,0.69,2.51c-0.45,3.26-1.22,5.9-2.07,9.38c-0.6,2.44,0.39,3.44,3.25,2.88C49.62,71,60.5,69.88,72.54,69.22"/><path d="M73.21,53.29c0.69,0.69,0.79,1.96,0.69,3.38c-0.31,4.08-0.39,9.08-0.89,16.08"/>	</g></g></g><g style="font-size:8;fill:#808080"><text transform="matrix(1 0 0 1 15.50 28.63)">1</text><text transform="matrix(1 0 0 1 26.50 17.50)">2</text><text transform="matrix(1 0 0 1 31.50 29.50)">3</text><text transform="matrix(1 0 0 1 59.50 26.40)">4</text><text transform="matrix(1 0 0 1 31.50 43.50)">5</text><text transform="matrix(1 0 0 1 46.50 54.50)">6</text><text transform="matrix(1 0 0 1 29.50 57.18)">7</text><text transform="matrix(1 0 0 1 65.25 53.10)">8</text></g></svg>