<svg xmlns="http://www.w3.org/2000/svg" width="109" height="109" viewBox="0 0 109 109"><g><path class="bg" xmlns="http://www.w3.org/2000/svg" fill="none" stroke="#6c757d" d="M54.5,0L54.5,109" stroke-width="0.5" stroke-dasharray="4,1.5"/><path class="bg" xmlns="http://www.w3.org/2000/svg" fill="none" stroke="#6c757d" d="M0,54.5L109,54.5" stroke-width="0.5" stroke-dasharray="4,1.5"/></g><g style="fill:none;stroke:#000000;stroke-width:3;stroke-linecap:round;stroke-linejoin:round;"><g><g><g><g><g><g><path d="M12.25,27.95c4.25,0.93,8.04,0.63,11.77,0.17c15.23-1.87,43.1-4.25,61.23-4.96c3.59-0.14,6.62,0.09,10,0.63"/>					</g>				</g><g><g><g><path d="M33,14c1,1,1.67,2.5,1.61,3.5c-0.2,3.31-0.6,13.03-0.84,20c-0.04,1.18-0.08,2.27-0.11,3.25"/>						</g>					</g>				</g><g><g><g><path d="M53.45,10.5c0.96,0.96,1.38,2.48,1.36,3.5c-0.07,4.25-0.19,14.88-0.21,23"/>						</g>					</g>				</g>			</g><g><path d="M74.65,12.5c0.86,0.86,1.44,2.48,1.36,3.5c-0.27,3.5-1.64,11.38-2.46,19.25"/>			</g>		</g><g><path d="M33.85,39.88c9.78-1.01,26.65-3.01,36.04-3.63c2.04-0.13,3.74-0.13,5.19,0.38"/>		</g>	</g><g><g><path d="M17.75,50.62c-0.15,3.93-3.73,16.28-5,18.62"/><path d="M18.4,52.34c3.84-0.45,49.59-6.35,68.62-6.35c14.24,0,1.12,7.48-0.56,8.81"/>		</g><g><path d="M30.71,62.14c0.66,0.61,1.19,1.99,1.19,3.03c0,2.09,0.03,10.83,0.05,17.2c0,1.88,0.01,3.55,0.01,4.78"/><path d="M32.43,64.79c5.07-0.92,39.64-4.98,42.37-5.13c3.22-0.18,3.88,3.04,3.8,4.63c-0.46,8.48-0.6,11.46-2,18.01c-0.86,4-4.22,2.82-6.62-0.41"/><path d="M52.1,50.88c1.01,1.01,1.44,2.37,1.44,3.53c0,0.57,0.04,25.2,0.05,38.08c0,3.1,0.01,5.52,0.01,6.76"/>		</g>	</g></g></g><g style="font-size:8;fill:#808080"><text transform="matrix(1 0 0 1 4.99 28.63)">1</text><text transform="matrix(1 0 0 1 24.50 14.50)">2</text><text transform="matrix(1 0 0 1 44.50 11.50)">3</text><text transform="matrix(1 0 0 1 65.50 13.41)">4</text><text transform="matrix(1 0 0 1 38.25 37.63)">5</text><text transform="matrix(1 0 0 1 10.50 55.50)">6</text><text transform="matrix(1 0 0 1 20.50 49.50)">7</text><text transform="matrix(1 0 0 1 24.50 70.50)">8</text><text transform="matrix(1 0 0 1 33.50 61.63)">9</text><text transform="matrix(1 0 0 1 43.50 57.50)">10</text></g></svg>