<svg xmlns="http://www.w3.org/2000/svg" width="109" height="109" viewBox="0 0 109 109"><g><path class="bg" xmlns="http://www.w3.org/2000/svg" fill="none" stroke="#6c757d" d="M54.5,0L54.5,109" stroke-width="0.5" stroke-dasharray="4,1.5"/><path class="bg" xmlns="http://www.w3.org/2000/svg" fill="none" stroke="#6c757d" d="M0,54.5L109,54.5" stroke-width="0.5" stroke-dasharray="4,1.5"/></g><g style="fill:none;stroke:#000000;stroke-width:3;stroke-linecap:round;stroke-linejoin:round;"><g><g><g><path d="M29.13,18.37c2.25,0.51,6.21,0.08,8.61-0.19c7.9-0.9,23.36-2.62,33.49-3.61c3.04-0.3,6.15-0.55,9.15,0.27"/>		</g>	</g><path d="M26.75,30.38c4.69,3.83,9.88,11.88,11.06,17.84"/><path d="M80.77,24.64c0.08,1.08,0.09,2.12-0.32,3.13C78.5,32.5,73.5,40.5,67.56,46.47"/><g><g><path d="M14.88,61.03c3.5,0.85,7.24,0.89,10.74,0.48c16.14-1.88,44.9-4.12,61.26-4.78c3.28-0.13,6.51-0.29,9.75,0.3"/><path d="M53.31,18.88c1.16,1.16,1.79,3.12,1.79,4.83c0,4.25-0.13,49.44-0.17,68.16c-0.01,3.48-0.01,6.04-0.01,7.26"/>		</g>	</g></g></g><g style="font-size:8;fill:#808080"><text transform="matrix(1 0 0 1 22.50 18.13)">1</text><text transform="matrix(1 0 0 1 19.50 30.13)">2</text><text transform="matrix(1 0 0 1 71.50 26.50)">3</text><text transform="matrix(1 0 0 1 6.75 63.13)">4</text><text transform="matrix(1 0 0 1 46.50 28.63)">5</text></g></svg>