<svg xmlns="http://www.w3.org/2000/svg" width="109" height="109" viewBox="0 0 109 109"><g><path class="bg" xmlns="http://www.w3.org/2000/svg" fill="none" stroke="#6c757d" d="M54.5,0L54.5,109" stroke-width="0.5" stroke-dasharray="4,1.5"/><path class="bg" xmlns="http://www.w3.org/2000/svg" fill="none" stroke="#6c757d" d="M0,54.5L109,54.5" stroke-width="0.5" stroke-dasharray="4,1.5"/></g><g style="fill:none;stroke:#000000;stroke-width:3;stroke-linecap:round;stroke-linejoin:round;"><g><g><path d="M55.1,15.28c1.12,1.12,1.58,2.47,1.58,4.14c0,2.46-0.07,5.21-0.07,9.28"/><g><path d="M25.38,31.24c2.05,0.5,5.56,0.66,7.6,0.5c13.01-1,33.26-3.37,49.47-3.67c3.41-0.06,5.46,0.24,7.17,0.49"/><path d="M27.64,32.32c0.48,1.18,0.54,2.27,0.41,4.09C27.25,47.62,24.12,71.5,12,87.25"/>		</g>	</g><g><path d="M59.48,44.99c0.39,1.51,0.14,3.51-0.73,5.26c-6.05,12.1-14,25-22.17,38.22c-1.83,2.95-1.31,4.35,1.97,3.67c9.7-2.01,29.33-6.26,42.83-8.86"/><path d="M72.56,69.34C77.75,74,85.25,85.5,88,93.75"/>	</g></g></g><g style="font-size:8;fill:#808080"><text transform="matrix(1 0 0 1 50 12)">1</text><text transform="matrix(1 0 0 1 30.75 27.13)">2</text><text transform="matrix(1 0 0 1 17.25 37.63)">3</text><text transform="matrix(1 0 0 1 51.50 43.50)">4</text><text transform="matrix(1 0 0 1 70 65)">5</text></g></svg>