<svg xmlns="http://www.w3.org/2000/svg" width="109" height="109" viewBox="0 0 109 109"><g><path class="bg" xmlns="http://www.w3.org/2000/svg" fill="none" stroke="#6c757d" d="M54.5,0L54.5,109" stroke-width="0.5" stroke-dasharray="4,1.5"/><path class="bg" xmlns="http://www.w3.org/2000/svg" fill="none" stroke="#6c757d" d="M0,54.5L109,54.5" stroke-width="0.5" stroke-dasharray="4,1.5"/></g><g style="fill:none;stroke:#000000;stroke-width:3;stroke-linecap:round;stroke-linejoin:round;"><g><g><path d="M52.05,10.75c0.2,0.88-0.05,2.25-0.52,3.01c-4.91,7.99-13.16,17.99-21.34,25.72c-2.48,2.34-2.01,4.29,1.68,3.51C41.25,41,60,37,73.69,34.09"/><path d="M66.21,25.98c5.35,2.87,13.17,11.4,15.17,16.24"/>	</g><g><g><path d="M13.88,63.48c3.75,0.77,6.66,0.58,9.75,0.28c16.75-1.63,44.02-4.51,62.75-5.32c3.21-0.14,6.6-0.04,9.75,0.64"/>		</g><g><path d="M40.13,45.25c1.06,1.06,1.79,2.55,1.82,4.37c0.42,23.5-2.45,37.88-19.45,49.13"/>		</g><g><path d="M66.62,42.25c0.94,0.94,1.46,2.38,1.46,3.5c0,4.25-0.05,33.74-0.07,47c0,3.12-0.01,5.34-0.01,6.12"/>		</g>	</g></g></g><g style="font-size:8;fill:#808080"><text transform="matrix(1 0 0 1 44.50 10.50)">1</text><text transform="matrix(1 0 0 1 58.50 24.50)">2</text><text transform="matrix(1 0 0 1 5.50 64.50)">3</text><text transform="matrix(1 0 0 1 34.50 53.50)">4</text><text transform="matrix(1 0 0 1 59.50 50.50)">5</text></g></svg>