<svg xmlns="http://www.w3.org/2000/svg" width="109" height="109" viewBox="0 0 109 109"><g><path class="bg" xmlns="http://www.w3.org/2000/svg" fill="none" stroke="#6c757d" d="M54.5,0L54.5,109" stroke-width="0.5" stroke-dasharray="4,1.5"/><path class="bg" xmlns="http://www.w3.org/2000/svg" fill="none" stroke="#6c757d" d="M0,54.5L109,54.5" stroke-width="0.5" stroke-dasharray="4,1.5"/></g><g style="fill:none;stroke:#000000;stroke-width:3;stroke-linecap:round;stroke-linejoin:round;"><g><g><path d="M52.28,12.87c1.47,0.9,2.62,2.15,2.62,4.17c0,14.34-0.11,19.12-0.11,31.96"/><path d="M24.27,24.83c3.99,2.76,10.3,11.34,11.29,15.63"/><path d="M83.99,19c0.09,1.19-0.39,2.8-1,3.83c-3.49,5.92-7.74,11.42-12.69,16.63"/>	</g><g><path d="M24.2,50.18c2.18,0.57,4.62,0.72,7.34,0.54C50.25,49.5,76,47.75,81.15,47.25c3.82-0.37,5.35,2.53,4.91,5.48c-1.28,8.48-2.87,22.66-4.04,33.52c-0.25,2.29-0.48,4.45-0.68,6.39"/><path d="M25.25,69.74c2.71,0.45,4.74,0.61,7.68,0.4C45,69.25,72.25,67,83.12,67.18"/><path d="M24.22,92.41c2.48,0.71,4.99,0.68,7.53,0.44c13.2-1.24,33.36-2.85,47.92-2.82"/>	</g></g></g><g style="font-size:8;fill:#808080"><text transform="matrix(1 0 0 1 44.50 14.50)">1</text><text transform="matrix(1 0 0 1 15.75 24.50)">2</text><text transform="matrix(1 0 0 1 75.75 18.50)">3</text><text transform="matrix(1 0 0 1 16.50 51.13)">4</text><text transform="matrix(1 0 0 1 17.50 71.50)">5</text><text transform="matrix(1 0 0 1 16.50 94.63)">6</text></g></svg>