<svg xmlns="http://www.w3.org/2000/svg" width="109" height="109" viewBox="0 0 109 109"><g><path class="bg" xmlns="http://www.w3.org/2000/svg" fill="none" stroke="#6c757d" d="M54.5,0L54.5,109" stroke-width="0.5" stroke-dasharray="4,1.5"/><path class="bg" xmlns="http://www.w3.org/2000/svg" fill="none" stroke="#6c757d" d="M0,54.5L109,54.5" stroke-width="0.5" stroke-dasharray="4,1.5"/></g><g style="fill:none;stroke:#000000;stroke-width:3;stroke-linecap:round;stroke-linejoin:round;"><g><g><path d="M21.61,31.38c2.76,0.87,6.01,0.74,8.64,0.43c13.5-1.57,34.11-3.99,48.01-4.46c2.63-0.09,5.55,0.06,8.14,0.62"/><path d="M52.77,12.25c1.12,1.12,1.83,3.25,1.83,4.64c0,6.61-0.09,25.32-0.09,32.36"/><path d="M28.46,51.82c2.29,0.43,5.54,0.38,7.8,0.11c11.25-1.31,25-2.69,36.87-3.6c2.33-0.18,4.82,0.06,7.13,0.49"/>	</g><g><path d="M19.75,73.5c0.36,2.33-3.61,12.64-6.5,16.54"/><path d="M32.84,70c10.79,20,23.37,27.44,47.85,26.57c8.93-0.32,8.31-3.07,3.29-7.43"/><path d="M51.44,63.25c3.18,6.25,7.4,10.87,8.59,5.58"/><path d="M81.99,62.78c4.88,2.67,8.88,6.47,12.51,13.37"/>	</g></g></g><g style="font-size:8;fill:#808080"><text transform="matrix(1 0 0 1 15.50 32.50)">1</text><text transform="matrix(1 0 0 1 42.50 12.50)">2</text><text transform="matrix(1 0 0 1 21.50 51.50)">3</text><text transform="matrix(1 0 0 1 15.50 69.50)">4</text><text transform="matrix(1 0 0 1 27.50 67.50)">5</text><text transform="matrix(1 0 0 1 45.50 64.48)">6</text><text transform="matrix(1 0 0 1 74.50 62.50)">7</text></g></svg>