<svg xmlns="http://www.w3.org/2000/svg" width="109" height="109" viewBox="0 0 109 109"><g><path class="bg" xmlns="http://www.w3.org/2000/svg" fill="none" stroke="#6c757d" d="M54.5,0L54.5,109" stroke-width="0.5" stroke-dasharray="4,1.5"/><path class="bg" xmlns="http://www.w3.org/2000/svg" fill="none" stroke="#6c757d" d="M0,54.5L109,54.5" stroke-width="0.5" stroke-dasharray="4,1.5"/></g><g style="fill:none;stroke:#000000;stroke-width:3;stroke-linecap:round;stroke-linejoin:round;"><g><g><g><path d="M34.12,13.62c0.38,0.86,0.57,2.26,0.38,3.5c-0.97,6.08-4.99,21.12-9.27,28.24c-0.88,1.46,0.38,2.07,0.88,2.16c5.29,1.05,12.02,3.75,17.25,6.99c1.74,1.08,4.15,3,5.65,4.97"/><path d="M46.01,25.04c0.36,0.96,0.36,2.33,0.11,3.64C44.12,39.22,38.5,55.38,23.5,63"/><path d="M13,37.57c0.78,1.19,1.88,1.21,3.9,0.69c7.97-2.02,20.22-4.89,31.85-8.1"/>		</g><g><path d="M57.14,22.19c2.12,0.46,3.84,0.2,5.99-0.15c5.49-0.89,17.83-3.35,19.1-3.65c2.4-0.57,3.73,1.22,2.52,3.97C78.6,36.28,68.5,49.61,55.78,55.43"/><path d="M57.22,30.62c2.97,0.55,16.34,13.94,27.38,21.55c2.32,1.6,5.28,3.33,7.88,4.42"/>		</g>	</g><g><path d="M20.4,75.32c0.28,2.5-2.81,13.51-5.07,17.67"/><path d="M32,70.25c7,13.25,16.75,23.5,41.78,23.68c11.47,0.08,12.22-2.43,4.15-9.44"/><path d="M54.41,69.25c2.34,4.12,5.22,9.38,6.88,3.21"/><path d="M83.38,69.23c4.62,2.39,7.74,4.89,11.85,10.36"/>	</g></g></g><g style="font-size:8;fill:#808080"><text transform="matrix(1 0 0 1 26.50 13.50)">1</text><text transform="matrix(1 0 0 1 43.50 21.50)">2</text><text transform="matrix(1 0 0 1 5.50 41.50)">3</text><text transform="matrix(1 0 0 1 55.50 19.50)">4</text><text transform="matrix(1 0 0 1 53.50 38.50)">5</text><text transform="matrix(1 0 0 1 14.50 73.63)">6</text><text transform="matrix(1 0 0 1 25.50 72.50)">7</text><text transform="matrix(1 0 0 1 47.25 72.13)">8</text><text transform="matrix(1 0 0 1 74.25 70.63)">9</text></g></svg>