<svg xmlns="http://www.w3.org/2000/svg" width="109" height="109" viewBox="0 0 109 109"><g><path class="bg" xmlns="http://www.w3.org/2000/svg" fill="none" stroke="#6c757d" d="M54.5,0L54.5,109" stroke-width="0.5" stroke-dasharray="4,1.5"/><path class="bg" xmlns="http://www.w3.org/2000/svg" fill="none" stroke="#6c757d" d="M0,54.5L109,54.5" stroke-width="0.5" stroke-dasharray="4,1.5"/></g><g style="fill:none;stroke:#000000;stroke-width:3;stroke-linecap:round;stroke-linejoin:round;"><g><g><path d="M16.38,39.75c0,6.61-2.68,16.36-3.38,18.25"/><path d="M31,32.62c3.99,2.13,10.31,8.77,11.31,12.09"/><path d="M26.12,14.5c0.94,0.94,1.21,2.38,1.21,3.75c0,0.69,0.04,49.01,0.04,68.88c0,4.98,0,8.18-0.01,8.38"/>	</g><g><g><g><path d="M46.8,24.07c2.2,0.3,4.71,0.25,6.71-0.02c7.74-1.05,23.79-3.26,32.13-3.84c2.31-0.16,4.79-0.15,7.04,0.52"/>			</g>		</g><g><g><path d="M53.07,38.09c0.92,0.92,1.23,2.13,1.23,3.39s0.08,17.77,0.02,27.26c-0.01,1.35-0.01,2.69,0,4.04"/><path d="M54.76,39.92c5.98-0.75,23.04-3.44,25.14-3.74s3.53,0.87,3.53,3.1s-0.13,17.74-0.11,25.98c0,1.77,0.02,3.45,0.04,5"/><path d="M55.54,54.29c8.34-1.29,21.1-2.77,26.74-3.25"/><path d="M55.35,69.74c7.9-0.74,17.9-2.15,26.8-2.71"/>			</g><g><g><path d="M42.78,87.16c2.11,0.86,5.51,0.82,7.74,0.57c10.86-1.23,28.3-2.98,39.11-3.24c2.37-0.06,4.77-0.16,7.09,0.41"/>				</g>			</g>		</g>	</g></g></g><g style="font-size:8;fill:#808080"><text transform="matrix(1 0 0 1 9.75 39.13)">1</text><text transform="matrix(1 0 0 1 35.25 31.63)">2</text><text transform="matrix(1 0 0 1 15.75 13.63)">3</text><text transform="matrix(1 0 0 1 44.50 21.50)">4</text><text transform="matrix(1 0 0 1 46.50 46.50)">5</text><text transform="matrix(1 0 0 1 55.50 36.13)">6</text><text transform="matrix(1 0 0 1 59.25 50.50)">7</text><text transform="matrix(1 0 0 1 59.25 66.50)">8</text><text transform="matrix(1 0 0 1 40.50 84.13)">9</text></g></svg>