<svg xmlns="http://www.w3.org/2000/svg" width="109" height="109" viewBox="0 0 109 109"><g><path class="bg" xmlns="http://www.w3.org/2000/svg" fill="none" stroke="#6c757d" d="M54.5,0L54.5,109" stroke-width="0.5" stroke-dasharray="4,1.5"/><path class="bg" xmlns="http://www.w3.org/2000/svg" fill="none" stroke="#6c757d" d="M0,54.5L109,54.5" stroke-width="0.5" stroke-dasharray="4,1.5"/></g><g style="fill:none;stroke:#000000;stroke-width:3;stroke-linecap:round;stroke-linejoin:round;"><g><g><g><path d="M16.75,34.2c3.62,0.68,8.01,0.24,11.41-0.4c13.72-2.55,34.59-5.55,52.35-7.09c3.13-0.27,6.16-0.33,9.24,0.33"/>		</g>	</g><g><g><path d="M18.13,62.17c0.91,0.32,2.57,0.38,3.48,0.32c9.43-0.54,23.4-5.38,33.85-5.75c1.5-0.05,2.42,0.05,3.17,0.1"/>		</g><g><path d="M30.02,46.9c0.92,0.92,1.19,2.14,1.23,3.67c0.33,13.94-0.49,31.18-11.96,40.9"/>		</g><g><path d="M45.51,40.8c1.09,1.09,1.67,2.45,1.67,4.19c0,2.2,0.08,30.77,0.11,43.51c0.01,3.22,0.01,5.42,0.01,5.94"/>		</g>	</g><g><path d="M55.25,12.75c1.62,1.78,2.14,3.26,2.38,7.09c1.87,29.78,13.27,62.97,32.1,73.88c6.41,3.72,5.47,0.76,4.66-7.11"/><g><path d="M83.48,43.39c0,1.23-0.15,2.22-0.66,3.65C78.62,58.75,71,74.62,54.56,87.72"/>		</g><g><g><path d="M70.25,11.38c3.59,1.73,9.33,5.67,11,8.62"/>			</g>		</g>	</g></g></g><g style="font-size:8;fill:#808080"><text transform="matrix(1 0 0 1 9.50 35.50)">1</text><text transform="matrix(1 0 0 1 11.25 63.05)">2</text><text transform="matrix(1 0 0 1 21.50 48.50)">3</text><text transform="matrix(1 0 0 1 36.50 43.63)">4</text><text transform="matrix(1 0 0 1 45.75 14.50)">5</text><text transform="matrix(1 0 0 1 73.50 42.50)">6</text><text transform="matrix(1 0 0 1 63.50 10.50)">7</text></g></svg>