<svg xmlns="http://www.w3.org/2000/svg" width="109" height="109" viewBox="0 0 109 109"><g><path class="bg" xmlns="http://www.w3.org/2000/svg" fill="none" stroke="#6c757d" d="M54.5,0L54.5,109" stroke-width="0.5" stroke-dasharray="4,1.5"/><path class="bg" xmlns="http://www.w3.org/2000/svg" fill="none" stroke="#6c757d" d="M0,54.5L109,54.5" stroke-width="0.5" stroke-dasharray="4,1.5"/></g><g style="fill:none;stroke:#000000;stroke-width:3;stroke-linecap:round;stroke-linejoin:round;"><g><g><path d="M51.62,12.75c1.06,1.06,1.73,2.5,1.73,4.01c0,4.32-0.11,7.61-0.11,12.15"/><path d="M16.88,32.72c2.7,0.66,5.71,0.86,8.6,0.54c15.77-1.76,40.15-5.01,56.42-6.1c3.67-0.25,6.15,0.05,8.88,0.69"/>	</g><g><path d="M69.89,32.5c0.36,2.12,0.06,3.82-0.93,6.27C61.62,57,43.75,80.25,18.75,93.75"/><path d="M31,43.75c6,0,27.27,26.79,49.26,42.1c4.13,2.87,7.49,4.77,11.49,6.04"/>	</g></g></g><g style="font-size:8;fill:#808080"><text transform="matrix(1 0 0 1 41.25 13.50)">1</text><text transform="matrix(1 0 0 1 8.50 33.50)">2</text><text transform="matrix(1 0 0 1 61.50 38.50)">3</text><text transform="matrix(1 0 0 1 25.50 46.50)">4</text></g></svg>