<svg xmlns="http://www.w3.org/2000/svg" width="109" height="109" viewBox="0 0 109 109"><g><path class="bg" xmlns="http://www.w3.org/2000/svg" fill="none" stroke="#6c757d" d="M54.5,0L54.5,109" stroke-width="0.5" stroke-dasharray="4,1.5"/><path class="bg" xmlns="http://www.w3.org/2000/svg" fill="none" stroke="#6c757d" d="M0,54.5L109,54.5" stroke-width="0.5" stroke-dasharray="4,1.5"/></g><g style="fill:none;stroke:#000000;stroke-width:3;stroke-linecap:round;stroke-linejoin:round;"><g><g><path d="M33.02,20.96c3.52,1.46,9.1,6.02,9.98,8.29"/>	</g><g><path d="M26.38,41c3.93,1.37,10.14,5.62,11.12,7.75"/>	</g><path d="M13,66c3.23,1.08,6.33,0.69,9.63,0.28C42,63.88,73.45,60.89,88.75,59.4c3.13-0.31,5.05-0.25,8,0.35"/><path d="M56,12.5c1.25,1.25,1.75,2.75,1.75,5c0,7.79,0,50.72,0,71.75c0,4.62,0,8.08,0,9.75"/></g></g><g style="font-size:8;fill:#808080"><text transform="matrix(1 0 0 1 26.25 21.13)">1</text><text transform="matrix(1 0 0 1 18.75 42.13)">2</text><text transform="matrix(1 0 0 1 4.50 67.50)">3</text><text transform="matrix(1 0 0 1 45.50 12.13)">4</text></g></svg>