<svg xmlns="http://www.w3.org/2000/svg" width="109" height="109" viewBox="0 0 109 109"><g><path class="bg" xmlns="http://www.w3.org/2000/svg" fill="none" stroke="#6c757d" d="M54.5,0L54.5,109" stroke-width="0.5" stroke-dasharray="4,1.5"/><path class="bg" xmlns="http://www.w3.org/2000/svg" fill="none" stroke="#6c757d" d="M0,54.5L109,54.5" stroke-width="0.5" stroke-dasharray="4,1.5"/></g><g style="fill:none;stroke:#000000;stroke-width:3;stroke-linecap:round;stroke-linejoin:round;"><g><g><path d="M17.27,40.03c1.16,1.16,1.63,2.27,1.8,3.82c0.35,3.16,2.4,28.1,3.46,41.43c0.06,0.73,0.46,5.87,0.54,6.96"/><path d="M19.94,42.98c22.12-2.87,47.03-5.31,63.95-6.64c3.6-0.28,7.63,1.09,7.17,5.31c-0.8,7.23-3,26.09-4.99,39.38c-0.12,0.81-1.01,6.35-1.31,7.98"/>	</g><g><g><path d="M39.87,21c0.94,0.94,1.42,2.5,1.46,4C42,48.62,42.5,73.12,42.75,86.5"/>		</g><g><path d="M66.87,16.5c1.38,1.38,1.59,2.5,1.46,4.25c-2.33,30.38-2.83,42.88-4.58,64"/>		</g><g><g><path d="M21.96,64.76C40.38,62.5,63.5,60.12,88,58.75"/>			</g>		</g>	</g><g><path d="M24.02,88.8c8.14-0.76,45.85-3.55,60.23-4.05"/>	</g></g></g><g style="font-size:8;fill:#808080"><text transform="matrix(1 0 0 1 12.50 50.50)">1</text><text transform="matrix(1 0 0 1 22.50 39.50)">2</text><text transform="matrix(1 0 0 1 30.75 21.50)">3</text><text transform="matrix(1 0 0 1 56.50 16.50)">4</text><text transform="matrix(1 0 0 1 25.50 61.50)">5</text><text transform="matrix(1 0 0 1 26.50 85.50)">6</text></g></svg>