<svg xmlns="http://www.w3.org/2000/svg" width="109" height="109" viewBox="0 0 109 109"><g><path class="bg" xmlns="http://www.w3.org/2000/svg" fill="none" stroke="#6c757d" d="M54.5,0L54.5,109" stroke-width="0.5" stroke-dasharray="4,1.5"/><path class="bg" xmlns="http://www.w3.org/2000/svg" fill="none" stroke="#6c757d" d="M0,54.5L109,54.5" stroke-width="0.5" stroke-dasharray="4,1.5"/></g><g style="fill:none;stroke:#000000;stroke-width:3;stroke-linecap:round;stroke-linejoin:round;"><g><g><path d="M30.63,25.23c2.36,0.62,4.86,0.47,7.25,0.22c8.24-0.86,22.7-2.7,32.4-3.57c2.38-0.21,4.51-0.14,6.85,0.22"/>	</g><g><path d="M26.77,37.86c1.03,1.03,1.78,2.05,2.07,3.44c0.86,4.14,3.61,16.02,4.97,21.91c0.43,1.87,0.72,3.14,0.76,3.36"/><path d="M29.55,39.31c14.7-2.12,34.45-4.37,48.18-5.5c2.89-0.24,4.02,2.01,3.49,4.2c-1.33,5.48-2.84,12.21-5.27,19.87c-0.52,1.65-1.08,3.3-1.7,4.94"/><path d="M32.25,51.07c8.12-0.88,37.75-4.12,45.57-4.4"/><path d="M35.76,63.99c8.99-1.05,28.37-2.68,38.3-3.23"/>	</g><g><path d="M51.25,12.32c1.5,1.5,2.25,3.5,2.25,5.25c0,4.5,0.06,55.21-0.14,75.75c-0.04,3.7-0.07,5.29-0.11,6.25"/><g><path d="M51.62,63.94c-0.24,1.91-0.81,2.76-1.27,3.45c-6.59,9.83-20.19,21.12-31.6,26.42"/>		</g><path d="M55,64.44c7.5,7.2,21.77,17.49,29.78,22.16c2.81,1.64,6.1,3.51,9.34,4.09"/>	</g></g></g><g style="font-size:8;fill:#808080"><text transform="matrix(1 0 0 1 23.25 21.70)">1</text><text transform="matrix(1 0 0 1 17.25 45.70)">2</text><text transform="matrix(1 0 0 1 30.75 36.70)">3</text><text transform="matrix(1 0 0 1 35.25 48.70)">4</text><text transform="matrix(1 0 0 1 38.25 60.70)">5</text><text transform="matrix(1 0 0 1 45.75 6.70)">6</text><text transform="matrix(1 0 0 1 33.75 78.70)">7</text><text transform="matrix(1 0 0 1 71.25 74.20)">8</text></g></svg>