<svg xmlns="http://www.w3.org/2000/svg" width="109" height="109" viewBox="0 0 109 109"><g><path class="bg" xmlns="http://www.w3.org/2000/svg" fill="none" stroke="#6c757d" d="M54.5,0L54.5,109" stroke-width="0.5" stroke-dasharray="4,1.5"/><path class="bg" xmlns="http://www.w3.org/2000/svg" fill="none" stroke="#6c757d" d="M0,54.5L109,54.5" stroke-width="0.5" stroke-dasharray="4,1.5"/></g><g style="fill:none;stroke:#000000;stroke-width:3;stroke-linecap:round;stroke-linejoin:round;"><g><g><g><path d="M17,26.38c4.41,1.57,9.88,5.25,11.75,8.62"/>		</g><g><path d="M12.12,85.87c1.15,0.22,2.28-0.25,3.01-1.2c1.15-1.48,8.1-13.15,12.49-20.67"/>		</g>	</g><g><path d="M53.95,16c0.43,0.86,0.6,1.9,0.35,2.81C52,26.88,44.88,40,36.25,48.41"/><path d="M47.36,39.52c1.15,0.29,2.56,0.4,4.31,0.25C54.88,39.5,73.99,34.7,79,33.5c6.25-1.5,6,2.5-3.5,11.4"/><path d="M56.77,49.2c0.73,1.3,0.8,2.71,0.58,4.26c-1.85,13.41-9.73,30.41-25.6,39.03"/><path d="M57.42,56.97c5.33,6.16,17.33,19.53,27.25,28.88c2.29,2.16,4.33,3.78,7.83,5.28"/>	</g></g></g><g style="font-size:8;fill:#808080"><text transform="matrix(1 0 0 1 9.75 27.13)">1</text><text transform="matrix(1 0 0 1 5.25 91.63)">2</text><text transform="matrix(1 0 0 1 45.75 17.24)">3</text><text transform="matrix(1 0 0 1 56.25 34.63)">4</text><text transform="matrix(1 0 0 1 48.75 55.63)">5</text><text transform="matrix(1 0 0 1 66.75 61.66)">6</text></g></svg>