<svg xmlns="http://www.w3.org/2000/svg" width="109" height="109" viewBox="0 0 109 109"><g><path class="bg" xmlns="http://www.w3.org/2000/svg" fill="none" stroke="#6c757d" d="M54.5,0L54.5,109" stroke-width="0.5" stroke-dasharray="4,1.5"/><path class="bg" xmlns="http://www.w3.org/2000/svg" fill="none" stroke="#6c757d" d="M0,54.5L109,54.5" stroke-width="0.5" stroke-dasharray="4,1.5"/></g><g style="fill:none;stroke:#000000;stroke-width:3;stroke-linecap:round;stroke-linejoin:round;"><g><g><g><path d="M44.13,10.62c0.11,1.39-0.04,2.48-0.54,3.78c-2.23,5.81-9.37,16.73-16.84,22.34"/>		</g><path d="M43.77,23.04c1.73,0.08,3.68,0.03,4.73-0.04c6.88-0.46,19.87-3.02,27.66-4.42c2.11-0.38,3.74-0.39,5.84-0.14"/>	</g><g><path d="M41.55,34.87c1.1,0.91,1.96,3.97,1.36,6.3C40.25,51.5,33.25,67,29.45,72.74c-1.98,2.99-0.52,4.58,1.57,4.62c11.98,0.26,25.1,1.88,37.95,5.72c5.92,1.77,11.28,4.6,15.77,7.92"/><path d="M44.26,37.32c9.17-1.07,22.11-2.57,28.58-3.32c3.9-0.45,6.36,2.01,6.1,5.12c-1.44,17.51-4.81,42.51-11.32,56.07c-2.99,6.22-6.5-1.15-7.52-2.27"/><path d="M58.71,39.5c0.51,1,0.75,2.74,0.53,4c-1.53,8.5-7.11,27-9.92,35"/><path d="M10.88,58.99c2.46,0.56,6.98,0.49,9.45,0.31c21.05-1.54,44.8-3.42,69.3-3.88c4.11-0.08,6.57,0.26,8.62,0.54"/>	</g></g></g><g style="font-size:8;fill:#808080"><text transform="matrix(1 0 0 1 37.50 10.50)">1</text><text transform="matrix(1 0 0 1 50.50 19.50)">2</text><text transform="matrix(1 0 0 1 34.50 43.50)">3</text><text transform="matrix(1 0 0 1 45.50 33.50)">4</text><text transform="matrix(1 0 0 1 51.50 45.50)">5</text><text transform="matrix(1 0 0 1 3.50 60.50)">6</text></g></svg>