<svg xmlns="http://www.w3.org/2000/svg" width="109" height="109" viewBox="0 0 109 109"><g><path class="bg" xmlns="http://www.w3.org/2000/svg" fill="none" stroke="#6c757d" d="M54.5,0L54.5,109" stroke-width="0.5" stroke-dasharray="4,1.5"/><path class="bg" xmlns="http://www.w3.org/2000/svg" fill="none" stroke="#6c757d" d="M0,54.5L109,54.5" stroke-width="0.5" stroke-dasharray="4,1.5"/></g><g style="fill:none;stroke:#000000;stroke-width:3;stroke-linecap:round;stroke-linejoin:round;"><g><g><path d="M21.76,19.88c4.94,1.71,12.75,7.05,13.99,9.72"/><path d="M15.75,41.75c4.59,1.59,11.85,6.53,13,9"/><path d="M14.02,88.62c1.39,0.58,2.83,0.38,3.67-0.81C20.71,83.5,27,72.99,29.75,67.5"/>	</g><g><path d="M44.26,36.06c2.74,0.56,5.66,0.47,7.69,0.18c6.86-0.97,20.58-3.25,27.54-4c1.9-0.21,4.38-0.12,6.14,0.21"/><path d="M64.1,37.12c1.08,1.08,1.32,2.51,1.32,5.23c0,10.16-0.05,28.59-0.05,37.03"/><path d="M34.77,82.59c2.61,1.03,6.42,0.82,9.11,0.46c13.62-1.81,28.24-3.43,42.99-4.45c2.59-0.18,6.16-0.01,8.6,1.1"/>	</g></g></g><g style="font-size:8;fill:#808080"><text transform="matrix(1 0 0 1 15.50 19.63)">1</text><text transform="matrix(1 0 0 1 8.50 43.50)">2</text><text transform="matrix(1 0 0 1 7.50 93.50)">3</text><text transform="matrix(1 0 0 1 42.50 33.50)">4</text><text transform="matrix(1 0 0 1 57.50 46.50)">5</text><text transform="matrix(1 0 0 1 33.50 79.63)">6</text></g></svg>