<svg xmlns="http://www.w3.org/2000/svg" width="109" height="109" viewBox="0 0 109 109"><g><path class="bg" xmlns="http://www.w3.org/2000/svg" fill="none" stroke="#6c757d" d="M54.5,0L54.5,109" stroke-width="0.5" stroke-dasharray="4,1.5"/><path class="bg" xmlns="http://www.w3.org/2000/svg" fill="none" stroke="#6c757d" d="M0,54.5L109,54.5" stroke-width="0.5" stroke-dasharray="4,1.5"/></g><g style="fill:none;stroke:#000000;stroke-width:3;stroke-linecap:round;stroke-linejoin:round;"><g><g><path d="M21.75,19.75c3.88,1.5,10.03,6.17,11,8.5"/><path d="M16.75,42.38c3.62,1.48,9.34,6.08,10.25,8.38"/><path d="M15.5,89.98c2,0.52,3.81-0.19,4.75-1.74c2.07-3.41,4.09-7.55,7.25-14.84"/>	</g><g><path d="M35,54.06c2.96,0.91,5.47,0.57,8.39-0.27C54.1,50.68,80.11,40.95,85.5,39c2.63-0.95,5.25,0,4.76,2.86c-0.93,5.4-4.5,18.28-6.26,22.39c-2.25,5.25-4.25,3.75-7.25,0"/><path d="M65,19c0.94,0.94,1.75,2.62,1.75,3.75c0,5.12-0.18,29.87-0.37,43.5c-0.04,2.8-0.08,4.93-0.13,6"/><g><path d="M45.99,40.12c1.26,1.26,1.77,3.13,1.77,4.85c0,7.07-0.63,18.39-0.63,26.79c0,17.5,1.62,19.75,24.37,19.75s24.39-2,24.39-13.07"/>		</g>	</g></g></g><g style="font-size:8;fill:#808080"><text transform="matrix(1 0 0 1 14.25 20.50)">1</text><text transform="matrix(1 0 0 1 8.25 43.50)">2</text><text transform="matrix(1 0 0 1 6.50 91.50)">3</text><text transform="matrix(1 0 0 1 33.50 51.50)">4</text><text transform="matrix(1 0 0 1 56.50 21.50)">5</text><text transform="matrix(1 0 0 1 40.50 37.50)">6</text></g></svg>