<svg xmlns="http://www.w3.org/2000/svg" width="109" height="109" viewBox="0 0 109 109"><g><path class="bg" xmlns="http://www.w3.org/2000/svg" fill="none" stroke="#6c757d" d="M54.5,0L54.5,109" stroke-width="0.5" stroke-dasharray="4,1.5"/><path class="bg" xmlns="http://www.w3.org/2000/svg" fill="none" stroke="#6c757d" d="M0,54.5L109,54.5" stroke-width="0.5" stroke-dasharray="4,1.5"/></g><g style="fill:none;stroke:#000000;stroke-width:3;stroke-linecap:round;stroke-linejoin:round;"><g><g><path d="M22.88,15.62c4.45,1.58,11.5,6.5,12.62,8.97"/><path d="M17,39.25c4.68,1.5,12.08,6.17,13.25,8.5"/><path d="M17.25,87.72c1.68,0.73,2.96,0.3,3.97-1.05c3.53-4.69,6.81-10.18,10.03-16.17"/>	</g><g><g><path d="M69.62,16c0.25,1-0.17,1.88-0.52,2.59C66.12,24.62,62,31.75,55.19,40.46"/>		</g><g><path d="M46.44,42.16c1.07,1.07,1.37,2.17,1.37,3.88c0,1.46-0.09,27.72-0.05,41.46c0.01,2.3,0.01,4.28,0.01,5.75"/><path d="M48.47,44.43c4.52-0.61,27.92-2.99,35.22-3.72c3.14-0.31,4.94,0.3,4.93,3.91C88.62,48.58,88.8,69.3,88.73,85c-0.01,2.57-0.02,5-0.02,7.21"/><path d="M48.92,66.15c11.2-1.27,32.33-2.9,39.5-3.26"/><path d="M48.94,90.47c10.68-0.97,28.24-2.33,38.54-2.64"/>		</g>	</g></g></g><g style="font-size:8;fill:#808080"><text transform="matrix(1 0 0 1 17.25 16.63)">1</text><text transform="matrix(1 0 0 1 9.75 40.50)">2</text><text transform="matrix(1 0 0 1 9.75 92.98)">3</text><text transform="matrix(1 0 0 1 60.50 15.50)">4</text><text transform="matrix(1 0 0 1 40.50 51.13)">5</text><text transform="matrix(1 0 0 1 49.50 39.50)">6</text><text transform="matrix(1 0 0 1 52.50 62.50)">7</text><text transform="matrix(1 0 0 1 52.46 87.50)">8</text></g></svg>