<svg xmlns="http://www.w3.org/2000/svg" width="109" height="109" viewBox="0 0 109 109"><g><path class="bg" xmlns="http://www.w3.org/2000/svg" fill="none" stroke="#6c757d" d="M54.5,0L54.5,109" stroke-width="0.5" stroke-dasharray="4,1.5"/><path class="bg" xmlns="http://www.w3.org/2000/svg" fill="none" stroke="#6c757d" d="M0,54.5L109,54.5" stroke-width="0.5" stroke-dasharray="4,1.5"/></g><g style="fill:none;stroke:#000000;stroke-width:3;stroke-linecap:round;stroke-linejoin:round;"><g><g><path d="M21.26,16c3.79,1.52,9.79,6.23,10.74,8.59"/><path d="M12.25,40c3.71,1.54,9.57,6.35,10.5,8.75"/><path d="M14.5,91.37c1.42,0.2,2.93-0.52,3.59-1.68c2.81-4.92,7.11-14.92,9.66-21.2"/>	</g><g><g><path d="M56.38,13.75c4.94,2.02,12.2,7.68,13.43,10.82"/>		</g><g><path d="M42,39.52c2.5,0.36,5.2,0.17,7.37,0c9.63-0.76,23.25-2.15,33.13-2.64c2.18-0.11,4.38-0.31,6.5,0.34"/><path d="M64.75,41.79c1.04,1.04,1.5,2.46,1.5,3.94c0,5.95,0,31.52,0,39.91"/><path d="M46.75,62.4c2.38,0.35,4.56,0.28,6.38,0.06c8.12-0.97,16.99-2.47,27.62-3.19c1.17-0.08,3.75-0.2,5.5,0.23"/><path d="M32.75,88.52c3,0.6,6.27,0.65,9.38,0.36c14.62-1.38,31.06-2.74,47.13-3.38c3.16-0.12,6.87,0,9.49,0.78"/>		</g>	</g></g></g><g style="font-size:8;fill:#808080"><text transform="matrix(1 0 0 1 14.25 13.63)">1</text><text transform="matrix(1 0 0 1 3.75 39.13)">2</text><text transform="matrix(1 0 0 1 5.25 97.63)">3</text><text transform="matrix(1 0 0 1 47.25 13.63)">4</text><text transform="matrix(1 0 0 1 35.25 36.13)">5</text><text transform="matrix(1 0 0 1 56.25 49.63)">6</text><text transform="matrix(1 0 0 1 39.75 63.13)">7</text><text transform="matrix(1 0 0 1 32.25 84.77)">8</text></g></svg>