<svg xmlns="http://www.w3.org/2000/svg" width="109" height="109" viewBox="0 0 109 109"><g><path class="bg" xmlns="http://www.w3.org/2000/svg" fill="none" stroke="#6c757d" d="M54.5,0L54.5,109" stroke-width="0.5" stroke-dasharray="4,1.5"/><path class="bg" xmlns="http://www.w3.org/2000/svg" fill="none" stroke="#6c757d" d="M0,54.5L109,54.5" stroke-width="0.5" stroke-dasharray="4,1.5"/></g><g style="fill:none;stroke:#000000;stroke-width:3;stroke-linecap:round;stroke-linejoin:round;"><g><g><path d="M21.76,18.25c4.06,1.25,10.48,5.15,11.49,7.09"/><path d="M17.62,39.88c4.11,1.56,9.25,5.75,11.12,8.38"/><path d="M18.38,88.12c1.24,0.51,2.49,0.23,3.24-1.03C24.49,82.2,27.38,76.23,30,70"/>	</g><g><path d="M44.58,32.67c2.1,0.9,4.75,0.39,6.92,0.15c7.47-0.83,23.62-3.2,32.86-4.01c2.17-0.19,4.17-0.33,6.3,0.22"/><g><path d="M47.32,45.2c0.81,0.81,1.11,1.93,1.11,3.05c0,0.49-0.04,23.45-0.05,38.25c0,2.27,0,4.35,0,6.12"/><path d="M49.04,46.26c7.6-1.14,30.36-4.19,35.59-4.86c3.38-0.44,4.7,0.96,4.7,4.11c0,5.7,0.03,27.37,0.03,41.92c0,11.16-5.18,1.67-6.2,1"/><path d="M49.54,59.78C63,58,78.38,56,88.03,55.42"/><path d="M49.21,73.93C57.5,72.75,80,69.5,88.29,69.24"/><path d="M66.72,14.78c1.07,1.07,1.3,2.47,1.3,4.09c0,0.87-0.02,45.86-0.02,69.26c0,2.21,0,4.23,0,6"/>		</g><g><path d="M85.09,15.5c3.2,1.32,8.27,5.43,9.07,7.48"/>		</g>	</g></g></g><g style="font-size:8;fill:#808080"><text transform="matrix(1 0 0 1 14.50 19.50)">1</text><text transform="matrix(1 0 0 1 10.50 40.50)">2</text><text transform="matrix(1 0 0 1 9.50 91.50)">3</text><text transform="matrix(1 0 0 1 47.25 27.13)">4</text><text transform="matrix(1 0 0 1 41.25 54.05)">5</text><text transform="matrix(1 0 0 1 50.50 43.50)">6</text><text transform="matrix(1 0 0 1 53.25 56.50)">7</text><text transform="matrix(1 0 0 1 53.25 70.48)">8</text><text transform="matrix(1 0 0 1 58.50 16.63)">9</text><text transform="matrix(1 0 0 1 77.50 12.13)">10</text></g></svg>