<svg xmlns="http://www.w3.org/2000/svg" width="109" height="109" viewBox="0 0 109 109"><g><path class="bg" xmlns="http://www.w3.org/2000/svg" fill="none" stroke="#6c757d" d="M54.5,0L54.5,109" stroke-width="0.5" stroke-dasharray="4,1.5"/><path class="bg" xmlns="http://www.w3.org/2000/svg" fill="none" stroke="#6c757d" d="M0,54.5L109,54.5" stroke-width="0.5" stroke-dasharray="4,1.5"/></g><g style="fill:none;stroke:#000000;stroke-width:3;stroke-linecap:round;stroke-linejoin:round;"><g><g><path d="M21.38,17.25c4.01,1.65,10.36,6.78,11.37,9.34"/><path d="M15.25,44.25C19.04,45.79,25.05,50.6,26,53"/><path d="M17.75,88.71c1.5,1.31,3.31,1.36,4.25-0.25C24.75,83.75,27.5,78,30,72"/>	</g><g><g><g><g><path d="M44.34,21.17c0.34,0.19,1.01,0.62,1.11,1.08c0.77,3.34,1.19,7.07,2.27,13.39"/><path d="M45.74,22.74c10.26-1.49,30.37-3.63,36.6-3.89c2.43-0.1,3.24,0.9,2.97,3.46c-0.26,2.45-0.76,3.48-2.37,8.94"/><path d="M47.69,33.93c6.93-0.67,27.68-2.17,37.37-2.8"/>				</g><g><path d="M63.55,10c0.96,0.51,1.73,2.26,1.73,3.31c0,9.69,0,22.08-0.19,28.44"/>				</g>			</g><path d="M36.5,43.2c1.17,0.54,3.31,0.62,4.48,0.54c11.27-0.74,36.3-3.24,50.68-3.73c1.95-0.07,3.12,0.26,4.09,0.53"/>		</g><g><g><path d="M47.76,51.05c0.57,0.84,0.97,3.13,0.97,4.25s0.05,31.31,0.05,31.87"/><path d="M49.25,52.56c7.75-0.81,28.3-3.66,31.24-3.83c2.45-0.14,3.85,0.64,3.32,3.49c-0.61,3.21-0.71,31.89-0.71,32.73"/><path d="M49.06,62.76c5.88-0.81,28.39-2.94,33.57-2.94"/><path d="M49.33,73c8.17-0.75,24.62-2.29,32.93-2.29"/><path d="M49.5,84.2c6.42,0,25.28-2.29,33.59-2.29"/>			</g><g><path d="M57.63,87.02c0.5,1.04-0.01,2.33-1,3.09c-2.98,2.3-11.16,6.93-17.12,9.64"/><path d="M71.67,87.21c7.4,3.06,16.14,8.61,18.16,11.29"/>			</g>		</g>	</g></g></g><g style="font-size:8;fill:#808080"><text transform="matrix(1 0 0 1 14.50 16.38)">1</text><text transform="matrix(1 0 0 1 6.50 43.50)">2</text><text transform="matrix(1 0 0 1 9.50 92.50)">3</text><text transform="matrix(1 0 0 1 38.25 28.50)">4</text><text transform="matrix(1 0 0 1 46.50 18.50)">5</text><text transform="matrix(1 0 0 1 50.50 30.50)">6</text><text transform="matrix(1 0 0 1 55.50 9.50)">7</text><text transform="matrix(1 0 0 1 35.50 39.50)">8</text><text transform="matrix(1 0 0 1 39.00 61.03)">9</text><text transform="matrix(1 0 0 1 50.50 49.45)">10</text><text transform="matrix(1 0 0 1 52.50 59.38)">11</text><text transform="matrix(1 0 0 1 52.50 70.50)">12</text><text transform="matrix(1 0 0 1 52.50 81.50)">13</text><text transform="matrix(1 0 0 1 41.50 92.50)">14</text><text transform="matrix(1 0 0 1 66.50 95.50)">15</text></g></svg>