<svg xmlns="http://www.w3.org/2000/svg" width="109" height="109" viewBox="0 0 109 109"><g><path class="bg" xmlns="http://www.w3.org/2000/svg" fill="none" stroke="#6c757d" d="M54.5,0L54.5,109" stroke-width="0.5" stroke-dasharray="4,1.5"/><path class="bg" xmlns="http://www.w3.org/2000/svg" fill="none" stroke="#6c757d" d="M0,54.5L109,54.5" stroke-width="0.5" stroke-dasharray="4,1.5"/></g><g style="fill:none;stroke:#000000;stroke-width:3;stroke-linecap:round;stroke-linejoin:round;"><g><path d="M24.25,34c3.27,3.33,8.5,13,9.5,17.75"/><path d="M83,27.25c0.5,1.38,0.22,2.74-0.5,4.25c-2.38,5-7.5,12.12-12.75,17.25"/><path d="M52.5,14.25c1,1.25,1.5,3.12,1.5,5C54,69,39.62,80,21,91.5"/><path d="M52.75,50c12.49,14.06,25.01,28.42,33.62,36.13c2.7,2.42,4.9,4.02,8.38,4.87"/></g></g><g style="font-size:8;fill:#808080"><text transform="matrix(1 0 0 1 16.50 32.50)">1</text><text transform="matrix(1 0 0 1 74.50 26.50)">2</text><text transform="matrix(1 0 0 1 41.50 14.50)">3</text><text transform="matrix(1 0 0 1 55.25 67.13)">4</text></g></svg>