<svg xmlns="http://www.w3.org/2000/svg" width="109" height="109" viewBox="0 0 109 109"><g><path class="bg" xmlns="http://www.w3.org/2000/svg" fill="none" stroke="#6c757d" d="M54.5,0L54.5,109" stroke-width="0.5" stroke-dasharray="4,1.5"/><path class="bg" xmlns="http://www.w3.org/2000/svg" fill="none" stroke="#6c757d" d="M0,54.5L109,54.5" stroke-width="0.5" stroke-dasharray="4,1.5"/></g><g style="fill:none;stroke:#000000;stroke-width:3;stroke-linecap:round;stroke-linejoin:round;"><g><g><path d="M23.12,26.9c2.96,0.95,6.23,0.55,9.27,0.27c13.63-1.25,32.76-4.23,44.87-4.97c2.98-0.18,5.92-0.28,8.87,0.29"/><path d="M24.93,27.73c0.79,0.79,1.18,2.14,1.18,3.24C26.11,48,26.5,70,12.81,87.22"/>	</g><g><path d="M39,50.25c2.03,2.81,4.98,10.78,5.53,13.59"/><path d="M80.39,44.04c0.11,1.09,0,1.99-0.75,3.15c-0.75,1.16-6.14,8.31-11.5,12.47"/><path d="M57.13,35.75c0.75,0.88,1.2,2.37,1.07,4.32C56.25,69.5,48,83.5,32.64,93.5"/><path d="M55.69,63.37C65.45,72.66,75.48,82.2,82.52,88c1.39,1.15,4.6,3.75,6.8,4.66"/>	</g></g></g><g style="font-size:8;fill:#808080"><text transform="matrix(1 0 0 1 29.50 24.50)">1</text><text transform="matrix(1 0 0 1 18.75 37.55)">2</text><text transform="matrix(1 0 0 1 33.50 46.50)">3</text><text transform="matrix(1 0 0 1 71.50 42.13)">4</text><text transform="matrix(1 0 0 1 49.50 41.50)">5</text><text transform="matrix(1 0 0 1 57.75 77.98)">6</text></g></svg>