<svg xmlns="http://www.w3.org/2000/svg" width="109" height="109" viewBox="0 0 109 109"><g><path class="bg" xmlns="http://www.w3.org/2000/svg" fill="none" stroke="#6c757d" d="M54.5,0L54.5,109" stroke-width="0.5" stroke-dasharray="4,1.5"/><path class="bg" xmlns="http://www.w3.org/2000/svg" fill="none" stroke="#6c757d" d="M0,54.5L109,54.5" stroke-width="0.5" stroke-dasharray="4,1.5"/></g><g style="fill:none;stroke:#000000;stroke-width:3;stroke-linecap:round;stroke-linejoin:round;"><g><g><path d="M18.38,46.36c2.37,0.64,5.38,0.73,7.74,0.47c14.39-1.58,36.51-4.46,51.25-5.75c2.51-0.22,6-0.33,7.89,0.42"/><path d="M50.25,15.75c1,1.08,1.61,2.16,1.74,4.32C53.75,48.25,46.5,79.75,17,92.25"/><path d="M51.5,45c8.29,11.97,23.78,31.58,35.16,41.85c2.37,2.14,4.59,4.15,8.09,5.4"/>	</g><g><path d="M67.33,20.25c6.9,3.89,8.78,6.85,10.92,10.5"/>	</g></g></g><g style="font-size:8;fill:#808080"><text transform="matrix(1 0 0 1 11.50 47.50)">1</text><text transform="matrix(1 0 0 1 39.75 15.50)">2</text><text transform="matrix(1 0 0 1 62.50 55.63)">3</text><text transform="matrix(1 0 0 1 60.50 19.50)">4</text></g></svg>