<svg xmlns="http://www.w3.org/2000/svg" width="109" height="109" viewBox="0 0 109 109"><g><path class="bg" xmlns="http://www.w3.org/2000/svg" fill="none" stroke="#6c757d" d="M54.5,0L54.5,109" stroke-width="0.5" stroke-dasharray="4,1.5"/><path class="bg" xmlns="http://www.w3.org/2000/svg" fill="none" stroke="#6c757d" d="M0,54.5L109,54.5" stroke-width="0.5" stroke-dasharray="4,1.5"/></g><g style="fill:none;stroke:#000000;stroke-width:3;stroke-linecap:round;stroke-linejoin:round;"><g><g><g><path d="M18.36,18.52c1.49,0.38,4.07,0.21,5.21,0.07c4.56-0.58,17.17-2.72,19.09-3.08c0.97-0.19,1.98,0,2.98,0"/><path d="M31.26,19.53c0.92,0.92,1.23,2.58,1.23,3.76c0,1.17,0,12.97,0,16.37"/><path d="M19.09,30.65c1.24,0.19,3.23,0.2,4.71-0.06c4.7-0.84,17.37-3.65,17.37-3.65s1.98-0.19,2.73-0.19"/><path d="M15.87,44.12c1.13,1.63,3.07,1.23,4.72,0.64c4.92-1.75,11.54-4,20.08-7.31"/>		</g><g><path d="M57.01,15.68c1.1,0.61,4.21,0.06,5.39-0.13c4.37-0.7,12.28-2.18,17.98-2.82c1.77-0.2,3.78-0.59,5.52,0.03"/><path d="M71.33,16.39c0.89,0.89,1.12,2.23,1.12,3.35c0,2.14-0.01,13.14-0.01,18.06"/><path d="M59.61,27.59c1.76,0.54,3.81,0.31,5.12,0.13c5.05-0.68,10.03-1.49,15.67-2.44c1.33-0.22,2.72-0.41,4.05-0.23"/><path d="M55.84,40.46c2.16,0.41,4.73,0.08,6.43-0.15c7.14-0.98,16.91-2.42,23.85-3.19c1.78-0.2,4.5-0.5,6.78,0.16"/>		</g>	</g><g><g><path d="M49.68,40.5c0.1,0.81,0.03,1.97-0.7,2.99C42.5,52.5,33.62,62.62,13.25,73.48"/><path d="M50.91,42.51c5.97,4.36,19.89,14.9,29.99,21.28c4.1,2.59,8.85,4.96,12.35,5.99"/>		</g><g><g><path d="M37.23,64.96c1.33,0.5,3.51,0.2,4.89,0.06c4.54-0.46,12.07-2.21,16.98-2.87c1.59-0.22,3.46-0.31,5.04,0.04"/>			</g><path d="M30.5,77.29c1.75,0.46,4.07,0.6,6.5,0.28c6.31-0.83,22.25-3.71,28.99-4.77c3.99-0.63,5.37,1.08,3.01,4.19C62.75,85.25,59,89.62,52,99"/>		</g>	</g></g></g><g style="font-size:8;fill:#808080"><text transform="matrix(1 0 0 1 11.50 18.50)">1</text><text transform="matrix(1 0 0 1 25.50 27.50)">2</text><text transform="matrix(1 0 0 1 12.50 32.50)">3</text><text transform="matrix(1 0 0 1 8.50 46.50)">4</text><text transform="matrix(1 0 0 1 53.50 12.13)">5</text><text transform="matrix(1 0 0 1 65.50 23.50)">6</text><text transform="matrix(1 0 0 1 53.25 28.55)">7</text><text transform="matrix(1 0 0 1 54.75 38.98)">8</text><text transform="matrix(1 0 0 1 38.50 47.50)">9</text><text transform="matrix(1 0 0 1 65.25 51.13)">10</text><text transform="matrix(1 0 0 1 41.50 61.50)">11</text><text transform="matrix(1 0 0 1 20.50 80.50)">12</text></g></svg>