<svg xmlns="http://www.w3.org/2000/svg" width="109" height="109" viewBox="0 0 109 109"><g><path class="bg" xmlns="http://www.w3.org/2000/svg" fill="none" stroke="#6c757d" d="M54.5,0L54.5,109" stroke-width="0.5" stroke-dasharray="4,1.5"/><path class="bg" xmlns="http://www.w3.org/2000/svg" fill="none" stroke="#6c757d" d="M0,54.5L109,54.5" stroke-width="0.5" stroke-dasharray="4,1.5"/></g><g style="fill:none;stroke:#000000;stroke-width:3;stroke-linecap:round;stroke-linejoin:round;"><g><path d="M31.26,25.89c0.36,1.36,0.35,2.65-0.05,3.79c-2.34,6.69-7.24,17.22-14.96,24.19"/><path d="M31.13,40.67c2.37,0.33,4.03,0.07,5.64-0.12c9.5-1.1,25.15-4.12,35.35-5.83c2.51-0.42,4.86-0.73,7.38-0.33"/><path d="M52.31,12.63c1.28,1.28,2.01,3.12,2.01,5.23c0,4.01,0,65.14,0,69.77"/><path d="M29.38,64.03c2.64,0.67,5.38,0.31,8.04-0.02C49.45,62.51,62.16,61,72.5,59.86c2.38-0.26,4.99-0.76,7.38-0.23"/><path d="M15.75,90.25c3.04,0.75,6.21,0.94,8.4,0.8C40.62,90,68.12,86.5,83.3,85.75c3.63-0.18,7.68,0,10.07,0.73"/></g></g><g style="font-size:8;fill:#808080"><text transform="matrix(1 0 0 1 22.75 25.63)">1</text><text transform="matrix(1 0 0 1 36.00 37.28)">2</text><text transform="matrix(1 0 0 1 42.50 10.50)">3</text><text transform="matrix(1 0 0 1 21.50 66.13)">4</text><text transform="matrix(1 0 0 1 8.50 89.50)">5</text></g></svg>