<svg xmlns="http://www.w3.org/2000/svg" width="109" height="109" viewBox="0 0 109 109"><g><path class="bg" xmlns="http://www.w3.org/2000/svg" fill="none" stroke="#6c757d" d="M54.5,0L54.5,109" stroke-width="0.5" stroke-dasharray="4,1.5"/><path class="bg" xmlns="http://www.w3.org/2000/svg" fill="none" stroke="#6c757d" d="M0,54.5L109,54.5" stroke-width="0.5" stroke-dasharray="4,1.5"/></g><g style="fill:none;stroke:#000000;stroke-width:3;stroke-linecap:round;stroke-linejoin:round;"><g><path d="M25.44,16.14c0.83,1.04,1.1,2.36,1.15,3.86C28.12,65.5,24.5,82,13.75,95"/><path d="M27.8,18.84C43.75,17,71.5,14,81.92,13.47c4.07-0.21,5.75,2.03,5.75,5.18c0,6.1-0.32,50.35-0.32,71.37c0,14.98-8.09,2.23-9.84,1.34"/><path d="M27.99,40.91c16.26-1.66,41.51-3.66,58.25-4.7"/><path d="M27.25,62c14.88-1.38,43-3.25,59-4.25"/><path d="M53.62,19.5c1.13,1,1.96,2.5,1.96,4.25c0,3.66,0,42.87-0.12,60.75c-0.03,4.11-0.06,7.09-0.1,8.25"/></g></g><g style="font-size:8;fill:#808080"><text transform="matrix(1 0 0 1 20.50 27.13)">1</text><text transform="matrix(1 0 0 1 31.50 15.50)">2</text><text transform="matrix(1 0 0 1 32.25 37.50)">3</text><text transform="matrix(1 0 0 1 32.25 58.50)">4</text><text transform="matrix(1 0 0 1 47.00 27.50)">5</text></g></svg>