<svg xmlns="http://www.w3.org/2000/svg" width="109" height="109" viewBox="0 0 109 109"><g><path class="bg" xmlns="http://www.w3.org/2000/svg" fill="none" stroke="#6c757d" d="M54.5,0L54.5,109" stroke-width="0.5" stroke-dasharray="4,1.5"/><path class="bg" xmlns="http://www.w3.org/2000/svg" fill="none" stroke="#6c757d" d="M0,54.5L109,54.5" stroke-width="0.5" stroke-dasharray="4,1.5"/></g><g style="fill:none;stroke:#000000;stroke-width:3;stroke-linecap:round;stroke-linejoin:round;"><g><g><path d="M57.56,11.13c1.28,1.28,1.76,2.99,1.76,4.15c0,0.79,0.08,4.65-0.07,9.46"/><path d="M29.13,27.23c3.83,0.64,7.8,0.45,11.64,0.03c13.61-1.5,29.11-3.25,41.36-3.85c3.58-0.17,7.23-0.35,10.75,0.41"/><path d="M30.99,28c1.07,1.07,1.48,2.59,1.41,4.88c-0.78,27.99-0.66,44.74-16.1,61.59"/><path d="M15,38c2.74,1.63,7.07,6.71,7.75,9.25"/><path d="M10.27,68.03c1.32,0.65,2.68,0.82,3.7,0.27c4.6-2.48,9.4-5.79,13.91-9.42"/>	</g><g><g><path d="M43,42.4c2.38,0.35,5.46,0.28,7.76,0.03c7.1-0.76,22.34-2.43,31.36-2.83c2.37-0.11,4.79-0.24,7.13,0.27"/>		</g><g><g><path d="M41.11,60.47c0.96,0.96,1.45,2.53,1.45,3.89c0,4,0.1,19.87,0.15,28.51c0.02,3,0.03,5.13,0.03,5.59"/><path d="M43.57,62.44c6.69-0.47,40.91-4.16,42.19-4.24c2.99-0.2,4.87,1.55,4.87,4.89c0,4.66-0.07,26.67-0.07,29.39c0,8.52-5.69,2.9-8.69,0.05"/>			</g><g><path d="M63.19,44c0.91,0.91,1.28,2.24,1.27,3.64c-0.08,14.11-4.08,30.11-15.26,37.48"/><path d="M65.62,69.12c4.73,2.4,12.22,9.88,13.4,13.61"/>			</g>		</g>	</g></g></g><g style="font-size:8;fill:#808080"><text transform="matrix(1 0 0 1 48.75 12.13)">1</text><text transform="matrix(1 0 0 1 35.25 24.13)">2</text><text transform="matrix(1 0 0 1 24.50 37.63)">3</text><text transform="matrix(1 0 0 1 7.50 37.63)">4</text><text transform="matrix(1 0 0 1 3.50 74.50)">5</text><text transform="matrix(1 0 0 1 41.50 39.50)">6</text><text transform="matrix(1 0 0 1 35.25 70.50)">7</text><text transform="matrix(1 0 0 1 44.50 59.50)">8</text><text transform="matrix(1 0 0 1 56.25 51.50)">9</text><text transform="matrix(1 0 0 1 69.50 70.38)">10</text></g></svg>