<svg xmlns="http://www.w3.org/2000/svg" width="109" height="109" viewBox="0 0 109 109"><g><path class="bg" xmlns="http://www.w3.org/2000/svg" fill="none" stroke="#6c757d" d="M54.5,0L54.5,109" stroke-width="0.5" stroke-dasharray="4,1.5"/><path class="bg" xmlns="http://www.w3.org/2000/svg" fill="none" stroke="#6c757d" d="M0,54.5L109,54.5" stroke-width="0.5" stroke-dasharray="4,1.5"/></g><g style="fill:none;stroke:#000000;stroke-width:3;stroke-linecap:round;stroke-linejoin:round;"><g><g><path d="M12.5,38c2.12,0.38,4.47,0.29,6.51,0.1c6.95-0.65,19.4-2.3,26.74-3.1c1.99-0.22,3-0.25,4.25,0"/><path d="M32.98,13.62c1.14,1.14,1.8,2.62,1.8,4.37c0,3.65-0.19,52.96-0.24,72.79c-0.01,3.28-0.01,5.65-0.01,6.71"/><path d="M34,37.5c0,1.38-0.37,2.68-0.72,3.68C28.63,54.23,20.25,67.75,11.25,77.5"/><path d="M38,47.75c4.28,2.47,8.62,6.5,11.25,10.88"/>	</g><g><path d="M57.43,29.48c1.05,1.05,1.64,2.49,1.64,4.39c0,3.25,0,40.86,0,55.13c0,2.77,0,4.66,0,5.25"/><path d="M59.75,30.82c2.99-0.22,23.37-2.46,28.38-2.99c3.07-0.32,5.44,0.92,5.44,3.92c0,6.27-0.34,42.35-0.37,55.88c0,2.2-0.01,3.76-0.01,4.42"/><path d="M60.2,50.48c7.05-0.73,26.3-2.48,31.94-2.77"/><path d="M60.21,69.42c8.46-0.8,22.67-2.29,31.8-2.6"/><path d="M60.22,90.57c8.16-0.69,22.53-1.82,31.85-2.13"/>	</g></g></g><g style="font-size:8;fill:#808080"><text transform="matrix(1 0 0 1 6.50 39.13)">1</text><text transform="matrix(1 0 0 1 23.50 14.50)">2</text><text transform="matrix(1 0 0 1 23.50 48.50)">3</text><text transform="matrix(1 0 0 1 41.50 47.50)">4</text><text transform="matrix(1 0 0 1 51.50 43.50)">5</text><text transform="matrix(1 0 0 1 59.50 27.50)">6</text><text transform="matrix(1 0 0 1 63.50 46.97)">7</text><text transform="matrix(1 0 0 1 63.46 66.13)">8</text><text transform="matrix(1 0 0 1 63.46 87.13)">9</text></g></svg>