<svg xmlns="http://www.w3.org/2000/svg" width="109" height="109" viewBox="0 0 109 109"><g><path class="bg" xmlns="http://www.w3.org/2000/svg" fill="none" stroke="#6c757d" d="M54.5,0L54.5,109" stroke-width="0.5" stroke-dasharray="4,1.5"/><path class="bg" xmlns="http://www.w3.org/2000/svg" fill="none" stroke="#6c757d" d="M0,54.5L109,54.5" stroke-width="0.5" stroke-dasharray="4,1.5"/></g><g style="fill:none;stroke:#000000;stroke-width:3;stroke-linecap:round;stroke-linejoin:round;"><g><g><path d="M30.08,13.5c3.33,1.82,6.42,5.5,8.25,9.75"/><path d="M14.83,36.5c1.01,0.45,3.29,0.72,5.01,0.45c3.67-0.57,18.24-4.45,20.74-5.2s4.02,1.01,2.5,3.25c-5.25,7.75-19,24.25-27.75,32"/><path d="M31.25,52.61c0.88,0.88,1.27,2.02,1.27,3.89c0,7.86,0.03,19.81,0.04,29c0.01,3.67,0.01,6.89,0.01,9.25"/><path d="M35.33,49.25c3.64,2.82,7.05,6.06,10.17,11"/>	</g><g><path d="M81.41,14.42c-0.16,0.83-0.57,1.74-1.11,2.36c-5.49,6.28-11.43,9.99-22.96,15.52"/><path d="M54.31,33.21c0.86,0.87,1.16,2.16,1.16,3.9c0,14.26,1.03,34.76-9.41,51.77"/><path d="M57.85,46.28c1.46-0.02,2.81-0.11,4.27-0.3c7.48-0.95,19.8-2.49,27.5-3.62c2.13-0.31,4.49-0.86,6.63-0.35"/><path d="M77.97,46.42c1,0.99,1.6,2.46,1.6,4.38c0,4.23,0.04,25.2,0.04,38.2c0,3.14,0,5.93,0,8.08"/>	</g></g></g><g style="font-size:8;fill:#808080"><text transform="matrix(1 0 0 1 22.50 13.50)">1</text><text transform="matrix(1 0 0 1 6.75 36.13)">2</text><text transform="matrix(1 0 0 1 24.75 69.13)">3</text><text transform="matrix(1 0 0 1 41.25 51.13)">4</text><text transform="matrix(1 0 0 1 72.75 15.13)">5</text><text transform="matrix(1 0 0 1 48.75 43.63)">6</text><text transform="matrix(1 0 0 1 61.50 42.50)">7</text><text transform="matrix(1 0 0 1 71.25 55.63)">8</text></g></svg>