<svg xmlns="http://www.w3.org/2000/svg" width="109" height="109" viewBox="0 0 109 109"><g><path class="bg" xmlns="http://www.w3.org/2000/svg" fill="none" stroke="#6c757d" d="M54.5,0L54.5,109" stroke-width="0.5" stroke-dasharray="4,1.5"/><path class="bg" xmlns="http://www.w3.org/2000/svg" fill="none" stroke="#6c757d" d="M0,54.5L109,54.5" stroke-width="0.5" stroke-dasharray="4,1.5"/></g><g style="fill:none;stroke:#000000;stroke-width:3;stroke-linecap:round;stroke-linejoin:round;"><g><g><path d="M18.97,19.74c0.52,0.95,0.88,1.88,1.05,2.8c0.17,0.92,0.15,25.9-0.41,33.63c-0.8,11-1.61,22.08-9.11,34.72"/><path d="M21.07,20.81c2.1-0.06,12.65-2.34,14.21-2.46c2.8-0.23,3.5,1.31,3.5,2.67c0,3.23-0.53,46.22-0.53,64.55c0,12.61-5.91,3.55-7.7,2.04"/><path d="M21.07,40.7c4.61-0.35,13.03-1.54,17.08-1.57"/><path d="M20.01,58.65c3.79-0.08,13.14-0.78,18.29-1.2"/>	</g><g><path d="M46.53,39.83c0.93,0.51,2.61,0.54,3.54,0.47c7.68-0.55,32.22-4.86,43.66-5.83c1.53-0.13,2.46,0.22,3.23,0.47"/><path d="M77.64,14.33c0.09,0.48,1.26,2.49,1.26,5.52c0,20.4-0.26,63.16-0.26,68.12c0,12.03-5.89,4.53-9.21,1.25"/><path d="M55.08,52.62c3.18,2.29,8.21,9.43,9,13"/>	</g></g></g><g style="font-size:8;fill:#808080"><text transform="matrix(1 0 0 1 13.25 27.50)">1</text><text transform="matrix(1 0 0 1 22.50 16.50)">2</text><text transform="matrix(1 0 0 1 24.50 37.50)">3</text><text transform="matrix(1 0 0 1 24.50 55.50)">4</text><text transform="matrix(1 0 0 1 43.50 36.50)">5</text><text transform="matrix(1 0 0 1 68.50 13.50)">6</text><text transform="matrix(1 0 0 1 48.50 53.50)">7</text></g></svg>