<svg xmlns="http://www.w3.org/2000/svg" width="109" height="109" viewBox="0 0 109 109"><g><path class="bg" xmlns="http://www.w3.org/2000/svg" fill="none" stroke="#6c757d" d="M54.5,0L54.5,109" stroke-width="0.5" stroke-dasharray="4,1.5"/><path class="bg" xmlns="http://www.w3.org/2000/svg" fill="none" stroke="#6c757d" d="M0,54.5L109,54.5" stroke-width="0.5" stroke-dasharray="4,1.5"/></g><g style="fill:none;stroke:#000000;stroke-width:3;stroke-linecap:round;stroke-linejoin:round;"><g><g><path d="M67.12,11.5c-0.25,1.12-1,2.25-2.27,3.11c-5.1,3.46-18.98,9.89-37.47,15.41"/><path d="M14.63,48.81c1.8,0.41,6.32,0.64,8.09,0.41c17.66-2.34,47.03-6.22,66.36-6.71c3-0.08,4.8,0.19,6.3,0.4"/><path d="M52.56,25.26c1.21,1.21,1.76,2.99,1.76,4.58c0,4.28,0,29.41,0,38.91"/>	</g><g><path d="M30,70.75c1.5,0.88,2.12,2.25,2.52,3.74c1.31,4.92,3.49,13.03,4.85,20.03c0.32,1.67,0.62,3.26,0.88,4.73"/><path d="M32.66,71.83c13.59-1.45,36.19-3.69,44.96-4.34c3.2-0.24,4.13,2.41,3.67,3.81c-1.9,5.78-5.62,13.76-8.44,21.75"/><path d="M38.42,96.91c9.19-0.66,22.7-1.91,32.12-2.51c1.48-0.1,2.98-0.25,4.51-0.37"/>	</g></g></g><g style="font-size:8;fill:#808080"><text transform="matrix(1 0 0 1 57.50 11.50)">1</text><text transform="matrix(1 0 0 1 6.75 52.55)">2</text><text transform="matrix(1 0 0 1 45.75 36.13)">3</text><text transform="matrix(1 0 0 1 24.75 81.13)">4</text><text transform="matrix(1 0 0 1 36.75 67.63)">5</text><text transform="matrix(1 0 0 1 42.75 91.55)">6</text></g></svg>