<svg xmlns="http://www.w3.org/2000/svg" width="109" height="109" viewBox="0 0 109 109"><g><path class="bg" xmlns="http://www.w3.org/2000/svg" fill="none" stroke="#6c757d" d="M54.5,0L54.5,109" stroke-width="0.5" stroke-dasharray="4,1.5"/><path class="bg" xmlns="http://www.w3.org/2000/svg" fill="none" stroke="#6c757d" d="M0,54.5L109,54.5" stroke-width="0.5" stroke-dasharray="4,1.5"/></g><g style="fill:none;stroke:#000000;stroke-width:3;stroke-linecap:round;stroke-linejoin:round;"><g><g><path d="M18.5,25.52c2.4,0.98,6.24,1.25,8.76,0.91c15.99-2.18,38.93-4.62,53.11-5.28c2.95-0.14,6.25,0.18,9.12,0.88"/><path d="M36.5,13.25c0.88,0.88,1.5,2,1.75,3.75c1.23,8.58,1.12,10.75,1.75,17.5"/><path d="M70.25,10.75c0.42,1.18,0.22,2.3-0.25,3.75c-2.75,8.5-4,13.38-6,19"/>	</g><g><g><path d="M52.84,32.52c1.13,1.13,1.52,2.61,1.52,4.28c0,1.46-0.11,6.46-0.11,8.08"/><path d="M14,48.37c3.62,0.88,6.66,0.48,10.25,0.13c13.58-1.32,43.9-3.8,59.62-4.78c3.29-0.21,7.77-0.21,10.88,0.95"/>		</g><g><path d="M50.34,60.27c7.66,1.98,16.49,2.1,22.24,1.69c3.38-0.24,5.27,1.25,4.21,4.64c-2.17,6.95-12.49,25.57-16.78,29.27c-5.07,4.38-7.51-0.37-8.48-2.76"/><path d="M53.01,49.77c0.09,1-0.11,2.38-0.69,3.77c-4,9.6-14.94,27.59-33.07,37.73"/>		</g>	</g></g></g><g style="font-size:8;fill:#808080"><text transform="matrix(1 0 0 1 12.75 26.50)">1</text><text transform="matrix(1 0 0 1 27.50 13.63)">2</text><text transform="matrix(1 0 0 1 60.75 10.63)">3</text><text transform="matrix(1 0 0 1 44.25 34.50)">4</text><text transform="matrix(1 0 0 1 6.75 49.50)">5</text><text transform="matrix(1 0 0 1 57.50 59.50)">6</text><text transform="matrix(1 0 0 1 43.50 56.50)">7</text></g></svg>