<svg xmlns="http://www.w3.org/2000/svg" width="109" height="109" viewBox="0 0 109 109"><g><path class="bg" xmlns="http://www.w3.org/2000/svg" fill="none" stroke="#6c757d" d="M54.5,0L54.5,109" stroke-width="0.5" stroke-dasharray="4,1.5"/><path class="bg" xmlns="http://www.w3.org/2000/svg" fill="none" stroke="#6c757d" d="M0,54.5L109,54.5" stroke-width="0.5" stroke-dasharray="4,1.5"/></g><g style="fill:none;stroke:#000000;stroke-width:3;stroke-linecap:round;stroke-linejoin:round;"><g><g><path d="M22.55,13.5c2.52,1.94,6.5,7.98,7.13,11"/><path d="M10.87,32.08c1.61,0.53,3.73,0.27,5.39,0.16c7.62-0.53,12.77-1.84,19.23-2.64c1.55-0.19,3.29-0.48,4.85-0.18"/><path d="M16.18,44.81c1.3,0.37,2.98,0.4,4.32,0.34c3.81-0.17,9-0.78,11.11-1.15c1.38-0.25,3.27-0.49,4.66-0.25"/><path d="M16.05,59.33c1.25,0.38,3.05,0.49,4.33,0.3c4.13-0.63,8.43-1.18,12-1.86c1.16-0.22,2.53-0.51,3.7-0.3"/><g><path d="M15.01,73.4c0.79,0.79,0.99,1.85,1.21,2.88c0.74,3.43,1.09,8.74,1.81,14.21c0.17,1.3,0.36,2.57,0.58,3.75"/><path d="M16.69,74.37c7.71-1.01,10.58-1.5,15.93-2.24c3.05-0.42,4.66-0.06,3.99,3.25c-0.78,3.84-1.37,7.75-2.81,14.34"/><path d="M19.42,92.3c4.56-0.46,7.95-0.84,13.61-1.45c1.01-0.11,2.08,0.02,3.2-0.1"/>		</g>	</g><g><g><path d="M65.13,13c0.05,0.75,0.07,1.74-0.36,2.75C61,24.62,56.12,33.38,45.15,44.5"/><path d="M65.44,17.17c3.3,3.78,14.23,13.55,21.04,19.25c2.65,2.21,5.55,4.31,8.61,5.93"/>		</g><g><g><path d="M70.48,37.4c0.17,1.41-0.27,2.18-1.15,3.32C65.25,46,59.9,51.15,49.07,57.53"/>			</g><g><path d="M78.42,51.49c0.19,1.33-0.4,2.53-1.22,3.59c-4.83,6.24-12.45,13.68-27.45,21.43"/>			</g><g><path d="M86.03,69.96c0.29,1.58-0.46,2.85-1.59,3.98c-6.53,6.57-23.01,16.62-40.37,23.16"/>			</g>		</g>	</g></g></g><g style="font-size:8;fill:#808080"><text transform="matrix(1 0 0 1 16.50 13.63)">1</text><text transform="matrix(1 0 0 1 3.75 33.05)">2</text><text transform="matrix(1 0 0 1 8.50 46.48)">3</text><text transform="matrix(1 0 0 1 8.50 60.50)">4</text><text transform="matrix(1 0 0 1 9.75 82.33)">5</text><text transform="matrix(1 0 0 1 18.75 71.50)">6</text><text transform="matrix(1 0 0 1 22.50 88.55)">7</text><text transform="matrix(1 0 0 1 56.25 15.13)">8</text><text transform="matrix(1 0 0 1 73.50 21.13)">9</text><text transform="matrix(1 0 0 1 59.25 39.05)">10</text><text transform="matrix(1 0 0 1 68.25 53.50)">11</text><text transform="matrix(1 0 0 1 74.25 72.50)">12</text></g></svg>