<svg xmlns="http://www.w3.org/2000/svg" width="109" height="109" viewBox="0 0 109 109"><g><path class="bg" xmlns="http://www.w3.org/2000/svg" fill="none" stroke="#6c757d" d="M54.5,0L54.5,109" stroke-width="0.5" stroke-dasharray="4,1.5"/><path class="bg" xmlns="http://www.w3.org/2000/svg" fill="none" stroke="#6c757d" d="M0,54.5L109,54.5" stroke-width="0.5" stroke-dasharray="4,1.5"/></g><g style="fill:none;stroke:#000000;stroke-width:3;stroke-linecap:round;stroke-linejoin:round;"><g><g><path d="M23.12,14.62c2.84,1.61,7.35,6.62,8.06,9.12"/><path d="M10.87,34.08c1.83,0.6,4.41,0.23,6.27,0.1c8.11-0.56,16.67-2.25,22.91-2.99c1.17-0.14,2.95-0.14,3.54-0.02"/><path d="M18.68,47.56c1.35,0.38,3.08,0.14,4.45-0.02C27.75,47,30.6,46.38,34.9,45.5c1.35-0.28,3-0.48,4.37-0.25"/><path d="M19.05,60.33c1.19,0.36,2.85,0.15,4.08,0.06c3.67-0.26,8.14-1.28,12.86-1.97c1.16-0.17,2.44-0.16,3.59,0.04"/><g><path d="M17.26,72.97c0.89,0.83,1.07,2.2,1.29,3.29c0.63,3.16,1.26,7.83,2.07,12.21c0.31,1.65,0.59,3.21,0.83,4.55"/><path d="M18.83,74.07c5.94-0.73,12.53-1.67,18.18-2.45c3.17-0.44,4.51-0.06,3.81,3.28c-0.73,3.45-1.61,7.27-3.01,12.87"/><path d="M22.24,90.61c3.98-0.4,8.33-0.99,13.51-1.5c1.25-0.12,2.53-0.26,3.85-0.41"/>		</g>	</g><g><g><path d="M47.74,35.83c2.13,0.55,5.46,0.4,7.64,0.1c9.49-1.3,23.12-2.8,33.62-3.32c2.55-0.12,5.29-0.31,7.74,0.44"/><path d="M68.98,13.26c1.13,1.13,1.51,2.37,1.51,3.89c0,6.35,0.01,23.35,0.01,36.05"/><path d="M51.31,55.44c1.83,0.64,4.29,0.53,6.19,0.33c8.52-0.88,17.35-1.94,29.24-2.79c2-0.14,4.01,0.07,5.96,0.44"/>		</g><g><path d="M53.98,68.06c0.98,0.98,1.26,2.1,1.48,3.46c0.91,5.61,1.89,10.89,2.66,16.95c0.27,2.11,0.51,4.15,0.72,6"/><path d="M56.17,69.87c9.05-1.13,21.31-2.38,28.08-3.14c4.06-0.46,6.72-0.14,5.85,4.68c-0.92,5.15-1.6,9.34-3.33,17.56"/><path d="M59.74,92.46c6.95-0.8,15.41-1.64,24.3-2.38c1.68-0.14,3.36-0.02,5.04-0.15"/>		</g>	</g></g></g><g style="font-size:8;fill:#808080"><text transform="matrix(1 0 0 1 16.50 15.50)">1</text><text transform="matrix(1 0 0 1 3.75 35.50)">2</text><text transform="matrix(1 0 0 1 11.50 49.48)">3</text><text transform="matrix(1 0 0 1 11.25 61.40)">4</text><text transform="matrix(1 0 0 1 11.25 82.33)">5</text><text transform="matrix(1 0 0 1 21.75 70.63)">6</text><text transform="matrix(1 0 0 1 24.75 87.05)">7</text><text transform="matrix(1 0 0 1 49.50 33.50)">8</text><text transform="matrix(1 0 0 1 59.25 14.50)">9</text><text transform="matrix(1 0 0 1 49.50 52.63)">10</text><text transform="matrix(1 0 0 1 45.75 79.55)">11</text><text transform="matrix(1 0 0 1 56.50 66.13)">12</text><text transform="matrix(1 0 0 1 62.25 88.63)">13</text></g></svg>