<svg xmlns="http://www.w3.org/2000/svg" width="109" height="109" viewBox="0 0 109 109"><g><path class="bg" xmlns="http://www.w3.org/2000/svg" fill="none" stroke="#6c757d" d="M54.5,0L54.5,109" stroke-width="0.5" stroke-dasharray="4,1.5"/><path class="bg" xmlns="http://www.w3.org/2000/svg" fill="none" stroke="#6c757d" d="M0,54.5L109,54.5" stroke-width="0.5" stroke-dasharray="4,1.5"/></g><g style="fill:none;stroke:#000000;stroke-width:3;stroke-linecap:round;stroke-linejoin:round;"><g><g><path d="M29.55,21.13c1.95,0.24,4.3,0.04,5.98-0.22c8.47-1.29,24.6-3.79,33.98-4.61c2.06-0.18,4.36-0.39,6.42-0.24"/><path d="M52.67,9.38c1.1,1.1,1.46,2.62,1.46,3.85c0,6.27-0.19,17.75-0.13,24.79"/><path d="M31.59,31.18c2.16,0.19,4.41,0.26,6.43-0.09c8.49-1.47,22.35-3.62,29.86-4.63c2.26-0.31,4.48-0.57,6.77-0.44"/><path d="M16.63,42.8c2.55,0.52,5.69,0.51,8.26,0.16c15.36-2.08,39.86-5.83,57.38-7.01c3.19-0.21,6.56-0.51,9.73,0.07"/>	</g><g><g><path d="M37.22,50.05c0.74,0.74,1.3,2.01,1.3,3.02c0,2.93-0.07,18.93-0.1,27.05c0,1.39-0.01,2.56-0.01,3.38"/><path d="M39.4,51.27c4.72-0.65,25.51-3.73,28.21-4.12c1.89-0.27,3.36,0.48,3.36,2.97c0,6.48-0.08,16.75-0.1,26.89c0,1.21,0,2.42,0,3.62"/><path d="M39.6,60.9c6.28-0.9,25.56-3.64,30.34-3.85"/><path d="M39.59,70.89c7.91-0.89,22.32-3.21,30-3.54"/><path d="M39.61,81.53c8.26-0.91,20.01-2.66,30.5-3.29"/>		</g><g><path d="M43.51,85.75c-0.01,0.88-0.4,1.75-1.18,2.49c-2.37,2.21-10.67,7.65-15.41,10.26"/><path d="M66.92,87.38c7.09,3.04,15.47,8.55,17.41,11.21"/>		</g>	</g></g></g><g style="font-size:8;fill:#808080"><text transform="matrix(1 0 0 1 23.25 21.13)">1</text><text transform="matrix(1 0 0 1 44.25 10.50)">2</text><text transform="matrix(1 0 0 1 24.75 32.50)">3</text><text transform="matrix(1 0 0 1 9.50 43.50)">4</text><text transform="matrix(1 0 0 1 30.75 57.50)">5</text><text transform="matrix(1 0 0 1 41.25 48.50)">6</text><text transform="matrix(1 0 0 1 43.50 59.83)">7</text><text transform="matrix(1 0 0 1 43.50 68.75)">8</text><text transform="matrix(1 0 0 1 43.50 79.18)">9</text><text transform="matrix(1 0 0 1 29.50 90.50)">10</text><text transform="matrix(1 0 0 1 53.50 90.50)">11</text></g></svg>