<svg xmlns="http://www.w3.org/2000/svg" width="109" height="109" viewBox="0 0 109 109"><g><path class="bg" xmlns="http://www.w3.org/2000/svg" fill="none" stroke="#6c757d" d="M54.5,0L54.5,109" stroke-width="0.5" stroke-dasharray="4,1.5"/><path class="bg" xmlns="http://www.w3.org/2000/svg" fill="none" stroke="#6c757d" d="M0,54.5L109,54.5" stroke-width="0.5" stroke-dasharray="4,1.5"/></g><g style="fill:none;stroke:#000000;stroke-width:3;stroke-linecap:round;stroke-linejoin:round;"><g><g><g><path d="M18.31,28.9c1.32,0.54,3.12,0.22,4.44,0.07c4.75-0.52,10.82-1.9,15.23-2.38c1.39-0.15,2.59-0.25,3.95,0.09"/><path d="M30.23,13.96c0.84,0.84,1.48,2.1,1.48,3.58c0,4.59-0.08,20.95-0.08,23.71"/><path d="M13.58,43.61c1.8,0.79,4.46,0.4,6.31,0.12c7.37-1.1,16.06-2.46,22.62-3.27c1.76-0.22,3.17-0.34,4.89,0.11"/>		</g><g><path d="M31.65,44.82c0.83,0.83,1.16,2.3,1.16,3.7c0,0.93-0.06,20.53-0.06,27.6"/><path d="M33.93,58.88c4.45-0.76,6.45-1.26,10.71-1.87c1.02-0.15,1.64,0.13,2.16,0.26"/><path d="M21.88,56.74c0.12,0.88,0.18,1.92-0.06,2.96C20.25,66.5,16.5,79,10.86,88.31"/><path d="M18.78,73.4c10.81,2.17,38.43,11.45,53.58,15.54c5.94,1.6,12,2.74,18.14,3.21"/>		</g>	</g><g><g><path d="M46.9,25.99c1.85,0.38,3.43,0.2,4.96-0.05c5.16-0.85,12.67-2.55,18.51-3.23c1.52-0.18,2.95-0.33,4.44,0.09"/><path d="M53.24,27.68c0.79,0.79,0.83,1.95,0.83,3.72c0,1.57-0.07,30.07-0.07,35.73"/><path d="M55.21,38.64c5.47-1.02,6.95-1.41,11.79-1.91"/><path d="M55,51.72c4-0.6,7.62-1.22,11.94-1.83"/><path d="M46.7,69.57c1.42,0.81,2.55,0.81,3.85,0.2c2.75-1.3,7.45-3.64,15.95-7.51"/><path d="M67.11,25.58c0.96,0.96,1.01,2.33,1.01,3.82c0,1.1-0.01,25.98-0.01,42.59c0,2.89,0,5.53,0,7.75"/>		</g><g><path d="M75.24,36.24c1.26,0.26,2.53,0.38,3.93,0s9.15-2.4,10.11-2.78c1.53-0.6,3.22,0.43,2.81,2.27c-3.75,16.68-8.21,29.27-18.4,35.7"/><path d="M75.78,47.04c7.22,5.21,13.47,13.21,18.1,24.01"/>		</g>	</g></g></g><g style="font-size:8;fill:#808080"><text transform="matrix(1 0 0 1 11.50 30.50)">1</text><text transform="matrix(1 0 0 1 21.50 14.50)">2</text><text transform="matrix(1 0 0 1 6.75 45.13)">3</text><text transform="matrix(1 0 0 1 25.50 52.63)">4</text><text transform="matrix(1 0 0 1 38.25 55.55)">5</text><text transform="matrix(1 0 0 1 13.50 57.50)">6</text><text transform="matrix(1 0 0 1 23.50 72.05)">7</text><text transform="matrix(1 0 0 1 46.50 23.50)">8</text><text transform="matrix(1 0 0 1 47.50 35.50)">9</text><text transform="matrix(1 0 0 1 56.25 34.48)">10</text><text transform="matrix(1 0 0 1 56.25 48.50)">11</text><text transform="matrix(1 0 0 1 42.50 66.50)">12</text><text transform="matrix(1 0 0 1 70.50 30.50)">13</text><text transform="matrix(1 0 0 1 76.50 33.50)">14</text><text transform="matrix(1 0 0 1 77.25 47.98)">15</text></g></svg>