<svg xmlns="http://www.w3.org/2000/svg" width="109" height="109" viewBox="0 0 109 109"><g><path class="bg" xmlns="http://www.w3.org/2000/svg" fill="none" stroke="#6c757d" d="M54.5,0L54.5,109" stroke-width="0.5" stroke-dasharray="4,1.5"/><path class="bg" xmlns="http://www.w3.org/2000/svg" fill="none" stroke="#6c757d" d="M0,54.5L109,54.5" stroke-width="0.5" stroke-dasharray="4,1.5"/></g><g style="fill:none;stroke:#000000;stroke-width:3;stroke-linecap:round;stroke-linejoin:round;"><g><path d="M53.03,9.64c0.21,1.1,0.09,1.85-0.52,2.87c-1.82,3.01-3.19,5.09-7.77,9.92"/><path d="M34.87,24c1.06,1.06,1.46,2.48,1.46,3.5c0,3.88,0.28,27.25,0.28,36.75"/><path d="M37.07,25.59c5.22-0.84,25.49-3.39,29.71-4.11c2.84-0.48,4.47,1.14,4.47,3.77c0,12.39-0.16,55.81-0.16,66.93c0,11.08-6.59,3.83-8.61,1.82"/><path d="M37.5,37.25c8.62-1.25,27.38-3.62,32.5-4"/><path d="M37.75,49.75c6.75-1,25.74-4.25,32-4.5"/><path d="M18.57,68.07c1.66,1.39,2.8,1.56,5.93,0.68c10.25-2.88,38.88-11.12,45.75-13.25"/><path d="M90.25,37.5c0.12,1.62-0.13,3.19-1.5,5.25C79.25,57,46.5,82,26.25,89.25"/></g></g><g style="font-size:8;fill:#808080"><text transform="matrix(1 0 0 1 44.75 8.50)">1</text><text transform="matrix(1 0 0 1 27.75 34.63)">2</text><text transform="matrix(1 0 0 1 36.75 22.63)">3</text><text transform="matrix(1 0 0 1 41.50 34.50)">4</text><text transform="matrix(1 0 0 1 42.50 46.50)">5</text><text transform="matrix(1 0 0 1 8.25 67.50)">6</text><text transform="matrix(1 0 0 1 82.50 37.63)">7</text></g></svg>