<svg xmlns="http://www.w3.org/2000/svg" width="109" height="109" viewBox="0 0 109 109"><g><path class="bg" xmlns="http://www.w3.org/2000/svg" fill="none" stroke="#6c757d" d="M54.5,0L54.5,109" stroke-width="0.5" stroke-dasharray="4,1.5"/><path class="bg" xmlns="http://www.w3.org/2000/svg" fill="none" stroke="#6c757d" d="M0,54.5L109,54.5" stroke-width="0.5" stroke-dasharray="4,1.5"/></g><g style="fill:none;stroke:#000000;stroke-width:3;stroke-linecap:round;stroke-linejoin:round;"><g><g><path d="M21.26,22.54c1.53,0.56,3.9,0.43,5.51,0.26c5.46-0.6,13.76-1.81,20.49-2.34c1.97-0.16,3.93-0.36,5.88,0.07"/><path d="M26.7,26.53c0.55,1.1,0.8,2.35,0.5,4.1c-1.14,6.59-1.95,11.1-2.45,14.37"/><path d="M13.97,47.58c2.28,0.42,4.45,0.49,6.27,0.21c9.26-1.41,22.16-3.02,30.01-3.89c2.5-0.28,4.25-0.4,6.75-0.03"/><g><path d="M45.71,23.69c1.05,1.05,1.43,2.69,1.43,4.69c0,12.62,0.01,50.12,0.01,58.04c0,12.47-5.78,3.82-7.19,2.3"/>		</g><g><path d="M45.54,45.6c0,1.03-0.36,2.14-1.14,3.4c-4.84,7.85-15.3,20.18-29.35,30.54"/>		</g>	</g><g><path d="M64.42,19.42c2.33,0.58,4.83,0.54,6.4,0.25c5.89-1.05,14.48-2.96,16.85-3.75c3-1,5,2,3.67,4.33c-1.33,2.33-7.08,12.25-10.08,17"/><path d="M81.25,37.25C100.88,52.12,96,78.38,82.74,71.16"/><path d="M66.37,20.5c0.88,0.88,1.21,2.25,1.21,3.75c0,0.86,0.08,42.4,0.04,63.25c-0.01,3.98-0.01,7.21-0.01,9.25"/>	</g></g></g><g style="font-size:8;fill:#808080"><text transform="matrix(1 0 0 1 14.50 23.50)">1</text><text transform="matrix(1 0 0 1 20.25 33.05)">2</text><text transform="matrix(1 0 0 1 6.75 49.48)">3</text><text transform="matrix(1 0 0 1 39.75 32.50)">4</text><text transform="matrix(1 0 0 1 31.50 56.50)">5</text><text transform="matrix(1 0 0 1 69.50 16.50)">6</text><text transform="matrix(1 0 0 1 77.50 46.50)">7</text><text transform="matrix(1 0 0 1 59.50 26.50)">8</text></g></svg>