<svg xmlns="http://www.w3.org/2000/svg" width="109" height="109" viewBox="0 0 109 109"><g><path class="bg" xmlns="http://www.w3.org/2000/svg" fill="none" stroke="#6c757d" d="M54.5,0L54.5,109" stroke-width="0.5" stroke-dasharray="4,1.5"/><path class="bg" xmlns="http://www.w3.org/2000/svg" fill="none" stroke="#6c757d" d="M0,54.5L109,54.5" stroke-width="0.5" stroke-dasharray="4,1.5"/></g><g style="fill:none;stroke:#000000;stroke-width:3;stroke-linecap:round;stroke-linejoin:round;"><g><g><g><path d="M11.54,23.66c1.83,0.84,4.36,0.64,6.08,0.47c6.09-0.58,16.58-1.95,21.37-2.44c2.05-0.21,4.63-0.69,6.7-0.08"/><path d="M13.13,36.82c0.9,0.9,1.3,2.05,1.3,3.36c0,0.68,0.09,29.99,0.02,43.08c-0.02,3.7-0.03,6.1-0.03,6.2"/><path d="M15.37,38.68c3.5-0.56,22.78-3.09,24.83-3.37c2.13-0.28,3.17,0.83,3.17,3.31c0,1.13,0.04,26.25,0.04,40.88c0,3.23-0.02,5.92-0.01,7.67"/><path d="M22.09,26.49c0.77,0.77,1.08,1.81,1.09,3.29c0.07,11.34-0.68,20.47-4.66,30.42"/><path d="M30.38,25.41c0.79,0.79,1.04,2.22,1.04,3.65c0,5.47,0.03,15.44,0.03,22.23c0,5.08,0.94,6.07,4.54,6.07c3.02,0,4.52-0.24,5.14-0.86"/>		</g><g><path d="M16.02,70.88c8.36-0.88,16.73-1.75,26.07-2.33"/>		</g><g><path d="M15.63,84.81c6.25-0.47,18.67-1.72,26.45-2.12"/>		</g>	</g><g><g><path d="M52.35,48.5c-0.01,5.58-0.51,9.58-2.29,14.13"/>		</g><g><path d="M57.77,24.68c1.03,1.03,1.26,2.62,1.28,4.62c0.11,12.96,2.2,48.95-11.75,61.44"/>		</g><g><path d="M64.52,42.92c1.46,1.69,3.76,6.93,4.13,9.55"/>		</g><g><path d="M74,20.38c1,1,1.16,2.37,1.16,3.65c0,0.58,0.1,38.52,0.02,55.33c-0.02,3.97-0.04,6.78-0.05,7.63"/>		</g><g><path d="M82.01,41.42c1.63,1.95,4.22,8.02,4.63,11.05"/>		</g><g><path d="M91.31,17.13c1.09,1.09,1.51,2.87,1.51,4.25c0,0.6,0.02,47.17,0.01,66c0,4.61,0,7.55-0.01,7.75"/>		</g>	</g></g></g><g style="font-size:8;fill:#808080"><text transform="matrix(1 0 0 1 5.50 24.50)">1</text><text transform="matrix(1 0 0 1 5.50 42.50)">2</text><text transform="matrix(1 0 0 1 13.50 35.50)">3</text><text transform="matrix(1 0 0 1 16.50 31.50)">4</text><text transform="matrix(1 0 0 1 26.50 31.50)">5</text><text transform="matrix(1 0 0 1 19.50 67.63)">6</text><text transform="matrix(1 0 0 1 19.50 82.55)">7</text><text transform="matrix(1 0 0 1 49.50 43.50)">8</text><text transform="matrix(1 0 0 1 52.50 22.50)">9</text><text transform="matrix(1 0 0 1 62.25 40.50)">10</text><text transform="matrix(1 0 0 1 62.50 19.50)">11</text><text transform="matrix(1 0 0 1 78.50 38.50)">12</text><text transform="matrix(1 0 0 1 79.50 16.50)">13</text></g></svg>