<svg xmlns="http://www.w3.org/2000/svg" width="109" height="109" viewBox="0 0 109 109"><g><path class="bg" xmlns="http://www.w3.org/2000/svg" fill="none" stroke="#6c757d" d="M54.5,0L54.5,109" stroke-width="0.5" stroke-dasharray="4,1.5"/><path class="bg" xmlns="http://www.w3.org/2000/svg" fill="none" stroke="#6c757d" d="M0,54.5L109,54.5" stroke-width="0.5" stroke-dasharray="4,1.5"/></g><g style="fill:none;stroke:#000000;stroke-width:3;stroke-linecap:round;stroke-linejoin:round;"><g><path d="M34,14.75C35.25,16,36,18,36,19.5s0,33.5,0,35.75"/><path d="M37.75,16c9.6-0.15,21.73-3.26,26.63-4.2c1.97-0.38,3.9-0.41,5.87,0.06"/><path d="M37.25,29.5C48.12,28.25,57,27,64,25.72c1.96-0.36,3.76-0.25,5.25,0.06"/><path d="M37.5,42.5c8.88-0.86,21.62-2.62,26.75-3.53c1.97-0.35,3.88-0.32,5.75,0"/><path d="M10.88,58.23c3.14,0.86,6.44,0.68,9.62,0.29c19.73-2.35,44.86-6.1,65-7.61c2.97-0.22,5.7-0.08,8.63,0.4"/><path d="M31.25,60.25c0.94,0.94,1.39,2.38,1.39,4c0,11.82-0.7,28.19-0.7,30.19s1.65,3.14,3.74,1.64c2.09-1.5,17.25-11.09,20.03-12.59"/><path d="M76.52,55.25c0.23,1.25-0.33,2.45-1.05,3.41C73.5,61.25,69.62,65,64.62,68.75"/><path d="M46.5,62.25c8.21,0,34.52,25.9,44.28,29.5C93.12,92.61,94.51,93,97,93.5"/></g></g><g style="font-size:8;fill:#808080"><text transform="matrix(1 0 0 1 29.25 24.13)">1</text><text transform="matrix(1 0 0 1 37.50 12.50)">2</text><text transform="matrix(1 0 0 1 40.50 25.63)">3</text><text transform="matrix(1 0 0 1 40.50 39.13)">4</text><text transform="matrix(1 0 0 1 3.75 59.50)">5</text><text transform="matrix(1 0 0 1 25.50 69.50)">6</text><text transform="matrix(1 0 0 1 81.50 61.50)">7</text><text transform="matrix(1 0 0 1 43.50 71.50)">8</text></g></svg>