<svg xmlns="http://www.w3.org/2000/svg" width="109" height="109" viewBox="0 0 109 109"><g><path class="bg" xmlns="http://www.w3.org/2000/svg" fill="none" stroke="#6c757d" d="M54.5,0L54.5,109" stroke-width="0.5" stroke-dasharray="4,1.5"/><path class="bg" xmlns="http://www.w3.org/2000/svg" fill="none" stroke="#6c757d" d="M0,54.5L109,54.5" stroke-width="0.5" stroke-dasharray="4,1.5"/></g><g style="fill:none;stroke:#000000;stroke-width:3;stroke-linecap:round;stroke-linejoin:round;"><g><g><g><path d="M17.14,18.79c1.1,1.1,1.18,2.59,1.18,4.15c0,0.7-0.06,43.44-0.07,66.31c0,2.63,0,4.99,0,7"/><path d="M18.91,20.12c3.84-0.75,13.24-2.6,17.65-3.56c2.56-0.56,3.96,0.16,4.01,2.93c0.07,3.59,0.06,13.15,0.06,21.14c0,1.04-0.12,3.24-0.12,3.93"/><path d="M19.27,33.18c7.23-1.55,13.86-2.8,20.46-3.64"/><path d="M19.41,45.75c6.69-1.31,13.87-2.56,19.78-3.16"/>		</g><g><path d="M63.37,14.51c1,1,1.13,2.11,1.13,3.24c0,0.63,0.11,13.12,0.11,20.25c0,2.45-0.06,4.38-0.06,4.49"/><path d="M65.8,16.11c3.42-0.64,15.26-2.67,19.84-3.22c3.02-0.36,4.36,0.3,4.36,3.35c0,20.42,0.02,61.68,0.02,76.26c0,11.99-6.36,1.9-7.75,0.62"/><path d="M65.74,27.72c6.01-0.97,19.34-2.99,23.15-2.99"/><path d="M65.8,39.51c7.7-1.01,14.95-2.01,23.05-2.56"/>		</g>	</g><g><g><path d="M32.92,57.33c2.08,0.3,3.94,0.27,5.96,0.01c7.47-0.96,22.28-2.65,30.73-3.5c2.03-0.21,3.94-0.21,5.95,0.2"/><g><path d="M57.43,44.33c0.93,0.93,1.3,2.54,1.3,4.04c0,10.88-0.11,36.1-0.11,40.63c0,5.63-4.25,1.38-5.89-0.33"/>			</g><path d="M57.43,55.89c0.07,0.73-0.36,1.99-0.9,2.95c-3.91,7.03-11.41,16.41-25.48,27.49"/>		</g>	</g></g></g><g style="font-size:8;fill:#808080"><text transform="matrix(1 0 0 1 11.50 27.13)">1</text><text transform="matrix(1 0 0 1 20.25 16.63)">2</text><text transform="matrix(1 0 0 1 23.25 29.50)">3</text><text transform="matrix(1 0 0 1 23.08 41.98)">4</text><text transform="matrix(1 0 0 1 56.50 22.63)">5</text><text transform="matrix(1 0 0 1 66.75 13.50)">6</text><text transform="matrix(1 0 0 1 68.50 24.05)">7</text><text transform="matrix(1 0 0 1 68.46 35.98)">8</text><text transform="matrix(1 0 0 1 32.25 54.13)">9</text><text transform="matrix(1 0 0 1 46.50 43.50)">10</text><text transform="matrix(1 0 0 1 41.50 67.55)">11</text></g></svg>