<svg xmlns="http://www.w3.org/2000/svg" width="109" height="109" viewBox="0 0 109 109"><g><path class="bg" xmlns="http://www.w3.org/2000/svg" fill="none" stroke="#6c757d" d="M54.5,0L54.5,109" stroke-width="0.5" stroke-dasharray="4,1.5"/><path class="bg" xmlns="http://www.w3.org/2000/svg" fill="none" stroke="#6c757d" d="M0,54.5L109,54.5" stroke-width="0.5" stroke-dasharray="4,1.5"/></g><g style="fill:none;stroke:#000000;stroke-width:3;stroke-linecap:round;stroke-linejoin:round;"><g><g><path d="M15.5,51.75c1.82,0.5,4.38,0.88,6.96,0.5c16.91-2.45,50.92-8.12,64.44-8.74c3.02-0.14,4.84,0.24,6.35,0.49"/>	</g><g><path d="M43,20c1.38,1.38,2.15,3.25,2.15,5.26C45.15,29.5,45,71.84,45,76c0,10.5,2.25,12.25,20.25,12.25c18.75,0,20-3.75,20-12.31"/>	</g></g></g><g style="font-size:8;fill:#808080"><text transform="matrix(1 0 0 1 8.50 53.50)">1</text><text transform="matrix(1 0 0 1 34.50 19.63)">2</text></g></svg>