<svg xmlns="http://www.w3.org/2000/svg" width="109" height="109" viewBox="0 0 109 109"><g><path class="bg" xmlns="http://www.w3.org/2000/svg" fill="none" stroke="#6c757d" d="M54.5,0L54.5,109" stroke-width="0.5" stroke-dasharray="4,1.5"/><path class="bg" xmlns="http://www.w3.org/2000/svg" fill="none" stroke="#6c757d" d="M0,54.5L109,54.5" stroke-width="0.5" stroke-dasharray="4,1.5"/></g><g style="fill:none;stroke:#000000;stroke-width:3;stroke-linecap:round;stroke-linejoin:round;"><g><g><path d="M14.38,24.73c2.3,0.54,6.52,0.78,8.81,0.54c21.57-2.27,44.44-5.64,64.9-5.98c3.83-0.06,6.12,0.26,8.04,0.53"/>	</g><path d="M51,41.5c1.45,0.7,3.19,1.43,5.19,1.74c7.31,1.14,17.05,1.94,22.64,1.5c4.64-0.37,6.38,1.08,5.17,4.73C77.88,68,72.75,78.75,63.87,90.4c-7.6,9.97-10.12,3.22-12.62,0.2"/><path d="M51.75,25.5c0.5,2,0.22,3.78-0.21,5.89C48.95,43.8,34.75,73.38,13.56,87.97"/></g></g><g style="font-size:8;fill:#808080"><text transform="matrix(1 0 0 1 7.50 26.50)">1</text><text transform="matrix(1 0 0 1 57.50 41.50)">2</text><text transform="matrix(1 0 0 1 43.50 33.50)">3</text></g></svg>