<svg xmlns="http://www.w3.org/2000/svg" width="109" height="109" viewBox="0 0 109 109"><g><path class="bg" xmlns="http://www.w3.org/2000/svg" fill="none" stroke="#6c757d" d="M54.5,0L54.5,109" stroke-width="0.5" stroke-dasharray="4,1.5"/><path class="bg" xmlns="http://www.w3.org/2000/svg" fill="none" stroke="#6c757d" d="M0,54.5L109,54.5" stroke-width="0.5" stroke-dasharray="4,1.5"/></g><g style="fill:none;stroke:#000000;stroke-width:3;stroke-linecap:round;stroke-linejoin:round;"><g><g><path d="M27.5,23.65c3.09,0.73,6.29,0.36,9.4,0.06c10.2-1,27-2.94,38.97-3.57c3.06-0.16,6.09-0.2,9.14,0.23"/>	</g><g><g><path d="M28.75,55.14c3.13,0.76,6.46,0.43,9.64,0.2c10.03-0.72,23.97-2.63,34.73-3.12c2.7-0.12,5.45-0.16,8.13,0.3"/>		</g><g><path d="M13,87.83c3.94,1.01,7.72,0.96,11.75,0.72c18.41-1.07,41.27-3.39,61.12-4.07c3.63-0.13,7.2-0.1,10.75,0.78"/>		</g>	</g></g></g><g style="font-size:8;fill:#808080"><text transform="matrix(1 0 0 1 18.00 25.78)">1</text><text transform="matrix(1 0 0 1 18.75 57.13)">2</text><text transform="matrix(1 0 0 1 3.75 91.63)">3</text></g></svg>