<svg xmlns="http://www.w3.org/2000/svg" width="109" height="109" viewBox="0 0 109 109"><g><path class="bg" xmlns="http://www.w3.org/2000/svg" fill="none" stroke="#6c757d" d="M54.5,0L54.5,109" stroke-width="0.5" stroke-dasharray="4,1.5"/><path class="bg" xmlns="http://www.w3.org/2000/svg" fill="none" stroke="#6c757d" d="M0,54.5L109,54.5" stroke-width="0.5" stroke-dasharray="4,1.5"/></g><g style="fill:none;stroke:#000000;stroke-width:3;stroke-linecap:round;stroke-linejoin:round;"><g><g><path d="M52.31,15.88c1.15,1.15,2.01,3.12,2.01,5.12c0,0.82-0.22,63.62-0.25,64.63"/><path d="M58,44.75c7-0.62,14.25-2.5,17.75-3c1.38-0.2,3.5-0.38,4.75,0"/>	</g><g><path d="M13.38,88.28c3.6,1.15,7.45,0.62,11.13,0.34c16.23-1.23,41.16-2.66,60.24-2.92c3.65-0.05,7.47-0.32,11,0.82"/>	</g></g></g><g style="font-size:8;fill:#808080"><text transform="matrix(1 0 0 1 43.50 16.28)">1</text><text transform="matrix(1 0 0 1 60.25 41.50)">2</text><text transform="matrix(1 0 0 1 5.50 88.50)">3</text></g></svg>