<svg xmlns="http://www.w3.org/2000/svg" width="109" height="109" viewBox="0 0 109 109"><g><path class="bg" xmlns="http://www.w3.org/2000/svg" fill="none" stroke="#6c757d" d="M54.5,0L54.5,109" stroke-width="0.5" stroke-dasharray="4,1.5"/><path class="bg" xmlns="http://www.w3.org/2000/svg" fill="none" stroke="#6c757d" d="M0,54.5L109,54.5" stroke-width="0.5" stroke-dasharray="4,1.5"/></g><g style="fill:none;stroke:#000000;stroke-width:3;stroke-linecap:round;stroke-linejoin:round;"><g><g><path d="M13.25,22.5c0.94,0.23,5.18,0.96,7.74,0.75c17.87-1.5,46.54-4.75,66.38-4.75c2.92,0,6.42,0.75,7.88,1.25"/>	</g><g><path d="M52.97,23.25c0.93,1.07,1.56,2.75,1.56,5.3c0,8.65-0.2,39.42-0.27,57.2c-0.02,3.86-0.02,5.89-0.02,8.25"/><path d="M67.83,37.17C72.75,39.5,79.88,47.62,82,52.12"/>	</g></g></g><g style="font-size:8;fill:#808080"><text transform="matrix(1 0 0 1 6.50 22.63)">1</text><text transform="matrix(1 0 0 1 46.75 33.13)">2</text><text transform="matrix(1 0 0 1 62.50 32.13)">3</text></g></svg>