<svg xmlns="http://www.w3.org/2000/svg" width="109" height="109" viewBox="0 0 109 109"><g><path class="bg" xmlns="http://www.w3.org/2000/svg" fill="none" stroke="#6c757d" d="M54.5,0L54.5,109" stroke-width="0.5" stroke-dasharray="4,1.5"/><path class="bg" xmlns="http://www.w3.org/2000/svg" fill="none" stroke="#6c757d" d="M0,54.5L109,54.5" stroke-width="0.5" stroke-dasharray="4,1.5"/></g><g style="fill:none;stroke:#000000;stroke-width:3;stroke-linecap:round;stroke-linejoin:round;"><g><g><path d="M33.75,19.87c0.75,1.05,1.25,2.3,1.25,3.36c0,4.77,0.3,62.69,0.21,64.96"/><path d="M35.97,21.78c2.97-0.11,30.42-3.03,32.62-3.2c3.96-0.31,4.97,0.67,4.97,5.05c0,1.51-0.06,40.88-0.06,61.5"/><path d="M36.32,43.24c10.13-1.02,26.94-2.22,35.84-2.54"/><path d="M36.42,65c8.83-0.75,26.71-2.29,35.86-2.34"/>	</g><g><path d="M16.04,89.56c3.29,0.97,7.12,0.64,10.47,0.41C41.09,89,63.75,87.5,84.62,86.83c3.34-0.11,6.7,0.05,10.01,0.64"/>	</g></g></g><g style="font-size:8;fill:#808080"><text transform="matrix(1 0 0 1 27.50 28.50)">1</text><text transform="matrix(1 0 0 1 36.50 18.50)">2</text><text transform="matrix(1 0 0 1 38.50 39.50)">3</text><text transform="matrix(1 0 0 1 38.33 61.42)">4</text><text transform="matrix(1 0 0 1 13.50 86.50)">5</text></g></svg>