<svg xmlns="http://www.w3.org/2000/svg" width="109" height="109" viewBox="0 0 109 109"><g><path class="bg" xmlns="http://www.w3.org/2000/svg" fill="none" stroke="#6c757d" d="M54.5,0L54.5,109" stroke-width="0.5" stroke-dasharray="4,1.5"/><path class="bg" xmlns="http://www.w3.org/2000/svg" fill="none" stroke="#6c757d" d="M0,54.5L109,54.5" stroke-width="0.5" stroke-dasharray="4,1.5"/></g><g style="fill:none;stroke:#000000;stroke-width:3;stroke-linecap:round;stroke-linejoin:round;"><g><g><g><path d="M42.5,14.38c4.89,1.83,12.09,6.99,13.31,9.84"/>		</g>	</g><g><g><path d="M25,39.36c2.59,0.85,5.96,0.5,8.63,0.17c12.89-1.59,25.99-4.01,39.63-4.75c2.53-0.14,5.01-0.11,7.5,0.43"/>		</g><path d="M52.75,39.83c1.27,1.27,1.75,2.83,1.75,3.75c0,6.41,0.25,38.3,0.25,45.17"/><path d="M27.75,64.82c2,0.43,4.84,0.43,6.88,0.16c11.12-1.48,25.35-3.34,36.62-4.26c2.68-0.22,5.88-0.34,8.13,0.14"/><path d="M15.5,92.76c2.69,0.62,6.06,0.7,8.22,0.5c17.03-1.51,42.29-5.39,60.96-5.3c3.48,0.02,6.58,0.24,8.33,0.69"/>	</g></g></g><g style="font-size:8;fill:#808080"><text transform="matrix(1 0 0 1 35.25 15.50)">1</text><text transform="matrix(1 0 0 1 17.50 40.63)">2</text><text transform="matrix(1 0 0 1 46.50 48.50)">3</text><text transform="matrix(1 0 0 1 21.50 66.50)">4</text><text transform="matrix(1 0 0 1 8.50 94.50)">5</text></g></svg>