<svg xmlns="http://www.w3.org/2000/svg" width="109" height="109" viewBox="0 0 109 109"><g><path class="bg" xmlns="http://www.w3.org/2000/svg" fill="none" stroke="#6c757d" d="M54.5,0L54.5,109" stroke-width="0.5" stroke-dasharray="4,1.5"/><path class="bg" xmlns="http://www.w3.org/2000/svg" fill="none" stroke="#6c757d" d="M0,54.5L109,54.5" stroke-width="0.5" stroke-dasharray="4,1.5"/></g><g style="fill:none;stroke:#000000;stroke-width:3;stroke-linecap:round;stroke-linejoin:round;"><g><g><g><path d="M43.75,16c0.07,0.91,0.14,2.36-0.13,3.67c-1.62,7.73-10.4,25.2-23.11,35.58"/>		</g><path d="M43.25,30.38c1.75,0.37,3.25,0.34,5.25,0.1c4-0.48,11.24-2.14,13.44-2.74c4.06-1.11,5.44,0.89,4.31,4.01c-6.23,17.3-25.62,46-51.5,58"/>	</g><path d="M53.75,56.25c8,6.62,21.72,21.01,29.79,28.59c2.65,2.49,5.58,4.78,8.33,5.78"/></g></g><g style="font-size:8;fill:#808080"><text transform="matrix(1 0 0 1 35.99 18.13)">1</text><text transform="matrix(1 0 0 1 48.75 27.13)">2</text><text transform="matrix(1 0 0 1 63.75 61.63)">3</text></g></svg>