<svg xmlns="http://www.w3.org/2000/svg" width="109" height="109" viewBox="0 0 109 109"><g><path class="bg" xmlns="http://www.w3.org/2000/svg" fill="none" stroke="#6c757d" d="M54.5,0L54.5,109" stroke-width="0.5" stroke-dasharray="4,1.5"/><path class="bg" xmlns="http://www.w3.org/2000/svg" fill="none" stroke="#6c757d" d="M0,54.5L109,54.5" stroke-width="0.5" stroke-dasharray="4,1.5"/></g><g style="fill:none;stroke:#000000;stroke-width:3;stroke-linecap:round;stroke-linejoin:round;"><g><g><path d="M32.26,15.75c0.36,1.62,0.19,3.35-0.48,5.24C27.5,33.05,21.32,45.87,11.5,60.54"/><path d="M24.28,44.25c0.8,0.8,1.26,2.22,1.26,3.48c0,12.15,0.14,30.73,0.01,41.77c-0.03,2.58-0.05,4.73-0.05,6.25"/>	</g><g><g><path d="M49,36c1.88,0.5,3.97,0.52,5.62,0.34c6.32-0.67,19.78-1.91,27.12-2.55c1.93-0.17,4.13-0.1,6.01,0.36"/>		</g><g><path d="M36.5,77.83c2.6,0.93,5.92,0.75,8.62,0.48c9.77-0.97,32.2-2.55,45.38-3.15c2.69-0.12,5.61-0.03,8.25,0.53"/>		</g>	</g></g></g><g style="font-size:8;fill:#808080"><text transform="matrix(1 0 0 1 22.50 15.50)">1</text><text transform="matrix(1 0 0 1 17.50 63.50)">2</text><text transform="matrix(1 0 0 1 41.25 36.50)">3</text><text transform="matrix(1 0 0 1 34.50 74.50)">4</text></g></svg>