<svg xmlns="http://www.w3.org/2000/svg" width="109" height="109" viewBox="0 0 109 109"><g><path class="bg" xmlns="http://www.w3.org/2000/svg" fill="none" stroke="#6c757d" d="M54.5,0L54.5,109" stroke-width="0.5" stroke-dasharray="4,1.5"/><path class="bg" xmlns="http://www.w3.org/2000/svg" fill="none" stroke="#6c757d" d="M0,54.5L109,54.5" stroke-width="0.5" stroke-dasharray="4,1.5"/></g><g style="fill:none;stroke:#000000;stroke-width:3;stroke-linecap:round;stroke-linejoin:round;"><g><g><path d="M31.26,18.75c0.21,2-0.06,4.37-0.75,6.08c-4.39,10.92-9.95,21.42-20.01,34.71"/><path d="M24.78,41.25c1.23,1.23,1.85,2.96,1.85,5c0,12.25-0.03,30-0.03,42.25c0,2.64-0.1,4.88-0.1,6.5"/>	</g><g><g><path d="M43.78,35.34c0.88,0.88,1.5,2.41,1.5,3.93c0,7.24,0.08,21.86,0.08,34.6"/><path d="M37.65,75.83c1.73,0.8,4.14,0.48,5.58-0.48c5.03-3.35,11.25-7.28,16.53-10.97"/><g><path d="M56.48,40.84c3.45,2.04,8.92,8.37,9.78,11.54"/>			</g>		</g><g><path d="M85.42,24.68c0.7,1.07,0.86,3.28,0.33,5.31C80.5,50.25,73.5,74,53.34,86.65"/><path d="M79.68,62.66c6.45,4.96,15.7,16.34,17.99,23.58"/>		</g>	</g></g></g><g style="font-size:8;fill:#808080"><text transform="matrix(1 0 0 1 23.25 18.13)">1</text><text transform="matrix(1 0 0 1 20.25 58.50)">2</text><text transform="matrix(1 0 0 1 38.25 44.98)">3</text><text transform="matrix(1 0 0 1 34.50 71.85)">4</text><text transform="matrix(1 0 0 1 53.25 38.50)">5</text><text transform="matrix(1 0 0 1 75.75 25.50)">6</text><text transform="matrix(1 0 0 1 83.50 62.50)">7</text></g></svg>