<svg xmlns="http://www.w3.org/2000/svg" width="109" height="109" viewBox="0 0 109 109"><g><path class="bg" xmlns="http://www.w3.org/2000/svg" fill="none" stroke="#6c757d" d="M54.5,0L54.5,109" stroke-width="0.5" stroke-dasharray="4,1.5"/><path class="bg" xmlns="http://www.w3.org/2000/svg" fill="none" stroke="#6c757d" d="M0,54.5L109,54.5" stroke-width="0.5" stroke-dasharray="4,1.5"/></g><g style="fill:none;stroke:#000000;stroke-width:3;stroke-linecap:round;stroke-linejoin:round;"><g><g><path d="M30.88,19.88c0.2,2.01-0.06,4.65-0.72,6.38c-4.2,11-8.54,20.32-18.16,33.71"/><path d="M26.03,41c0.72,0.75,1.25,1.94,1.25,3.23c0,11.62-0.19,33.52-0.26,45.4c-0.02,2.58-0.02,4.7-0.02,6.12"/>	</g><g><g><path d="M55.25,15.88c5.64,3.21,9.5,6.62,12.56,11.66"/>		</g><g><path d="M43,41.32c1.75,0.31,3.75,0.22,5.87,0.03c11-0.97,23.69-2.1,36.3-2.56c1.72-0.06,3.28,0.09,4.7,0.46"/><path d="M64.25,42.59c1,1.07,1.5,2.41,1.5,3.96c0,5.98,0.5,35.17,0.25,41.15"/><path d="M45.25,63.69c1.03,0.53,4.42,0.34,5.47,0.23c12.58-1.32,17.02-1.73,31.14-2.61c1.28-0.08,4.1-0.22,6.02,0.25"/><path d="M35.5,90.36c2.36,0.52,5.24,0.51,7.94,0.25c13.02-1.23,35.55-2.61,47.17-2.65c2.83-0.01,6.23,0.45,7.64,0.88"/>		</g>	</g></g></g><g style="font-size:8;fill:#808080"><text transform="matrix(1 0 0 1 22.50 19.63)">1</text><text transform="matrix(1 0 0 1 20.25 60.13)">2</text><text transform="matrix(1 0 0 1 47.50 17.50)">3</text><text transform="matrix(1 0 0 1 35.50 41.50)">4</text><text transform="matrix(1 0 0 1 58.50 51.50)">5</text><text transform="matrix(1 0 0 1 38.25 64.63)">6</text><text transform="matrix(1 0 0 1 35.50 87.47)">7</text></g></svg>