<svg xmlns="http://www.w3.org/2000/svg" width="109" height="109" viewBox="0 0 109 109"><g><path class="bg" xmlns="http://www.w3.org/2000/svg" fill="none" stroke="#6c757d" d="M54.5,0L54.5,109" stroke-width="0.5" stroke-dasharray="4,1.5"/><path class="bg" xmlns="http://www.w3.org/2000/svg" fill="none" stroke="#6c757d" d="M0,54.5L109,54.5" stroke-width="0.5" stroke-dasharray="4,1.5"/></g><g style="fill:none;stroke:#000000;stroke-width:3;stroke-linecap:round;stroke-linejoin:round;"><g><g><path d="M32,17c0.25,1.5,0.25,2.79-0.37,4.58C27.75,32.75,22.38,45.62,11,59.79"/><path d="M26.03,41c0.59,0.61,1.01,1.72,1.01,2.98c0,10.13-0.03,30.75-0.04,42.52c0,2.78,0,5.18,0,7"/>	</g><g><g><path d="M44.44,17.14c0.71,0.71,1.44,1.73,1.7,3.11c0.93,4.84,1.48,10.09,2.26,15.95c0.2,1.48,0.38,2.92,0.54,4.27"/><path d="M46.69,18.86C56.8,17.2,70.17,15.62,77,14.95c3.07-0.3,4.5,1.55,4.01,4.18c-0.87,4.62-2.23,9.15-3.56,15.38"/><path d="M50.12,38.33c4.36-0.52,16.06-1.67,24.63-2.6c1.98-0.22,3.73-0.17,5.11-0.35"/>		</g><g><path d="M36.11,56.69c2.14,0.31,3.9,0.25,5.89,0.11c7.91-0.55,33.25-2.79,45.64-3.26c1.61-0.06,3.88,0.03,5.47,0.32"/><path d="M62.6,43.27c0.75,0.75,1.27,1.98,1.27,3.95c0,5.02,0,26.55-0.09,38.78c-0.03,3.62,0.02,6.55-0.02,7.88"/><path d="M60.13,56.32c0,0.93-0.35,1.99-1.18,3.31c-5.97,9.5-15.91,20.27-25.2,25.24"/><path d="M65.92,55.63C72.25,64.62,80,72.75,87.94,80.08c2.3,2.12,4.67,3.81,6.68,5.3"/>		</g>	</g></g></g><g style="font-size:8;fill:#808080"><text transform="matrix(1 0 0 1 23.50 17.50)">1</text><text transform="matrix(1 0 0 1 19.50 60.50)">2</text><text transform="matrix(1 0 0 1 39.75 31.63)">3</text><text transform="matrix(1 0 0 1 46.50 15.50)">4</text><text transform="matrix(1 0 0 1 51.75 34.55)">5</text><text transform="matrix(1 0 0 1 35.25 54.50)">6</text><text transform="matrix(1 0 0 1 53.50 47.50)">7</text><text transform="matrix(1 0 0 1 45.75 67.55)">8</text><text transform="matrix(1 0 0 1 77.25 66.13)">9</text></g></svg>