<svg xmlns="http://www.w3.org/2000/svg" width="109" height="109" viewBox="0 0 109 109"><g><path class="bg" xmlns="http://www.w3.org/2000/svg" fill="none" stroke="#6c757d" d="M54.5,0L54.5,109" stroke-width="0.5" stroke-dasharray="4,1.5"/><path class="bg" xmlns="http://www.w3.org/2000/svg" fill="none" stroke="#6c757d" d="M0,54.5L109,54.5" stroke-width="0.5" stroke-dasharray="4,1.5"/></g><g style="fill:none;stroke:#000000;stroke-width:3;stroke-linecap:round;stroke-linejoin:round;"><g><g><path d="M28.59,21.36c1.78,0.33,5.04,0.48,6.82,0.33c10.84-0.94,21.52-2.57,32.08-3.03c2.96-0.13,4.75,0.16,6.23,0.32"/><path d="M16.13,44.06c2.16,0.47,5.88,0.62,8.04,0.47c18.08-1.27,36.71-3.9,56.39-4.5c3.6-0.11,5.77,0.22,7.57,0.46"/>	</g><g><g><path d="M41.29,46.69c0.59,1.18,0.74,2.97,0.36,4.44c-2.9,11.36-8.78,27.99-25.4,41.36"/>		</g><path d="M56.7,44.12c1.53,1.53,2,3.11,2,5.66c0,9.59,0.01,19.49,0.01,27.97c0,14.38,1.03,15.62,18.28,15.62c14.88,0,16.14-1.12,16.14-12.69"/>	</g></g></g><g style="font-size:8;fill:#808080"><text transform="matrix(1 0 0 1 20.25 21.13)">1</text><text transform="matrix(1 0 0 1 8.25 45.13)">2</text><text transform="matrix(1 0 0 1 32.25 54.13)">3</text><text transform="matrix(1 0 0 1 50.25 54.13)">4</text></g></svg>