<svg xmlns="http://www.w3.org/2000/svg" width="109" height="109" viewBox="0 0 109 109"><g><path class="bg" xmlns="http://www.w3.org/2000/svg" fill="none" stroke="#6c757d" d="M54.5,0L54.5,109" stroke-width="0.5" stroke-dasharray="4,1.5"/><path class="bg" xmlns="http://www.w3.org/2000/svg" fill="none" stroke="#6c757d" d="M0,54.5L109,54.5" stroke-width="0.5" stroke-dasharray="4,1.5"/></g><g style="fill:none;stroke:#000000;stroke-width:3;stroke-linecap:round;stroke-linejoin:round;"><g><g><g><path d="M39.5,17.25c1.12,1.12,1.6,3,1.62,4.81c0.5,41.19-0.38,59.94-15.88,73.69"/>		</g><g><g><path d="M19.25,34c5.25,2.75,11.12,7.38,13.5,11.5"/>			</g><g><path d="M15.38,72.64c1.49,0.72,2.49,0.24,3.62-0.58C20.56,70.92,31.84,61.49,38,56"/>			</g>		</g>	</g><g><g><path d="M58.49,11.37c1.2,1.2,1.38,2.84,1.38,4.68c0,9.95-0.03,56.89-0.03,62.45c0,15.62,3.04,16.78,20.17,16.78c14.12,0,16.39-1.78,16.39-10.62"/>		</g><path d="M84.76,23.64c0.04,0.38-0.06,1.28-0.34,1.79c-2.05,3.81-7.05,9.06-15.61,14.53"/><path d="M70.38,54.12C76.24,56.97,84.62,64.88,87,70"/>	</g></g></g><g style="font-size:8;fill:#808080"><text transform="matrix(1 0 0 1 31.50 17.50)">1</text><text transform="matrix(1 0 0 1 11.50 34.63)">2</text><text transform="matrix(1 0 0 1 7.50 77.50)">3</text><text transform="matrix(1 0 0 1 52.50 8.50)">4</text><text transform="matrix(1 0 0 1 76.50 23.50)">5</text><text transform="matrix(1 0 0 1 69.50 51.13)">6</text></g></svg>