<svg xmlns="http://www.w3.org/2000/svg" width="109" height="109" viewBox="0 0 109 109"><g><path class="bg" xmlns="http://www.w3.org/2000/svg" fill="none" stroke="#6c757d" d="M54.5,0L54.5,109" stroke-width="0.5" stroke-dasharray="4,1.5"/><path class="bg" xmlns="http://www.w3.org/2000/svg" fill="none" stroke="#6c757d" d="M0,54.5L109,54.5" stroke-width="0.5" stroke-dasharray="4,1.5"/></g><g style="fill:none;stroke:#000000;stroke-width:3;stroke-linecap:round;stroke-linejoin:round;"><g><g><g><path d="M46.64,11.4c0.06,0.51,0.12,1.33-0.12,2.07c-1.41,4.35-9.22,13.66-20.27,19.51"/><path d="M47.58,17.7c2.69,0,14.44-2.27,17.27-2.54c2.43-0.23,3.69,2.44,2.67,3.57C63.25,23.48,59,27.25,50.75,35.6"/>		</g><path d="M27.25,37.85c0.76,0.76,1.1,1.56,1.31,2.59c1.07,5.31,1.86,8.15,2.67,14.06c0.16,1.19,0.34,2.43,0.52,3.75"/><path d="M29.64,39.71c11.64-1.84,34.48-4.83,44.98-5.55c2.84-0.19,5.6,1.14,4.8,4.41c-1.07,4.39-2.09,7.1-4.37,12.21c-0.53,1.19-1.15,2.5-1.88,4"/><path d="M51.75,39.25c1.12,1.12,1.25,2.25,1.25,3.5c0,4.75,0,8.5,0,10.5"/><path d="M32.5,56c8.25-1,34.5-3,40-3.25"/>	</g><g><g><path d="M43,59c0.06,0.86,0.27,2.26-0.13,3.47c-2.49,7.53-10.24,22.78-24.2,32.2"/>		</g><g><path d="M56.24,57.12c0.74,1.19,1.12,2.59,1.12,4.43c0,8.45-0.03,15.7-0.03,22.45c0,10,1.79,11.78,18.67,11.78c16.5,0,17.89-1.78,17.89-9.37"/>		</g>	</g></g></g><g style="font-size:8;fill:#808080"><text transform="matrix(1 0 0 1 38.25 13.63)">1</text><text transform="matrix(1 0 0 1 52.50 13.50)">2</text><text transform="matrix(1 0 0 1 21.75 46.50)">3</text><text transform="matrix(1 0 0 1 39.75 34.63)">4</text><text transform="matrix(1 0 0 1 45.50 47.50)">5</text><text transform="matrix(1 0 0 1 35.50 52.63)">6</text><text transform="matrix(1 0 0 1 34.50 66.50)">7</text><text transform="matrix(1 0 0 1 49.50 66.13)">8</text></g></svg>