<svg xmlns="http://www.w3.org/2000/svg" width="109" height="109" viewBox="0 0 109 109"><g><path class="bg" xmlns="http://www.w3.org/2000/svg" fill="none" stroke="#6c757d" d="M54.5,0L54.5,109" stroke-width="0.5" stroke-dasharray="4,1.5"/><path class="bg" xmlns="http://www.w3.org/2000/svg" fill="none" stroke="#6c757d" d="M0,54.5L109,54.5" stroke-width="0.5" stroke-dasharray="4,1.5"/></g><g style="fill:none;stroke:#000000;stroke-width:3;stroke-linecap:round;stroke-linejoin:round;"><g><g><path d="M51,12c0.1,1.1-0.11,2.9-0.71,4.42C46.54,25.91,34.42,46.29,13.88,59"/><path d="M51.25,17.13c6.01,5.71,24.37,23.52,33.03,31.21c3.08,2.73,4.85,3.78,9.22,5.5"/>	</g><g><path d="M32.17,53.79c1.95,0.59,4.65,0.47,6.45,0.26c6.04-0.71,17.52-2.14,26.01-2.69c2.11-0.13,4.5-0.12,6.32,0.33"/><path d="M50.91,54.99c0.92,0.92,1.4,2.3,1.4,3.2c0,6.3-0.02,24.06-0.02,31.65"/><path d="M33.45,71.93c1.84,0.57,3.93,0.31,5.81,0.12c8.21-0.8,16.37-1.4,24.75-2.14c2.07-0.18,4.23-0.46,6.27,0.12"/><path d="M20.48,92.76c1.91,0.49,4.89,0.79,8.3,0.5c13.59-1.14,33.47-2.89,50.39-3.45c2.86-0.09,6.3,0.23,7.73,0.68"/>	</g></g></g><g style="font-size:8;fill:#808080"><text transform="matrix(1 0 0 1 43.50 12.50)">1</text><text transform="matrix(1 0 0 1 59.50 22.50)">2</text><text transform="matrix(1 0 0 1 37.50 50.50)">3</text><text transform="matrix(1 0 0 1 44.25 63.13)">4</text><text transform="matrix(1 0 0 1 26.50 73.63)">5</text><text transform="matrix(1 0 0 1 12.75 94.63)">6</text></g></svg>