<svg xmlns="http://www.w3.org/2000/svg" width="109" height="109" viewBox="0 0 109 109"><g><path class="bg" xmlns="http://www.w3.org/2000/svg" fill="none" stroke="#6c757d" d="M54.5,0L54.5,109" stroke-width="0.5" stroke-dasharray="4,1.5"/><path class="bg" xmlns="http://www.w3.org/2000/svg" fill="none" stroke="#6c757d" d="M0,54.5L109,54.5" stroke-width="0.5" stroke-dasharray="4,1.5"/></g><g style="fill:none;stroke:#000000;stroke-width:3;stroke-linecap:round;stroke-linejoin:round;"><g><g><path d="M22.41,21.19c-0.13,5.71-2.54,17.94-4.66,24.06"/><path d="M22.97,25.5c17.4-2.25,39.03-7.38,60.22-7.75c12.05-0.21,3.56,7.5-0.94,11.25"/>	</g><g><g><path d="M39.57,45.25c0.97,0.97,1.14,2.47,1.05,4.19c-0.75,15.31-6.25,34.81-20.12,45.81"/>		</g><path d="M41.75,48.65c3.59-0.68,14.06-2.51,18.26-3.36c3.9-0.79,5.17,0.28,4.62,4.35c-1.09,8.19-2.04,16.72-2.22,28.36c-0.19,11.64,1.39,14.11,16.18,14.11c15.66,0,16.7-1.11,16.7-8.73"/>	</g></g></g><g style="font-size:8;fill:#808080"><text transform="matrix(1 0 0 1 15.50 23.50)">1</text><text transform="matrix(1 0 0 1 27.75 21.50)">2</text><text transform="matrix(1 0 0 1 31.50 51.05)">3</text><text transform="matrix(1 0 0 1 44.50 44.50)">4</text></g></svg>