<svg xmlns="http://www.w3.org/2000/svg" width="109" height="109" viewBox="0 0 109 109"><g><path class="bg" xmlns="http://www.w3.org/2000/svg" fill="none" stroke="#6c757d" d="M54.5,0L54.5,109" stroke-width="0.5" stroke-dasharray="4,1.5"/><path class="bg" xmlns="http://www.w3.org/2000/svg" fill="none" stroke="#6c757d" d="M0,54.5L109,54.5" stroke-width="0.5" stroke-dasharray="4,1.5"/></g><g style="fill:none;stroke:#000000;stroke-width:3;stroke-linecap:round;stroke-linejoin:round;"><g><g><path d="M20.66,15.88c0,4.1-3.55,15.38-5.16,18.12"/><path d="M20.74,18.24c9.51-0.99,56.74-4.53,64.45-4.9c12.05-0.59,2.55,7.16-0.45,9.28"/>	</g><g><g><path d="M32.32,30.7c0.19,0.25,0.66,1.22,0.98,2.19c1.38,4.19,2.67,14.26,3.52,22.07"/><path d="M34.25,31.76c10.66-1.05,29.94-2.84,37.9-3.73c2.92-0.33,4.42,0.82,4.27,1.98c-0.55,4.22-2.42,15.74-5.25,23.77"/><path d="M36.24,42.59c3.47-0.41,35.49-2.93,38.36-3.1"/><path d="M36.88,54.32c7.68-0.45,24.2-2.32,34.8-3.06"/>		</g><g><g><path d="M52.85,59c0.61,0.43,1.61,2.11,1.61,2.97c0,3.42-0.02,6.26-0.08,8.71"/><path d="M18.5,73.45c1.23,0.1,4.03,0.66,5.22,0.55c12.9-1.1,49.3-6.07,64.36-5.37c2.03,0.09,3.06,0.05,4.57,0.7"/>			</g><g><path d="M43.6,79.49c0.59,0.84,0.31,3.06-0.7,4.07c-5.49,5.47-12.92,9.93-24.3,14.69"/><path d="M66.47,78.86c9.35,5.33,17.07,11.48,21.75,17.95"/>			</g>		</g>	</g></g></g><g style="font-size:8;fill:#808080"><text transform="matrix(1 0 0 1 14.50 17.50)">1</text><text transform="matrix(1 0 0 1 24.50 14.50)">2</text><text transform="matrix(1 0 0 1 25.44 38.98)">3</text><text transform="matrix(1 0 0 1 35.50 28.50)">4</text><text transform="matrix(1 0 0 1 39.50 40.50)">5</text><text transform="matrix(1 0 0 1 40.50 52.50)">6</text><text transform="matrix(1 0 0 1 43.50 63.50)">7</text><text transform="matrix(1 0 0 1 11.50 73.50)">8</text><text transform="matrix(1 0 0 1 35.50 81.53)">9</text><text transform="matrix(1 0 0 1 59.50 86.50)">10</text></g></svg>