<svg xmlns="http://www.w3.org/2000/svg" width="109" height="109" viewBox="0 0 109 109"><g><path class="bg" xmlns="http://www.w3.org/2000/svg" fill="none" stroke="#6c757d" d="M54.5,0L54.5,109" stroke-width="0.5" stroke-dasharray="4,1.5"/><path class="bg" xmlns="http://www.w3.org/2000/svg" fill="none" stroke="#6c757d" d="M0,54.5L109,54.5" stroke-width="0.5" stroke-dasharray="4,1.5"/></g><g style="fill:none;stroke:#000000;stroke-width:3;stroke-linecap:round;stroke-linejoin:round;"><g><g><path d="M19.44,50.57c2.2-0.13,17.91-1.92,19.92-2.08"/>	</g><path d="M39.54,18.19c0.95,0.95,0.98,1.85,0.98,3.49c0,1.2,0.05,15.92,0.08,23.82c0.01,2.91,0.02,4.96,0.02,5.18"/><path d="M41.5,19.25c2.5-0.25,17.49-2.61,21-3c2.38-0.27,3.75,0.72,3.75,3.12c0,4.58,0,22.97,0,24.62c0,2.32,0.67,2.83,2.89,2.68C73.87,46.36,87.27,45,89.25,45"/><g><path d="M18.06,49.63c0.9,0.9,1.01,2.24,1.01,4.25c0,0.91,1.25,35.13,1.25,37.25s1.65,2.52,3.15,2.39c15.02-1.27,56.27-3.77,65.02-3.77"/><g><path d="M90.06,43.88c0.97,0.97,1.04,2.62,1.01,3.75c-0.2,7.99-0.97,24.25-1.34,38.36c-0.07,2.68-0.13,5.12-0.16,7.14"/>		</g>	</g></g></g><g style="font-size:8;fill:#808080"><text transform="matrix(1 0 0 1 21.75 46.50)">1</text><text transform="matrix(1 0 0 1 33.75 27.50)">2</text><text transform="matrix(1 0 0 1 42.75 15.13)">3</text><text transform="matrix(1 0 0 1 10.50 59.50)">4</text><text transform="matrix(1 0 0 1 83.25 55.50)">5</text></g></svg>