<svg xmlns="http://www.w3.org/2000/svg" width="109" height="109" viewBox="0 0 109 109"><g><path class="bg" xmlns="http://www.w3.org/2000/svg" fill="none" stroke="#6c757d" d="M54.5,0L54.5,109" stroke-width="0.5" stroke-dasharray="4,1.5"/><path class="bg" xmlns="http://www.w3.org/2000/svg" fill="none" stroke="#6c757d" d="M0,54.5L109,54.5" stroke-width="0.5" stroke-dasharray="4,1.5"/></g><g style="fill:none;stroke:#000000;stroke-width:3;stroke-linecap:round;stroke-linejoin:round;"><g><g><g><path d="M40.87,19.35c0.42,1.56,0.52,2.74-0.04,5.51C35.84,49.6,27.62,68.62,14.5,82"/>		</g><path d="M15.62,38c12.36,7.39,25.95,21.42,32.49,32.57"/>	</g><g><path d="M63.02,21.33c0.98,0.92,1.76,2.67,1.76,5.02c0,7.04-0.01,28.57-0.02,40.15c0,3.26,0,5.76,0,7"/><path d="M87.02,14.33c1.26,1.26,1.76,2.79,1.76,5.02c0,14.56-0.01,64.16-0.01,69.12c0,13.14-7.21,1.5-8.71,0.25"/>	</g></g></g><g style="font-size:8;fill:#808080"><text transform="matrix(1 0 0 1 33.75 18.13)">1</text><text transform="matrix(1 0 0 1 11.25 34.63)">2</text><text transform="matrix(1 0 0 1 54.50 21.50)">3</text><text transform="matrix(1 0 0 1 77.50 14.50)">4</text></g></svg>