<svg xmlns="http://www.w3.org/2000/svg" width="109" height="109" viewBox="0 0 109 109"><g><path class="bg" xmlns="http://www.w3.org/2000/svg" fill="none" stroke="#6c757d" d="M54.5,0L54.5,109" stroke-width="0.5" stroke-dasharray="4,1.5"/><path class="bg" xmlns="http://www.w3.org/2000/svg" fill="none" stroke="#6c757d" d="M0,54.5L109,54.5" stroke-width="0.5" stroke-dasharray="4,1.5"/></g><g style="fill:none;stroke:#000000;stroke-width:3;stroke-linecap:round;stroke-linejoin:round;"><g><g><g><path d="M15.75,23.39c1.97,0.8,4.94,0.48,6.98,0.23c7.31-0.91,21.32-2.67,28.78-3.29c2.18-0.18,4.34-0.34,6.49,0.19"/><g><path d="M11.75,50.64c2.16,0.88,5.4,0.42,7.65,0.13c8.6-1.12,26.45-3.44,35.35-4.32c2.4-0.24,5.14-0.26,7.5,0.32"/><path d="M28.22,25.82c1.23,1.23,1.4,2.69,1.44,4.5c0.84,40.93-2.53,51.8-14.91,62.93"/>			</g>		</g><g><g><path d="M46.25,23.13c0.75,0.75,1.16,2.74,1.16,4.24c0,6.5-0.02,41.77-0.03,57.13c0,3.8,0,6.38,0,7"/>			</g>		</g>	</g><g><path d="M71.02,26.33c0.98,0.92,1.76,2.67,1.76,5.02c0,10.52,0.06,22.4,0.06,30.65c0,3.5-0.08,6.24-0.08,7.75"/><path d="M90.77,15.83c1.2,1.2,1.76,2.67,1.76,5.02c0,14.56-0.01,62.41-0.01,67.37c0,8.12-5.52,5.41-9.96,0.75"/>	</g></g></g><g style="font-size:8;fill:#808080"><text transform="matrix(1 0 0 1 9.75 24.13)">1</text><text transform="matrix(1 0 0 1 3.75 51.50)">2</text><text transform="matrix(1 0 0 1 21.75 34.63)">3</text><text transform="matrix(1 0 0 1 39.75 33.13)">4</text><text transform="matrix(1 0 0 1 61.50 29.50)">5</text><text transform="matrix(1 0 0 1 81.50 17.50)">6</text></g></svg>