<svg xmlns="http://www.w3.org/2000/svg" width="109" height="109" viewBox="0 0 109 109"><g><path class="bg" xmlns="http://www.w3.org/2000/svg" fill="none" stroke="#6c757d" d="M54.5,0L54.5,109" stroke-width="0.5" stroke-dasharray="4,1.5"/><path class="bg" xmlns="http://www.w3.org/2000/svg" fill="none" stroke="#6c757d" d="M0,54.5L109,54.5" stroke-width="0.5" stroke-dasharray="4,1.5"/></g><g style="fill:none;stroke:#000000;stroke-width:3;stroke-linecap:round;stroke-linejoin:round;"><g><g><g><path d="M16.25,24.98c2.5,0.64,5.16,0.42,7.51,0.1c7.22-0.98,19.17-2.95,26.48-3.61c2.38-0.22,4.68-0.37,7,0.29"/>		</g><g><path d="M37.11,25.65c0.23,0.62,0.29,1.73-0.05,2.94C34.75,36.62,26.5,52.38,14.48,60.8"/><path d="M35.81,39.06c1.19,0.56,2.19,0.31,3.36,0.11c2.72-0.47,4.2-0.8,8.38-2.06c2.67-0.81,4.31,0.95,3.78,3.58C48.25,56,30,85.38,12.27,95.75"/><path d="M26.25,54c4.01,1.77,10.35,7.29,11.35,10.05"/>		</g>	</g><g><path d="M68.77,28.87c1.18,1.18,1.76,2.51,1.76,4.77c0,11.46,0,19.5,0,24.74c0,1.96,0,3.63,0,5.12"/><path d="M87.02,16.58c1.33,1.33,2.01,2.74,2.01,5.77c0,16.15-0.01,58.9-0.01,65.12c0,10.28-7.21,1.5-8.71,0.25"/>	</g></g></g><g style="font-size:8;fill:#808080"><text transform="matrix(1 0 0 1 9.75 26.50)">1</text><text transform="matrix(1 0 0 1 26.50 35.50)">2</text><text transform="matrix(1 0 0 1 41.50 35.50)">3</text><text transform="matrix(1 0 0 1 31.50 54.13)">4</text><text transform="matrix(1 0 0 1 65.50 25.63)">5</text><text transform="matrix(1 0 0 1 77.50 17.50)">6</text></g></svg>