<svg xmlns="http://www.w3.org/2000/svg" width="109" height="109" viewBox="0 0 109 109"><g><path class="bg" xmlns="http://www.w3.org/2000/svg" fill="none" stroke="#6c757d" d="M54.5,0L54.5,109" stroke-width="0.5" stroke-dasharray="4,1.5"/><path class="bg" xmlns="http://www.w3.org/2000/svg" fill="none" stroke="#6c757d" d="M0,54.5L109,54.5" stroke-width="0.5" stroke-dasharray="4,1.5"/></g><g style="fill:none;stroke:#000000;stroke-width:3;stroke-linecap:round;stroke-linejoin:round;"><g><g><g><path d="M24.4,18.14c0.03,0.59,0.12,1.52-0.06,2.35c-1.21,5.38-4.83,14.63-10.71,22"/><path d="M23.25,32.17c1.25,0.2,2.22,0.08,2.82,0c8.67-1.19,14.43-2.29,22.96-4.26c1.53-0.35,2.99-0.48,4.47-0.12"/><path d="M11,49.09c2.01,0.71,4.82,0.45,6.88,0.19c10.85-1.39,25.91-3.94,35-4.88c2.18-0.22,4.22-0.39,6.37,0.07"/>		</g><g><path d="M19.81,61.7c0.81,0.81,1.21,2.3,1.21,3.23c0,0.41,0.01,9.34-0.06,17.08c-0.03,3.3-0.06,6.03-0.09,7.1"/><path d="M21.91,62.82c5.59-0.95,28.2-3.97,30.26-4.1c2.41-0.15,3.42,1.4,3.34,4.1c-0.26,9.43-0.51,14.93-1.19,22.67c-0.42,4.75-3.87,0.64-5.03-0.96"/><g><path d="M35.68,11.13c1.09,1.09,1.76,2.74,1.76,4.5c0,0.77-0.03,55.38-0.17,75.87c-0.03,3.77-0.05,6.38-0.08,7.25"/>			</g>		</g>	</g><g><path d="M69.52,25.83c0.89,0.89,1.51,2.67,1.51,5.02c0,10.5,0.15,20.52,0.05,27.15C71.03,60.56,71,62.62,71,64"/><path d="M89.27,12.58c0.98,0.92,1.76,2.92,1.76,5.27c0,14.56-0.01,66.66-0.01,71.62c0,12.53-7.21,1.5-8.71,0.25"/>	</g></g></g><g style="font-size:8;fill:#808080"><text transform="matrix(1 0 0 1 16.50 17.50)">1</text><text transform="matrix(1 0 0 1 29.25 28.63)">2</text><text transform="matrix(1 0 0 1 3.75 51.13)">3</text><text transform="matrix(1 0 0 1 12.50 68.50)">4</text><text transform="matrix(1 0 0 1 22.50 59.98)">5</text><text transform="matrix(1 0 0 1 26.50 11.50)">6</text><text transform="matrix(1 0 0 1 62.25 26.50)">7</text><text transform="matrix(1 0 0 1 80.25 14.50)">8</text></g></svg>