<svg xmlns="http://www.w3.org/2000/svg" width="109" height="109" viewBox="0 0 109 109"><g><path class="bg" xmlns="http://www.w3.org/2000/svg" fill="none" stroke="#6c757d" d="M54.5,0L54.5,109" stroke-width="0.5" stroke-dasharray="4,1.5"/><path class="bg" xmlns="http://www.w3.org/2000/svg" fill="none" stroke="#6c757d" d="M0,54.5L109,54.5" stroke-width="0.5" stroke-dasharray="4,1.5"/></g><g style="fill:none;stroke:#000000;stroke-width:3;stroke-linecap:round;stroke-linejoin:round;"><g><g><g><g><path d="M48.13,13.68c0.12,0.82,0.6,2.3-0.25,3.44C40.24,27.3,31.35,34.99,17,41.75"/>			</g><path d="M21.7,19.47c8.03,1.33,23.76,10.17,30.34,20"/>		</g><g><path d="M12.53,57.71c0.54,0.24,3.77,0.41,5.21,0.31c6.21-0.41,23.24-3.21,33.23-4.41c1.44-0.17,3.39-0.24,4.3,0"/><path d="M36.27,40.5c1.09,0.47,1.61,2.25,1.61,4.92c0,0.96-0.14,47.25-0.36,53.08"/><path d="M37.33,57.78C31.75,69.25,21.5,80.25,12.02,86.59"/><path d="M41.34,64.65c3.39,1.88,9.16,6.85,11.84,11.6"/>		</g>	</g><g><path d="M67.77,25.33c0.98,0.92,1.67,1.99,1.76,5.02C69.92,44.91,69.5,63.04,69.5,68"/><path d="M88.77,13.33c0.98,0.92,1.67,1.99,1.76,5.02c0.4,14.55-0.26,65.66-0.26,70.62c0,13.14-7.21,1.5-8.71,0.25"/>	</g></g></g><g style="font-size:8;fill:#808080"><text transform="matrix(1 0 0 1 40.50 13.50)">1</text><text transform="matrix(1 0 0 1 13.50 20.50)">2</text><text transform="matrix(1 0 0 1 6.50 57.50)">3</text><text transform="matrix(1 0 0 1 28.50 44.40)">4</text><text transform="matrix(1 0 0 1 24.50 67.50)">5</text><text transform="matrix(1 0 0 1 45.50 65.50)">6</text><text transform="matrix(1 0 0 1 60.25 25.50)">7</text><text transform="matrix(1 0 0 1 78.50 13.50)">8</text></g></svg>