<svg xmlns="http://www.w3.org/2000/svg" width="109" height="109" viewBox="0 0 109 109"><g><path class="bg" xmlns="http://www.w3.org/2000/svg" fill="none" stroke="#6c757d" d="M54.5,0L54.5,109" stroke-width="0.5" stroke-dasharray="4,1.5"/><path class="bg" xmlns="http://www.w3.org/2000/svg" fill="none" stroke="#6c757d" d="M0,54.5L109,54.5" stroke-width="0.5" stroke-dasharray="4,1.5"/></g><g style="fill:none;stroke:#000000;stroke-width:3;stroke-linecap:round;stroke-linejoin:round;"><g><g><g><path d="M35.24,11.25c0.12,0.38,1.67,1.95,1.67,4.34c0,8.16-0.03,21.38-0.03,25.28"/><path d="M15.62,20.62c3.98,2.91,9.01,9.92,10.01,14.44"/><path d="M56.21,17.85c0.09,0.86-0.01,1.69-0.31,2.5c-1.11,3.41-4.49,8.22-8.27,11.67"/>		</g><g><path d="M21.86,42.44c0.85,0.85,1.35,1.93,1.35,3.28c0,0.73-0.03,30.34-0.04,44.02c0,3.92-0.01,6.62-0.03,7.08"/><path d="M23.81,43.37c4.06-0.62,19.42-3.12,23.23-3.44c2.21-0.18,4.18,1.19,4.18,4.4c0,9.99-0.05,26.65-0.05,45.42c0,11.25-4.97,2.58-6.62,0.96"/><path d="M24.06,56.94c8.56-1.19,18.31-2.56,26.24-3.28"/><path d="M24.26,71.61c5.89-0.7,19-2.57,25.81-3.03"/>		</g>	</g><g><path d="M70.27,26.83c0.98,0.92,1.76,2.42,1.76,4.52c0,10.53,0.15,23.4,0.05,30.9c-0.04,2.87-0.07,5.13-0.07,6.5"/><path d="M89.27,13.58c0.98,0.92,1.76,2.17,1.76,4.52c0,14.56-0.01,65.9-0.01,71.12c0,14.91-5.64,5.41-7.96,2.5"/>	</g></g></g><g style="font-size:8;fill:#808080"><text transform="matrix(1 0 0 1 26.50 12.50)">1</text><text transform="matrix(1 0 0 1 8.50 21.50)">2</text><text transform="matrix(1 0 0 1 47.50 17.50)">3</text><text transform="matrix(1 0 0 1 15.50 51.13)">4</text><text transform="matrix(1 0 0 1 28.50 40.50)">5</text><text transform="matrix(1 0 0 1 27.75 53.50)">6</text><text transform="matrix(1 0 0 1 27.75 68.98)">7</text><text transform="matrix(1 0 0 1 61.50 29.50)">8</text><text transform="matrix(1 0 0 1 79.50 14.50)">9</text></g></svg>