<svg xmlns="http://www.w3.org/2000/svg" width="109" height="109" viewBox="0 0 109 109"><g><path class="bg" xmlns="http://www.w3.org/2000/svg" fill="none" stroke="#6c757d" d="M54.5,0L54.5,109" stroke-width="0.5" stroke-dasharray="4,1.5"/><path class="bg" xmlns="http://www.w3.org/2000/svg" fill="none" stroke="#6c757d" d="M0,54.5L109,54.5" stroke-width="0.5" stroke-dasharray="4,1.5"/></g><g style="fill:none;stroke:#000000;stroke-width:3;stroke-linecap:round;stroke-linejoin:round;"><g><g><g><path d="M20.5,21.06c2.49,0.86,5.22,0.7,7.75,0.34c10.63-1.52,37.84-3.8,49.01-4.22c2.96-0.11,5.61-0.01,8.5,0.59"/><path d="M36.5,12.49c1.25,0.89,1.81,1.77,2,2.49c1.75,6.71,2,10.16,2.5,12.6"/><path d="M68.07,11c0.38,0.86,0.28,1.98-0.05,3.06c-1.56,5.12-1.98,7.12-3.76,12.24"/>		</g><g><g><path d="M30.77,33.73c0.75,0.75,1.35,2.11,1.52,2.73c0.92,3.31,2.17,8.93,3.03,12.83c0.51,2.33,0.88,4.04,0.94,4.28"/><path d="M32.89,34.92c6.86-0.8,30.77-3.43,38-4.03c2.75-0.23,5.82,0.98,5.06,4.12c-0.73,3.02-2.28,7.68-3.51,11.45c-0.54,1.64-0.93,2.41-1.6,3.7"/><path d="M35.14,43.28c9.61-1.4,28.36-3.4,38.21-3.74"/><path d="M36.94,51.22c11.93-1.34,23.77-2.48,33.68-2.77"/>			</g><g><path d="M14.12,64.69c3.51,0.88,7.19,0.76,10.75,0.31C44.62,62.5,67.5,60.5,84,60.02c3.47-0.1,7.12-0.22,10.5,0.88"/><path d="M43.96,56.18c0.17,0.69-0.02,1.73-0.45,2.48C37.5,69.25,27.62,78.38,13.5,84.75"/><path d="M60.25,56.35C63,57,76.19,69.14,84.87,75.79c2.31,1.77,4.74,3.38,7.38,4.62"/>			</g>		</g>	</g><g><path d="M36.78,77.78c1.76,0.75,4.24,0.58,6.08,0.28c6.46-1.06,17.72-3.21,22.75-4.02c3.33-0.54,5.16,0.11,4.57,3.88c-0.67,4.24-2.9,10.49-5.9,15.31c-2.81,4.52-4.78,3.9-7.54,1.56"/><path d="M53.68,67.93c0.07,0.7,0.22,1.84-0.13,2.83c-2.42,6.87-9.05,18.49-23.47,27.36"/>	</g></g></g><g style="font-size:8;fill:#808080"><text transform="matrix(1 0 0 1 14.50 21.50)">1</text><text transform="matrix(1 0 0 1 27.75 13.63)">2</text><text transform="matrix(1 0 0 1 59.25 11.50)">3</text><text transform="matrix(1 0 0 1 24.50 41.50)">4</text><text transform="matrix(1 0 0 1 33.50 32.50)">5</text><text transform="matrix(1 0 0 1 39.75 40.50)">6</text><text transform="matrix(1 0 0 1 39.75 49.50)">7</text><text transform="matrix(1 0 0 1 6.50 65.50)">8</text><text transform="matrix(1 0 0 1 35.50 60.13)">9</text><text transform="matrix(1 0 0 1 51.50 58.50)">10</text><text transform="matrix(1 0 0 1 37.50 75.13)">11</text><text transform="matrix(1 0 0 1 43.50 70.63)">12</text></g></svg>