<svg xmlns="http://www.w3.org/2000/svg" width="109" height="109" viewBox="0 0 109 109"><g><path class="bg" xmlns="http://www.w3.org/2000/svg" fill="none" stroke="#6c757d" d="M54.5,0L54.5,109" stroke-width="0.5" stroke-dasharray="4,1.5"/><path class="bg" xmlns="http://www.w3.org/2000/svg" fill="none" stroke="#6c757d" d="M0,54.5L109,54.5" stroke-width="0.5" stroke-dasharray="4,1.5"/></g><g style="fill:none;stroke:#000000;stroke-width:3;stroke-linecap:round;stroke-linejoin:round;"><g><g><g><path d="M39,11c0.06,0.81,0.08,1.91-0.38,3.01C35.65,21.22,27.59,34.27,16.5,44.8"/>		</g><path d="M35.66,26.05c1.34,0.45,2.58,0.63,4.38,0.46c5.34-0.5,32.77-3.67,37.14-4.07c2.07-0.19,4.44,1.25,4.32,3.81c-0.25,5.25-4,28.5-9.62,40.17c-2.11,4.38-4.42,1.71-7.01-1.14"/>	</g><g><path d="M27.54,43.7c1.71,0.8,3.36,1.05,6.02,0.7c4.66-0.61,15.11-1.87,18.94-2.29c3.48-0.38,5.08,0.98,4.17,4.53c-0.55,2.15-1.97,8.06-3.26,14.66"/><path d="M26.88,62.62c1.5,0.75,2.86,1.08,5,1.06c5.68-0.05,12.81-0.76,18.75-1.37c1.79-0.18,3.47-0.18,4.93-0.26"/><path d="M28.74,63.53c0.8,0.8,1.14,1.47,1.14,2.82c0,6.29-0.26,11.56-0.26,16.88c0,11.51,1.39,12.7,30.67,12.7c27.22,0,29.22-3.19,29.22-14.17"/>	</g></g></g><g style="font-size:8;fill:#808080"><text transform="matrix(1 0 0 1 32.25 11.50)">1</text><text transform="matrix(1 0 0 1 43.50 22.63)">2</text><text transform="matrix(1 0 0 1 31.50 41.50)">3</text><text transform="matrix(1 0 0 1 33.75 60.13)">4</text><text transform="matrix(1 0 0 1 21.50 69.50)">5</text></g></svg>