<svg xmlns="http://www.w3.org/2000/svg" width="109" height="109" viewBox="0 0 109 109"><g><path class="bg" xmlns="http://www.w3.org/2000/svg" fill="none" stroke="#6c757d" d="M54.5,0L54.5,109" stroke-width="0.5" stroke-dasharray="4,1.5"/><path class="bg" xmlns="http://www.w3.org/2000/svg" fill="none" stroke="#6c757d" d="M0,54.5L109,54.5" stroke-width="0.5" stroke-dasharray="4,1.5"/></g><g style="fill:none;stroke:#000000;stroke-width:3;stroke-linecap:round;stroke-linejoin:round;"><g><g><path d="M17.38,23.09c3.05,0.97,6.26,0.86,9.38,0.52c15.15-1.67,35.99-4.36,52.87-4.98c3.6-0.13,6.71-0.04,10.25,0.64"/>	</g><g><g><g><path d="M45.27,29.25c1.05,1.05,1.42,2.46,1.42,3.98c0,13.02-3.31,32.27-15.19,41.02"/>			</g><g><path d="M64.99,27.37c1.2,1.2,1.38,2.59,1.38,4.43c0,8.45-0.1,17.83-0.1,27.95c0,8.12,0.98,9.53,10.58,9.53c8.9,0,10.9-1.03,12.15-2.37"/>			</g>		</g>	</g><g><path d="M21.75,24.9c0.5,0.85,1,2.22,1,4.1c0,12.97-1.5,52.62-1.5,57.48c0,2.38,0.94,3.79,3.37,3.51C38.05,88.42,70.5,85.75,86,85.95c3.25,0.04,6,0.22,8,0.67"/>	</g></g></g><g style="font-size:8;fill:#808080"><text transform="matrix(1 0 0 1 21.75 20.50)">1</text><text transform="matrix(1 0 0 1 36.50 33.50)">2</text><text transform="matrix(1 0 0 1 56.50 30.50)">3</text><text transform="matrix(1 0 0 1 15.50 33.13)">4</text></g></svg>