<svg xmlns="http://www.w3.org/2000/svg" width="109" height="109" viewBox="0 0 109 109"><g><path class="bg" xmlns="http://www.w3.org/2000/svg" fill="none" stroke="#6c757d" d="M54.5,0L54.5,109" stroke-width="0.5" stroke-dasharray="4,1.5"/><path class="bg" xmlns="http://www.w3.org/2000/svg" fill="none" stroke="#6c757d" d="M0,54.5L109,54.5" stroke-width="0.5" stroke-dasharray="4,1.5"/></g><g style="fill:none;stroke:#000000;stroke-width:3;stroke-linecap:round;stroke-linejoin:round;"><g><path d="M11.88,50.98c3.18,0.89,6.62,0.61,9.87,0.35c19.92-1.58,45.23-4.76,63.38-5.82c3.85-0.23,7.23-0.07,11,0.56"/><path d="M52.22,11.63c1.4,1.4,2.2,3.96,2.2,6.26c0,1.13-0.03,51.22-0.19,73.41c-0.03,3.96-0.06,6.83-0.08,8.08"/></g></g><g style="font-size:8;fill:#808080"><text transform="matrix(1 0 0 1 5.50 52.50)">1</text><text transform="matrix(1 0 0 1 42.75 12.50)">2</text></g></svg>