<svg xmlns="http://www.w3.org/2000/svg" width="109" height="109" viewBox="0 0 109 109"><g><path class="bg" xmlns="http://www.w3.org/2000/svg" fill="none" stroke="#6c757d" d="M54.5,0L54.5,109" stroke-width="0.5" stroke-dasharray="4,1.5"/><path class="bg" xmlns="http://www.w3.org/2000/svg" fill="none" stroke="#6c757d" d="M0,54.5L109,54.5" stroke-width="0.5" stroke-dasharray="4,1.5"/></g><g style="fill:none;stroke:#000000;stroke-width:3;stroke-linecap:round;stroke-linejoin:round;"><g><g><path d="M14.54,31.55c1.18,0.39,3.06,0.63,5.45,0.14c3.01-0.62,12.57-3.5,17.06-4.8c2.72-0.79,5.3,0.19,4.5,3.52C36.6,51.15,28.75,71,9.17,84.5"/><path d="M19.12,46c8.38,5.38,18.28,14.69,24.12,26.25"/>	</g><g><path d="M52.29,28.05c1.18,0.39,3.8,0.58,6.2,0.14c4.39-0.82,16.12-4.39,17.75-4.97c2.76-0.98,5.16,0.87,4.22,4.02c-7.21,24.12-18.33,45.62-38.21,58"/><path d="M51.02,39.66c5.18,0.95,19.74,22.79,33.04,36.29c3.45,3.5,7.09,6.62,11.28,9.2"/>	</g></g></g><g style="font-size:8;fill:#808080"><text transform="matrix(1 0 0 1 13.50 28.50)">1</text><text transform="matrix(1 0 0 1 17.50 42.50)">2</text><text transform="matrix(1 0 0 1 51.50 25.50)">3</text><text transform="matrix(1 0 0 1 55.50 40.55)">4</text></g></svg>