<svg xmlns="http://www.w3.org/2000/svg" width="109" height="109" viewBox="0 0 109 109"><g><path class="bg" xmlns="http://www.w3.org/2000/svg" fill="none" stroke="#6c757d" d="M54.5,0L54.5,109" stroke-width="0.5" stroke-dasharray="4,1.5"/><path class="bg" xmlns="http://www.w3.org/2000/svg" fill="none" stroke="#6c757d" d="M0,54.5L109,54.5" stroke-width="0.5" stroke-dasharray="4,1.5"/></g><g style="fill:none;stroke:#000000;stroke-width:3;stroke-linecap:round;stroke-linejoin:round;"><g><g><g><path d="M63.22,12.14c-0.1,1.11-0.91,1.89-1.75,2.37c-4.97,2.86-17.09,7.23-30.97,9.73"/><path d="M26.88,29.88c2.45,1.74,6.07,7.14,6.68,9.84"/><path d="M48.02,26.33c2.22,1.61,5.74,6.63,6.29,9.13"/><path d="M76.87,20.5c0.1,1.04-0.04,1.63-0.54,2.57c-1.93,3.61-6.62,8.75-13.27,14.15"/>		</g><g><path d="M19.75,46.38c-0.13,4.29-2.12,12.88-3.73,16.7"/><path d="M21.28,46.49c20.74-3.18,46.58-6.31,65.72-7.51c7.75-0.48,2.75,5.64-1.66,9.9"/>		</g>	</g><g><path d="M34.69,58.71c1.75,0.3,1.96,0.75,5.45,0.3c3.49-0.45,25.88-5.36,28.23-6.05c3.25-0.96,5,1.04,3.02,4.3C59.95,76.11,42.29,90.89,22.65,98.25"/><path d="M32.69,66.91c7.13,0.21,29.06,19.34,46.64,29.15c2.61,1.46,4.67,2.14,7.18,2.57"/>	</g></g></g><g style="font-size:8;fill:#808080"><text transform="matrix(1 0 0 1 63.75 9.13)">1</text><text transform="matrix(1 0 0 1 20.00 34.50)">2</text><text transform="matrix(1 0 0 1 41.50 33.50)">3</text><text transform="matrix(1 0 0 1 80.25 18.13)">4</text><text transform="matrix(1 0 0 1 11.25 52.63)">5</text><text transform="matrix(1 0 0 1 24.75 54.13)">6</text><text transform="matrix(1 0 0 1 38.25 55.97)">7</text><text transform="matrix(1 0 0 1 42.75 69.13)">8</text></g></svg>