<svg xmlns="http://www.w3.org/2000/svg" width="109" height="109" viewBox="0 0 109 109"><g><path class="bg" xmlns="http://www.w3.org/2000/svg" fill="none" stroke="#6c757d" d="M54.5,0L54.5,109" stroke-width="0.5" stroke-dasharray="4,1.5"/><path class="bg" xmlns="http://www.w3.org/2000/svg" fill="none" stroke="#6c757d" d="M0,54.5L109,54.5" stroke-width="0.5" stroke-dasharray="4,1.5"/></g><g style="fill:none;stroke:#000000;stroke-width:3;stroke-linecap:round;stroke-linejoin:round;"><g><path d="M22.25,33.25c1.25,1.25,2,2.88,2.26,4.43c1.16,7.03,3.15,23.61,4.68,37.85C29.46,78.09,29.73,80.6,30,83"/><path d="M25.29,35.67c17.46-2.17,41.59-5.04,55.49-5.93c3.94-0.25,6.33,2.72,5.72,5.14c-2.25,8.87-6.62,26.5-9,38.87"/><path d="M30.25,77.75c10.5-0.5,30.53-2.3,44.99-3.04c2.05-0.11,3.99-0.18,5.76-0.21"/></g></g><g style="font-size:8;fill:#808080"><text transform="matrix(1 0 0 1 15.50 40.50)">1</text><text transform="matrix(1 0 0 1 28.50 30.50)">2</text><text transform="matrix(1 0 0 1 34.50 72.50)">3</text></g></svg>