<svg xmlns="http://www.w3.org/2000/svg" width="109" height="109" viewBox="0 0 109 109"><g><path class="bg" xmlns="http://www.w3.org/2000/svg" fill="none" stroke="#6c757d" d="M54.5,0L54.5,109" stroke-width="0.5" stroke-dasharray="4,1.5"/><path class="bg" xmlns="http://www.w3.org/2000/svg" fill="none" stroke="#6c757d" d="M0,54.5L109,54.5" stroke-width="0.5" stroke-dasharray="4,1.5"/></g><g style="fill:none;stroke:#000000;stroke-width:3;stroke-linecap:round;stroke-linejoin:round;"><g><g><path d="M11.25,43.25c2.75,0.62,5.54,0.83,9.53,0.5c23.85-2,49.47-4.12,67.35-4.75c4.02-0.14,6.87,0,9.12,0.5"/><path d="M52.41,12.5c1.42,1.42,2.13,3.25,2.13,5.06c0,17.05-0.14,39.31-0.14,48.94"/>	</g><g><path d="M31,67.77c1.12,1.12,2,2.73,2.24,4.48c0.61,4.43,1.87,12.12,3.22,20.93c0.2,1.31,0.39,2.59,0.57,3.83"/><path d="M33.77,69.3c11.97-1.17,36.4-3.39,42.99-3.81c3.74-0.24,5.11,1.39,4.26,4.71c-1.18,4.63-3.81,13.6-5.23,20.06"/><path d="M37.88,94.42c7.81-0.36,23.99-1.88,35.14-2.65c1.87-0.13,3.61-0.24,5.18-0.32"/>	</g></g></g><g style="font-size:8;fill:#808080"><text transform="matrix(1 0 0 1 3.75 40.63)">1</text><text transform="matrix(1 0 0 1 47.25 7.63)">2</text><text transform="matrix(1 0 0 1 23.25 75.13)">3</text><text transform="matrix(1 0 0 1 36.75 64.63)">4</text><text transform="matrix(1 0 0 1 42.75 90.13)">5</text></g></svg>