<svg xmlns="http://www.w3.org/2000/svg" width="109" height="109" viewBox="0 0 109 109"><g><path class="bg" xmlns="http://www.w3.org/2000/svg" fill="none" stroke="#6c757d" d="M54.5,0L54.5,109" stroke-width="0.5" stroke-dasharray="4,1.5"/><path class="bg" xmlns="http://www.w3.org/2000/svg" fill="none" stroke="#6c757d" d="M0,54.5L109,54.5" stroke-width="0.5" stroke-dasharray="4,1.5"/></g><g style="fill:none;stroke:#000000;stroke-width:3;stroke-linecap:round;stroke-linejoin:round;"><g><g><path d="M26,32.48c0.89,0.89,1.43,1.85,1.51,2.99c0.86,3.97,1.79,10.89,2.51,17.03c0.22,1.9,0.43,3.73,0.6,5.38"/><path d="M28.54,34.91c13.76-1.62,39.22-4.77,49.08-5.71c3.8-0.36,7.1,0.59,5.65,4.97c-1.4,4.22-2.59,7.17-5.08,15.65"/><path d="M31.43,53.7c8.1-0.6,29.69-2.1,44.69-2.95c1.72-0.1,3.36-0.19,4.88-0.27"/>	</g><g><g><g><path d="M51.91,13.68c1.08,1.08,1.52,3.13,1.56,5.89C54,60.88,56.5,79.62,19.14,95.4"/>			</g>		</g><path d="M32.75,62.75C40.42,62.09,67,81.57,79.58,89.38c3.83,2.38,7.66,4.2,12.17,4.87"/>	</g></g></g><g style="font-size:8;fill:#808080"><text transform="matrix(1 0 0 1 20.50 41.50)">1</text><text transform="matrix(1 0 0 1 32.25 31.50)">2</text><text transform="matrix(1 0 0 1 35.25 50.50)">3</text><text transform="matrix(1 0 0 1 42.50 14.50)">4</text><text transform="matrix(1 0 0 1 25.99 67.50)">5</text></g></svg>