<svg xmlns="http://www.w3.org/2000/svg" width="109" height="109" viewBox="0 0 109 109"><g><path class="bg" xmlns="http://www.w3.org/2000/svg" fill="none" stroke="#6c757d" d="M54.5,0L54.5,109" stroke-width="0.5" stroke-dasharray="4,1.5"/><path class="bg" xmlns="http://www.w3.org/2000/svg" fill="none" stroke="#6c757d" d="M0,54.5L109,54.5" stroke-width="0.5" stroke-dasharray="4,1.5"/></g><g style="fill:none;stroke:#000000;stroke-width:3;stroke-linecap:round;stroke-linejoin:round;"><g><g><path d="M12.25,34.42c0.6,0.6,1.12,1.83,1.23,2.9c0.49,4.73,1.18,9.53,1.85,16.89c0.14,1.51,0.27,3.06,0.39,4.65"/><path d="M14.24,36.17c8.47-1.88,15.06-3.08,20.38-4.04c2.77-0.5,4.12,0.86,3.67,3.25c-0.85,4.49-2.56,11.38-3.94,16.85"/><path d="M16.67,55.61c4.51-0.45,9.68-1.51,15.83-2.34c1.35-0.18,2.71-0.35,4.07-0.51"/>	</g><g><g><path d="M52.32,30.71c0.68,1.29,0.7,2.97,0.42,4.76c-1.99,12.78-10.99,38.78-31.61,50.95"/>		</g><g><path d="M41.65,26.58c1.98,0.55,4.28,0.72,6.89,0.26c6.09-1.07,21.11-5.81,25.2-7.08s5.27,1.31,3.62,4.29C61.5,52.75,60.38,47.62,77,44.65c2.65-0.47,3.97,1.32,3.07,3.55c-7.82,19.3-18.32,32.55-38.07,42.57"/><path d="M49.4,53.36c6.52,5.93,22.43,22.03,32.39,29.72c3.24,2.51,6.83,4.75,10.46,6.65"/>		</g>	</g></g></g><g style="font-size:8;fill:#808080"><text transform="matrix(1 0 0 1 6.50 38.50)">1</text><text transform="matrix(1 0 0 1 15.75 32.50)">2</text><text transform="matrix(1 0 0 1 20.25 52.48)">3</text><text transform="matrix(1 0 0 1 44.25 37.50)">4</text><text transform="matrix(1 0 0 1 41.50 24.50)">5</text><text transform="matrix(1 0 0 1 49.50 66.50)">6</text></g></svg>