<svg xmlns="http://www.w3.org/2000/svg" width="109" height="109" viewBox="0 0 109 109"><g><path class="bg" xmlns="http://www.w3.org/2000/svg" fill="none" stroke="#6c757d" d="M54.5,0L54.5,109" stroke-width="0.5" stroke-dasharray="4,1.5"/><path class="bg" xmlns="http://www.w3.org/2000/svg" fill="none" stroke="#6c757d" d="M0,54.5L109,54.5" stroke-width="0.5" stroke-dasharray="4,1.5"/></g><g style="fill:none;stroke:#000000;stroke-width:3;stroke-linecap:round;stroke-linejoin:round;"><g><g><path d="M17.5,17.32c0.97,0.97,1.65,3.06,1.65,4.41c0,8.9,0.02,58.27,0.02,67.03c0,1.93-0.09,4-0.09,6.25"/><path d="M20.05,19.4c23.33-2.65,46.33-4.9,64.7-5.61C88.6,13.64,90,15.6,90,19.5c0,14.5,0.1,43.5,0.1,67c0,3.2-0.12,6.62-0.12,9.5"/>	</g><g><path d="M28.89,43.81c1.74,0.32,4.4,0.28,6.49,0.06c10.47-1.13,27.39-4.02,38.5-4.81c2.03-0.14,3.99-0.24,6,0.17"/><path d="M62.37,24.33c0.77,0.77,1.56,2.04,1.56,3.54c0,13.09,0.09,44.73,0.09,47.91c0,7.72-4.82,1.14-6.23,0.16"/><path d="M39.07,54.03c3.56,2.97,7.56,8.72,9.25,13.31"/>	</g><g><path d="M20.3,91.01c17.58-0.89,50.27-1.85,68.69-2.26"/>	</g></g></g><g style="font-size:8;fill:#808080"><text transform="matrix(1 0 0 1 12.50 27.13)">1</text><text transform="matrix(1 0 0 1 22.50 16.50)">2</text><text transform="matrix(1 0 0 1 29.25 41.50)">3</text><text transform="matrix(1 0 0 1 53.50 27.50)">4</text><text transform="matrix(1 0 0 1 32.25 56.50)">5</text><text transform="matrix(1 0 0 1 24.75 87.05)">6</text></g></svg>