<svg xmlns="http://www.w3.org/2000/svg" width="109" height="109" viewBox="0 0 109 109"><g><path class="bg" xmlns="http://www.w3.org/2000/svg" fill="none" stroke="#6c757d" d="M54.5,0L54.5,109" stroke-width="0.5" stroke-dasharray="4,1.5"/><path class="bg" xmlns="http://www.w3.org/2000/svg" fill="none" stroke="#6c757d" d="M0,54.5L109,54.5" stroke-width="0.5" stroke-dasharray="4,1.5"/></g><g style="fill:none;stroke:#000000;stroke-width:3;stroke-linecap:round;stroke-linejoin:round;"><g><g><path d="M10,43.14c1.57,0.79,4.27,0.43,5.89,0.06c4.73-1.08,11.4-3.38,16.11-4.2c1.24-0.22,1.62-0.18,2.25,0.01"/><path d="M23.12,21c1,1,1.21,2.48,1.21,3.5c0,7.25,0.03,37.5,0.03,48.25"/><path d="M13.25,79.91c1.12,0.34,2.25,0.22,3.54-0.76C21.85,75.31,30.83,68,35.75,64"/>	</g><g><g><path d="M42.41,18.63c0,3.88-1.14,14.53-1.66,17.12"/><path d="M43.49,19.74c14.01-2.36,33.73-4.88,41.45-5.15c9.55-0.34,4.3,4.91,0.55,8.28"/>		</g><g><path d="M49.69,33.52c1.76,0.31,3.59-0.08,5.31-0.38c4.54-0.78,13.03-2.32,18.51-3.43c1.66-0.34,3.33-0.74,5.02-0.32"/><path d="M62.04,35.16c-0.04,0.97-0.56,1.99-1.07,2.66c-3.78,5-10.96,12.18-23.25,18.59"/><path d="M55.46,46.02c8.79,6.23,19.29,26.6,10.53,47.33c-3.21,7.6-8.4,0.92-9.49,0.05"/><path d="M59.58,52.41c0.07,0.55-0.12,1.55-0.65,2.2C54.12,60.5,46.62,67.12,33.2,74.92"/><path d="M65.24,62.3c0.09,0.68-0.02,1.67-0.69,2.48c-5.3,6.47-15.05,17.09-33.1,25.9"/><path d="M83.85,39.34c0.11,0.97-0.04,1.67-0.56,2.44c-2.96,4.41-8.54,10.34-14.04,14.47"/><path d="M66.29,57.64c3.66,3.55,17.34,17.88,24.04,24.38c1.98,1.93,4.03,3.97,6.6,5.1"/>		</g>	</g></g></g><g style="font-size:8;fill:#808080"><text transform="matrix(1 0 0 1 3.75 43.50)">1</text><text transform="matrix(1 0 0 1 12.50 21.13)">2</text><text transform="matrix(1 0 0 1 4.50 82.50)">3</text><text transform="matrix(1 0 0 1 35.50 22.63)">4</text><text transform="matrix(1 0 0 1 47.25 15.13)">5</text><text transform="matrix(1 0 0 1 47.25 31.50)">6</text><text transform="matrix(1 0 0 1 50.50 42.50)">7</text><text transform="matrix(1 0 0 1 62.25 49.63)">8</text><text transform="matrix(1 0 0 1 50.25 56.50)">9</text><text transform="matrix(1 0 0 1 52.50 68.98)">10</text><text transform="matrix(1 0 0 1 72.50 40.50)">11</text><text transform="matrix(1 0 0 1 74.50 63.50)">12</text></g></svg>