<svg xmlns="http://www.w3.org/2000/svg" width="109" height="109" viewBox="0 0 109 109"><g><path class="bg" xmlns="http://www.w3.org/2000/svg" fill="none" stroke="#6c757d" d="M54.5,0L54.5,109" stroke-width="0.5" stroke-dasharray="4,1.5"/><path class="bg" xmlns="http://www.w3.org/2000/svg" fill="none" stroke="#6c757d" d="M0,54.5L109,54.5" stroke-width="0.5" stroke-dasharray="4,1.5"/></g><g style="fill:none;stroke:#000000;stroke-width:3;stroke-linecap:round;stroke-linejoin:round;"><g><path d="M19.38,48.25c1.49,0.51,5.03,0.89,7.6,0.49C41.12,46.5,63,43,77.19,42.44c2.7-0.11,4.87-0.06,7.31,0.33"/><path d="M49.5,18c0.88,2.12,1.03,4.16,0.99,6.32C50,57,37.75,81.12,18,91.75"/><path d="M49.5,46c9,10.5,28.5,36.25,37.49,43.28c3.06,2.39,5.62,3.75,7.01,3.97"/></g></g><g style="font-size:8;fill:#808080"><text transform="matrix(1 0 0 1 12.75 49.63)">1</text><text transform="matrix(1 0 0 1 40.50 18.50)">2</text><text transform="matrix(1 0 0 1 61.50 55.63)">3</text></g></svg>