<svg xmlns="http://www.w3.org/2000/svg" width="109" height="109" viewBox="0 0 109 109"><g><path class="bg" xmlns="http://www.w3.org/2000/svg" fill="none" stroke="#6c757d" d="M54.5,0L54.5,109" stroke-width="0.5" stroke-dasharray="4,1.5"/><path class="bg" xmlns="http://www.w3.org/2000/svg" fill="none" stroke="#6c757d" d="M0,54.5L109,54.5" stroke-width="0.5" stroke-dasharray="4,1.5"/></g><g style="fill:none;stroke:#000000;stroke-width:3;stroke-linecap:round;stroke-linejoin:round;"><g><g><path d="M19.38,47.86c2.65,0.92,5.89,1.11,8.63,0.7c13.62-2.06,33.87-5.31,48.67-6.23c2.62-0.16,5.62,0.17,8.08,0.92"/><path d="M49,18c1,1,1.49,2.41,1.49,4.57C50.49,56.75,37.75,80.5,18,92"/><path d="M50.75,47.75c8.04,9.38,24.72,30.39,34.53,39.72c2.4,2.28,4.97,4.66,8.22,5.78"/>	</g><g><path d="M44.5,81.5c3.79,2.16,9.8,8.89,10.75,12.25"/>	</g></g></g><g style="font-size:8;fill:#808080"><text transform="matrix(1 0 0 1 12.75 49.50)">1</text><text transform="matrix(1 0 0 1 40.50 18.50)">2</text><text transform="matrix(1 0 0 1 61.50 55.50)">3</text><text transform="matrix(1 0 0 1 44.50 79.50)">4</text></g></svg>