<svg xmlns="http://www.w3.org/2000/svg" width="109" height="109" viewBox="0 0 109 109"><g><path class="bg" xmlns="http://www.w3.org/2000/svg" fill="none" stroke="#6c757d" d="M54.5,0L54.5,109" stroke-width="0.5" stroke-dasharray="4,1.5"/><path class="bg" xmlns="http://www.w3.org/2000/svg" fill="none" stroke="#6c757d" d="M0,54.5L109,54.5" stroke-width="0.5" stroke-dasharray="4,1.5"/></g><g style="fill:none;stroke:#000000;stroke-width:3;stroke-linecap:round;stroke-linejoin:round;"><g><g><path d="M26.62,19.62c0.38,1.13,0.82,2.99,0.63,4.63c-0.97,8.06-2.62,28.25-6.52,40.18c-0.66,2.02,0.38,2.74,0.88,2.87c5.2,1.37,10.33,3.88,14.91,7.68c1.94,1.61,3.78,3.44,5.48,5.52"/><path d="M40.26,38.25c0.07,1.19,0.11,3.09-0.14,4.82C38.12,57.04,31.84,78.1,17.5,88.5"/><path d="M10.75,54.17c0.38,0.88,1.91,1.39,3.65,0.77c7.47-2.69,16.47-5.69,30.6-10.96"/>	</g><g><path d="M48.41,28.98c1.5,0.42,3.69,0.54,6.69-0.08c3-0.62,21.8-3.99,23.91-4.42c2.99-0.61,4.69,1,3.82,4.08C75.62,54.12,61,78.5,43.27,86.75"/><path d="M51.72,43.57c3.86,0.94,19.86,23.01,33.86,35.61c2.89,2.6,6.14,5.87,9.65,7.61"/>	</g></g></g><g style="font-size:8;fill:#808080"><text transform="matrix(1 0 0 1 19.50 20.50)">1</text><text transform="matrix(1 0 0 1 31.50 37.50)">2</text><text transform="matrix(1 0 0 1 2.25 56.50)">3</text><text transform="matrix(1 0 0 1 47.25 26.50)">4</text><text transform="matrix(1 0 0 1 49.50 52.50)">5</text></g></svg>