<svg xmlns="http://www.w3.org/2000/svg" width="109" height="109" viewBox="0 0 109 109"><g><path class="bg" xmlns="http://www.w3.org/2000/svg" fill="none" stroke="#6c757d" d="M54.5,0L54.5,109" stroke-width="0.5" stroke-dasharray="4,1.5"/><path class="bg" xmlns="http://www.w3.org/2000/svg" fill="none" stroke="#6c757d" d="M0,54.5L109,54.5" stroke-width="0.5" stroke-dasharray="4,1.5"/></g><g style="fill:none;stroke:#000000;stroke-width:3;stroke-linecap:round;stroke-linejoin:round;"><g><g><path d="M27.3,18.62c0.37,0.93,0.53,2.44,0.34,3.78c-0.93,6.58-4.39,29.35-7.87,38.58c-0.63,1.67,0.37,2.23,0.84,2.34c6.9,1.56,12.19,4.83,16.09,9.23c1.55,1.75,2.88,3.67,4,5.74"/><path d="M39.75,34.07c0.5,1.05,0.89,2.59,0.59,4.43c-2.41,14.84-8.71,37.88-27.34,51"/><path d="M10,47.47c0.75,1.03,1.79,1.58,3.75,1.14c7.75-1.74,19.75-4.86,30.5-7.23"/>	</g><g><g><path d="M69.96,12.25c0.96,0.96,1.01,2,1.01,3.33c0,10.12-0.01,37.95-0.01,41.4c0,9.77-4.21,2.54-5.71,1.67"/><path d="M57.95,35.92c0.04,0.54,0.14,1.42-0.08,2.16c-1.54,5.38-8.04,15.76-13.33,20.72"/><path d="M84.13,34.11c5.4,2.98,12.64,10.65,13.99,15.29"/>		</g><g><path d="M86.27,48.07c0.11,1.17,0.08,2.79-0.48,4.45c-4.56,13.68-21.55,34.73-39.9,45.23"/>		</g>	</g></g></g><g style="font-size:8;fill:#808080"><text transform="matrix(1 0 0 1 19.50 18.13)">1</text><text transform="matrix(1 0 0 1 34.75 30.13)">2</text><text transform="matrix(1 0 0 1 3.50 54.13)">3</text><text transform="matrix(1 0 0 1 60.50 12.13)">4</text><text transform="matrix(1 0 0 1 53.50 32.50)">5</text><text transform="matrix(1 0 0 1 78.75 32.50)">6</text><text transform="matrix(1 0 0 1 78.75 47.50)">7</text></g></svg>