<svg xmlns="http://www.w3.org/2000/svg" width="109" height="109" viewBox="0 0 109 109"><g><path class="bg" xmlns="http://www.w3.org/2000/svg" fill="none" stroke="#6c757d" d="M54.5,0L54.5,109" stroke-width="0.5" stroke-dasharray="4,1.5"/><path class="bg" xmlns="http://www.w3.org/2000/svg" fill="none" stroke="#6c757d" d="M0,54.5L109,54.5" stroke-width="0.5" stroke-dasharray="4,1.5"/></g><g style="fill:none;stroke:#000000;stroke-width:3;stroke-linecap:round;stroke-linejoin:round;"><g><g><path d="M52.73,9.5c1.01,1.01,1.75,2.25,1.75,3.76c0,3.53-0.09,5.73-0.1,8.95"/><g><path d="M21.88,24c0,3.37-4.06,14.25-5.62,16.5"/><path d="M24.07,26.66c16.68-1.91,42.18-5.28,63-5.78c10.95-0.26,4.68,5.37,0.52,8.4"/>		</g>	</g><g><path d="M34.91,36.19c2.09,1.06,4.35,1.5,6.87,1.26c4.73-0.45,19.99-2.86,26.18-4.24c3.17-0.71,4.92,0.67,2.1,3.7c-2.15,2.31-9.34,9.46-14.25,12.73"/><path d="M52.71,51.03c5.42,5.22,9.29,26.84,3.67,43.18c-2.57,7.47-8.5,2.78-10.58,0.81"/><path d="M14.38,63.51c3.88,1.24,8.65,0.84,12.38,0.47c15.18-1.5,43-4.92,59.75-5.41c3.45-0.1,7.13-0.23,10.37,1.15"/>	</g></g></g><g style="font-size:8;fill:#808080"><text transform="matrix(1 0 0 1 44.50 10.28)">1</text><text transform="matrix(1 0 0 1 13.50 25.78)">2</text><text transform="matrix(1 0 0 1 25.50 21.13)">3</text><text transform="matrix(1 0 0 1 27.50 40.50)">4</text><text transform="matrix(1 0 0 1 45.50 54.13)">5</text><text transform="matrix(1 0 0 1 6.50 64.50)">6</text></g></svg>