<svg xmlns="http://www.w3.org/2000/svg" width="109" height="109" viewBox="0 0 109 109"><g><path class="bg" xmlns="http://www.w3.org/2000/svg" fill="none" stroke="#6c757d" d="M54.5,0L54.5,109" stroke-width="0.5" stroke-dasharray="4,1.5"/><path class="bg" xmlns="http://www.w3.org/2000/svg" fill="none" stroke="#6c757d" d="M0,54.5L109,54.5" stroke-width="0.5" stroke-dasharray="4,1.5"/></g><g style="fill:none;stroke:#000000;stroke-width:3;stroke-linecap:round;stroke-linejoin:round;"><g><g><path d="M51.56,12.5c0.91,0.91,1.79,2.5,1.79,4.32c0,1.81-0.09,4.43-0.09,7.65"/><g><path d="M23.27,25.85c0,4.11-3.91,15.41-5.69,18.15"/><path d="M23.54,28.95c19.96-2.32,41.71-5.2,60.07-5.82c12.38-0.42,2.75,7.06,0.1,8.92"/>		</g>	</g><g><g><path d="M67.52,34.25c0,0.88-0.61,1.95-1.17,2.32c-8.48,5.56-19.6,9.93-33.6,14.23"/>		</g><g><g><path d="M18.75,68.5c3.96,0.85,7.66,0.38,11.57-0.39c13.09-2.6,27.93-5.61,43.8-7.51c3.69-0.44,7.45-0.91,11.13-0.1"/>			</g><path d="M49.5,48.45c0.96,0.96,1.15,2.65,1.15,4.01c0,4.91-0.15,22.78-0.15,29.49C50.5,93.5,52,96,72.25,96c18.75,0,20-2.25,20-12.11"/>		</g>	</g></g></g><g style="font-size:8;fill:#808080"><text transform="matrix(1 0 0 1 42.50 13.50)">1</text><text transform="matrix(1 0 0 1 15.50 28.50)">2</text><text transform="matrix(1 0 0 1 27.75 25.50)">3</text><text transform="matrix(1 0 0 1 57.50 34.63)">4</text><text transform="matrix(1 0 0 1 11.50 70.50)">5</text><text transform="matrix(1 0 0 1 43.00 56.50)">6</text></g></svg>