<svg xmlns="http://www.w3.org/2000/svg" width="109" height="109" viewBox="0 0 109 109"><g><path class="bg" xmlns="http://www.w3.org/2000/svg" fill="none" stroke="#6c757d" d="M54.5,0L54.5,109" stroke-width="0.5" stroke-dasharray="4,1.5"/><path class="bg" xmlns="http://www.w3.org/2000/svg" fill="none" stroke="#6c757d" d="M0,54.5L109,54.5" stroke-width="0.5" stroke-dasharray="4,1.5"/></g><g style="fill:none;stroke:#000000;stroke-width:3;stroke-linecap:round;stroke-linejoin:round;"><g><g><path d="M51.73,10.45c0.91,0.91,1.4,1.93,1.4,3.1c0,2.95,0.18,4.72,0.17,7.41"/><g><path d="M27.02,22.18c0,3.2-3.07,11.99-4.46,14.13"/><path d="M27.98,25.01C43.5,22.75,67.25,20,80.39,19.8c10.89-0.16,1.12,6.36-0.34,7.02"/>		</g>	</g><g><g><path d="M46.38,29.25c0.05,0.66-0.17,2.06-0.63,2.91C42.5,38.25,38.12,46,26.2,56.49"/><path d="M45.14,38.9c1.21,0.22,2.42,0.23,3.62,0.05c3.64-0.47,8.82-1.91,13.56-2.91c2.56-0.54,3.59,1.51,2.68,3.31c-5,9.88-23.59,31.95-46.05,38.47"/><path d="M39.06,44.14C47,51,74.5,67.75,86.44,72.58c2.93,1.18,5.11,2.09,7.87,2.51"/>		</g><g><path d="M35.07,76.27c0.7,0.7,1.17,1.73,1.32,2.6c0.44,2.78,1.17,9.31,1.68,14.14c0.31,2.96,0.55,5.28,0.59,5.72"/><path d="M36.86,77.69c9.51-1.19,26.29-3.23,31.07-3.71c1.75-0.18,2.8,1.55,2.54,2.6c-1.03,4.32-2.49,10.38-4.03,16.36"/><path d="M40.35,96.06c4.74-0.46,16.4-1.21,24.54-1.95c1.49-0.13,2.87-0.27,4.06-0.4"/>		</g>	</g></g></g><g style="font-size:8;fill:#808080"><text transform="matrix(1 0 0 1 43.50 11.50)">1</text><text transform="matrix(1 0 0 1 20.50 24.50)">2</text><text transform="matrix(1 0 0 1 30.50 21.50)">3</text><text transform="matrix(1 0 0 1 37.50 33.50)">4</text><text transform="matrix(1 0 0 1 50.50 34.50)">5</text><text transform="matrix(1 0 0 1 37.19 53.91)">6</text><text transform="matrix(1 0 0 1 29.68 85.39)">7</text><text transform="matrix(1 0 0 1 41.53 73.84)">8</text><text transform="matrix(1 0 0 1 42.80 92.85)">9</text></g></svg>