<svg xmlns="http://www.w3.org/2000/svg" width="109" height="109" viewBox="0 0 109 109"><g><path class="bg" xmlns="http://www.w3.org/2000/svg" fill="none" stroke="#6c757d" d="M54.5,0L54.5,109" stroke-width="0.5" stroke-dasharray="4,1.5"/><path class="bg" xmlns="http://www.w3.org/2000/svg" fill="none" stroke="#6c757d" d="M0,54.5L109,54.5" stroke-width="0.5" stroke-dasharray="4,1.5"/></g><g style="fill:none;stroke:#000000;stroke-width:3;stroke-linecap:round;stroke-linejoin:round;"><g><g><path d="M52.9,11c0.86,0.86,1.42,2.38,1.42,4.02c0,1.48-0.06,2.85-0.06,6.85"/><g><path d="M19.12,22.88c0,3.88-2.66,14.54-3.88,17.12"/><path d="M19.74,26.24c24.51-2.36,46.88-4.74,68.45-5.4c13.05-0.4,3.05,7.16,0.05,9.28"/>		</g>	</g><g><g><g><path d="M29.41,37.5c2.34,0.5,5.92,0.07,8.22-0.19c8.44-0.97,24.11-2.67,33.11-3.12c2.6-0.13,5.29-0.24,7.83,0.39"/>			</g>		</g><g><g><path d="M33.35,49.17c0.65,0.8,1.47,2.36,1.47,3.43c1.05,8.15,2.15,18.35,3.22,26.89c0.2,1.61,0.4,3.13,0.57,4.52"/><path d="M35.06,50.51c7.82-1.01,32.26-3.62,35.6-3.78c2.78-0.13,4.24,1.86,4.01,4.14c-0.53,6.12-2.01,17.26-3.27,25.17c-0.31,1.96-0.61,3.71-0.88,5.15"/><path d="M37.29,65.3c7.96-0.8,26.33-2.8,35-3.29"/><path d="M39.27,80.92c9.48-0.92,20.23-2.17,30.56-2.73"/>			</g><g><g><path d="M17.78,94.69c3.1,0.43,6.36,0.58,9.46,0.3c17.64-1.62,40.39-3.24,57.27-3.27c3.16,0,6.11,0.25,9.22,0.88"/>				</g>			</g>		</g>	</g></g></g><g style="font-size:8;fill:#808080"><text transform="matrix(1 0 0 1 43.50 11.50)">1</text><text transform="matrix(1 0 0 1 11.25 27.13)">2</text><text transform="matrix(1 0 0 1 23.50 22.50)">3</text><text transform="matrix(1 0 0 1 23.50 35.50)">4</text><text transform="matrix(1 0 0 1 26.25 56.98)">5</text><text transform="matrix(1 0 0 1 36.50 47.50)">6</text><text transform="matrix(1 0 0 1 42.75 61.55)">7</text><text transform="matrix(1 0 0 1 42.75 77.50)">8</text><text transform="matrix(1 0 0 1 16.50 91.40)">9</text></g></svg>