<svg xmlns="http://www.w3.org/2000/svg" width="109" height="109" viewBox="0 0 109 109"><g><path class="bg" xmlns="http://www.w3.org/2000/svg" fill="none" stroke="#6c757d" d="M54.5,0L54.5,109" stroke-width="0.5" stroke-dasharray="4,1.5"/><path class="bg" xmlns="http://www.w3.org/2000/svg" fill="none" stroke="#6c757d" d="M0,54.5L109,54.5" stroke-width="0.5" stroke-dasharray="4,1.5"/></g><g style="fill:none;stroke:#000000;stroke-width:3;stroke-linecap:round;stroke-linejoin:round;"><g><g><path d="M52.64,9.5c0.87,0.87,1.73,2,1.73,3.42c0,3.05-0.08,4.25-0.08,7.02"/><g><path d="M26.62,20.88c0,3.12-3.4,12.55-4.5,14.62"/><path d="M27.26,23.8c17.62-2.55,43.62-5.18,54.02-5.55c8.97-0.32,2.35,5.62-0.35,7.76"/>		</g>	</g><g><g><g><path d="M31,38.15c2.12,0.47,4.61,0.36,6.87,0.08c9.35-1.17,22.25-3.29,32.12-4.06c2.22-0.17,4.31-0.22,6.51,0.2"/>			</g>		</g><path d="M42.06,29.38c0.97,0.97,1.81,2.62,1.76,4.25C43.8,34.54,45,50,45.5,58"/><path d="M62.06,26.13c1.09,1.09,1.31,2.99,1.26,4.25C63.1,35.93,62,46,61,56.25"/><g><g><path d="M31.62,49.15c2.38,0.47,4.61,0.35,6.87,0.07c9.68-1.2,20.99-2.98,31.13-3.97c2.28-0.22,4.61-0.32,6.88,0.12"/>			</g><g><path d="M20.12,60.9c3.16,0.72,6.33,0.37,9.5,0c15.12-1.76,35.59-4.41,50.47-5.21c3.34-0.18,6.59-0.27,9.9,0.18"/>			</g>		</g><g><g><path d="M41.96,60.5c0,0.88-0.36,1.71-0.9,2.61C35.12,73,23.39,80.94,16,83.38"/>			</g><g><path d="M61,58.25c9.23,6.91,18.28,14.63,25.53,18.83c2.73,1.59,5.69,3.28,8.85,3.79"/>			</g>		</g><g><g><path d="M50.5,70.25c4.68,1.59,11,5.62,13.25,9"/>			</g><g><path d="M45,88c6.27,1.72,16.62,5.38,21,11.75"/>			</g>		</g>	</g></g></g><g style="font-size:8;fill:#808080"><text transform="matrix(1 0 0 1 44.50 9.50)">1</text><text transform="matrix(1 0 0 1 18.75 25.63)">2</text><text transform="matrix(1 0 0 1 29.50 19.63)">3</text><text transform="matrix(1 0 0 1 27.50 34.50)">4</text><text transform="matrix(1 0 0 1 33.50 31.36)">5</text><text transform="matrix(1 0 0 1 53.50 29.50)">6</text><text transform="matrix(1 0 0 1 24.75 49.63)">7</text><text transform="matrix(1 0 0 1 13.50 61.63)">8</text><text transform="matrix(1 0 0 1 26.25 72.13)">9</text><text transform="matrix(1 0 0 1 75.75 67.38)">10</text><text transform="matrix(1 0 0 1 41.25 75.50)">11</text><text transform="matrix(1 0 0 1 33.50 91.50)">12</text></g></svg>