<svg xmlns="http://www.w3.org/2000/svg" width="109" height="109" viewBox="0 0 109 109"><g><path class="bg" xmlns="http://www.w3.org/2000/svg" fill="none" stroke="#6c757d" d="M54.5,0L54.5,109" stroke-width="0.5" stroke-dasharray="4,1.5"/><path class="bg" xmlns="http://www.w3.org/2000/svg" fill="none" stroke="#6c757d" d="M0,54.5L109,54.5" stroke-width="0.5" stroke-dasharray="4,1.5"/></g><g style="fill:none;stroke:#000000;stroke-width:3;stroke-linecap:round;stroke-linejoin:round;"><g><g><path d="M29.88,28.28c1.66,0.31,3.87,0.6,6.37,0.31c10.23-1.18,24.38-2.59,37.19-3.31c2.76-0.16,4.43,0.15,5.82,0.3"/><path d="M52.55,10.37c1.2,1.13,1.82,2.62,1.82,4.6c0,8.45,0.13,26.9,0.13,27.79"/><path d="M13.38,45.54c2.71,0.64,7.69,0.85,10.39,0.64c20.86-1.56,45.36-3.47,61.38-3.94c4.51-0.13,7.22,0.31,9.48,0.63"/>	</g><g><path d="M21.13,64.99c1.9,0.46,5.39,0.54,7.3,0.46c16.2-0.7,40.2-3.2,55.42-3.64c3.17-0.09,5.07,0.22,6.66,0.44"/><path d="M66.07,49.33c0.99,0.99,1.65,2.79,1.65,4.81c0,12.04-0.15,34.92-0.15,39.02c0,9.83-5.96,1.47-7.96,0.21"/><path d="M36,74.25c3.18,1.9,8.21,7.8,9,10.75"/>	</g></g></g><g style="font-size:8;fill:#808080"><text transform="matrix(1 0 0 1 23.50 29.50)">1</text><text transform="matrix(1 0 0 1 42.50 10.50)">2</text><text transform="matrix(1 0 0 1 5.25 46.63)">3</text><text transform="matrix(1 0 0 1 12.75 66.13)">4</text><text transform="matrix(1 0 0 1 57.75 55.63)">5</text><text transform="matrix(1 0 0 1 27.75 78.13)">6</text></g></svg>