<svg xmlns="http://www.w3.org/2000/svg" width="109" height="109" viewBox="0 0 109 109"><g><path class="bg" xmlns="http://www.w3.org/2000/svg" fill="none" stroke="#6c757d" d="M54.5,0L54.5,109" stroke-width="0.5" stroke-dasharray="4,1.5"/><path class="bg" xmlns="http://www.w3.org/2000/svg" fill="none" stroke="#6c757d" d="M0,54.5L109,54.5" stroke-width="0.5" stroke-dasharray="4,1.5"/></g><g style="fill:none;stroke:#000000;stroke-width:3;stroke-linecap:round;stroke-linejoin:round;"><g><path d="M52.49,15.5c1.38,1.38,2.26,3.5,2.26,5.75c0,0.75-0.22,58.3-0.25,59.25"/><path d="M21.49,54.5c0.88,0.88,1.39,2.25,1.26,3.75c-0.58,6.99-1,16-2.5,23c-0.7,3.26,0.11,4,2,3.75c17-2.25,47.12-5.12,65.5-6"/><path d="M89.24,49c0.94,0.94,1.64,2.38,1.51,4.25c-0.25,3.68-1.83,20.3-2.55,28.77c-0.22,2.64-0.39,4.51-0.45,4.98"/></g></g><g style="font-size:8;fill:#808080"><text transform="matrix(1 0 0 1 45.75 10.63)">1</text><text transform="matrix(1 0 0 1 12.75 52.63)">2</text><text transform="matrix(1 0 0 1 83.25 43.63)">3</text></g></svg>