<svg xmlns="http://www.w3.org/2000/svg" width="109" height="109" viewBox="0 0 109 109"><g><path class="bg" xmlns="http://www.w3.org/2000/svg" fill="none" stroke="#6c757d" d="M54.5,0L54.5,109" stroke-width="0.5" stroke-dasharray="4,1.5"/><path class="bg" xmlns="http://www.w3.org/2000/svg" fill="none" stroke="#6c757d" d="M0,54.5L109,54.5" stroke-width="0.5" stroke-dasharray="4,1.5"/></g><g style="fill:none;stroke:#000000;stroke-width:3;stroke-linecap:round;stroke-linejoin:round;"><g><path d="M27.22,25.68c0.91,1.57,1.18,3.45,1.19,5.37C28.5,43.5,28.5,69,17.39,84.15"/><path d="M53.75,23.63c0.94,0.94,1.41,2.37,1.41,3.9c0,0.58-0.01,28.48-0.08,41.71c-0.02,3.31-0.04,5.74-0.06,6.63"/><path d="M85.56,15.63c1.09,1.09,1.76,2.62,1.76,4.25c0,0.74,0.23,46.86,0.09,66.12c-0.03,4.31-0.06,7.61-0.09,8.63"/></g></g><g style="font-size:8;fill:#808080"><text transform="matrix(1 0 0 1 18.50 25.50)">1</text><text transform="matrix(1 0 0 1 45.75 23.50)">2</text><text transform="matrix(1 0 0 1 75.50 16.50)">3</text></g></svg>