<svg xmlns="http://www.w3.org/2000/svg" width="109" height="109" viewBox="0 0 109 109"><g><path class="bg" xmlns="http://www.w3.org/2000/svg" fill="none" stroke="#6c757d" d="M54.5,0L54.5,109" stroke-width="0.5" stroke-dasharray="4,1.5"/><path class="bg" xmlns="http://www.w3.org/2000/svg" fill="none" stroke="#6c757d" d="M0,54.5L109,54.5" stroke-width="0.5" stroke-dasharray="4,1.5"/></g><g style="fill:none;stroke:#000000;stroke-width:3;stroke-linecap:round;stroke-linejoin:round;"><g><g><path d="M20,42.75c-0.02,5.98-1.27,10.26-5.69,15.13"/>	</g><g><path d="M29.24,20.93c1.11,1.11,1.6,2.82,1.62,4.89C31.38,71.75,26,79,13.56,90.49"/>	</g><g><path d="M41.38,43.62c2.39,2.13,6.17,8.77,6.77,12.09"/>	</g><g><path d="M56,17.88c1.12,1.12,1.66,2.87,1.66,4.15c0,0.6-0.04,40.61-0.1,56.84c-0.01,3.38-0.03,5.74-0.04,6.51"/>	</g><g><path d="M68.75,42c2.96,2.42,7.65,9.95,8.39,13.72"/>	</g><g><g><path d="M87.31,17.13c1.28,1.28,2.01,2.87,2.01,5c0,3.28-0.07,48.91-0.18,66.49c-0.02,3.17-0.04,5.4-0.07,6.26"/>		</g>	</g></g></g><g style="font-size:8;fill:#808080"><text transform="matrix(1 0 0 1 14.25 42.13)">1</text><text transform="matrix(1 0 0 1 21.50 21.50)">2</text><text transform="matrix(1 0 0 1 36.50 40.50)">3</text><text transform="matrix(1 0 0 1 47.50 18.50)">4</text><text transform="matrix(1 0 0 1 64.50 39.50)">5</text><text transform="matrix(1 0 0 1 78.50 18.50)">6</text></g></svg>