<svg xmlns="http://www.w3.org/2000/svg" width="109" height="109" viewBox="0 0 109 109"><g><path class="bg" xmlns="http://www.w3.org/2000/svg" fill="none" stroke="#6c757d" d="M54.5,0L54.5,109" stroke-width="0.5" stroke-dasharray="4,1.5"/><path class="bg" xmlns="http://www.w3.org/2000/svg" fill="none" stroke="#6c757d" d="M0,54.5L109,54.5" stroke-width="0.5" stroke-dasharray="4,1.5"/></g><g style="fill:none;stroke:#000000;stroke-width:3;stroke-linecap:round;stroke-linejoin:round;"><g><g><path d="M13.5,31.39c1.42,0.66,3.84,0.59,5.38,0.45c6.37-0.57,16.64-2.54,22.12-3.22c1.41-0.18,3.1-0.49,4.5-0.1"/><path d="M28.99,33.25c1.07,1.07,1.37,2.62,1.37,4.56c0,13.68-0.12,17.53-0.12,26.32"/><path d="M12.5,70.46c1,0.91,2.46,1.2,4.92,0.17c6.83-2.88,21.38-9.01,28.21-11.88"/>	</g><g><path d="M49.04,20.47c2.58,0.53,5.51,0.29,7.96,0c9.25-1.09,22.82-2.53,32.01-3.16c2.33-0.16,4.63-0.13,6.94,0.33"/><path d="M70.56,21.87c0.5,0.96,0.29,2.43-0.4,3.81c-1.91,3.82-6.91,13.07-9.45,16.89c-1.44,2.17-0.46,4.17,3,3.55C70,45,76.75,43,84.59,41.95c4.05-0.54,5.06,0.28,4.13,5.42C86.75,58.25,80,79.75,73.01,89.51c-4.69,6.56-7.39,0.87-9.04-1.66"/>	</g></g></g><g style="font-size:8;fill:#808080"><text transform="matrix(1 0 0 1 7.50 30.50)">1</text><text transform="matrix(1 0 0 1 22.50 41.50)">2</text><text transform="matrix(1 0 0 1 4.50 74.50)">3</text><text transform="matrix(1 0 0 1 45.50 17.50)">4</text><text transform="matrix(1 0 0 1 61.50 29.50)">5</text></g></svg>