<svg xmlns="http://www.w3.org/2000/svg" width="109" height="109" viewBox="0 0 109 109"><g><path class="bg" xmlns="http://www.w3.org/2000/svg" fill="none" stroke="#6c757d" d="M54.5,0L54.5,109" stroke-width="0.5" stroke-dasharray="4,1.5"/><path class="bg" xmlns="http://www.w3.org/2000/svg" fill="none" stroke="#6c757d" d="M0,54.5L109,54.5" stroke-width="0.5" stroke-dasharray="4,1.5"/></g><g style="fill:none;stroke:#000000;stroke-width:3;stroke-linecap:round;stroke-linejoin:round;"><g><g><path d="M54.81,12.38c1.09,1.09,1.51,2.62,1.51,4.4c0,1.46-0.07,6.71-0.07,9.21"/><g><path d="M23.63,29.23c3.5,0.77,6.89,0.34,10,0.03c15.4-1.54,31.85-2.97,47.39-4.25c2.73-0.23,5.18-0.26,7.87,0.32"/><path d="M26.24,30.25c1.07,1.07,1.26,2.53,1.15,4.5C26.5,50.75,24,76.5,10.56,89.72"/>		</g>	</g><g><g><path d="M35.24,48.8c2.64,0.45,5.44,0.33,7.75,0.06c11.64-1.36,27.14-3.11,40.5-3.58c2.55-0.09,5.02-0.12,7.52,0.47"/>		</g><g><path d="M61.91,49.49c0.86,0.86,1.3,2.13,1.3,3.93c0,12.35-0.09,35.12-0.09,39.32c0,9.53-7.25-0.08-8.51-1.14"/>		</g>	</g></g></g><g style="font-size:8;fill:#808080"><text transform="matrix(1 0 0 1 45.75 13.63)">1</text><text transform="matrix(1 0 0 1 29.25 26.50)">2</text><text transform="matrix(1 0 0 1 19.50 39.50)">3</text><text transform="matrix(1 0 0 1 34.50 46.50)">4</text><text transform="matrix(1 0 0 1 54.50 58.50)">5</text></g></svg>