<svg xmlns="http://www.w3.org/2000/svg" width="109" height="109" viewBox="0 0 109 109"><g><path class="bg" xmlns="http://www.w3.org/2000/svg" fill="none" stroke="#6c757d" d="M54.5,0L54.5,109" stroke-width="0.5" stroke-dasharray="4,1.5"/><path class="bg" xmlns="http://www.w3.org/2000/svg" fill="none" stroke="#6c757d" d="M0,54.5L109,54.5" stroke-width="0.5" stroke-dasharray="4,1.5"/></g><g style="fill:none;stroke:#000000;stroke-width:3;stroke-linecap:round;stroke-linejoin:round;"><g><g><path d="M53.88,10.13c0.94,0.94,1.64,2.5,1.64,3.97c0,0.75-0.07,4.15-0.07,7.75"/><g><path d="M23.46,24.94c1.78,0.51,5.04,0.67,6.82,0.51c16.97-1.46,38.59-4.08,52.65-4.77c2.96-0.14,4.74,0.25,6.22,0.5"/><path d="M25.83,25.58c0.8,0.8,1.18,1.67,1.14,2.95c-0.59,19.6-3.22,41.85-17.81,56.2"/>		</g>	</g><g><path d="M37.62,36.88c1.29,0.35,3.4,0.48,4.68,0.35c11.08-1.11,24.2-2.98,34.83-3.76c2.14-0.16,3.68,0.17,4.75,0.34"/><path d="M36.76,47.61c0.94,0.94,1.86,2.01,2.06,3.17c0.61,3.62,1.49,9.86,2.45,16.57c0.21,1.48,0.43,2.99,0.65,4.5"/><path d="M39.2,49.02c10.87-1.23,27.48-3.35,36.93-4.08c2.9-0.22,4.49,0.35,4.17,3.44c-0.41,3.94-1.96,10.42-3.62,16.66c-0.36,1.34-0.72,2.66-1.07,3.95"/><path d="M41.97,59.01c9.78-1.01,24.9-2.13,35.84-2.93"/><path d="M42.72,69.73c10.53-1.48,20.53-2.23,32.38-3.16"/><path d="M28.25,82.75c3.25,0.87,6.15,0.67,8.87,0.44C54,81.75,72.7,79.77,84.26,79.43c2.68-0.08,5.37-0.05,7.99,0.65"/><path d="M57.01,26.79c1.04,1.04,1.72,2.58,1.72,4.18c0,0.92-0.05,44.38-0.12,62.28c-0.01,3.41-0.03,5.89-0.05,6.98"/>	</g></g></g><g style="font-size:8;fill:#808080"><text transform="matrix(1 0 0 1 45.75 9.13)">1</text><text transform="matrix(1 0 0 1 32.25 21.13)">2</text><text transform="matrix(1 0 0 1 18.75 34.94)">3</text><text transform="matrix(1 0 0 1 32.25 34.63)">4</text><text transform="matrix(1 0 0 1 30.75 57.13)">5</text><text transform="matrix(1 0 0 1 41.25 48.13)">6</text><text transform="matrix(1 0 0 1 45.75 58.63)">7</text><text transform="matrix(1 0 0 1 45.75 67.63)">8</text><text transform="matrix(1 0 0 1 20.25 88.63)">9</text><text transform="matrix(1 0 0 1 45.75 33.13)">10</text></g></svg>