<svg xmlns="http://www.w3.org/2000/svg" width="109" height="109" viewBox="0 0 109 109"><g><path class="bg" xmlns="http://www.w3.org/2000/svg" fill="none" stroke="#6c757d" d="M54.5,0L54.5,109" stroke-width="0.5" stroke-dasharray="4,1.5"/><path class="bg" xmlns="http://www.w3.org/2000/svg" fill="none" stroke="#6c757d" d="M0,54.5L109,54.5" stroke-width="0.5" stroke-dasharray="4,1.5"/></g><g style="fill:none;stroke:#000000;stroke-width:3;stroke-linecap:round;stroke-linejoin:round;"><g><g><path d="M17.5,39.45c2.61,0.54,7.43,0.8,10.02,0.54c13.86-1.37,34.52-4.37,56.22-5.48c4.34-0.22,6.97,0.01,9.14,0.28"/>	</g><g><path d="M22.46,60.85c1.01,0.33,2.66,0.44,3.68,0.34c8.48-0.81,14.4-2.44,21.9-3.04c1.55-0.12,2.98,0.07,4.27,0.34"/><path d="M36.71,62.1c1.03,1.03,1.38,2.15,1.38,3.4c0,4.43-0.1,12.03-0.1,16.5"/><path d="M17.54,88.55c0.96,0.82,3.25,0.88,4.34,0.45C33.16,84.5,39.07,82.5,56,76.25"/>	</g><g><path d="M55.5,10.5c2,1.75,2.91,3.98,3.25,7.75c2.38,26.38,10,61.75,32,75.25c7.43,4.56,6.12,1.88,4.5-9.5"/><g><path d="M78,11.25c3.85,2.05,9.46,6.74,11.25,10.25"/>		</g>	</g></g></g><g style="font-size:8;fill:#808080"><text transform="matrix(1 0 0 1 10.50 40.50)">1</text><text transform="matrix(1 0 0 1 15.50 62.50)">2</text><text transform="matrix(1 0 0 1 30.50 70.50)">3</text><text transform="matrix(1 0 0 1 9.50 90.50)">4</text><text transform="matrix(1 0 0 1 46.50 11.50)">5</text><text transform="matrix(1 0 0 1 70.50 12.50)">6</text></g></svg>