<svg xmlns="http://www.w3.org/2000/svg" width="109" height="109" viewBox="0 0 109 109"><g><path class="bg" xmlns="http://www.w3.org/2000/svg" fill="none" stroke="#6c757d" d="M54.5,0L54.5,109" stroke-width="0.5" stroke-dasharray="4,1.5"/><path class="bg" xmlns="http://www.w3.org/2000/svg" fill="none" stroke="#6c757d" d="M0,54.5L109,54.5" stroke-width="0.5" stroke-dasharray="4,1.5"/></g><g style="fill:none;stroke:#000000;stroke-width:3;stroke-linecap:round;stroke-linejoin:round;"><g><g><path d="M24.86,17.5c0.09,0.76-0.43,1.63-0.83,2.23c-2.39,3.67-8.48,10.1-14.66,13.52"/><g><path d="M25.14,37.5c0,1-0.29,1.92-0.59,2.66c-2.1,5.21-7.64,14.65-15.05,22.09"/><path d="M21.72,49c0.7,0.7,0.9,1.88,0.9,2.91c0,0.41,0.02,24.24-0.03,35.84c-0.01,3.1-0.03,5.33-0.04,6"/>		</g>	</g><g><g><g><g><path d="M44.14,13.47c0.03,0.56-0.1,1.62-0.32,2.25c-2.32,6.66-6.32,13.41-12.7,21.51"/><g><path d="M41.57,26.68c1.18,0.2,2.2,0.08,3.08-0.05c4.23-0.63,7.73-1.25,11.47-2.29c1.08-0.3,3.26-0.46,4.64-0.31"/>					</g>				</g><g><g><g><path d="M33.25,42.68c1.84,0.85,5.15,0.38,7.01,0.01c5.69-1.12,15.11-3.31,21.25-4.83c1.13-0.28,2.6-0.5,3.77-0.17"/><g><g><path d="M49.58,28.16c0.94,0.94,1.13,1.96,1.13,3.3c0,0.96-0.08,31.26-0.08,39.03"/>								</g>							</g>						</g>					</g>				</g>			</g><g><g><g><path d="M51.92,52.84c4.2-0.59,6.7-1.34,10.53-1.85c1.45-0.19,2.56-0.23,3.47,0"/>					</g>				</g><path d="M36.34,54.76c1.01,1.01,1.62,1.73,1.63,3.05c0.03,3.69,0.36,11.57,0.4,17.81"/><path d="M34.46,76.79c0.54,0.71,1.29,1.21,2.6,0.66c6.19-2.58,20.57-9.21,27.53-12.2"/>			</g>		</g><g><path d="M71.22,26.9c1.66,0.73,3.67,0.68,5.12,0.48c1.45-0.2,14.64-3.01,16.45-3.21s4.71-0.41,4.71,3.89c0,6.7-2,25.2-4.86,35.05c-2.56,8.81-6.88,1.02-7.43,0.61"/><path d="M72.47,28.05c0.87,0.87,1.29,1.84,1.3,3.45c0.08,9.95,0.03,38.68,0.01,55.75c0,3.49-0.01,6.42-0.01,8.5"/>		</g>	</g></g></g><g style="font-size:8;fill:#808080"><text transform="matrix(1 0 0 1 17.25 18.13)">1</text><text transform="matrix(1 0 0 1 15.75 42.05)">2</text><text transform="matrix(1 0 0 1 15.75 67.48)">3</text><text transform="matrix(1 0 0 1 36.35 15.23)">4</text><text transform="matrix(1 0 0 1 48.75 22.63)">5</text><text transform="matrix(1 0 0 1 36.50 40.50)">6</text><text transform="matrix(1 0 0 1 43.50 34.50)">7</text><text transform="matrix(1 0 0 1 53.54 49.67)">8</text><text transform="matrix(1 0 0 1 29.50 54.13)">9</text><text transform="matrix(1 0 0 1 30.24 86.11)">10</text><text transform="matrix(1 0 0 1 71.92 24.48)">11</text><text transform="matrix(1 0 0 1 61.93 34.48)">12</text></g></svg>