<svg xmlns="http://www.w3.org/2000/svg" width="109" height="109" viewBox="0 0 109 109"><g><path class="bg" xmlns="http://www.w3.org/2000/svg" fill="none" stroke="#6c757d" d="M54.5,0L54.5,109" stroke-width="0.5" stroke-dasharray="4,1.5"/><path class="bg" xmlns="http://www.w3.org/2000/svg" fill="none" stroke="#6c757d" d="M0,54.5L109,54.5" stroke-width="0.5" stroke-dasharray="4,1.5"/></g><g style="fill:none;stroke:#000000;stroke-width:3;stroke-linecap:round;stroke-linejoin:round;"><g><path d="M16.88,52.75c0,6.32-1.46,17.69-3.75,23"/><path d="M31.25,49.25c9,22.75,27,35.5,53.25,32.25c7.75-0.96,7.25-4.75,3-9.5"/><path d="M50.25,26c2,5.12,7.5,13.75,8.75,7.75"/><path d="M85.5,30c4,2.75,7.62,7,10.5,14"/></g></g><g style="font-size:8;fill:#808080"><text transform="matrix(1 0 0 1 11.25 50.50)">1</text><text transform="matrix(1 0 0 1 27.75 45)">2</text><text transform="matrix(1 0 0 1 43.50 23.50)">3</text><text transform="matrix(1 0 0 1 77.50 29.50)">4</text></g></svg>