<svg xmlns="http://www.w3.org/2000/svg" width="109" height="109" viewBox="0 0 109 109"><g><path class="bg" xmlns="http://www.w3.org/2000/svg" fill="none" stroke="#6c757d" d="M54.5,0L54.5,109" stroke-width="0.5" stroke-dasharray="4,1.5"/><path class="bg" xmlns="http://www.w3.org/2000/svg" fill="none" stroke="#6c757d" d="M0,54.5L109,54.5" stroke-width="0.5" stroke-dasharray="4,1.5"/></g><g style="fill:none;stroke:#000000;stroke-width:3;stroke-linecap:round;stroke-linejoin:round;"><g><g><g><path d="M40.5,24.5c2,6.12,6.65,13.65,7.75,7.36"/>		</g>	</g><g><path d="M69.62,24.88c0.13,1.56-0.22,3.02-0.77,5.26c-3.24,13.24-18.84,45.88-46.29,61.08"/>	</g><g><path d="M31,44.5c9.62,23,21.12,42.5,47,43.44c10.24,0.37,7.75-3.89,3.5-9.35"/><path d="M17.75,51.81c-0.5,8.44-1.63,14.44-3.75,21.69"/><path d="M84.25,44.88c4.49,3.51,9.38,10.38,11.5,17.54"/>	</g></g></g><g style="font-size:8;fill:#808080"><text transform="matrix(1 0 0 1 35.25 24.50)">1</text><text transform="matrix(1 0 0 1 60.50 24.06)">2</text><text transform="matrix(1 0 0 1 24.50 43.50)">3</text><text transform="matrix(1 0 0 1 11.25 49.63)">4</text><text transform="matrix(1 0 0 1 77.50 46.50)">5</text></g></svg>