<svg xmlns="http://www.w3.org/2000/svg" width="109" height="109" viewBox="0 0 109 109"><g><path class="bg" xmlns="http://www.w3.org/2000/svg" fill="none" stroke="#6c757d" d="M54.5,0L54.5,109" stroke-width="0.5" stroke-dasharray="4,1.5"/><path class="bg" xmlns="http://www.w3.org/2000/svg" fill="none" stroke="#6c757d" d="M0,54.5L109,54.5" stroke-width="0.5" stroke-dasharray="4,1.5"/></g><g style="fill:none;stroke:#000000;stroke-width:3;stroke-linecap:round;stroke-linejoin:round;"><g><g><g><path d="M45.74,13c0.12,1.54-0.21,2.93-1,4.18c-3.5,5.43-11.98,13.81-24.12,20.57"/><path d="M44,20.5c1.25,0.38,2.5,0.17,3.9,0.04c5.34-0.49,12.92-1.48,16.85-2.04c3.5-0.5,3.99,1.52,2.5,3.5c-3.75,5-7.25,9-11,13.5"/>		</g><g><path d="M30.75,38.75c2,0.5,4.46,0.85,6.75,0.63c9.25-0.88,31-4.13,36-4.88c3.21-0.48,4.88,0.75,4.25,4.25c-0.75,4.17-1.72,9.85-2.87,15.76c-0.19,0.97-1.1,5.48-1.38,6.74"/><path d="M29,50.99c2.25,0.23,4.01,0.44,6.5,0.21c10.25-0.95,27.38-3.7,38.75-4.7"/><path d="M29.75,63.81c2.14,0.53,4.28,0.62,6.42,0.28c11.22-1.31,25.61-4.13,35.08-5.06"/>		</g>	</g><g><path d="M24.77,77.21c0.4,2.68-4.04,14.53-7.27,19"/><path d="M35.65,73.76c9.85,15.86,19.23,24.36,47,22.84c7.07-0.39,8.23-2.98,0.68-8.08"/><path d="M54.48,72.5c1.64,3.48,6.25,6.91,7.27,2"/><path d="M80.76,68.02c3.56,2.2,7.11,6.35,9.63,11.5"/>	</g></g></g><g style="font-size:8;fill:#808080"><text transform="matrix(1 0 0 1 37.50 15.13)">1</text><text transform="matrix(1 0 0 1 52.50 17.50)">2</text><text transform="matrix(1 0 0 1 36.75 36.13)">3</text><text transform="matrix(1 0 0 1 21.75 51.13)">4</text><text transform="matrix(1 0 0 1 22.50 63.13)">5</text><text transform="matrix(1 0 0 1 18.50 75.13)">6</text><text transform="matrix(1 0 0 1 29.50 75.47)">7</text><text transform="matrix(1 0 0 1 47.50 74.27)">8</text><text transform="matrix(1 0 0 1 71.50 70.63)">9</text></g></svg>