<svg xmlns="http://www.w3.org/2000/svg" width="109" height="109" viewBox="0 0 109 109"><g><path class="bg" xmlns="http://www.w3.org/2000/svg" fill="none" stroke="#6c757d" d="M54.5,0L54.5,109" stroke-width="0.5" stroke-dasharray="4,1.5"/><path class="bg" xmlns="http://www.w3.org/2000/svg" fill="none" stroke="#6c757d" d="M0,54.5L109,54.5" stroke-width="0.5" stroke-dasharray="4,1.5"/></g><g style="fill:none;stroke:#000000;stroke-width:3;stroke-linecap:round;stroke-linejoin:round;"><g><g><path d="M 18.62,38.5 c 2.62,0.62 4.54,0.53 7.82,0.25 C 41.25,37.5 67.62,35 84.75,34 c 3.28,-0.19 5.86,0 8,0.5"/><g><path d="M 60.77,13.58 c 1.39,1.39 2.26,2.99 2.26,6.02 0,15.4 -0.01,66.41 -0.01,71.37 0,8.78 -7.21,0.5 -8.71,-0.75"/>		</g><path d="M 73.043742,46.367587 C 62.856133,57.87424 32.711367,80.494361 23.641472,85.467096"/>	</g></g></g><g style="font-size:8;fill:#808080"><text transform="matrix(1 0 0 1 11.50 38.50)">1</text><text transform="matrix(1 0 0 1 53.73 16.07)">2</text><text transform="matrix(1 0 0 1 75.49 46.06)">3</text></g></svg>