<svg xmlns="http://www.w3.org/2000/svg" width="109" height="109" viewBox="0 0 109 109"><g><path class="bg" xmlns="http://www.w3.org/2000/svg" fill="none" stroke="#6c757d" d="M54.5,0L54.5,109" stroke-width="0.5" stroke-dasharray="4,1.5"/><path class="bg" xmlns="http://www.w3.org/2000/svg" fill="none" stroke="#6c757d" d="M0,54.5L109,54.5" stroke-width="0.5" stroke-dasharray="4,1.5"/></g><g style="fill:none;stroke:#000000;stroke-width:3;stroke-linecap:round;stroke-linejoin:round;"><g><g><path d="M12.25,39.42c1.9,0.23,3.7,0.46,5.64,0.18c4.98-0.72,9.98-1.47,17.35-2.88c1.11-0.21,2.26-0.32,3.42-0.47"/><path d="M27.52,15.75c1.12,1.12,1.51,2.62,1.51,4.77c0,15.23-0.01,56.21-0.01,67.65c0,14.25-6.32,3.53-7.77,2"/><path d="M11,67.93c0.97,0.97,2.71,1.4,4.5,0.07c4.38-3.25,9.62-7.25,21-15.83"/>	</g><g><path d="M46.85,32.95c1.1,1.1,1.4,2.43,1.32,4.56c-0.88,24.37-2.8,42.12-10.62,55.34"/><path d="M48.74,34.16c14.64-3.16,25.93-5.13,36.95-5.51C97,28.25,91,34,86.65,38.57"/><path d="M65.88,13.25c1.06,1.06,1.39,2.12,1.39,3.6c0,0.98-0.02,27.11-0.02,36.9"/><path d="M56,56.39c1.23,0.33,2.48,0.61,4.95,0.13c3.3-0.65,13.89-3.31,17.58-4.16c2.1-0.49,4.35,1.07,3.48,3.7C76,74.25,65.75,88.25,47.21,96.26"/><path d="M54.72,63.92c3.47,0.66,18.65,16.33,31.3,25.73c2.46,1.83,5.11,3.72,7.83,5.03"/>	</g></g></g><g style="font-size:8;fill:#808080"><text transform="matrix(1 0 0 1 5.25 40.63)">1</text><text transform="matrix(1 0 0 1 18.75 18.13)">2</text><text transform="matrix(1 0 0 1 6.75 76.63)">3</text><text transform="matrix(1 0 0 1 39.75 45.13)">4</text><text transform="matrix(1 0 0 1 47.25 30.13)">5</text><text transform="matrix(1 0 0 1 56.25 13.63)">6</text><text transform="matrix(1 0 0 1 56.25 52.63)">7</text><text transform="matrix(1 0 0 1 54.75 73.55)">8</text></g></svg>