<svg xmlns="http://www.w3.org/2000/svg" width="109" height="109" viewBox="0 0 109 109"><g><path class="bg" xmlns="http://www.w3.org/2000/svg" fill="none" stroke="#6c757d" d="M54.5,0L54.5,109" stroke-width="0.5" stroke-dasharray="4,1.5"/><path class="bg" xmlns="http://www.w3.org/2000/svg" fill="none" stroke="#6c757d" d="M0,54.5L109,54.5" stroke-width="0.5" stroke-dasharray="4,1.5"/></g><g style="fill:none;stroke:#000000;stroke-width:3;stroke-linecap:round;stroke-linejoin:round;"><g><g><path d="M12.75,37.92c1.38,0.33,3.01,0.43,5.25,0.25c6.88-0.54,11.62-1.54,19.27-2.74c1.04-0.16,2.35-0.3,3.64-0.17"/><path d="M28.77,14.75c0.87,0.87,1.76,2.88,1.76,4.52c0,15.23,0.24,55.71,0.24,67.15c0,14.25-6.32,3.53-7.77,2"/><path d="M11,63.68c1.25,1.78,3.83,1.61,6.5-0.18c5-3.36,7.5-5.5,18.75-13.58"/>	</g><g><g><g><path d="M73.99,14.64c-0.12,0.86-0.61,1.78-1.34,2.39c-3.19,2.68-11.44,7-21.19,9.66"/><path d="M48.92,31.52c1.59,1.42,4.58,5.85,4.97,8.06"/><path d="M63.12,27.75c1.58,1.37,4.57,6.58,4.97,8.71"/><path d="M86.37,23.14c0,0.98-0.3,2-0.55,2.48C84.12,28.88,81.5,32,75.7,37.5"/>			</g><g><path d="M47,45c-0.12,3.75-2.39,12.27-3.48,14.57"/><path d="M48.22,46.72c15.28-2.72,24.66-3.84,39.6-5.29c7.58-0.73,1.81,5.45-0.97,8.07"/>			</g>		</g><g><path d="M53.5,59.57c1.32,0.26,2.52,0.36,5.11-0.24c3.63-0.83,16.42-3.83,18.23-4.2c2.53-0.51,3.53,0.99,2.47,2.85c-9.38,16.47-20.06,26.76-36.21,35.32"/><path d="M51.77,65.93c5.86,0.19,21.05,16.13,33.65,24.49c2.37,1.57,4.83,3.13,7.43,4.27"/>		</g>	</g></g></g><g style="font-size:8;fill:#808080"><text transform="matrix(1 0 0 1 6.50 39.50)">1</text><text transform="matrix(1 0 0 1 19.50 16.50)">2</text><text transform="matrix(1 0 0 1 4.50 68.50)">3</text><text transform="matrix(1 0 0 1 65.50 13.50)">4</text><text transform="matrix(1 0 0 1 44.25 37.50)">5</text><text transform="matrix(1 0 0 1 57.75 34.50)">6</text><text transform="matrix(1 0 0 1 82.50 19.50)">7</text><text transform="matrix(1 0 0 1 41.50 49.50)">8</text><text transform="matrix(1 0 0 1 48.00 44.50)">9</text><text transform="matrix(1 0 0 1 52.50 56.50)">10</text><text transform="matrix(1 0 0 1 43.50 70.50)">11</text></g></svg>