<svg xmlns="http://www.w3.org/2000/svg" width="109" height="109" viewBox="0 0 109 109"><g><path class="bg" xmlns="http://www.w3.org/2000/svg" fill="none" stroke="#6c757d" d="M54.5,0L54.5,109" stroke-width="0.5" stroke-dasharray="4,1.5"/><path class="bg" xmlns="http://www.w3.org/2000/svg" fill="none" stroke="#6c757d" d="M0,54.5L109,54.5" stroke-width="0.5" stroke-dasharray="4,1.5"/></g><g style="fill:none;stroke:#000000;stroke-width:3;stroke-linecap:round;stroke-linejoin:round;"><g><g><g><path d="M51.55,10.87c0.86,0.86,1.35,2.01,1.35,3.81c0,1.54,0.08,8.27,0.08,11.69"/><path d="M30,15.5c2.49,1.45,6.44,5.96,7.06,8.22"/><path d="M72.51,13.5c0.11,0.72-0.07,1.62-0.53,2.19c-1.39,2.53-3.61,5.36-7.24,8.69"/>		</g><g><g><path d="M19.57,29.88c-0.12,3.7-2.27,12.36-3.32,14.56"/><path d="M20.99,31.68c20.89-2.8,43.01-5.55,63.3-6.62c11.21-0.59,0.9,7.44-0.65,8.7"/>			</g><g><path d="M35.64,36.13c0.68,0.68,1.24,1.25,1.62,2.25c0.71,1.85,1.08,3.69,1.81,6.11c0.32,1.06,0.6,2.09,0.81,3.02"/><path d="M38.35,37.32c4.43-0.45,20.42-2.83,27.44-3.67c3.34-0.4,4.59,0.6,3.85,3.15c-0.45,1.54-0.87,2-2.02,4.77"/><path d="M40.62,45.25c5.29-0.48,17.76-1.72,25.14-2.3c1.78-0.14,3.27-0.26,4.28-0.33"/>			</g>		</g>	</g><g><path d="M61.51,50c-0.13,0.75-0.78,1.51-1.55,1.76c-3,1.89-11.03,5.03-22.2,7.04"/><path d="M31.43,67.87c2.05,0.62,4.53,0.11,6.6-0.12c8.25-0.89,19.47-2.88,30.61-3.86c2.62-0.23,5.23-0.51,7.84-0.04"/><path d="M24.63,79.23c2.24,0.68,5.47,0.44,7.75,0.24c10.24-0.91,33.45-3.15,46.75-3.65c2.58-0.1,4.91-0.11,7.44,0.35"/><path d="M52.39,57.74c6.23,7.14,7.36,24.39,2.99,36.72c-2.22,6.28-6.89,1.29-7.77,0.18"/>	</g></g></g><g style="font-size:8;fill:#808080"><text transform="matrix(1 0 0 1 44.25 11.50)">1</text><text transform="matrix(1 0 0 1 22.50 15.50)">2</text><text transform="matrix(1 0 0 1 63.50 13.50)">3</text><text transform="matrix(1 0 0 1 12.50 32.50)">4</text><text transform="matrix(1 0 0 1 22.50 27.13)">5</text><text transform="matrix(1 0 0 1 29.25 43.55)">6</text><text transform="matrix(1 0 0 1 40.50 35.58)">7</text><text transform="matrix(1 0 0 1 43.50 43.50)">8</text><text transform="matrix(1 0 0 1 52.50 51.50)">9</text><text transform="matrix(1 0 0 1 21.50 69.13)">10</text><text transform="matrix(1 0 0 1 14.50 81.50)">11</text><text transform="matrix(1 0 0 1 44.75 64.13)">12</text></g></svg>