<svg xmlns="http://www.w3.org/2000/svg" width="109" height="109" viewBox="0 0 109 109"><g><path class="bg" xmlns="http://www.w3.org/2000/svg" fill="none" stroke="#6c757d" d="M54.5,0L54.5,109" stroke-width="0.5" stroke-dasharray="4,1.5"/><path class="bg" xmlns="http://www.w3.org/2000/svg" fill="none" stroke="#6c757d" d="M0,54.5L109,54.5" stroke-width="0.5" stroke-dasharray="4,1.5"/></g><g style="fill:none;stroke:#000000;stroke-width:3;stroke-linecap:round;stroke-linejoin:round;"><g><g><path d="M16.75,26.48c0.76,0.76,1.45,1.97,1.45,3.49s-0.23,41.98-0.23,42.74c0,0.76-0.02,2.04-0.02,3.54"/><path d="M18.77,27.42C22,27,35.14,24.48,36.93,24.25c1.49-0.19,2.83,1.13,2.83,3.24c0,2.3-0.35,26.33-0.34,43.12c0,1.73-0.12,2.98-0.12,4.13"/><path d="M19.37,49.55C23.5,49,33.88,47.5,38.49,47.14"/><path d="M18.77,73.15c7.98-1.03,11.73-1.65,19.49-2.53"/>	</g><g><g><path d="M49.21,22.3c1.85,1.06,4.42,0.72,6.4,0.48c10.13-1.22,24.14-3.53,30.59-4.56c3.6-0.58,5.22,0.91,5.05,3.82c-0.38,6.84-2.38,18.62-5.86,26.2c-2.65,5.76-5.65,3.89-8.45,0.11"/><path d="M65.75,24.64c0.5,0.86,0.48,2.1,0.14,3.22c-3.39,11.14-8.51,23.39-19,32.79"/>		</g><g><path d="M50.75,65.64c0.79,0.78,1.24,1.73,1.33,2.83c1.08,4.58,2.3,13.9,3.13,20.65c0.15,1.22,0.29,2.36,0.41,3.37"/><path d="M52.84,67.28c9.66-1.78,26.44-3.77,33.4-4.54c3.27-0.36,4.77,2.51,4.09,4.96c-1.24,4.48-3.31,12.05-4.73,18.35"/><path d="M56.59,88.83c4.58-0.51,17.89-1.36,27.78-1.82c1.26-0.06,2.46-0.11,3.58-0.15"/>		</g>	</g></g></g><g style="font-size:8;fill:#808080"><text transform="matrix(1 0 0 1 10.50 35.50)">1</text><text transform="matrix(1 0 0 1 19.50 23.50)">2</text><text transform="matrix(1 0 0 1 22.50 45.13)">3</text><text transform="matrix(1 0 0 1 22.33 69.13)">4</text><text transform="matrix(1 0 0 1 49.50 19.63)">5</text><text transform="matrix(1 0 0 1 56.25 33.16)">6</text><text transform="matrix(1 0 0 1 45.75 76.63)">7</text><text transform="matrix(1 0 0 1 55.50 63.50)">8</text><text transform="matrix(1 0 0 1 59.50 85.50)">9</text></g></svg>