<svg xmlns="http://www.w3.org/2000/svg" width="109" height="109" viewBox="0 0 109 109"><g><path class="bg" xmlns="http://www.w3.org/2000/svg" fill="none" stroke="#6c757d" d="M54.5,0L54.5,109" stroke-width="0.5" stroke-dasharray="4,1.5"/><path class="bg" xmlns="http://www.w3.org/2000/svg" fill="none" stroke="#6c757d" d="M0,54.5L109,54.5" stroke-width="0.5" stroke-dasharray="4,1.5"/></g><g style="fill:none;stroke:#000000;stroke-width:3;stroke-linecap:round;stroke-linejoin:round;"><g><path d="M34.25,16.25c1,1,1.48,2.38,1.5,4c0.38,33.62,2.38,59.38-11,73.25"/><path d="M36.25,19c4.12-0.62,31.49-4.78,33.25-5c4-0.5,5.5,1.12,5.5,4.75c0,2.76-0.5,49.25-0.5,69.5c0,13-6.25,4-8.75,1.75"/><path d="M37.25,38c10.25-1.5,27.25-3.75,36.25-4.5"/><path d="M37,58.25c8.75-1.12,27-3.5,36.25-4"/></g></g><g style="font-size:8;fill:#808080"><text transform="matrix(1 0 0 1 27.50 23.43)">1</text><text transform="matrix(1 0 0 1 37.50 15.50)">2</text><text transform="matrix(1 0 0 1 40.00 33.50)">3</text><text transform="matrix(1 0 0 1 40.00 54.50)">4</text></g></svg>