<svg xmlns="http://www.w3.org/2000/svg" width="109" height="109" viewBox="0 0 109 109"><g><path class="bg" xmlns="http://www.w3.org/2000/svg" fill="none" stroke="#6c757d" d="M54.5,0L54.5,109" stroke-width="0.5" stroke-dasharray="4,1.5"/><path class="bg" xmlns="http://www.w3.org/2000/svg" fill="none" stroke="#6c757d" d="M0,54.5L109,54.5" stroke-width="0.5" stroke-dasharray="4,1.5"/></g><g style="fill:none;stroke:#000000;stroke-width:3;stroke-linecap:round;stroke-linejoin:round;"><g><g><path d="M12.78,39.23c1.97,0.4,3.24,0.35,4.68,0.23c6.92-0.58,18.93-1.85,28.85-2.73c1.44-0.13,1.8-0.18,2.71,0"/><path d="M34.11,13.5c1.13,1.13,2.29,3,2.29,5.34c0,0.83-0.08,48.97-0.22,67.91c-0.03,3.54-0.05,6.55-0.08,7.5"/><path d="M35.44,39.32c0,0.93-0.26,1.58-0.6,2.35C30.38,51.75,23,63.5,15.11,72.76"/><path d="M40.72,48.97c2.53,1.53,6.78,7.28,8.66,11.26"/>	</g><g><path d="M52.62,41.52c2.29,0.48,4.16,0.6,6.01,0.4c13.35-1.44,23.8-3.3,34.15-3.71c1.83-0.07,4.26-0.22,5.84,0.14"/><path d="M79.89,13.25c1.49,1.49,2.26,3.12,2.26,5.52c0,14.56,0.32,65.91,0.24,70.87c-0.14,8.74-5.18,4.78-9.71,0.25"/><path d="M59.58,56.78c2.74,2.07,7.07,8.52,7.75,11.75"/>	</g></g></g><g style="font-size:8;fill:#808080"><text transform="matrix(1 0 0 1 5.50 37.63)">1</text><text transform="matrix(1 0 0 1 27.00 10.50)">2</text><text transform="matrix(1 0 0 1 23.25 49.63)">3</text><text transform="matrix(1 0 0 1 44.25 48.13)">4</text><text transform="matrix(1 0 0 1 54.50 38.50)">5</text><text transform="matrix(1 0 0 1 71.50 11.50)">6</text><text transform="matrix(1 0 0 1 60.75 54.50)">7</text></g></svg>