<svg xmlns="http://www.w3.org/2000/svg" width="109" height="109" viewBox="0 0 109 109"><g><path class="bg" xmlns="http://www.w3.org/2000/svg" fill="none" stroke="#6c757d" d="M54.5,0L54.5,109" stroke-width="0.5" stroke-dasharray="4,1.5"/><path class="bg" xmlns="http://www.w3.org/2000/svg" fill="none" stroke="#6c757d" d="M0,54.5L109,54.5" stroke-width="0.5" stroke-dasharray="4,1.5"/></g><g style="fill:none;stroke:#000000;stroke-width:3;stroke-linecap:round;stroke-linejoin:round;"><g><g><path d="M12.28,36.22c2.1,0.53,4.3,0.27,5.73,0.11c6.1-0.67,16.88-2.7,23.01-3.87c1.26-0.24,3.11-0.58,4.5-0.34"/><path d="M29.61,13c1.19,1.19,1.54,2.88,1.54,4.92c0,0.8-0.01,48.28-0.02,69.08c0,3.78,0,6.67,0,8.25"/><path d="M30.69,36.53c0,1.47-0.62,3.64-1.16,4.86c-5.17,11.73-9.05,17.54-17.67,28.95"/><path d="M33.97,42.65c3.23,1.59,7.15,5.6,10.78,11.35"/>	</g><g><g><path d="M47.97,24.71c2.53,0.66,5.49,0.36,7.53,0.1c9.71-1.22,24.15-3.05,34.75-4.02c2.74-0.25,5.48-0.55,8.15,0.22"/>		</g><g><path d="M74.81,26.41c0.08,0.9,0.34,2.38-0.17,3.62C71.75,37,60.12,53.12,44.37,64.67"/>		</g><g><path d="M68,39.25c1.19,1.19,1.64,2.75,1.64,4.62c0,2.84,0.05,28.77,0.08,42.63c0.01,4.65,0.01,8,0.01,8.75"/>		</g><path d="M80.14,49.25c6.44,3.92,16.62,16.11,18.24,22.2"/>	</g></g></g><g style="font-size:8;fill:#808080"><text transform="matrix(1 0 0 1 5.25 37.63)">1</text><text transform="matrix(1 0 0 1 21.25 13.63)">2</text><text transform="matrix(1 0 0 1 19.50 47.50)">3</text><text transform="matrix(1 0 0 1 37.50 42.50)">4</text><text transform="matrix(1 0 0 1 45.50 21.50)">5</text><text transform="matrix(1 0 0 1 65.50 33.50)">6</text><text transform="matrix(1 0 0 1 62.25 60.05)">7</text><text transform="matrix(1 0 0 1 79.50 46.50)">8</text></g></svg>