<svg xmlns="http://www.w3.org/2000/svg" width="109" height="109" viewBox="0 0 109 109"><g><path class="bg" xmlns="http://www.w3.org/2000/svg" fill="none" stroke="#6c757d" d="M54.5,0L54.5,109" stroke-width="0.5" stroke-dasharray="4,1.5"/><path class="bg" xmlns="http://www.w3.org/2000/svg" fill="none" stroke="#6c757d" d="M0,54.5L109,54.5" stroke-width="0.5" stroke-dasharray="4,1.5"/></g><g style="fill:none;stroke:#000000;stroke-width:3;stroke-linecap:round;stroke-linejoin:round;"><g><g><path d="M11.03,39.22c2.35,0.66,4.75,0.42,6.37,0.26c5.73-0.56,16.78-2.44,22.89-3.5c0.95-0.16,2.83-0.48,3.73-0.11"/><path d="M28.86,14.5c1.26,1.26,1.79,2.62,1.79,4.42c0,6.22-0.01,49.75-0.02,68.83c0,3.41,0,6.02,0,7.5"/><path d="M29.69,39.53c0,1.72-1.34,4.73-1.97,6.21c-4.78,11.18-8.29,17.22-16.36,28.35"/><path d="M33.38,49.62c2.56,1.68,6.1,7.41,8.26,10.66"/>	</g><g><g><path d="M49.13,21.86c2.62,0.77,5.48,0.69,7.89,0.48c9.43-0.81,19.87-2.15,29.61-3.27c2.44-0.28,5.37-0.56,7.43-0.13"/>		</g><g><g><path d="M82.05,31.29c0.36,1.1,0.29,2.47-0.32,4.39c-4.48,14.2-10.1,28.45-22.12,40.34"/>			</g><path d="M60.04,41.8c9.75,4.84,22.03,21.62,26.91,31.86"/>		</g><g><path d="M50.38,22.77c1.05,1.05,1.25,2.23,1.25,3.98c0,13.6,0,50.33,0,59.25c0,3.44,0.02,4.86,3.74,4.11c15.38-3.11,27.01-3.73,35.5-3.56c2.31,0.05,5.27,0.73,6.69,1.2"/>		</g>	</g></g></g><g style="font-size:8;fill:#808080"><text transform="matrix(1 0 0 1 3.75 39.13)">1</text><text transform="matrix(1 0 0 1 18.75 15.13)">2</text><text transform="matrix(1 0 0 1 17.25 51.13)">3</text><text transform="matrix(1 0 0 1 36.75 49.63)">4</text><text transform="matrix(1 0 0 1 54.75 16.63)">5</text><text transform="matrix(1 0 0 1 86.25 30.13)">6</text><text transform="matrix(1 0 0 1 59.25 39.13)">7</text><text transform="matrix(1 0 0 1 42.75 28.63)">8</text></g></svg>