<svg xmlns="http://www.w3.org/2000/svg" width="109" height="109" viewBox="0 0 109 109"><g><path class="bg" xmlns="http://www.w3.org/2000/svg" fill="none" stroke="#6c757d" d="M54.5,0L54.5,109" stroke-width="0.5" stroke-dasharray="4,1.5"/><path class="bg" xmlns="http://www.w3.org/2000/svg" fill="none" stroke="#6c757d" d="M0,54.5L109,54.5" stroke-width="0.5" stroke-dasharray="4,1.5"/></g><g style="fill:none;stroke:#000000;stroke-width:3;stroke-linecap:round;stroke-linejoin:round;"><g><g><path d="M11.78,38.72c0.35,0.24,2.39,0.41,3.31,0.31c3.94-0.41,16.62-1.71,22.95-2.91c0.92-0.17,2.15-0.24,2.73,0"/><path d="M27.36,13.5c0.91,0.47,2.04,2,2.04,4.42c0,0.95-0.12,72.25-0.3,78.08"/><path d="M28.94,39.28c-5.58,15.47-8.69,22.01-17.33,35.56"/><path d="M31.47,47.15c2.37,1.8,6.28,7.62,8.28,11.1"/>	</g><g><g><g><path d="M48.75,30.11c2.92-0.2,11.08-2.23,12.25-2.23s2.62-0.2,3.5,0"/><path d="M46.25,14.64c0.9,0.58,0.96,0.97,1.26,1.74c0.3,0.77,0.19,29.46,0.22,32c0.02,2.87-0.62,3.82,3.12,1.59c5.4-3.22,7.88-5.16,11.58-7.66"/>			</g><g><path d="M92.57,17.51c0.2,0.36,0.64,1.68,0.17,2.12c-3.57,3.29-8.88,8.05-17.9,12.21"/><path d="M71.85,12.5c1.39,0.47,1.45,1.79,1.62,2.52c0.17,0.73-0.19,21.82-0.19,24.1c0,10.68,5.72,9.2,11.58,9.2c4.55,0,8.41-0.3,10.12-1.95c1.71-1.64,2-3.47,1.83-5.7"/>			</g>		</g><g><g><path d="M66.67,48.25c0.38,0.61,0.44,1.36,0.35,1.89c-0.53,3.14-5.07,8.6-7.76,11.86"/>			</g><g><path d="M52.59,62.47c0.48,0.85,0.97,1.28,0.97,2.41c0,1.13,1.1,25.28,1.3,30.87"/><path d="M53.85,64.48c2.72-0.14,26.53-3.06,29.01-3.23c2.06-0.14,4.44,1.26,4.23,3.79c-0.58,7.21-1.33,18.21-2.51,29.9"/><path d="M55.11,78.07c3.68,0,25.06-1.66,29.22-1.66"/><path d="M55.65,94.19c5.44,0,20.44-1.38,27.48-1.38"/>			</g>		</g>	</g></g></g><g style="font-size:8;fill:#808080"><text transform="matrix(1 0 0 1 5.85 39.50)">1</text><text transform="matrix(1 0 0 1 18.50 13.50)">2</text><text transform="matrix(1 0 0 1 17.71 50.50)">3</text><text transform="matrix(1 0 0 1 33.50 46.85)">4</text><text transform="matrix(1 0 0 1 52.50 26.50)">5</text><text transform="matrix(1 0 0 1 38.75 13.50)">6</text><text transform="matrix(1 0 0 1 85.50 17.50)">7</text><text transform="matrix(1 0 0 1 63.50 12.50)">8</text><text transform="matrix(1 0 0 1 59.50 52.50)">9</text><text transform="matrix(1 0 0 1 42.75 70.50)">10</text><text transform="matrix(1 0 0 1 67.50 60.50)">11</text><text transform="matrix(1 0 0 1 57.50 74.50)">12</text><text transform="matrix(1 0 0 1 58.50 90.50)">13</text></g></svg>