<svg xmlns="http://www.w3.org/2000/svg" width="109" height="109" viewBox="0 0 109 109"><g><path class="bg" xmlns="http://www.w3.org/2000/svg" fill="none" stroke="#6c757d" d="M54.5,0L54.5,109" stroke-width="0.5" stroke-dasharray="4,1.5"/><path class="bg" xmlns="http://www.w3.org/2000/svg" fill="none" stroke="#6c757d" d="M0,54.5L109,54.5" stroke-width="0.5" stroke-dasharray="4,1.5"/></g><g style="fill:none;stroke:#000000;stroke-width:3;stroke-linecap:round;stroke-linejoin:round;"><g><g><g><path d="M11.15,25.74c1.69,0.83,3.82,0.49,5.6,0.31c9.53-0.95,17.62-1.92,25.64-2.82c2.06-0.23,4.48-0.48,6.34-0.36"/>		</g><g><g><path d="M42.2,32.54c0.35,1.07,0.18,2.4-0.33,4.29C38,51.25,31.75,65,20.76,76.17"/>			</g><path d="M21.68,44.54C30.5,50.25,40.5,62.25,45.83,72.7"/>		</g><g><path d="M12.43,26.76c0.91,0.91,1.25,1.99,1.25,3.49c0,13.25,0,51.1,0,53.75c0,2.75,1.07,4,3.55,3.67c7.65-1.02,24.12-3.21,26.07-3.21c2.12,0,3.92-0.29,5.23,0.13"/>		</g>	</g><g><g><path d="M63.07,15.25c0.18,1,0.23,2.17-0.09,3.34C60.75,26.75,55.25,38.5,47,50"/><path d="M57.47,39.49c1.01,0.36,2.91,0.18,4.43-0.14c1.85-0.39,22.12-5.71,25.6-6.54c6.99-1.68,1.49,6.44-4.88,12.94"/>		</g><g><path d="M67.04,45c0.46,1.25,0.63,3.13,0.37,4.9C65.12,65.25,58.5,86.62,43.5,97.25"/><path d="M65.5,63c4.63,5.16,14.5,17.25,22.78,25.72c2.41,2.47,4.85,4.28,6.97,5.78"/>		</g>	</g></g></g><g style="font-size:8;fill:#808080"><text transform="matrix(1 0 0 1 14.50 23.50)">1</text><text transform="matrix(1 0 0 1 34.50 35.50)">2</text><text transform="matrix(1 0 0 1 18.75 40.50)">3</text><text transform="matrix(1 0 0 1 6.50 34.63)">4</text><text transform="matrix(1 0 0 1 54.50 16.50)">5</text><text transform="matrix(1 0 0 1 63.75 35.50)">6</text><text transform="matrix(1 0 0 1 59.50 50.50)">7</text><text transform="matrix(1 0 0 1 71.50 66.50)">8</text></g></svg>