<svg xmlns="http://www.w3.org/2000/svg" width="109" height="109" viewBox="0 0 109 109"><g><path class="bg" xmlns="http://www.w3.org/2000/svg" fill="none" stroke="#6c757d" d="M54.5,0L54.5,109" stroke-width="0.5" stroke-dasharray="4,1.5"/><path class="bg" xmlns="http://www.w3.org/2000/svg" fill="none" stroke="#6c757d" d="M0,54.5L109,54.5" stroke-width="0.5" stroke-dasharray="4,1.5"/></g><g style="fill:none;stroke:#000000;stroke-width:3;stroke-linecap:round;stroke-linejoin:round;"><g><g><g><path d="M20,21.65c3.12,0.85,7.11,0.51,10.1,0.17c11.81-1.33,32.15-3.45,44.16-4.75c2.97-0.32,6.29-0.34,9.25,0.3"/>		</g><g><path d="M32.12,30.14c0.17,0.46,0.28,1.84,0.09,2.76c-1.12,5.43-7.95,17.17-16.71,24.47"/><path d="M33.56,39.91c1.42,0.23,2.67,0.08,4.09-0.16c3.37-0.56,6.77-1.41,9.11-2.26c2.59-0.95,4.33,0.54,3.39,3.44C45.5,55.12,33.75,79.75,13.25,93"/><path d="M26.39,54.21c3.33,1.86,8.59,7.64,9.42,10.53"/>		</g>	</g><g><path d="M88.4,38.11c0.09,1.12-0.15,1.85-1.08,2.92c-3.58,4.14-10.93,9.93-20.81,13.62"/><path d="M61.65,28.75c1.36,1.36,1.68,3.25,1.68,4.93c0,1.32-0.03,44.39-0.03,48.48c0,8.46,0.95,10.86,15.75,10.86c13.57,0,14.68-1.65,14.68-12.52"/>	</g></g></g><g style="font-size:8;fill:#808080"><text transform="matrix(1 0 0 1 13.50 22.63)">1</text><text transform="matrix(1 0 0 1 23.50 34.63)">2</text><text transform="matrix(1 0 0 1 39.75 35.50)">3</text><text transform="matrix(1 0 0 1 29.50 53.50)">4</text><text transform="matrix(1 0 0 1 79.50 38.50)">5</text><text transform="matrix(1 0 0 1 53.50 30.50)">6</text></g></svg>