<svg xmlns="http://www.w3.org/2000/svg" width="109" height="109" viewBox="0 0 109 109"><g><path class="bg" xmlns="http://www.w3.org/2000/svg" fill="none" stroke="#6c757d" d="M54.5,0L54.5,109" stroke-width="0.5" stroke-dasharray="4,1.5"/><path class="bg" xmlns="http://www.w3.org/2000/svg" fill="none" stroke="#6c757d" d="M0,54.5L109,54.5" stroke-width="0.5" stroke-dasharray="4,1.5"/></g><g style="fill:none;stroke:#000000;stroke-width:3;stroke-linecap:round;stroke-linejoin:round;"><g><g><path d="M34.82,19.37c1.14,1.02,1.72,3.42,1.41,6.09c-1.46,12.62-8.22,32.3-13.04,44.1c-1.47,3.6-0.44,5.27,3.63,5.2c11.37-0.18,27.52,2.13,40.68,7.24c4.98,1.93,9.54,4.26,13.25,7.01"/><path d="M37.32,22.07c4.81,0.56,13.81-1.32,39.18-6.07c4-0.75,5.92,0.77,5.5,4.25c-2.25,18.62-7,49-16.06,69.18c-3.36,7.49-9.86,1.68-11.42,0"/>	</g><path d="M49,28.5c3.88,1.98,10.03,8.16,11,11.25"/><path d="M45.25,57.62c3.79,1.96,9.8,8.07,10.75,11.12"/><g><path d="M9.88,51.45c2.21,0.63,6.26,0.87,8.46,0.63C46.77,49,67.12,47,90.65,46.07c3.68-0.15,5.89,0.3,7.72,0.61"/>	</g></g></g><g style="font-size:8;fill:#808080"><text transform="matrix(1 0 0 1 27.50 26.50)">1</text><text transform="matrix(1 0 0 1 39.50 18.50)">2</text><text transform="matrix(1 0 0 1 41.50 32.50)">3</text><text transform="matrix(1 0 0 1 37.50 60.50)">4</text><text transform="matrix(1 0 0 1 2.50 54.13)">5</text></g></svg>