<svg xmlns="http://www.w3.org/2000/svg" width="109" height="109" viewBox="0 0 109 109"><g><path class="bg" xmlns="http://www.w3.org/2000/svg" fill="none" stroke="#6c757d" d="M54.5,0L54.5,109" stroke-width="0.5" stroke-dasharray="4,1.5"/><path class="bg" xmlns="http://www.w3.org/2000/svg" fill="none" stroke="#6c757d" d="M0,54.5L109,54.5" stroke-width="0.5" stroke-dasharray="4,1.5"/></g><g style="fill:none;stroke:#000000;stroke-width:3;stroke-linecap:round;stroke-linejoin:round;"><g><g><path d="M29.25,49.75c5.98-0.66,12-3,17.21-4.11c1.53-0.33,2.5-0.32,3.29-0.13"/><path d="M24.5,23.5c1,1,1.51,2.45,1.51,4.07c0,4.45-0.34,50.16-0.34,57.09c0,5.82-0.75,5.98,4.33,3.33c6.25-3.25,11.07-5.89,15.67-8"/>	</g><g><path d="M86.84,37.94c0.03,1.06-0.53,2.19-1.51,2.98C82.75,43,72.38,49.38,63.67,53.67"/><path d="M59.25,16.25c1.25,1.25,1.58,3,1.58,4.58c0,11.29-0.11,45.92-0.11,54.98c0,16.44,0.78,17.94,17.03,17.94c15.5,0,17-3,17-13.88"/>	</g></g></g><g style="font-size:8;fill:#808080"><text transform="matrix(1 0 0 1 29.75 46.13)">1</text><text transform="matrix(1 0 0 1 15.50 24.50)">2</text><text transform="matrix(1 0 0 1 77.50 35.50)">3</text><text transform="matrix(1 0 0 1 50.50 16.63)">4</text></g></svg>