<svg xmlns="http://www.w3.org/2000/svg" width="109" height="109" viewBox="0 0 109 109"><g><path class="bg" xmlns="http://www.w3.org/2000/svg" fill="none" stroke="#6c757d" d="M54.5,0L54.5,109" stroke-width="0.5" stroke-dasharray="4,1.5"/><path class="bg" xmlns="http://www.w3.org/2000/svg" fill="none" stroke="#6c757d" d="M0,54.5L109,54.5" stroke-width="0.5" stroke-dasharray="4,1.5"/></g><g style="fill:none;stroke:#000000;stroke-width:3;stroke-linecap:round;stroke-linejoin:round;"><g><path d="M61.75,13.25c-0.25,1.5-1.06,2.76-2.04,3.5c-5.33,4-17.21,9.62-36.46,14.25"/><path d="M20.5,47.79c2.75,0.84,5.69,0.44,8.37,0.08c11.84-1.61,26.38-4.99,40.15-6.93c2.46-0.35,5.15-0.81,7.6-0.11"/><path d="M13,69.12c3.09,0.77,6.77,0.77,9.89,0.23c20.11-3.47,34.49-6.6,53.84-9.2c2.76-0.37,7-0.09,8.39,0.11"/><path d="M44.24,28.87c1.13,1.13,1.35,2.55,1.36,4.62C45.67,43.65,45,75.98,45,80.75c0,11,2.5,13.78,24.74,13.78c20.76,0,23.76-1.78,23.76-13.28"/></g></g><g style="font-size:8;fill:#808080"><text transform="matrix(1 0 0 1 53.50 12.50)">1</text><text transform="matrix(1 0 0 1 12.50 49.50)">2</text><text transform="matrix(1 0 0 1 5.50 70.63)">3</text><text transform="matrix(1 0 0 1 37.50 37.50)">4</text></g></svg>