<svg xmlns="http://www.w3.org/2000/svg" width="109" height="109" viewBox="0 0 109 109"><g><path class="bg" xmlns="http://www.w3.org/2000/svg" fill="none" stroke="#6c757d" d="M54.5,0L54.5,109" stroke-width="0.5" stroke-dasharray="4,1.5"/><path class="bg" xmlns="http://www.w3.org/2000/svg" fill="none" stroke="#6c757d" d="M0,54.5L109,54.5" stroke-width="0.5" stroke-dasharray="4,1.5"/></g><g style="fill:none;stroke:#000000;stroke-width:3;stroke-linecap:round;stroke-linejoin:round;"><g><g><path d="M25.13,18.25c3.31,1.47,8.54,6.05,9.37,8.34"/><path d="M16,37.5c3.88,1.54,10.03,6.35,11,8.75"/><path d="M12.87,86.7c1.34,0.49,2.68,0.22,3.48-0.98c3.1-4.64,7.33-10.8,10.15-16.72"/>	</g><g><g><path d="M43.99,38.73c0.76,0.76,1.37,1.66,1.61,3.02c0.74,4.23,1.59,10.05,2.55,16.95c0.19,1.38,0.39,2.8,0.59,4.26"/><path d="M46.06,40.11c12.56-1.73,33.33-3.8,41.82-4.32c3.4-0.21,5.51,0.86,4.33,4.27c-1.84,5.32-2.71,8.07-5.72,15.75"/><path d="M49.55,59.37c9.41-0.78,23.38-1.38,35.21-2.05c1.3-0.07,2.58-0.14,3.83-0.2"/>		</g><g><path d="M66.17,14.75c0.85,0.85,1.32,2.38,1.32,4.07c0,3.25,0.04,53.36,0.03,71.05c0,3.69,0,5.97-0.01,6.12"/>		</g>	</g></g></g><g style="font-size:8;fill:#808080"><text transform="matrix(1 0 0 1 17.25 17.50)">1</text><text transform="matrix(1 0 0 1 8.25 37.50)">2</text><text transform="matrix(1 0 0 1 5.50 90.50)">3</text><text transform="matrix(1 0 0 1 38.50 47.50)">4</text><text transform="matrix(1 0 0 1 47.25 36.13)">5</text><text transform="matrix(1 0 0 1 52.50 56.50)">6</text><text transform="matrix(1 0 0 1 56.25 15.13)">7</text></g></svg>