<svg xmlns="http://www.w3.org/2000/svg" width="109" height="109" viewBox="0 0 109 109"><g><path class="bg" xmlns="http://www.w3.org/2000/svg" fill="none" stroke="#6c757d" d="M54.5,0L54.5,109" stroke-width="0.5" stroke-dasharray="4,1.5"/><path class="bg" xmlns="http://www.w3.org/2000/svg" fill="none" stroke="#6c757d" d="M0,54.5L109,54.5" stroke-width="0.5" stroke-dasharray="4,1.5"/></g><g style="fill:none;stroke:#000000;stroke-width:3;stroke-linecap:round;stroke-linejoin:round;"><g><g><path d="M18.63,17.25c4.72,1.56,12.19,6.41,13.37,8.84"/><path d="M15.25,39.75c4.24,1.63,10.94,6.71,12,9.25"/><path d="M15,91.73c2,0.64,3.28-0.18,4.36-1.75c3.14-4.57,9.04-14.66,11.89-20.49"/>	</g><g><g><g><path d="M51.79,17.13c0.84,0.84,1.05,2.12,1.05,3.56c0,10.77-0.84,22.31-12.83,27.7"/>			</g><path d="M53.11,18c5.64-0.62,14.52-2.25,17.5-2.85c2.7-0.55,4.15,0.85,3.65,3.65c-0.69,3.88-0.78,10-0.78,13.91c0,7.42,1.15,8.8,7.91,8.8c7.37,0,8.91-1.51,8.91-9.21"/>		</g><g><path d="M49.63,54.5c1.67,0.4,3.13,0.74,6.48,0.15s15.72-4.24,18.07-4.58c3.83-0.56,5.05,1.17,3.13,4.6c-10.56,18.96-22.56,32.71-43.56,42.5"/><path d="M48.17,64.37c5.54,0.35,20.96,16.13,35.39,26.75c2.93,2.16,5.57,4.01,9.28,5.25"/>		</g>	</g></g></g><g style="font-size:8;fill:#808080"><text transform="matrix(1 0 0 1 11.50 18.50)">1</text><text transform="matrix(1 0 0 1 8.25 41.50)">2</text><text transform="matrix(1 0 0 1 7.50 96.50)">3</text><text transform="matrix(1 0 0 1 44.25 25.63)">4</text><text transform="matrix(1 0 0 1 54.75 14.50)">5</text><text transform="matrix(1 0 0 1 50.50 52.50)">6</text><text transform="matrix(1 0 0 1 41.50 68.50)">7</text></g></svg>