<svg xmlns="http://www.w3.org/2000/svg" width="109" height="109" viewBox="0 0 109 109"><g><path class="bg" xmlns="http://www.w3.org/2000/svg" fill="none" stroke="#6c757d" d="M54.5,0L54.5,109" stroke-width="0.5" stroke-dasharray="4,1.5"/><path class="bg" xmlns="http://www.w3.org/2000/svg" fill="none" stroke="#6c757d" d="M0,54.5L109,54.5" stroke-width="0.5" stroke-dasharray="4,1.5"/></g><g style="fill:none;stroke:#000000;stroke-width:3;stroke-linecap:round;stroke-linejoin:round;"><g><g><path d="M22,16.88c4.5,1.45,11.62,5.96,12.75,8.22"/><path d="M16.25,37.25c4.5,1.41,11.62,5.8,12.75,8"/><path d="M13.88,86.52c1.67,0.8,2.95,0.19,3.95-1.12c3.37-4.37,6.73-9.7,9.8-15.27"/>	</g><g><g><path d="M54.36,24.5c2.89,6.5,6.64,9.75,7.58,3.97"/><g><path d="M77.65,22.93C78,24,78.3,24.76,77.91,27.19c-2.79,17.31-14.66,55.06-41.7,68.53"/>			</g><g><path d="M51.37,38.97C56.25,69.5,62.62,84.12,83.5,90.25c10.25,3.01,11.25,0.75,4.46-8.63"/><path d="M45.76,57.32c0.33,2.47-3.33,13.36-5.99,17.48"/><path d="M85.56,48.92c3.49,3.06,7.63,9.33,8.94,15.3"/>			</g>		</g>	</g></g></g><g style="font-size:8;fill:#808080"><text transform="matrix(1 0 0 1 14.50 17.50)">1</text><text transform="matrix(1 0 0 1 8.50 38.50)">2</text><text transform="matrix(1 0 0 1 6.50 90.50)">3</text><text transform="matrix(1 0 0 1 51.50 21.13)">4</text><text transform="matrix(1 0 0 1 68.50 22.63)">5</text><text transform="matrix(1 0 0 1 42.50 37.50)">6</text><text transform="matrix(1 0 0 1 40.50 53.50)">7</text><text transform="matrix(1 0 0 1 82.50 45.13)">8</text></g></svg>