<svg xmlns="http://www.w3.org/2000/svg" width="109" height="109" viewBox="0 0 109 109"><g><path class="bg" xmlns="http://www.w3.org/2000/svg" fill="none" stroke="#6c757d" d="M54.5,0L54.5,109" stroke-width="0.5" stroke-dasharray="4,1.5"/><path class="bg" xmlns="http://www.w3.org/2000/svg" fill="none" stroke="#6c757d" d="M0,54.5L109,54.5" stroke-width="0.5" stroke-dasharray="4,1.5"/></g><g style="fill:none;stroke:#000000;stroke-width:3;stroke-linecap:round;stroke-linejoin:round;"><g><g><path d="M17.63,17.75C21.88,20,26.5,23,29,26.09"/><path d="M13.25,41.5c4.24,1.37,10.94,5.62,12,7.75"/><path d="M13.83,92.25c1.35,0.5,2.72,0.23,3.53-1.01c3.14-4.79,6.29-10.64,9.14-16.75"/>	</g><g><g><path d="M65.82,13c0.15,1.12-0.18,2.14-0.95,2.96c-5.12,5.41-10.37,9.66-19.12,14.33"/>		</g><g><path d="M41.75,30.28c0.98,0.98,1.39,2.47,1.39,4.11c0,21.09,1.35,50.11-13.34,62.86"/>		</g><g><path d="M75.34,27.5c0.13,1.15-0.31,1.82-1.13,2.7c-3.72,4.02-6.93,6.37-13.46,10.84"/><path d="M57.02,40.33c0.98,0.92,1.51,2.54,1.51,4.52c0,9.81,0.04,31.42,0.05,44.52c0,2.13,0,4.03,0,5.62"/>		</g><g><path d="M85.59,38.75c0.03,0.75-0.22,1.38-0.83,2.08c-3.92,4.5-6.14,6.42-14.26,11.21"/>		</g><path d="M65.5,47.25C71.84,58.96,78,70.88,86.29,82.22c2.01,2.75,4.95,5.58,7.21,7.28"/>	</g></g></g><g style="font-size:8;fill:#808080"><text transform="matrix(1 0 0 1 9.75 16.63)">1</text><text transform="matrix(1 0 0 1 5.50 42.50)">2</text><text transform="matrix(1 0 0 1 5.25 95.50)">3</text><text transform="matrix(1 0 0 1 57.50 11.50)">4</text><text transform="matrix(1 0 0 1 34.50 38.50)">5</text><text transform="matrix(1 0 0 1 67.50 26.50)">6</text><text transform="matrix(1 0 0 1 51.75 51.13)">7</text><text transform="matrix(1 0 0 1 77.50 39.50)">8</text><text transform="matrix(1 0 0 1 64.50 64.63)">9</text></g></svg>