<svg xmlns="http://www.w3.org/2000/svg" width="109" height="109" viewBox="0 0 109 109"><g><path class="bg" xmlns="http://www.w3.org/2000/svg" fill="none" stroke="#6c757d" d="M54.5,0L54.5,109" stroke-width="0.5" stroke-dasharray="4,1.5"/><path class="bg" xmlns="http://www.w3.org/2000/svg" fill="none" stroke="#6c757d" d="M0,54.5L109,54.5" stroke-width="0.5" stroke-dasharray="4,1.5"/></g><g style="fill:none;stroke:#000000;stroke-width:3;stroke-linecap:round;stroke-linejoin:round;"><g><g><path d="M22.13,18.12c3.66,1.32,9.45,5.42,10.37,7.47"/><path d="M14.62,42.5c3.93,1.23,10.14,5.08,11.12,7"/><path d="M13.5,88.51c1.25,0.74,2.78,0.36,3.74-0.81c3.53-4.27,6.63-9.33,10.51-15.2"/>	</g><g><g><path d="M43.21,22.17c2.58,1.97,6.32,7.54,7.03,9.51"/><path d="M81.27,18.59c0.11,0.91-0.38,1.8-1,2.57c-0.62,0.77-5.77,4.96-9.75,7.23"/><path d="M60.85,13.75c0.59,0.97,0.58,2.16,0.54,3.25c-0.66,19.72-8,28.6-20.34,33.86"/><path d="M60.17,32.25C68.5,37.5,77,43.62,83.12,47.38c2.58,1.58,4.88,2.88,8.88,3.88"/>		</g><g><path d="M43.87,59.84c3.49,2.13,8.58,8.16,9.53,10.28"/><path d="M82.33,55.97c0.05,0.78-0.21,1.47-0.83,2.38c-0.62,0.91-7.07,6.65-10.18,8.76"/><path d="M63.31,52.66c0.47,1.06,0.47,2.45,0.43,3.17C62.25,80.5,50.75,90.25,37.5,95.25"/><path d="M63.26,68.26c8.2,8.5,14.87,15.36,22.08,21.42c2.51,2.11,4.54,3.57,7.67,5.26"/>		</g>	</g></g></g><g style="font-size:8;fill:#808080"><text transform="matrix(1 0 0 1 14.50 19.50)">1</text><text transform="matrix(1 0 0 1 6.75 43.55)">2</text><text transform="matrix(1 0 0 1 5.50 92.50)">3</text><text transform="matrix(1 0 0 1 35.25 19.63)">4</text><text transform="matrix(1 0 0 1 71.50 17.50)">5</text><text transform="matrix(1 0 0 1 51.75 12.13)">6</text><text transform="matrix(1 0 0 1 72.75 37.50)">7</text><text transform="matrix(1 0 0 1 35.25 60.50)">8</text><text transform="matrix(1 0 0 1 73.50 56.50)">9</text><text transform="matrix(1 0 0 1 50.25 55.50)">10</text><text transform="matrix(1 0 0 1 75.75 78.13)">11</text></g></svg>