<svg xmlns="http://www.w3.org/2000/svg" width="109" height="109" viewBox="0 0 109 109"><g><path class="bg" xmlns="http://www.w3.org/2000/svg" fill="none" stroke="#6c757d" d="M54.5,0L54.5,109" stroke-width="0.5" stroke-dasharray="4,1.5"/><path class="bg" xmlns="http://www.w3.org/2000/svg" fill="none" stroke="#6c757d" d="M0,54.5L109,54.5" stroke-width="0.5" stroke-dasharray="4,1.5"/></g><g style="fill:none;stroke:#000000;stroke-width:3;stroke-linecap:round;stroke-linejoin:round;"><g><g><path d="M17.88,15.25c4.55,1.43,11.74,5.87,12.88,8.09"/><path d="M12.38,37.88c4.81,1.39,12.42,5.71,13.62,7.88"/><path d="M13.85,86.42c1.2,0.53,2.43,0.27,3.15-0.97C19.75,80.75,22.5,75,25,69"/>	</g><g><g><g><path d="M62.87,11.25c0.82,0.82,1.24,1.75,1.24,3.37c0,4.16-0.02,4.73-0.09,7.72"/><path d="M38.8,25.47c2.62,0.26,5.33,0.46,7.96,0.21c9.74-0.95,29-3.49,39.51-4.16c2.06-0.13,4.98-0.15,6.8,0.26"/>			</g><g><path d="M75.06,25.75c0.32,1.13,0.09,2.19-0.76,3.39C66.38,40.25,53.88,51.38,37.12,58.5"/><path d="M47.72,33.58c8.03-0.08,25.15,11.13,38.89,16.78c2.58,1.06,4.39,1.64,6.98,2.39"/>			</g>		</g><g><path d="M47.88,59.75c0.69,0.68,1.09,1.88,1.09,3.07c0,20.18-3.22,28.68-9,35.68"/><g><g><path d="M49.97,66.86c8.98-0.82,22.9-2.55,30.78-2.96"/>				</g><g><path d="M49.18,79.2c8.07-0.7,23.3-1.84,31.42-2.15"/>				</g>			</g><path d="M80.73,56.5c0.89,0.89,1.24,2.25,1.24,3.62c0,3.36-0.01,24.62-0.05,34.38c-0.01,2.34-0.02,4.01-0.03,4.59"/>		</g>	</g></g></g><g style="font-size:8;fill:#808080"><text transform="matrix(1 0 0 1 11.50 16.50)">1</text><text transform="matrix(1 0 0 1 5.50 39.50)">2</text><text transform="matrix(1 0 0 1 5.50 89.50)">3</text><text transform="matrix(1 0 0 1 53.50 12.50)">4</text><text transform="matrix(1 0 0 1 38.50 22.55)">5</text><text transform="matrix(1 0 0 1 64.50 32.50)">6</text><text transform="matrix(1 0 0 1 41.25 36.50)">7</text><text transform="matrix(1 0 0 1 41.25 67.55)">8</text><text transform="matrix(1 0 0 1 54.75 63.13)">9</text><text transform="matrix(1 0 0 1 53.25 75.50)">10</text><text transform="matrix(1 0 0 1 70.50 57.50)">11</text></g></svg>