<svg xmlns="http://www.w3.org/2000/svg" width="109" height="109" viewBox="0 0 109 109"><g><path class="bg" xmlns="http://www.w3.org/2000/svg" fill="none" stroke="#6c757d" d="M54.5,0L54.5,109" stroke-width="0.5" stroke-dasharray="4,1.5"/><path class="bg" xmlns="http://www.w3.org/2000/svg" fill="none" stroke="#6c757d" d="M0,54.5L109,54.5" stroke-width="0.5" stroke-dasharray="4,1.5"/></g><g style="fill:none;stroke:#000000;stroke-width:3;stroke-linecap:round;stroke-linejoin:round;"><g><g><path d="M21.88,17c3.57,1.3,8.49,5,10.12,7.59"/><path d="M16.88,39.62c3.93,1.43,10.14,5.9,11.12,8.12"/><path d="M16.86,86.03c1.02,0.34,2.14-0.16,3.32-1.81c3.19-4.47,5.89-10.31,8.57-16.22"/>	</g><g><g><path d="M59.87,16.38c0.19,1.1,0.04,2.02-0.48,2.95c-2.63,4.75-7.62,11.68-16.69,18.43"/><path d="M58.99,22.4c0.56,0,1.81-0.12,3.38-0.31c4.47-0.53,10.59-1.35,12.25-1.67c2.75-0.54,3.63,1.58,2.14,3.48C73.2,28.41,69,33,63.43,40.34"/>		</g><g><g><path d="M45.53,41.57c0.95,0.95,1.49,2.1,1.81,3.81c0.93,4.92,1.47,14.28,2.08,22c0.11,1.38,0.22,2.7,0.34,3.94"/><path d="M48.19,43.46c9.93-1.13,25.06-3.09,34.32-4.07c3.93-0.42,6.11,0.85,5.63,4.11c-0.74,5.01-1.91,12.66-3.66,20.87c-0.26,1.22-0.53,2.46-0.82,3.69"/><path d="M65.55,43.65c0.96,0.96,1.37,2.05,1.41,3.6c0.16,6.84-0.22,15.54-0.22,18.93"/><path d="M49.67,56.13c7.83-0.88,29.45-3.25,35.66-3.63"/><path d="M50.8,69.01c9.7-1.14,21.82-2.42,32.36-3.26"/>			</g><g><path d="M42.2,79.6c0,4.85-6.55,12.01-8.26,13.4"/><path d="M54.12,78.5c1.8,2.56,3.51,9.61,3.96,13.6"/><path d="M68.9,76.67c2.4,2.55,6.19,10.48,6.79,14.45"/><path d="M87.29,77.12c3.16,2.43,8.17,9.98,8.96,13.76"/>			</g>		</g>	</g></g></g><g style="font-size:8;fill:#808080"><text transform="matrix(1 0 0 1 13.99 18.13)">1</text><text transform="matrix(1 0 0 1 9.50 40.56)">2</text><text transform="matrix(1 0 0 1 8.50 89.50)">3</text><text transform="matrix(1 0 0 1 52.50 17.50)">4</text><text transform="matrix(1 0 0 1 63.50 18.50)">5</text><text transform="matrix(1 0 0 1 39.49 50.76)">6</text><text transform="matrix(1 0 0 1 52.99 40.18)">7</text><text transform="matrix(1 0 0 1 59.38 49.48)">8</text><text transform="matrix(1 0 0 1 51.75 53.28)">9</text><text transform="matrix(1 0 0 1 51.25 65.38)">10</text><text transform="matrix(1 0 0 1 33.07 80.50)">11</text><text transform="matrix(1 0 0 1 45.07 81.00)">12</text><text transform="matrix(1 0 0 1 59.62 80.00)">13</text><text transform="matrix(1 0 0 1 77.00 79.62)">14</text></g></svg>