<svg xmlns="http://www.w3.org/2000/svg" width="109" height="109" viewBox="0 0 109 109"><g><path class="bg" xmlns="http://www.w3.org/2000/svg" fill="none" stroke="#6c757d" d="M54.5,0L54.5,109" stroke-width="0.5" stroke-dasharray="4,1.5"/><path class="bg" xmlns="http://www.w3.org/2000/svg" fill="none" stroke="#6c757d" d="M0,54.5L109,54.5" stroke-width="0.5" stroke-dasharray="4,1.5"/></g><g style="fill:none;stroke:#000000;stroke-width:3;stroke-linecap:round;stroke-linejoin:round;"><g><g><path d="M70.76,14.5c0.09,0.38-0.14,1.59-0.69,2.02c-6.8,5.33-16.85,10.73-34.57,15.03"/>	</g><path d="M31.13,30.75c0.62,0.75,1.82,2.06,1.73,4.2C32,55.75,30,82.75,11.56,94.72"/><path d="M51.12,29.75c1.35,0.62,2.43,2.76,2.43,4.03c0,6.47-0.27,50.97-0.27,61.47"/><path d="M64,27.75c0.31,0,1.2,0.64,1.68,1.78C72,44.5,81.5,68.75,92.66,86.22c1.71,2.68,4.16,3.98,5.59,4.78"/></g></g><g style="font-size:8;fill:#808080"><text transform="matrix(1 0 0 1 61.50 13.50)">1</text><text transform="matrix(1 0 0 1 24.50 37.50)">2</text><text transform="matrix(1 0 0 1 45.25 38.50)">3</text><text transform="matrix(1 0 0 1 60.50 37.50)">4</text></g></svg>