<svg xmlns="http://www.w3.org/2000/svg" width="109" height="109" viewBox="0 0 109 109"><g><path class="bg" xmlns="http://www.w3.org/2000/svg" fill="none" stroke="#6c757d" d="M54.5,0L54.5,109" stroke-width="0.5" stroke-dasharray="4,1.5"/><path class="bg" xmlns="http://www.w3.org/2000/svg" fill="none" stroke="#6c757d" d="M0,54.5L109,54.5" stroke-width="0.5" stroke-dasharray="4,1.5"/></g><g style="fill:none;stroke:#000000;stroke-width:3;stroke-linecap:round;stroke-linejoin:round;"><g><g><path d="M38.49,18.25c0.39,1.38,0.07,2.89-0.59,4.16C32,33.91,26.32,39.13,18.75,45.62"/><path d="M69.38,19.5c7.25,4,14.29,9.68,18.88,15.5"/>	</g><g><path d="M67.7,39.68c0.55,1.57,0.31,3.8-0.42,5.92C60.63,64.87,48,80.25,23,90.25"/><path d="M34.25,47c4.83,0,29,25.38,45.99,37.02c3.54,2.43,7.39,4.55,11.51,5.77"/>	</g></g></g><g style="font-size:8;fill:#808080"><text transform="matrix(1 0 0 1 30.50 18.50)">1</text><text transform="matrix(1 0 0 1 61.25 19.50)">2</text><text transform="matrix(1 0 0 1 57.50 41.50)">3</text><text transform="matrix(1 0 0 1 34.50 44.63)">4</text></g></svg>