<svg xmlns="http://www.w3.org/2000/svg" width="109" height="109" viewBox="0 0 109 109"><g><path class="bg" xmlns="http://www.w3.org/2000/svg" fill="none" stroke="#6c757d" d="M54.5,0L54.5,109" stroke-width="0.5" stroke-dasharray="4,1.5"/><path class="bg" xmlns="http://www.w3.org/2000/svg" fill="none" stroke="#6c757d" d="M0,54.5L109,54.5" stroke-width="0.5" stroke-dasharray="4,1.5"/></g><g style="fill:none;stroke:#000000;stroke-width:3;stroke-linecap:round;stroke-linejoin:round;"><g><g><path d="M22.03,26.39c0.22,0.73,0.4,1.84,0.2,2.69c-1.35,5.79-4.6,15.04-9.42,23.38"/><path d="M21.25,41.5c1.25,0.12,2.07,0.06,3.28-0.12c7.6-1.13,12.97-2.13,17.22-2.88c1.23-0.22,3.25-0.38,4.5,0"/><path d="M31.87,15c0.94,0.94,1.46,2.62,1.46,4c0,0.87,0.02,51.18,0.03,70.87c0,3.48,0,6,0,7.13"/><path d="M13.08,71.24c1.17,0.46,2.29,0.46,3.55-0.29c1.12-0.67,20.1-12.21,24.87-15.44"/>	</g><g><g><path d="M52.38,27.53c1.37,0.31,3.9,0.21,5.25,0.06c5.54-0.6,19.12-2.59,26.33-3.06c2.27-0.15,3.65,0.15,4.79,0.3"/><path d="M67.92,11.62c0.86,0.85,1.27,1.98,1.27,3.5c0,9.89-0.11,23.64-0.11,26.85"/><path d="M46.13,45.1c1.77,0.44,5.05,0.44,6.8,0.19c11.58-1.66,28.37-3.54,39.25-4.24c2.95-0.19,4.73-0.04,6.21,0.18"/>		</g><g><path d="M49.38,60.99c1.56,0.46,4.43,0.66,5.97,0.46c13.15-1.7,25.78-3.2,35.58-4.14c2.58-0.25,4.4-0.03,5.7,0.19"/><path d="M80.07,45.33c0.99,0.99,1.65,2.29,1.65,3.81c0,12.6,0.1,39.35,0.1,44.02c0,9.08-5.96,1.47-7.96,0.21"/><path d="M60.75,70.25c2.03,1.46,5.24,5.99,5.75,8.25"/>		</g>	</g></g></g><g style="font-size:8;fill:#808080"><text transform="matrix(1 0 0 1 14.50 26.50)">1</text><text transform="matrix(1 0 0 1 26.25 37.63)">2</text><text transform="matrix(1 0 0 1 22.50 16.50)">3</text><text transform="matrix(1 0 0 1 5.50 73.50)">4</text><text transform="matrix(1 0 0 1 50.50 24.50)">5</text><text transform="matrix(1 0 0 1 57.50 13.50)">6</text><text transform="matrix(1 0 0 1 50.50 42.50)">7</text><text transform="matrix(1 0 0 1 50.50 58.50)">8</text><text transform="matrix(1 0 0 1 73.50 53.50)">9</text><text transform="matrix(1 0 0 1 50.50 72.50)">10</text></g></svg>