<svg xmlns="http://www.w3.org/2000/svg" width="109" height="109" viewBox="0 0 109 109"><g><path class="bg" xmlns="http://www.w3.org/2000/svg" fill="none" stroke="#6c757d" d="M54.5,0L54.5,109" stroke-width="0.5" stroke-dasharray="4,1.5"/><path class="bg" xmlns="http://www.w3.org/2000/svg" fill="none" stroke="#6c757d" d="M0,54.5L109,54.5" stroke-width="0.5" stroke-dasharray="4,1.5"/></g><g style="fill:none;stroke:#000000;stroke-width:3;stroke-linecap:round;stroke-linejoin:round;"><g><g><path d="M29.5,21.22c2.7,0.62,5.55,0.08,8.24-0.28c10.59-1.42,22.63-2.81,33.26-3.79c3.01-0.27,6.3-0.55,9.25,0.35"/><path d="M52.4,22c1.92,2.4,1.92,3.83,1.92,5.75c0,12.13-0.02,57.7-0.02,59.75"/><path d="M29.25,55c2.62,0.49,5.24,0.3,7.87,0.08c10.32-0.87,22.57-2.65,34.75-3.65c2.95-0.24,5.81-0.27,8.76,0.07"/><path d="M13.75,90.99c4.12,0.7,8.14,0.15,12.25-0.29c17.42-1.86,39.2-3.8,59.5-4.61c3.47-0.14,6.86-0.25,10.25,0.65"/>	</g></g></g><g style="font-size:8;fill:#808080"><text transform="matrix(1 0 0 1 20.75 22.13)">1</text><text transform="matrix(1 0 0 1 45.50 31.50)">2</text><text transform="matrix(1 0 0 1 21.00 55.18)">3</text><text transform="matrix(1 0 0 1 4.50 91.18)">4</text></g></svg>