<svg xmlns="http://www.w3.org/2000/svg" width="109" height="109" viewBox="0 0 109 109"><g><path class="bg" xmlns="http://www.w3.org/2000/svg" fill="none" stroke="#6c757d" d="M54.5,0L54.5,109" stroke-width="0.5" stroke-dasharray="4,1.5"/><path class="bg" xmlns="http://www.w3.org/2000/svg" fill="none" stroke="#6c757d" d="M0,54.5L109,54.5" stroke-width="0.5" stroke-dasharray="4,1.5"/></g><g style="fill:none;stroke:#000000;stroke-width:3;stroke-linecap:round;stroke-linejoin:round;"><g><path d="M18.25,27.48c1.2,1.2,2.11,2.68,2.28,3.95C22,42.25,23.52,62.11,24.81,80c0.17,2.4,0.34,3.75,0.49,6"/><path d="M20.85,29.29c8.52-0.54,50.04-3.17,61.58-4.05c4.84-0.37,7.32,2.01,7.04,5.63c-0.69,8.8-2.83,30.69-3.99,46.64c-0.18,2.44-0.34,4.75-0.47,6.86"/><path d="M53.25,29c0.88,0.88,1.19,2.12,1.19,3.5c0,9.52,0.31,46.37,0.31,47.25"/><path d="M24,55.5c5.75-0.5,55.12-3.25,62.5-3.5"/><path d="M25.98,83.07c14.77-0.82,39.39-2.07,58.18-2.83"/></g></g><g style="font-size:8;fill:#808080"><text transform="matrix(1 0 0 1 11.50 34.63)">1</text><text transform="matrix(1 0 0 1 23.50 25.50)">2</text><text transform="matrix(1 0 0 1 46.50 37.50)">3</text><text transform="matrix(1 0 0 1 27.50 52.50)">4</text><text transform="matrix(1 0 0 1 28.50 79.50)">5</text></g></svg>