<svg xmlns="http://www.w3.org/2000/svg" width="109" height="109" viewBox="0 0 109 109"><g><path class="bg" xmlns="http://www.w3.org/2000/svg" fill="none" stroke="#6c757d" d="M54.5,0L54.5,109" stroke-width="0.5" stroke-dasharray="4,1.5"/><path class="bg" xmlns="http://www.w3.org/2000/svg" fill="none" stroke="#6c757d" d="M0,54.5L109,54.5" stroke-width="0.5" stroke-dasharray="4,1.5"/></g><g style="fill:none;stroke:#000000;stroke-width:3;stroke-linecap:round;stroke-linejoin:round;"><g><g><path d="M20.38,21.8c0.78,0.78,1.24,2.2,1.42,3.56c1.16,8.91,2.8,20.86,3.9,32.39c0.21,2.18,0.4,4.28,0.58,6.25"/><path d="M22.08,23.65c19.79-2.15,46.08-4.71,58.42-5.42c4.99-0.29,6.87,1.86,6.42,6.76c-0.62,6.67-3.04,20.82-4.36,28.81c-0.51,3.11-0.93,5.39-1.14,6.15"/><path d="M25.53,41.21c16.97-1.58,47.22-3.71,58.6-3.95"/><path d="M27.15,59.87C43.62,58.5,64,57.5,81.06,56.81"/>	</g><g><path d="M52.86,22.69c0.91,0.91,1.19,2.28,1.19,4.06c-0.02,7.05-0.08,43.99,0.01,61c0.02,4.67,0.04,7.84,0.04,8.47"/>	</g></g></g><g style="font-size:8;fill:#808080"><text transform="matrix(1 0 0 1 14.50 30.50)">1</text><text transform="matrix(1 0 0 1 23.25 20.50)">2</text><text transform="matrix(1 0 0 1 29.25 37.55)">3</text><text transform="matrix(1 0 0 1 29.25 55.50)">4</text><text transform="matrix(1 0 0 1 45.50 30.13)">5</text></g></svg>