<svg xmlns="http://www.w3.org/2000/svg" width="109" height="109" viewBox="0 0 109 109"><g><path class="bg" xmlns="http://www.w3.org/2000/svg" fill="none" stroke="#6c757d" d="M54.5,0L54.5,109" stroke-width="0.5" stroke-dasharray="4,1.5"/><path class="bg" xmlns="http://www.w3.org/2000/svg" fill="none" stroke="#6c757d" d="M0,54.5L109,54.5" stroke-width="0.5" stroke-dasharray="4,1.5"/></g><g style="fill:none;stroke:#000000;stroke-width:3;stroke-linecap:round;stroke-linejoin:round;"><g><g><path d="M26.73,16.38c0.9,0.87,1.17,2.03,1.34,3.11c0.99,6.39,2.32,13.98,3.48,21.86c0.23,1.54,0.45,3.09,0.66,4.65"/><path d="M28.9,17.18C41,16,65.39,13.24,74.75,12.73c3.52-0.2,5.24,1.12,4.76,4.53c-0.65,4.6-2.16,13.96-3.72,20.88c-0.4,1.79-0.81,3.41-1.2,4.75"/><path d="M52.43,16.78c0.7,0.84,0.71,2.12,0.71,3.06c-0.01,6.41-0.01,11.41-0.01,20.66"/><path d="M31.63,30.3c13.87-1.43,31.74-3.3,44.79-3.8"/><path d="M32.86,43.75C44.5,42.43,60.5,41,73.94,40.17"/>	</g><g><g><path d="M15.75,56.4c3,0.97,6.06,0.68,9.25,0.29c17.25-2.07,41.69-4.41,58.13-5.6c2.84-0.21,5.85-0.24,8.62,0.49"/>		</g><path d="M32.01,58.87c0.99,0.88,1.19,2.4,1.19,3.75c0,5.14-0.1,24.04-0.08,29.51c0.01,2.96,1,3.25,3.63,1.67c3.89-2.33,9.74-6.55,16.44-10.64"/><path d="M77.51,58.92c-0.01,1.45-0.5,2.38-1.61,3.49c-2.98,2.95-7.15,6.5-10.15,8.59"/><path d="M44.85,60.57c6.87,0.96,29.66,23.35,37.16,28.78c2.76,2,6.86,4.26,10.3,4.95"/>	</g></g></g><g style="font-size:8;fill:#808080"><text transform="matrix(1 0 0 1 20.25 23.50)">1</text><text transform="matrix(1 0 0 1 30.50 13.50)">2</text><text transform="matrix(1 0 0 1 56.50 23.48)">3</text><text transform="matrix(1 0 0 1 34.50 26.40)">4</text><text transform="matrix(1 0 0 1 36.50 40.50)">5</text><text transform="matrix(1 0 0 1 8.50 56.50)">6</text><text transform="matrix(1 0 0 1 25.50 66.50)">7</text><text transform="matrix(1 0 0 1 68.50 61.50)">8</text><text transform="matrix(1 0 0 1 42.25 69.03)">9</text></g></svg>