<svg xmlns="http://www.w3.org/2000/svg" width="109" height="109" viewBox="0 0 109 109"><g><path class="bg" xmlns="http://www.w3.org/2000/svg" fill="none" stroke="#6c757d" d="M54.5,0L54.5,109" stroke-width="0.5" stroke-dasharray="4,1.5"/><path class="bg" xmlns="http://www.w3.org/2000/svg" fill="none" stroke="#6c757d" d="M0,54.5L109,54.5" stroke-width="0.5" stroke-dasharray="4,1.5"/></g><g style="fill:none;stroke:#000000;stroke-width:3;stroke-linecap:round;stroke-linejoin:round;"><g><g><path d="M55,13c0.38,1.5,0,3.25-0.57,4.29C51.32,22.93,46,31.12,36.81,40.22"/>	</g><g><path d="M25.5,40.47c1.14,1.14,1.63,2.81,1.63,4.63c0,1.55,0.95,32.47,1.32,47.14c0.06,2.58,0.13,4.66,0.18,6"/><path d="M28.27,43.98c13.98-1.73,39.08-4.47,49.67-5.48c5.19-0.5,7.37,0.76,7.06,5.38c-0.62,9.12-2.09,30.3-3.29,46.88c-0.17,2.42-0.33,4.65-0.46,6.57"/><path d="M29.13,67.44C42.25,66,72.38,63.62,82.57,63.4"/><path d="M29.69,94.49C43,93.75,66.62,92,80.19,91.41"/>	</g></g></g><g style="font-size:8;fill:#808080"><text transform="matrix(1 0 0 1 46.50 13.50)">1</text><text transform="matrix(1 0 0 1 17.50 48.13)">2</text><text transform="matrix(1 0 0 1 29.50 40.50)">3</text><text transform="matrix(1 0 0 1 32.50 63.00)">4</text><text transform="matrix(1 0 0 1 32.50 91.50)">5</text></g></svg>