<svg xmlns="http://www.w3.org/2000/svg" width="109" height="109" viewBox="0 0 109 109"><g><path class="bg" xmlns="http://www.w3.org/2000/svg" fill="none" stroke="#6c757d" d="M54.5,0L54.5,109" stroke-width="0.5" stroke-dasharray="4,1.5"/><path class="bg" xmlns="http://www.w3.org/2000/svg" fill="none" stroke="#6c757d" d="M0,54.5L109,54.5" stroke-width="0.5" stroke-dasharray="4,1.5"/></g><g style="fill:none;stroke:#000000;stroke-width:3;stroke-linecap:round;stroke-linejoin:round;"><g><g><g><path d="M52.47,11c0.16,0.75,0.03,1.88-0.52,2.78c-2.43,3.96-6.7,9.6-12.64,15.19"/>		</g><g><path d="M26.25,29.58c1.09,1.09,1.68,2.41,1.88,3.4c0.85,4.19,2.78,14.55,3.83,21.49c0.33,2.21,0.58,4.07,0.67,5.28"/><path d="M28.69,31.62c12.98-1.81,38.21-4.35,46.32-5.18c2.82-0.29,6.14,0.65,5.23,4.4c-0.95,3.9-2.42,12.5-4.2,20.43c-0.34,1.5-0.68,2.97-1.04,4.38"/><path d="M31.13,43.37c11.99-1.49,36.62-3.62,46.19-3.87"/><path d="M33.19,55.86C46.75,55,63.5,53,74.69,52.74"/>		</g>	</g><g><path d="M30.94,65.83c2.44,0.67,6.29,0.32,8.31,0.11c7-0.75,21.22-2.13,30.5-2.75c2.48-0.17,5.64-0.06,7.78,0.55"/><path d="M52.49,66.84c0.96,0.96,1.38,2.54,1.38,3.89c0,11.4-0.09,7.28-0.09,21.47"/><path d="M32.2,79.48c2.68,0.52,5.52,0.17,7.3,0c8.56-0.8,19.28-1.59,29.01-2.41c2.57-0.22,6.04-0.44,8.54,0.28"/><path d="M15.25,95.49c3.45,1.19,7.99,0.44,11.52,0.18C43.32,94.44,63.25,92.73,83,91.8c3.62-0.17,7.88,0.08,11.5,1.11"/>	</g></g></g><g style="font-size:8;fill:#808080"><text transform="matrix(1 0 0 1 44.25 9.63)">1</text><text transform="matrix(1 0 0 1 21.50 39.05)">2</text><text transform="matrix(1 0 0 1 30.75 28.50)">3</text><text transform="matrix(1 0 0 1 36.50 39.50)">4</text><text transform="matrix(1 0 0 1 36.75 52.50)">5</text><text transform="matrix(1 0 0 1 23.25 67.41)">6</text><text transform="matrix(1 0 0 1 45.50 74.83)">7</text><text transform="matrix(1 0 0 1 24.50 80.50)">8</text><text transform="matrix(1 0 0 1 8.25 97.50)">9</text></g></svg>