<svg xmlns="http://www.w3.org/2000/svg" width="109" height="109" viewBox="0 0 109 109"><g><path class="bg" xmlns="http://www.w3.org/2000/svg" fill="none" stroke="#6c757d" d="M54.5,0L54.5,109" stroke-width="0.5" stroke-dasharray="4,1.5"/><path class="bg" xmlns="http://www.w3.org/2000/svg" fill="none" stroke="#6c757d" d="M0,54.5L109,54.5" stroke-width="0.5" stroke-dasharray="4,1.5"/></g><g style="fill:none;stroke:#000000;stroke-width:3;stroke-linecap:round;stroke-linejoin:round;"><g><g><g><path d="M55.6,11.75c0.83,0.83,1.49,2.02,1.49,3.57c0,9.3,0,16.93,0,20.62c0,7.56-4.09,4.05-6.62,1.88"/><path d="M35.88,24.75c0.05,0.37-0.06,1.22-0.34,1.74C33.5,30.21,24.9,37.38,17.92,40.8"/><path d="M76.67,20.92c6.59,2.16,14.2,7.08,17.08,11.06"/>		</g><g><path d="M69.75,25.75c0.14,0.93-0.08,2.41-0.79,3.73c-5.86,10.88-28.4,28.46-51.27,35.77"/>		</g>	</g><g><path d="M41.25,51.39c1.12,1.12,1.53,2.79,1.53,4.17c0,2.7,0.06,25.39,0.08,36.07c0,2.45,0.01,4.26,0.01,5.07"/><path d="M43.82,53.31c5.04-0.5,24.97-3.16,31.56-3.89c3.76-0.42,5.38,1.08,5.38,4.21c0,5.32-0.04,23.04-0.04,36.75c0,1.72,0,3.37,0,4.93"/><path d="M44.01,65.33c11.86-0.83,28.61-2.21,35.55-2.43"/><path d="M44.05,78.66c9.35-0.58,24.83-1.66,35.34-1.81"/><path d="M44.16,93.04C53,92.75,70.55,91.5,79.62,91.5"/>	</g></g></g><g style="font-size:8;fill:#808080"><text transform="matrix(1 0 0 1 47.50 12.50)">1</text><text transform="matrix(1 0 0 1 27.75 23.50)">2</text><text transform="matrix(1 0 0 1 72.25 17.63)">3</text><text transform="matrix(1 0 0 1 62.25 24.13)">4</text><text transform="matrix(1 0 0 1 35.50 67.50)">5</text><text transform="matrix(1 0 0 1 61.50 48.50)">6</text><text transform="matrix(1 0 0 1 47.50 62.50)">7</text><text transform="matrix(1 0 0 1 47.46 75.13)">8</text><text transform="matrix(1 0 0 1 47.46 90.13)">9</text></g></svg>