<svg xmlns="http://www.w3.org/2000/svg" width="109" height="109" viewBox="0 0 109 109"><g><path class="bg" xmlns="http://www.w3.org/2000/svg" fill="none" stroke="#6c757d" d="M54.5,0L54.5,109" stroke-width="0.5" stroke-dasharray="4,1.5"/><path class="bg" xmlns="http://www.w3.org/2000/svg" fill="none" stroke="#6c757d" d="M0,54.5L109,54.5" stroke-width="0.5" stroke-dasharray="4,1.5"/></g><g style="fill:none;stroke:#000000;stroke-width:3;stroke-linecap:round;stroke-linejoin:round;"><g><g><path d="M23.63,23.92c3.25,0.33,6.04,0.35,8.62,0.08c12-1.25,32.73-3.03,43.75-3.46c2.8-0.11,5.9-0.1,8.63,0.58"/><path d="M51.96,9c1.04,1,1.48,2.38,1.28,4.17C52.5,19.75,51.5,26.75,50.7,32.5"/>	</g><g><g><path d="M31.5,34.33c0.77,0.77,1.22,2.04,1.32,3.22c0.34,4.08,2.03,22.86,2.75,31.08c0.2,2.27,0.32,3.73,0.32,3.86"/><path d="M33.88,35.7c6.37-0.57,33.4-3.78,36.69-3.96c2.74-0.15,4.64,1.52,4.43,4.66c-0.5,7.35-1,16.35-1.81,30.22c-0.05,0.88-0.19,2.26-0.21,3.54"/><path d="M34.82,46.58C48.5,45.38,65,43.75,73.74,43.46"/><path d="M35.62,57.69c10.63-0.94,25.63-1.94,37.45-2.26"/><path d="M36.76,69.46c14.24-1.21,23.49-2.21,35.27-2.82"/>		</g><g><path d="M16.25,80.12c2.18,0.62,6.17,0.75,8.35,0.62c13.52-0.85,41.03-3.11,62.65-3.72c3.63-0.1,5.81,0.3,7.62,0.61"/><g><path d="M42,82.89c0.14,0.99,0.01,1.92-0.56,2.71c-2.82,3.9-9.19,10.02-18.38,15.37"/><path d="M67.88,83.75C74.12,86.43,84,94.79,85.56,98.97"/>			</g>		</g>	</g></g></g><g style="font-size:8;fill:#808080"><text transform="matrix(1 0 0 1 17.25 24.13)">1</text><text transform="matrix(1 0 0 1 43.50 10.50)">2</text><text transform="matrix(1 0 0 1 24.75 42.74)">3</text><text transform="matrix(1 0 0 1 34.50 32.50)">4</text><text transform="matrix(1 0 0 1 38.25 43.63)">5</text><text transform="matrix(1 0 0 1 38.50 55.63)">6</text><text transform="matrix(1 0 0 1 39.50 66.50)">7</text><text transform="matrix(1 0 0 1 8.50 81.50)">8</text><text transform="matrix(1 0 0 1 30.50 89.50)">9</text><text transform="matrix(1 0 0 1 56.50 88.50)">10</text></g></svg>