<svg xmlns="http://www.w3.org/2000/svg" width="109" height="109" viewBox="0 0 109 109"><g><path class="bg" xmlns="http://www.w3.org/2000/svg" fill="none" stroke="#6c757d" d="M54.5,0L54.5,109" stroke-width="0.5" stroke-dasharray="4,1.5"/><path class="bg" xmlns="http://www.w3.org/2000/svg" fill="none" stroke="#6c757d" d="M0,54.5L109,54.5" stroke-width="0.5" stroke-dasharray="4,1.5"/></g><g style="fill:none;stroke:#000000;stroke-width:3;stroke-linecap:round;stroke-linejoin:round;"><g><g><g><path d="M42.75,16.5c-0.25,1-0.78,1.77-1.66,2.51c-3.9,3.28-11.46,7.26-22.59,11.49"/>		</g><g><path d="M11.87,45.83c1.51,0.7,3.76,0.74,5.39,0.58c6.08-0.57,18.98-2.74,25.76-3.67c1.48-0.2,2.86-0.5,4.22-0.06"/><path d="M31.58,29.41c1.01,1.01,1.41,2.59,1.41,4.44c0,0.67,0.02,35.92-0.03,52.9c-0.01,3.95-0.03,6.77-0.04,7.75"/><path d="M32.43,45.97c0,1.28-0.68,3.63-1.34,4.92C26.25,60.38,21,69.38,13,78"/><path d="M36.5,55.75c3.88,1.87,7.16,5.6,9.25,8"/>		</g>	</g><g><g><g><path d="M65.51,15.89c0.05,0.85,0.25,2.22-0.11,3.41c-2.15,7.2-8.27,21.32-18.9,32.88"/>			</g><path d="M60.48,37.99c1.61,0.09,3.18,0,4.78-0.17c7.99-0.88,15.25-2.56,21.76-3.7c2.06-0.36,4.02-0.41,6.07,0.1"/>		</g><g><path d="M71.12,40.19c0.97,0.97,1.31,2.31,1.31,4.17c0,12.33,0.03,40.27,0.03,44.47c0,9.52-6.1,1.27-7.37,0.21"/><path d="M58.9,56.38c0.08,1.4-0.04,2.42-0.5,3.75c-2,5.86-6.02,13.99-12.41,22.13"/><path d="M86.36,56.62c4.13,4.15,10.67,17.07,11.7,23.53"/>		</g>	</g></g></g><g style="font-size:8;fill:#808080"><text transform="matrix(1 0 0 1 34.50 16.63)">1</text><text transform="matrix(1 0 0 1 4.50 47.50)">2</text><text transform="matrix(1 0 0 1 24.75 37.50)">3</text><text transform="matrix(1 0 0 1 20.25 57.05)">4</text><text transform="matrix(1 0 0 1 37.50 53.50)">5</text><text transform="matrix(1 0 0 1 56.50 16.50)">6</text><text transform="matrix(1 0 0 1 66.75 34.55)">7</text><text transform="matrix(1 0 0 1 64.50 47.98)">8</text><text transform="matrix(1 0 0 1 51.50 59.50)">9</text><text transform="matrix(1 0 0 1 81.50 53.50)">10</text></g></svg>