<svg xmlns="http://www.w3.org/2000/svg" width="109" height="109" viewBox="0 0 109 109"><g><path class="bg" xmlns="http://www.w3.org/2000/svg" fill="none" stroke="#6c757d" d="M54.5,0L54.5,109" stroke-width="0.5" stroke-dasharray="4,1.5"/><path class="bg" xmlns="http://www.w3.org/2000/svg" fill="none" stroke="#6c757d" d="M0,54.5L109,54.5" stroke-width="0.5" stroke-dasharray="4,1.5"/></g><g style="fill:none;stroke:#000000;stroke-width:3;stroke-linecap:round;stroke-linejoin:round;"><g><g><path d="M18.15,26.29c2.88,2.1,7.23,8.05,7.96,11.33"/><path d="M50.77,21.61c0.13,0.8,0.01,1.55-0.35,2.26c-1.47,3.85-3.82,7.49-7.64,12.31"/><path d="M15.16,46.2c1.76,0.7,4.31,0.39,6.1,0.04c6.53-1.29,18.43-3.25,25.24-4.2c1.71-0.24,4.04-0.51,5.75-0.1"/><path d="M35.37,14.46c1.02,1.02,1.08,2.16,1.08,3.64c0,0.7,0.05,51.41,0.05,70.51c0,4.31,0,7.02-0.01,7.17"/><path d="M35.1,45.37c0,1.13-0.42,2.58-1.43,4.43c-5.42,9.96-11.8,19.58-19.94,29.14"/><path d="M39.14,52.78c2.98,2.35,7.36,7.35,9.11,11.92"/>	</g><g><g><path d="M70.81,16.63c1.34,1.34,1.51,2.87,1.51,4.5c0,0.91,0,33.87,0,47"/><path d="M73.25,43.75c7.27-0.75,15.35-2,16.36-2c1.01,0,2.83,0,3.64,0.25"/>		</g><g><path d="M54.91,69.3c0.9,0.9,1.29,1.79,1.41,2.93c1.05,5.27,2.14,11.86,3,18.51c0.23,1.83,0.45,3.58,0.64,5.17"/><path d="M56.96,70.44c10.68-1.17,24.61-2.1,31.07-2.75c3.07-0.3,5.18,0.89,4.53,4.2c-1.08,5.48-2.42,10.9-3.89,17.87"/><path d="M60.86,92.41c6.21-0.33,15.6-0.97,24.67-1.44c2.1-0.11,4.12-0.2,6.01-0.25"/>		</g>	</g></g></g><g style="font-size:8;fill:#808080"><text transform="matrix(1 0 0 1 11.25 25.63)">1</text><text transform="matrix(1 0 0 1 42.50 20.50)">2</text><text transform="matrix(1 0 0 1 8.50 47.50)">3</text><text transform="matrix(1 0 0 1 25.50 14.50)">4</text><text transform="matrix(1 0 0 1 24.50 55.50)">5</text><text transform="matrix(1 0 0 1 42.50 52.50)">6</text><text transform="matrix(1 0 0 1 61.50 17.50)">7</text><text transform="matrix(1 0 0 1 76.50 40.50)">8</text><text transform="matrix(1 0 0 1 48.75 76.48)">9</text><text transform="matrix(1 0 0 1 56.50 67.50)">10</text><text transform="matrix(1 0 0 1 62.50 89.50)">11</text></g></svg>