<svg xmlns="http://www.w3.org/2000/svg" width="109" height="109" viewBox="0 0 109 109"><g><path class="bg" xmlns="http://www.w3.org/2000/svg" fill="none" stroke="#6c757d" d="M54.5,0L54.5,109" stroke-width="0.5" stroke-dasharray="4,1.5"/><path class="bg" xmlns="http://www.w3.org/2000/svg" fill="none" stroke="#6c757d" d="M0,54.5L109,54.5" stroke-width="0.5" stroke-dasharray="4,1.5"/></g><g style="fill:none;stroke:#000000;stroke-width:3;stroke-linecap:round;stroke-linejoin:round;"><g><g><path d="M20.22,18.74c0.77,0.77,0.79,2.14,0.8,3.05C21.38,62,20.62,75,11.5,89.39"/><path d="M22.07,19.81c3.77-1.1,9.16-2.22,12.2-2.86c3.38-0.71,5.27,0.34,5.27,3.92c0,7.56-0.02,45.68-0.02,63.19c0,12.61-6.16,3.55-7.95,2.04"/><path d="M22.07,38.45c5.55-0.7,11.05-1.33,16.83-2.07"/><path d="M21.76,56.4c4.49-0.4,11.64-1.53,16.79-1.95"/>	</g><g><g><g><path d="M54.92,17.35c0.68,0.68,1,1.82,0.95,2.84c-0.5,11.94-1.75,21.06-8.09,27.17"/>			</g><path d="M56.85,19.53C63.12,18.5,68,17.5,72.75,16.39c2.74-0.64,4.08,0.56,3.33,3.62c-1.2,4.87-1.71,10.75-1.71,14.37c0,7.01,1.19,8.64,9.03,8.64c7.6,0,8.53-1.01,8.53-9.36"/>		</g><g><path d="M52.75,55.69c1.53,0.37,3.47,0.42,6.54-0.13c2.35-0.42,14-3.33,17.75-4.28c3.64-0.92,5.11,1.99,3.32,4.95C70.88,71.88,61.62,84.25,44,93.17"/><path d="M51.98,62.15c5.52,1.35,18.39,14.6,31.63,24.99c3.43,2.7,6.54,5.14,10.67,6.54"/>		</g>	</g></g></g><g style="font-size:8;fill:#808080"><text transform="matrix(1 0 0 1 13.50 25.50)">1</text><text transform="matrix(1 0 0 1 23.50 15.55)">2</text><text transform="matrix(1 0 0 1 24.50 34.50)">3</text><text transform="matrix(1 0 0 1 25.50 52.50)">4</text><text transform="matrix(1 0 0 1 48.25 23.50)">5</text><text transform="matrix(1 0 0 1 58.50 15.50)">6</text><text transform="matrix(1 0 0 1 53.50 52.50)">7</text><text transform="matrix(1 0 0 1 45.50 65.50)">8</text></g></svg>