<svg xmlns="http://www.w3.org/2000/svg" width="109" height="109" viewBox="0 0 109 109"><g><path class="bg" xmlns="http://www.w3.org/2000/svg" fill="none" stroke="#6c757d" d="M54.5,0L54.5,109" stroke-width="0.5" stroke-dasharray="4,1.5"/><path class="bg" xmlns="http://www.w3.org/2000/svg" fill="none" stroke="#6c757d" d="M0,54.5L109,54.5" stroke-width="0.5" stroke-dasharray="4,1.5"/></g><g style="fill:none;stroke:#000000;stroke-width:3;stroke-linecap:round;stroke-linejoin:round;"><g><g><path d="M19.56,20.25c0.85,0.85,1.02,2.14,1.05,3.08C21.5,62.5,20,80,12.75,93.12"/><path d="M21.4,22.6c3.1-0.62,9.51-1.81,13.1-2.4c2.07-0.34,4.54-0.63,4.54,2.35c0,3.26-0.02,44.67-0.02,63.18c0,13.08-3.25,6.23-5.98,3.07"/><path d="M22.15,42.33c5.12-0.65,10.69-1.34,15.5-1.92"/><path d="M21.59,60.31c4.53-0.56,11.08-1.29,16.21-1.71"/>	</g><g><g><path d="M69.05,14.25c1.1,1.1,1.59,2.38,1.59,4.54c0,4.86,0.11,7.71,0.11,12.5"/><path d="M45.88,34.64c2.91,0.65,5.93,0.79,8.88,0.31c10.41-1.72,23.36-3.82,35.12-4.68c2.81-0.21,5.84-0.11,8.5,0.89"/>		</g><g><path d="M69.02,46.57c5.98,2.56,9.73,3.81,16.18,5.49c3.26,0.85,4.21,2.09,3.4,5.25c-1.99,7.78-9.15,27.54-12.73,32.32c-4.13,5.51-7.12,0.76-8.37-0.7"/><path d="M69.88,36.25c0.34,1.33,0.3,2.59-0.13,4.08c-3.13,10.79-11,29.79-23.83,41.25"/>		</g>	</g></g></g><g style="font-size:8;fill:#808080"><text transform="matrix(1 0 0 1 13.50 27.50)">1</text><text transform="matrix(1 0 0 1 22.50 18.13)">2</text><text transform="matrix(1 0 0 1 24.75 38.50)">3</text><text transform="matrix(1 0 0 1 24.75 56.50)">4</text><text transform="matrix(1 0 0 1 60.50 15.50)">5</text><text transform="matrix(1 0 0 1 44.50 31.55)">6</text><text transform="matrix(1 0 0 1 74.50 46.50)">7</text><text transform="matrix(1 0 0 1 60.50 43.50)">8</text></g></svg>