<svg xmlns="http://www.w3.org/2000/svg" width="109" height="109" viewBox="0 0 109 109"><g><path class="bg" xmlns="http://www.w3.org/2000/svg" fill="none" stroke="#6c757d" d="M54.5,0L54.5,109" stroke-width="0.5" stroke-dasharray="4,1.5"/><path class="bg" xmlns="http://www.w3.org/2000/svg" fill="none" stroke="#6c757d" d="M0,54.5L109,54.5" stroke-width="0.5" stroke-dasharray="4,1.5"/></g><g style="fill:none;stroke:#000000;stroke-width:3;stroke-linecap:round;stroke-linejoin:round;"><g><g><path d="M17,20c0.88,0.88,0.96,1.97,1,3c1.5,37.75-1.38,56.62-7.75,69"/><path d="M19,22.25c4.07-0.79,9.61-1.8,12.26-2.34c2.22-0.46,4.24,0.54,4.24,3.09c0,6.75,0,43.75,0,64c0,10.75-4.75,5.25-7.5,2.25"/><path d="M19.5,40.75c4.75-0.5,8.25-0.88,15-1.5"/><path d="M18.75,58.75c5.25-0.75,9.5-1.25,15.5-1.5"/>	</g><g><g><path d="M67.15,13.8c0.96,0.96,1.35,2.25,1.35,3.7c0,3.05,0.11,6.45,0.11,9.22"/><g><path d="M48.08,27.49c0,3.68-2.87,13.79-4.17,16.25"/><path d="M48.94,29.35c8.18-1.1,32.93-3.6,42-3.82c9.81-0.24,0.35,6.34-1.64,7.99"/>			</g>		</g><g><g><path d="M54.42,39.17c0.15,0.53,0.13,1.92-0.22,2.92c-2.7,7.79-7.75,16.06-14.81,25.85"/><path d="M54.06,50.7c0.57,0.18,1.41,0.19,2.06,0.13c2.01-0.2,4.26-0.7,7.17-1.56c2.11-0.63,3.4,0.77,2.61,2.94C61.88,63.25,52,82.5,38.75,93.75"/><path d="M47.62,61.25c2.31,1.55,5.97,6.38,6.54,8.79"/>			</g><g><path d="M71.24,45.96c1.64,0.54,3.53,0.21,4.6,0.07c3.91-0.53,10.61-2.08,12.04-2.38c2.49-0.52,3.72,0.87,3.63,3.43c-0.14,4.35-1.73,17.56-4.05,24.64c-2.22,6.78-4.22,2.53-5.45-0.39"/><path d="M71.89,46.75c0.93,0.93,1.28,2,1.28,3.33c0,12.3-0.01,20.3-0.01,29.2c0,12.97,0.58,14.47,12.28,14.47c10.68,0,11.7-2,11.7-10.9"/>			</g>		</g>	</g></g></g><g style="font-size:8;fill:#808080"><text transform="matrix(1 0 0 1 11.25 28.25)">1</text><text transform="matrix(1 0 0 1 20.25 18.25)">2</text><text transform="matrix(1 0 0 1 23.00 37.30)">3</text><text transform="matrix(1 0 0 1 22.83 55.25)">4</text><text transform="matrix(1 0 0 1 58.25 15.25)">5</text><text transform="matrix(1 0 0 1 41.00 31.38)">6</text><text transform="matrix(1 0 0 1 51.50 26.25)">7</text><text transform="matrix(1 0 0 1 42.50 52.30)">8</text><text transform="matrix(1 0 0 1 58.25 47.25)">9</text><text transform="matrix(1 0 0 1 50.00 61.30)">10</text><text transform="matrix(1 0 0 1 74.25 43.25)">11</text><text transform="matrix(1 0 0 1 75.25 56.80)">12</text></g></svg>