<svg xmlns="http://www.w3.org/2000/svg" width="109" height="109" viewBox="0 0 109 109"><g><path class="bg" xmlns="http://www.w3.org/2000/svg" fill="none" stroke="#6c757d" d="M54.5,0L54.5,109" stroke-width="0.5" stroke-dasharray="4,1.5"/><path class="bg" xmlns="http://www.w3.org/2000/svg" fill="none" stroke="#6c757d" d="M0,54.5L109,54.5" stroke-width="0.5" stroke-dasharray="4,1.5"/></g><g style="fill:none;stroke:#000000;stroke-width:3;stroke-linecap:round;stroke-linejoin:round;"><g><path d="M50.44,12.42c0.31,1.42,0.34,2.13-0.24,3.9c-1.45,4.43-3.45,7.55-7.56,13.43"/><g><path d="M27.5,31.73c0.8,1.43,1.48,2.99,1.48,4.89c0,1.9-0.29,53.82-0.29,54.78c0,0.95,0.04,2.85,0.04,4.85"/><path d="M29.77,33.17c11.61-1.29,37.98-4.04,43.35-4.67c4.85-0.57,6.38,1,6.38,4.59c0,2.04-0.69,33.61-0.82,55.16c-0.01,2.4-0.02,4.68-0.02,6.78"/><path d="M30.23,51.23c11.14-1.1,37.27-3.48,47.79-3.77"/><path d="M30.11,70.17C44.5,68.75,62,67.25,77.74,66.31"/><path d="M29.79,91.57c12.59-0.69,34.84-2.32,47.46-3.13"/>	</g></g></g><g style="font-size:8;fill:#808080"><text transform="matrix(1 0 0 1 41.25 11.63)">1</text><text transform="matrix(1 0 0 1 20.50 39.50)">2</text><text transform="matrix(1 0 0 1 31.50 29.50)">3</text><text transform="matrix(1 0 0 1 34.50 47.50)">4</text><text transform="matrix(1 0 0 1 34.50 66.13)">5</text><text transform="matrix(1 0 0 1 34.50 88.50)">6</text></g></svg>