<svg xmlns="http://www.w3.org/2000/svg" width="109" height="109" viewBox="0 0 109 109"><g><path class="bg" xmlns="http://www.w3.org/2000/svg" fill="none" stroke="#6c757d" d="M54.5,0L54.5,109" stroke-width="0.5" stroke-dasharray="4,1.5"/><path class="bg" xmlns="http://www.w3.org/2000/svg" fill="none" stroke="#6c757d" d="M0,54.5L109,54.5" stroke-width="0.5" stroke-dasharray="4,1.5"/></g><g style="fill:none;stroke:#000000;stroke-width:3;stroke-linecap:round;stroke-linejoin:round;"><g><g><path d="M50,10c0.25,1.5,0.48,2.97-0.21,4.47C44,27.12,31.38,43.25,11.5,57"/><path d="M51,14.24c6.94,6.26,25.98,25.01,34.41,32.24c2.3,1.98,4.75,4.3,7.59,5.46"/>	</g><g><g><path d="M33.43,49.75c2.32,0.62,4.68,0.27,6.96-0.04c5.8-0.79,17.97-2.17,23.74-2.49c2.06-0.12,4.16-0.16,6.2,0.19"/><path d="M51.57,34.26c1.02,1.02,1.69,2.49,1.69,3.67c0,0.86,0.05,15.95,0.05,24.51"/><path d="M23.6,65.6c2.03,0.56,4.99,0.59,7.03,0.32c13.12-1.79,29.96-3.19,44.49-4.2c2.39-0.17,5.1-0.23,7.46,0.12"/>		</g><g><path d="M33.37,76.97c0.89,0.89,1.46,2.2,1.71,3.38c1.18,5.65,2.17,9.77,3.11,15.61c0.21,1.3,0.4,2.56,0.57,3.75"/><path d="M35.81,79.08c9.51-1.49,26.38-3.6,33.69-4.43c3.7-0.42,5.6,0.82,4.61,4.74c-1.09,4.27-2.35,8.21-4.15,14.78"/><path d="M39.93,97.84c5.48-0.54,19.16-1.84,28.33-2.68c1.57-0.14,3.24-0.27,4.44-0.36"/>		</g>	</g></g></g><g style="font-size:8;fill:#808080"><text transform="matrix(1 0 0 1 42.75 15.13)">1</text><text transform="matrix(1 0 0 1 62.25 21.05)">2</text><text transform="matrix(1 0 0 1 35.50 46.50)">3</text><text transform="matrix(1 0 0 1 42.75 38.50)">4</text><text transform="matrix(1 0 0 1 17.25 67.33)">5</text><text transform="matrix(1 0 0 1 27.75 85.25)">6</text><text transform="matrix(1 0 0 1 36.50 75.50)">7</text><text transform="matrix(1 0 0 1 42.75 94.10)">8</text></g></svg>