<svg xmlns="http://www.w3.org/2000/svg" width="109" height="109" viewBox="0 0 109 109"><g><path class="bg" xmlns="http://www.w3.org/2000/svg" fill="none" stroke="#6c757d" d="M54.5,0L54.5,109" stroke-width="0.5" stroke-dasharray="4,1.5"/><path class="bg" xmlns="http://www.w3.org/2000/svg" fill="none" stroke="#6c757d" d="M0,54.5L109,54.5" stroke-width="0.5" stroke-dasharray="4,1.5"/></g><g style="fill:none;stroke:#000000;stroke-width:3;stroke-linecap:round;stroke-linejoin:round;"><g><g><path d="M17.5,31.58c5.5,0.92,10.45,0.07,15.77-0.66c13.4-1.85,31.58-3.82,44.09-4.39c4.29-0.22,8.59-0.08,12.88,0.41"/><path d="M36.5,18.25c1,1,1.35,2.11,1.5,3c1.62,9.38,2.75,18,3.25,21"/><path d="M68.94,13.75c0.56,1.38,0.29,2.77-0.03,4.31c-1.66,8.07-3.16,14.57-4.84,22.69"/>	</g><g><path d="M23.64,68.82c0.42,2.78-4.95,15.29-8.31,19.92"/><path d="M33.08,60.75C42.5,86.5,47.5,96.5,77.03,95.43c12.7-0.46,14.03-3.06,3.44-11.7"/><path d="M56.91,60.25c2.17,5.25,6.82,13,9.13,4.96"/><path d="M83.63,57.23c7.24,4.64,11.37,8.02,13.6,12.86"/>	</g></g></g><g style="font-size:8;fill:#808080"><text transform="matrix(1 0 0 1 10.50 32.50)">1</text><text transform="matrix(1 0 0 1 26.50 17.50)">2</text><text transform="matrix(1 0 0 1 58.50 13.50)">3</text><text transform="matrix(1 0 0 1 17.50 65.50)">4</text><text transform="matrix(1 0 0 1 26.50 57.50)">5</text><text transform="matrix(1 0 0 1 50.50 60.50)">6</text><text transform="matrix(1 0 0 1 77.50 58.50)">7</text></g></svg>