<svg xmlns="http://www.w3.org/2000/svg" width="109" height="109" viewBox="0 0 109 109"><g><path class="bg" xmlns="http://www.w3.org/2000/svg" fill="none" stroke="#6c757d" d="M54.5,0L54.5,109" stroke-width="0.5" stroke-dasharray="4,1.5"/><path class="bg" xmlns="http://www.w3.org/2000/svg" fill="none" stroke="#6c757d" d="M0,54.5L109,54.5" stroke-width="0.5" stroke-dasharray="4,1.5"/></g><g style="fill:none;stroke:#000000;stroke-width:3;stroke-linecap:round;stroke-linejoin:round;"><g><g><g><path d="M23.64,36.26c0.8,0.8,1.49,1.74,1.7,2.54c1.23,4.63,2.06,10.62,3.38,18.66c0.25,1.52,0.51,3.11,0.78,4.78"/><path d="M25.76,38.04c14.91-1.35,45.03-4.16,53.74-4.54c3.84-0.17,4.01,1.78,3.63,4.25c-0.68,4.46-2.51,12.12-4.07,17.32"/><path d="M30,60c9.65-0.99,29.67-2.45,44.76-3.49c2.03-0.14,3.98-0.27,5.79-0.4"/>		</g><g><path d="M52.51,16.12c1,1,1.67,2.84,1.67,3.99c0,5.39,0.08,62.61,0.04,63.63"/>		</g>	</g><path d="M22.75,89.75c1.31,1.31,3,1.5,4.25,1.25s47-10.5,54.75-12.5"/><path d="M74.96,69.87c5.12,3.62,12.42,14.38,14.5,20.5"/></g></g><g style="font-size:8;fill:#808080"><text transform="matrix(1 0 0 1 17.50 43.50)">1</text><text transform="matrix(1 0 0 1 28.50 34.50)">2</text><text transform="matrix(1 0 0 1 32.50 56.50)">3</text><text transform="matrix(1 0 0 1 41.50 17.50)">4</text><text transform="matrix(1 0 0 1 14.50 89.50)">5</text><text transform="matrix(1 0 0 1 75.50 67.50)">6</text></g></svg>