<svg xmlns="http://www.w3.org/2000/svg" width="109" height="109" viewBox="0 0 109 109"><g><path class="bg" xmlns="http://www.w3.org/2000/svg" fill="none" stroke="#6c757d" d="M54.5,0L54.5,109" stroke-width="0.5" stroke-dasharray="4,1.5"/><path class="bg" xmlns="http://www.w3.org/2000/svg" fill="none" stroke="#6c757d" d="M0,54.5L109,54.5" stroke-width="0.5" stroke-dasharray="4,1.5"/></g><g style="fill:none;stroke:#000000;stroke-width:3;stroke-linecap:round;stroke-linejoin:round;"><g><g><g><path d="M19.13,18.58c2.77,1.06,6.63,0.53,9.49,0.15c16.75-2.23,36.17-4.13,50.12-5.22c3.38-0.26,7.33-0.28,10.64,0.47"/>		</g><g><path d="M26.81,37c2.94,0.75,6.09,0.46,8.56,0.11c10.61-1.53,31.59-4.06,42.1-5.09c2.93-0.29,6.11-0.48,8.98,0.16"/><path d="M50.62,19.75c0.38,1.12,0.4,2.38,0,3.92C46,41.12,34,60,11.25,72.87"/><path d="M61.1,34.39c7.65,8.23,17.6,18.77,25.93,25.97C88.86,61.94,91,64,94,66.25"/>		</g>	</g><g><g><g><path d="M34.78,61.35c0.81,0.81,1.47,1.9,1.74,2.97c0.84,3.2,1.17,7.08,2.09,12.67c0.16,0.96,0.32,1.95,0.49,3"/><path d="M37.48,63.69c11.33-1.69,24.58-3.79,31.77-4.3c3.33-0.24,5.44,0.15,4.5,3.74c-0.96,3.66-1.9,7.65-2.92,11.08"/><path d="M39.94,77.95c6.62-0.68,18.95-1.68,28.81-2.39c1.21-0.09,2.38-0.17,3.52-0.25"/>			</g><g><path d="M53.82,47.25c0.78,0.78,1.06,2.12,1.06,3.84c0,1.91,0.22,33.16,0.22,39.57"/>			</g>		</g><path d="M30.11,94.4c0.89,1.22,1.51,1.35,3.21,1.11c5.4-0.77,40.52-7.15,43.06-8"/><path d="M71.38,82c4.39,2.53,11.34,10.39,12.44,14.32"/>	</g></g></g><g style="font-size:8;fill:#808080"><text transform="matrix(1 0 0 1 12.50 19.63)">1</text><text transform="matrix(1 0 0 1 19.50 37.55)">2</text><text transform="matrix(1 0 0 1 42.50 27.13)">3</text><text transform="matrix(1 0 0 1 74.25 45.13)">4</text><text transform="matrix(1 0 0 1 30.50 71.50)">5</text><text transform="matrix(1 0 0 1 39.50 59.50)">6</text><text transform="matrix(1 0 0 1 41.50 74.50)">7</text><text transform="matrix(1 0 0 1 46.50 53.50)">8</text><text transform="matrix(1 0 0 1 21.50 97.50)">9</text><text transform="matrix(1 0 0 1 61.50 86.50)">10</text></g></svg>