<svg xmlns="http://www.w3.org/2000/svg" width="109" height="109" viewBox="0 0 109 109"><g><path class="bg" xmlns="http://www.w3.org/2000/svg" fill="none" stroke="#6c757d" d="M54.5,0L54.5,109" stroke-width="0.5" stroke-dasharray="4,1.5"/><path class="bg" xmlns="http://www.w3.org/2000/svg" fill="none" stroke="#6c757d" d="M0,54.5L109,54.5" stroke-width="0.5" stroke-dasharray="4,1.5"/></g><g style="fill:none;stroke:#000000;stroke-width:3;stroke-linecap:round;stroke-linejoin:round;"><g><path d="M20.63,24.22c2.31,0.34,6.05,0.3,8.35,0.09c15.15-1.43,36.18-3.38,49.83-4.02c3.84-0.18,6.66-0.09,8.58,0.08"/><path d="M18.25,48.63c1.25,1.25,2.14,3.42,2.33,4.49c1.25,6.77,3.24,20.18,5.12,33.35c0.27,1.87,0.53,3.72,0.77,5.53"/><path d="M20.75,50.26c17.77-1.6,53.73-5.05,63.68-5.27c4.51-0.1,7.27,2.79,6.55,6.54c-1.6,8.35-4.1,21.97-6.49,32.97c-0.36,1.68-0.61,2.5-1.13,4.6"/><path d="M42.75,26.75c0.5,1.25,0.81,3.99,0.85,5.73C43.98,48.84,42,64.5,30.64,73.77"/><path d="M60.6,24.46c0.94,1.12,1.74,2.94,1.74,4.67c0,13.33-0.45,21.61-0.45,27.37c0,10.25,0.62,11.14,11.36,11.14c6.38,0,8.94-0.54,10.55-1.53"/><path d="M27.34,88.55C40.75,88,66.69,86.2,83,85.97"/></g></g><g style="font-size:8;fill:#808080"><text transform="matrix(1 0 0 1 13.50 25.63)">1</text><text transform="matrix(1 0 0 1 9.50 55.63)">2</text><text transform="matrix(1 0 0 1 20.50 46.50)">3</text><text transform="matrix(1 0 0 1 35.50 33.50)">4</text><text transform="matrix(1 0 0 1 54.50 33.50)">5</text><text transform="matrix(1 0 0 1 30.50 85.50)">6</text></g></svg>