<svg xmlns="http://www.w3.org/2000/svg" width="109" height="109" viewBox="0 0 109 109"><g><path class="bg" xmlns="http://www.w3.org/2000/svg" fill="none" stroke="#6c757d" d="M54.5,0L54.5,109" stroke-width="0.5" stroke-dasharray="4,1.5"/><path class="bg" xmlns="http://www.w3.org/2000/svg" fill="none" stroke="#6c757d" d="M0,54.5L109,54.5" stroke-width="0.5" stroke-dasharray="4,1.5"/></g><g style="fill:none;stroke:#000000;stroke-width:3;stroke-linecap:round;stroke-linejoin:round;"><g><g><path d="M24.63,14.75c3.04,1.9,7.86,7.8,8.62,10.75"/><path d="M12.62,34.58c1.29,0.48,3.02,0.27,4.38,0.19c7.23-0.41,16.27-1.43,21.64-1.98c1.41-0.14,2.8-0.19,4.2,0.12"/><path d="M17.48,47.31c1.28,0.41,3.22,0.39,4.53,0.29c3.59-0.27,9.57-1.07,13.23-1.55c1.5-0.2,3.41-0.58,4.91-0.3"/><path d="M18.48,60.08c1.11,0.38,2.78,0.13,3.93,0.05c3.64-0.27,10.2-0.91,13.36-1.59c1.24-0.27,2.74-0.57,4-0.32"/><g><path d="M16.64,71.9c0.86,0.79,1.52,2.03,1.49,3.22c0.76,4.1,1.63,10.95,2.4,16.26c0.16,1.12,0.32,2.17,0.47,3.11"/><path d="M19.06,74.12c5.7-0.79,11.88-1.63,17.34-2.44c3.58-0.53,4.56,0.1,3.87,3.7c-0.75,3.94-1.51,8.8-2.85,14.83"/><path d="M21.97,92.55c4.08-0.46,8.55-1.07,14.27-1.56c1.02-0.09,2.07-0.17,3.17-0.25"/>		</g>	</g><g><g><g><path d="M52.5,17.12c3.26,2.44,8.43,10.05,9.25,13.85"/>			</g><g><path d="M86,13.12c0.03,0.98-0.32,2.12-0.53,2.69c-1.57,4.3-4.89,10.3-10.07,16.15"/>			</g>		</g><g><g><path d="M51.73,38.63c0.88,0.88,1.27,1.62,1.5,2.61c0.69,3.05,1.71,10.07,2.64,16.38c0.19,1.31,0.38,2.58,0.56,3.79"/><path d="M54.23,40.12c7.61-1.18,20.73-2.41,28.25-3.16c3.39-0.34,5.93,0.58,5.07,4.45c-0.95,4.28-2.43,8.36-3.64,13.97"/><path d="M57.36,58.97c5.24-0.34,16.66-1.33,25.14-2.03c1.41-0.12,2.74-0.22,3.95-0.32"/>			</g><g><g><path d="M62.96,64.66c0.06,0.74,0.15,1.93-0.11,2.99C61.12,74.5,54,87.88,42.64,96.22"/>				</g><path d="M73.14,60.29c1.03,1.03,1.29,2.12,1.31,3.99c0.07,5.13-0.24,12.35-0.24,18.71c0,10.25,1.29,11.76,12.16,11.76c9.87,0,10.62-2,10.62-7.99"/>			</g>		</g>	</g></g></g><g style="font-size:8;fill:#808080"><text transform="matrix(1 0 0 1 18.50 15.50)">1</text><text transform="matrix(1 0 0 1 5.50 35.50)">2</text><text transform="matrix(1 0 0 1 10.50 48.43)">3</text><text transform="matrix(1 0 0 1 11.50 61.85)">4</text><text transform="matrix(1 0 0 1 10.50 79.50)">5</text><text transform="matrix(1 0 0 1 18.75 70.63)">6</text><text transform="matrix(1 0 0 1 24.75 89.50)">7</text><text transform="matrix(1 0 0 1 45.50 17.50)">8</text><text transform="matrix(1 0 0 1 77.50 14.50)">9</text><text transform="matrix(1 0 0 1 43.50 47.50)">10</text><text transform="matrix(1 0 0 1 50.25 37.63)">11</text><text transform="matrix(1 0 0 1 59.50 55.50)">12</text><text transform="matrix(1 0 0 1 51.50 70.50)">13</text><text transform="matrix(1 0 0 1 77.50 69.50)">14</text></g></svg>