<svg xmlns="http://www.w3.org/2000/svg" width="109" height="109" viewBox="0 0 109 109"><g><path class="bg" xmlns="http://www.w3.org/2000/svg" fill="none" stroke="#6c757d" d="M54.5,0L54.5,109" stroke-width="0.5" stroke-dasharray="4,1.5"/><path class="bg" xmlns="http://www.w3.org/2000/svg" fill="none" stroke="#6c757d" d="M0,54.5L109,54.5" stroke-width="0.5" stroke-dasharray="4,1.5"/></g><g style="fill:none;stroke:#000000;stroke-width:3;stroke-linecap:round;stroke-linejoin:round;"><g><g><g><path d="M18.28,23.4c0.79,0.79,1.19,2.12,1.32,3.07c1.03,5.03,1.35,7.41,2.12,12.25c0.27,1.69,0.51,3.33,0.72,4.78"/><path d="M20.63,24.77c7.42-1.56,13.64-2.59,18.01-3.26C42,21,43.5,22.5,42.97,25.39c-0.69,3.73-1.64,7.12-2.89,12.07"/><path d="M22.61,41.41c4.12-0.41,9.69-1.64,15.18-2.42c1.36-0.19,2.74-0.37,4.14-0.53"/>		</g><path d="M31.12,42.99c1.01,1.01,1.21,2.38,1.21,4c0,1.02,0.03,23.38,0.03,30.75"/><path d="M33.38,56.24c3.37-0.49,5.62-1.12,9.6-1.75c1.72-0.27,2.18-0.25,3.26,0"/><path d="M19.12,59.49c0.88,0.88,1.21,2.51,1.21,4c0,1.02,0.03,14.76,0.03,21.5"/><path d="M14.5,86.57c1.03,1.03,2.25,1.43,4.07,0.4C28.56,81.32,33.75,78,42.5,72.99"/>	</g><g><g><path d="M55.79,21.76c0.97,0.97,1.25,2.36,1.25,3.55c0,2.01,0.04,40.73,0.05,58.32c0,4.11,0,7.06,0,8.12"/>		</g><g><path d="M58.26,24.63c6.43-0.64,22.25-3.21,29.81-4.39c2.24-0.35,3.63-0.21,4.76,0.03"/>		</g><path d="M58.14,46.16c13.98-2.16,17.23-2.91,28.16-4.49c2.6-0.38,4.05,1.39,3.49,3.98c-0.89,4.09-2.92,11.47-4.03,16.33"/><path d="M58.23,66.02c5.09-0.5,17.8-1.98,25.98-2.87c2.16-0.24,3.79-0.28,5.25-0.25"/><g><g><path d="M58.26,89.16c6.43-0.64,16.61-1.91,31.56-2.99c2.26-0.16,3.62-0.21,4.76,0.03"/>			</g>		</g>	</g></g></g><g style="font-size:8;fill:#808080"><text transform="matrix(1 0 0 1 13.50 33.13)">1</text><text transform="matrix(1 0 0 1 21.75 21.13)">2</text><text transform="matrix(1 0 0 1 26.25 37.55)">3</text><text transform="matrix(1 0 0 1 24.75 52.48)">4</text><text transform="matrix(1 0 0 1 36.50 52.50)">5</text><text transform="matrix(1 0 0 1 9.75 61.50)">6</text><text transform="matrix(1 0 0 1 6.75 90.05)">7</text><text transform="matrix(1 0 0 1 49.50 29.50)">8</text><text transform="matrix(1 0 0 1 59.25 21.50)">9</text><text transform="matrix(1 0 0 1 61.99 42.05)">10</text><text transform="matrix(1 0 0 1 62.25 62.98)">11</text><text transform="matrix(1 0 0 1 62.06 85.41)">12</text></g></svg>