<svg xmlns="http://www.w3.org/2000/svg" width="109" height="109" viewBox="0 0 109 109"><g><path class="bg" xmlns="http://www.w3.org/2000/svg" fill="none" stroke="#6c757d" d="M54.5,0L54.5,109" stroke-width="0.5" stroke-dasharray="4,1.5"/><path class="bg" xmlns="http://www.w3.org/2000/svg" fill="none" stroke="#6c757d" d="M0,54.5L109,54.5" stroke-width="0.5" stroke-dasharray="4,1.5"/></g><g style="fill:none;stroke:#000000;stroke-width:3;stroke-linecap:round;stroke-linejoin:round;"><g><g><path d="M49.27,17.59c2.49,1.79,6.44,7.36,7.06,10.15"/><path d="M74.78,14.76c0.1,0.83-0.02,1.63-0.37,2.38c-0.98,3.04-2.44,6.53-5.85,11.21"/><g><path d="M41.46,33.74c2.42,0.51,5.06,0.58,7.3,0.19c8.79-1.5,24.53-3.37,33.74-3.8c2.05-0.09,4.13-0.24,6.15,0.23"/><path d="M62.37,34.35c0,1.15-0.51,1.89-1.44,2.83c-4.18,4.2-9.43,8.32-18.5,14.08"/><path d="M60.63,41.37c6.95,3.82,14.87,24.38,7.9,39.81c-2.86,6.33-6.7,0.78-7.57,0.04"/><path d="M61.97,46.56c0.14,1.13-0.01,1.63-0.7,2.55c-3.06,4.1-8.69,9.32-18.45,15.7"/><path d="M66.84,56.4c0.18,1.38-0.01,2.1-0.82,3.25c-3.55,5.05-11.13,11.84-23.6,18.79"/><path d="M83.97,40.02c0,0.98-0.23,1.56-0.71,2.17c-2.13,2.68-4.37,4.64-11.15,9.21"/><path d="M72.25,56.5c8.8,4.75,14.51,12,19.51,20.44"/>		</g>	</g><g><path d="M18.88,22.25c3.75,1.57,9.69,6.45,10.62,8.88"/><path d="M13,59.06c1.88,0.57,3.75,0.48,4.75,0.24c1-0.24,9.83-3.88,11.25-4.55c2.12-1,3.38,0.75,2,2.61c-9.4,12.69-8.83,7.91-1.19,16.21c1.56,1.69,1.96,3.58,0.19,5.13c-3.38,2.93-7,5.43-10.5,8.31"/><path d="M15,88.36c3.5-0.86,9.18-1.02,13.71-0.74C34.75,88,53.2,91,63.1,93c9.9,2,17.9,3,28.65,3.05"/>	</g></g></g><g style="font-size:8;fill:#808080"><text transform="matrix(1 0 0 1 42.50 16.63)">1</text><text transform="matrix(1 0 0 1 66.50 14.50)">2</text><text transform="matrix(1 0 0 1 38.25 30.13)">3</text><text transform="matrix(1 0 0 1 48.50 42.50)">4</text><text transform="matrix(1 0 0 1 65.50 43.63)">5</text><text transform="matrix(1 0 0 1 52.50 52.63)">6</text><text transform="matrix(1 0 0 1 59.25 60.50)">7</text><text transform="matrix(1 0 0 1 75.50 41.50)">8</text><text transform="matrix(1 0 0 1 78.50 57.50)">9</text><text transform="matrix(1 0 0 1 8.50 22.63)">10</text><text transform="matrix(1 0 0 1 3.50 60.05)">11</text><text transform="matrix(1 0 0 1 5.50 90.50)">12</text></g></svg>