<svg xmlns="http://www.w3.org/2000/svg" width="109" height="109" viewBox="0 0 109 109"><g><path class="bg" xmlns="http://www.w3.org/2000/svg" fill="none" stroke="#6c757d" d="M54.5,0L54.5,109" stroke-width="0.5" stroke-dasharray="4,1.5"/><path class="bg" xmlns="http://www.w3.org/2000/svg" fill="none" stroke="#6c757d" d="M0,54.5L109,54.5" stroke-width="0.5" stroke-dasharray="4,1.5"/></g><g style="fill:none;stroke:#000000;stroke-width:3;stroke-linecap:round;stroke-linejoin:round;"><g><g><path d="M52.31,10.88c1.09,1.09,1.26,2.62,1.26,4.15c0,2.59-0.07,3.59-0.07,8.46"/><g><path d="M20.13,26.73c2.55,0.91,5.74,0.67,8.39,0.37c15.46-1.75,30.61-3.35,48.98-4.76c2.78-0.21,5.65-0.11,8.38,0.48"/><path d="M23.74,28.25c1.06,1.07,1.27,2.6,1.16,4.75c-1.16,24-3.66,43.87-14.85,59.22"/>		</g>	</g><g><g><path d="M29.89,52.37c1.62,0.68,3.8,0.71,5.52,0.43c4.63-0.73,11.1-2.43,14.56-3.04c1.33-0.24,2.36-0.38,3.21-0.17"/><path d="M40.97,36.68c0.86,0.86,1.14,1.94,1.14,3.24c0,0.71-0.1,34.7-0.1,51.08c0,3.37,0.03,5.56-0.01,6.5"/><path d="M41.02,53.42c0,1.2-0.77,2.88-1.25,4.04c-4.33,10.42-12.64,22.79-20.09,30.32"/><path d="M44.89,60.68c3.42,1.95,7.08,5.84,9.04,9.25"/>		</g><g><path d="M59.02,48.92c1.46,0.6,4.04,0.37,5.6,0.14c4.83-0.72,11.12-2.25,18.97-3.13c1.36-0.15,2.55-0.21,3.4,0"/><path d="M70.99,32.25c1,1,1.4,2.25,1.4,3.49c0,3.49,0.03,39.87,0.04,55.14c0,3.39,0,5.74,0,6.46"/><path d="M71.83,48.9c0,1.48-0.62,4.66-1.81,7.46C65.5,67,59.62,77.25,52.39,86.18"/><path d="M73.02,50.17c4.9,9.41,12.28,21.06,17.3,27.13c1.52,1.83,3.23,3.7,5,5.29"/>		</g>	</g></g></g><g style="font-size:8;fill:#808080"><text transform="matrix(1 0 0 1 43.50 11.50)">1</text><text transform="matrix(1 0 0 1 24.75 24.13)">2</text><text transform="matrix(1 0 0 1 17.50 36.50)">3</text><text transform="matrix(1 0 0 1 29.25 49.63)">4</text><text transform="matrix(1 0 0 1 31.50 37.50)">5</text><text transform="matrix(1 0 0 1 30.75 63.50)">6</text><text transform="matrix(1 0 0 1 47.50 60.50)">7</text><text transform="matrix(1 0 0 1 57.50 46.63)">8</text><text transform="matrix(1 0 0 1 62.25 33.50)">9</text><text transform="matrix(1 0 0 1 58.50 60.50)">10</text><text transform="matrix(1 0 0 1 77.50 57.50)">11</text></g></svg>